<svg width="242" height="182" viewBox="0 0 242 182" fill="none" xmlns="http://www.w3.org/2000/svg">
<path d="M239.09 98.0574C240.166 98.1589 240.897 98.2333 242 98.3416C241.574 101.266 241.249 104.074 240.673 106.822C240.585 107.242 239.34 107.655 238.623 107.668C234.501 107.75 230.372 107.709 226.223 107.709C225.445 112.508 222.9 115.459 219.069 118.125C226.385 118.816 233.276 119.046 240.03 120.251C240.017 120.515 240.01 120.785 239.997 121.049C238.183 121.246 236.369 121.476 234.548 121.631C218.886 122.992 203.231 124.576 187.542 125.571C181.2 125.97 174.77 125.097 168.388 124.731C156.821 124.068 145.253 123.324 133.686 122.66C115.73 121.625 97.7737 120.616 79.8173 119.601C62.3889 118.613 44.9537 117.645 27.5252 116.643C26.5573 116.589 25.603 116.298 24.6487 116.115C24.6622 115.811 24.6757 115.506 24.6893 115.202C32.439 114.261 40.1955 113.32 47.9723 112.379C47.2955 109.455 46.666 106.701 45.9689 103.682C37.1701 103.682 28.2562 103.682 19.1798 103.682C19.1798 87.5191 19.1798 71.6 19.1798 56.087C17.4607 55.268 16.0258 54.5911 14.4826 53.8534C13.6095 54.361 12.4792 55.4372 11.2 55.6402C9.96816 55.8365 8.59418 55.1326 6.86149 54.7265C6.80058 54.7807 6.33357 55.268 5.79887 55.6538C4.06618 56.8992 1.78525 56.4863 0.654936 54.7604C-0.563363 52.8991 -0.0625096 51.1055 1.99506 49.9684C7.32174 47.0174 12.6281 44.0393 17.9819 41.1425C19.1189 40.5266 19.6063 39.7956 19.5792 38.5028C19.5183 35.87 19.5589 33.2371 19.6063 30.5974C19.6672 27.2674 19.6875 27.2809 23.004 26.6041C37.7386 23.6261 52.453 20.5532 67.2011 17.6699C91.1746 12.9795 115.182 8.41761 139.169 3.76777C145.22 2.59685 151.237 1.2635 157.281 0.0722698C158.113 -0.0901701 159.054 0.0451965 159.9 0.241478C177.166 4.26187 194.419 8.34993 211.705 12.3162C213.918 12.8238 214.656 13.7443 214.46 15.9914C214.128 19.8087 213.79 23.6734 213.999 27.484C214.25 32.1135 214.967 36.7228 215.644 41.3185C216.592 47.7145 217.627 54.0971 218.791 60.4525C218.974 61.461 219.807 62.6387 220.687 63.1802C226.061 66.4899 231.516 69.6777 236.998 72.8115C238.602 73.732 239.279 74.8082 239.232 76.7371C239.069 83.2076 239.123 89.6849 239.096 96.1555C239.09 96.7579 239.09 97.3467 239.09 98.0574ZM179.989 11.0031C172.929 9.30427 165.87 7.60542 158.804 5.8998C158.743 6.13669 158.689 6.37358 158.628 6.6037C159.968 6.93535 161.294 7.31437 162.648 7.58511C168.442 8.72219 174.235 9.82543 180.036 10.9422C180.273 11.0979 180.489 11.3348 180.747 11.3957C188.625 13.2231 196.503 15.0438 204.388 16.8374C207.177 17.4736 209.986 18.0354 212.781 18.6243C212.835 18.4347 212.896 18.252 212.95 18.0625C212.294 17.8459 211.658 17.5752 210.988 17.433C205.282 16.1674 199.576 14.8814 193.857 13.6901C189.248 12.7358 184.611 11.8965 179.989 11.0031ZM28.378 48.2628C29.1902 48.1748 30.0092 48.0191 30.8214 48.0056C34.4086 47.9243 37.6439 47.146 40.6964 44.9463C45.9892 41.129 51.5731 37.7177 57.0284 34.1305C59.3905 32.5738 61.7459 31.0103 64.1012 29.4468C64.0268 29.2776 63.9456 29.1152 63.8711 28.946C62.0707 29.5551 60.1418 29.9206 58.5038 30.8208C48.3513 36.425 39.5931 44.4319 28.3983 48.2763C26.8687 48.2019 25.3323 48.1274 23.0852 48.0123C31.6674 42.6721 39.7082 37.6703 47.749 32.6685C46.1246 32.655 44.4596 32.7362 43.1871 33.4875C34.4018 38.6788 25.691 44.0055 16.8177 49.3728C20.7772 48.9937 24.581 48.6283 28.378 48.2628ZM139.148 103.871C140.942 104.596 141.138 103.607 141.524 102.524C142.614 99.4313 143.433 96.1216 145.125 93.3737C148.252 88.3177 152.922 84.9471 159.108 85.3464C165.809 85.7864 169.931 90.1452 172.395 96.0878C173.247 98.1454 173.552 100.433 174.215 102.579C174.405 103.188 174.892 104.081 175.352 104.156C177.247 104.447 179.176 104.474 181.16 104.602C181.254 103.452 181.329 102.633 181.39 101.814C181.545 99.7359 182.506 98.68 184.74 98.9779C185.83 99.12 186.953 99.0049 188.171 99.0049C188.253 98.3213 188.368 97.7393 188.388 97.1504C188.618 90.6799 188.699 84.2026 189.119 77.7456C189.275 75.3293 188.375 74.1246 186.452 72.9333C180.503 69.2581 174.669 65.3934 168.807 61.5761C168.191 61.1767 167.677 60.6353 167.115 60.1615C167.237 60.0058 167.359 59.8501 167.481 59.6945C168.178 60.0667 168.916 60.3916 169.579 60.818C175.569 64.7166 181.511 68.6828 187.549 72.5069C188.686 73.2244 190.161 73.7388 191.495 73.7523C205.349 73.9283 219.204 73.9757 233.052 74.0772C233.77 74.0839 234.494 74.2261 235.211 74.3073C234.663 74.7878 234.156 74.9029 233.648 74.9029C219.868 74.8826 206.094 74.8826 192.314 74.7675C190.513 74.754 189.985 75.2887 189.931 77.0146C189.715 83.6341 189.369 90.2535 189.092 96.8661C189.065 97.5768 189.166 98.2875 189.2 98.8966C192.571 98.8966 195.657 98.9643 198.73 98.8289C199.258 98.8086 200.131 97.9829 200.206 97.4414C200.896 92.5276 201.492 87.6003 202.013 82.6662C202.324 79.7287 202.236 79.7152 205.282 79.7152C211.834 79.7152 218.379 79.7084 224.93 79.722C225.506 79.722 226.074 79.81 226.792 79.8709C227.319 86.0368 227.834 92.0674 228.355 98.1115C231.658 98.1115 234.697 98.1115 237.878 98.1115C237.878 96.2231 237.878 94.5108 237.871 92.8051C235.502 94.7883 233.377 95.147 231.942 93.8204C230.582 92.5615 230.365 89.2179 231.665 87.7695C232.179 87.1942 232.998 86.5173 233.661 86.5377C235.103 86.5783 236.538 87.0318 238.223 87.3702C238.223 84.0199 238.176 80.3514 238.25 76.683C238.277 75.397 237.851 74.6796 236.714 74.0433C229.58 70.05 223.015 65.0685 215.319 61.813C216.131 61.7453 216.903 61.6776 217.925 61.5896C217.208 57.2376 216.538 53.0277 215.807 48.8245C214.29 40.1069 211.935 31.4706 212.984 22.4957C213.282 19.9576 212.267 19.1725 209.959 18.6852C196.145 15.7613 182.351 12.6952 168.564 9.66299C165.288 8.93878 162.025 8.15365 158.648 7.36853C158.526 8.07243 158.371 8.5056 158.398 8.93201C158.662 13.6495 158.655 18.4077 159.291 23.071C160.712 33.501 162.601 43.8633 163.961 54.3001C164.313 57.0277 165.613 57.3594 167.711 57.5354C182.019 58.7537 196.327 60.0126 210.636 61.2715C211.414 61.3392 212.186 61.5761 212.957 61.7317C212.916 61.9145 212.869 62.104 212.828 62.2867C197.302 60.9331 181.775 59.5726 166.303 58.2257C166.249 58.8958 166.222 59.2275 166.195 59.5726C164.009 58.7875 163.555 57.109 163.257 55.2409C162.127 48.0394 160.943 40.8447 159.758 33.6499C158.655 26.9155 156.848 20.2622 157.409 13.3247C157.565 11.3957 157.437 9.44641 157.437 7.19255C153.971 7.90323 150.831 8.5936 147.677 9.18921C135.412 11.4837 123.148 13.7646 110.87 15.9914C109.287 16.2757 108.495 16.8103 108.589 18.5769C108.732 21.1285 108.65 23.6937 108.617 26.2522C108.339 51.1731 108.048 76.0941 107.757 101.015C107.75 101.875 107.757 102.741 107.757 103.79C110.688 103.79 113.219 103.79 115.852 103.79C115.913 103.31 116.028 102.795 116.028 102.281C116.035 76.8319 116.055 51.383 115.974 25.934C115.967 24.3773 116.515 23.9306 117.774 23.7411C119.561 23.4772 121.341 23.2132 123.135 22.9763C129.815 22.0829 136.495 21.1962 143.365 20.2757C143.419 21.1759 143.494 21.9813 143.501 22.7935C143.643 38.6044 143.622 54.422 144.008 70.226C144.15 76.0197 143.23 81.59 142.228 87.201C141.22 92.7239 140.184 98.2536 139.148 103.871ZM20.4591 39.6805C21.7789 38.9631 22.4963 38.557 23.2205 38.1847C25.6774 36.9326 28.0193 35.0848 30.6319 34.5569C46.9841 31.2269 63.3906 28.1744 79.7835 25.0812C86.633 23.7885 93.5096 22.6243 100.373 21.406C100.461 21.5482 100.542 21.6903 100.63 21.8324C91.5807 29.3047 82.5382 36.7701 73.4889 44.2424C73.6107 44.398 73.7393 44.5537 73.8612 44.7094C76.9002 42.3337 79.9324 39.9648 83.0661 37.5147C88.8327 44.7229 94.4775 51.762 100.088 58.8146C100.393 59.1936 100.61 59.7622 100.61 60.2427C100.61 64.0803 100.542 67.918 100.522 71.7556C100.515 73.0078 99.8786 73.441 98.7009 73.5019C91.6416 73.8877 84.5822 74.3073 77.5229 74.7337C68.5819 75.2752 59.6477 75.8505 50.7067 76.3919C43.2142 76.8454 35.7216 77.2583 27.911 77.705C27.911 76.886 27.8975 76.1618 27.911 75.4444C27.9651 72.5814 28.0531 69.7251 28.0599 66.8621C28.0599 66.2259 27.9854 65.434 27.62 64.9738C25.2104 61.9009 22.7129 58.889 20.1545 55.7553C20.1545 71.4443 20.1545 87.025 20.1545 102.518C27.7079 102.518 35.0651 102.518 42.5712 102.518C42.7269 101.313 42.8148 100.271 42.9908 99.2418C43.7624 94.7883 45.2515 90.6393 48.4867 87.3499C52.7846 82.9775 58.3482 82.9166 62.6596 87.2348C66.4905 91.0724 67.8306 95.966 68.0472 101.205C68.1216 103.046 68.7714 103.574 70.5988 103.567C81.9696 103.56 93.3337 103.682 104.704 103.75C105.354 103.756 105.997 103.662 106.911 103.594C107.236 74.5713 107.554 45.7111 107.879 16.6208C106.383 16.8916 105.212 17.0878 104.048 17.3112C76.7986 22.4551 49.5493 27.5923 22.3136 32.7701C21.7789 32.8716 20.9599 33.386 20.899 33.7989C20.6418 35.5518 20.6147 37.3387 20.4591 39.6805ZM187.718 107.959C187.887 106.565 188.056 105.157 188.232 103.75C188.368 103.763 188.51 103.77 188.645 103.783C188.645 105.164 188.645 106.545 188.645 108.217C205.871 107.736 222.907 107.262 240.085 106.789C240.423 104.176 240.728 101.76 241.073 99.0929C239.739 99.0929 238.697 99.0862 237.655 99.0929C219.658 99.2486 201.668 100.088 183.664 99.7156C183.217 99.7088 182.385 100.203 182.364 100.507C182.215 102.883 182.229 105.272 182.188 107.662C183.874 107.844 185.559 108.027 187.244 108.203C187.305 108.203 187.373 108.135 187.718 107.959ZM21.1088 30.6854C66.5378 22.1506 111.886 13.6292 157.247 5.10791C157.247 3.82869 157.247 2.73222 157.247 1.54776C156.665 1.60191 156.218 1.60192 155.785 1.68314C144.868 3.80162 133.937 5.87272 123.04 8.07243C102.938 12.1267 82.8563 16.3095 62.7476 20.3299C49.414 22.9966 36.0465 25.4941 22.6858 28.0119C21.1494 28.2962 20.5471 28.8986 21.1088 30.6854ZM47.0451 53.0006C45.7523 52.5336 44.6626 52.1342 43.5797 51.7485C40.5678 54.1647 39.1735 54.2392 36.9129 52.4997C34.8418 53.4338 33.0211 54.2527 30.8958 55.2071C30.8958 61.3866 30.9094 67.9924 30.8891 74.5916C30.8823 75.9723 31.7148 75.9182 32.703 75.8369C36.7504 75.5188 40.7911 75.1263 44.8454 75.0112C46.5577 74.9638 46.842 74.2328 46.8556 72.8386C46.8826 69.6845 47.0044 66.5305 47.0315 63.3697C47.0721 59.9314 47.0451 56.4863 47.0451 53.0006ZM114.119 114.437C125.842 114.856 137.565 115.276 148.956 115.682C148.069 112.474 147.291 109.455 146.357 106.497C146.208 106.017 145.362 105.496 144.8 105.448C142.255 105.245 139.697 105.144 137.138 105.124C131.737 105.083 126.343 105.11 120.854 105.11C120.333 109.509 117.754 112.257 114.119 114.437ZM170.154 102.978C170.35 100.183 169.416 96.7511 167.237 93.7256C163.115 87.9929 156.421 87.6274 151.67 92.8728C146.255 98.856 145.951 109.083 151.007 115.384C154.33 119.527 159.501 120.332 163.833 117.252C168.32 114.058 169.883 109.408 170.154 102.978ZM116.901 24.6887C116.901 51.1122 116.901 77.4613 116.901 104.169C123.764 104.169 130.512 104.21 137.26 104.095C137.795 104.088 138.648 103.093 138.769 102.45C139.602 98.1047 140.333 93.7324 140.976 89.3533C141.815 83.6544 143.149 77.9419 143.209 72.2226C143.379 56.0531 143.006 39.8836 142.844 23.7073C142.837 22.9086 142.77 22.1032 142.715 20.939C134.011 22.2047 125.571 23.4298 116.901 24.6887ZM213.485 14.1639C195.075 9.89988 176.909 5.69674 158.75 1.49361C157.998 4.56643 158.134 4.93193 160.719 5.50047C166.872 6.85414 173.058 8.0792 179.21 9.43287C190.398 11.9033 201.58 14.4279 212.971 16.9728C213.147 16.0185 213.275 15.3145 213.485 14.1639ZM92.1018 104.805C87.655 104.805 82.3825 104.805 77.4416 104.805C76.6159 107.567 75.8646 110.105 75.0253 112.907C82.836 113.191 90.5992 113.469 97.8549 113.726C96.1154 111.032 94.3354 108.271 92.1018 104.805ZM47.106 102.964C47.1601 107.113 47.952 111.053 50.7135 114.322C53.5088 117.631 57.8541 117.719 60.7983 114.633C66.1453 109.029 66.5785 97.3332 61.6647 91.377C58.4294 87.4582 53.5968 87.5935 50.6052 91.7561C48.2024 95.0793 47.0383 98.8357 47.106 102.964ZM195.271 117.334C194.073 114.789 192.794 112.075 191.414 109.157C189.065 109.157 186.236 109.157 183.962 109.157C182.148 112.034 180.557 114.559 178.811 117.334C184.503 117.334 190.114 117.334 195.271 117.334ZM91.4927 24.533C91.3911 24.2893 91.2829 24.0389 91.1813 23.7953C89.5772 24.4789 87.7904 24.912 86.3894 25.8934C81.8343 29.0813 77.4349 32.4926 72.9542 35.782C68.609 38.9766 64.2434 42.1307 59.9523 45.2509C62.8694 45.0681 65.9355 44.8786 69.0015 44.6891C69.0015 44.5808 69.0083 44.4793 69.0083 44.371C68.3653 44.2424 67.7223 44.107 66.8018 43.9243C75.2149 37.3184 83.3504 30.9223 91.4927 24.533ZM205.6 82.8354C205.586 83.1061 205.573 83.3701 205.566 83.6408C211.894 83.6408 218.223 83.6408 224.619 83.6408C224.619 84.9133 224.619 85.7187 224.619 86.849C219.475 86.849 214.426 86.849 209.377 86.849C213.668 87.3634 217.945 87.3702 222.23 87.3634C225.16 87.3566 225.35 87.58 224.802 91.1131C218.622 91.1131 212.355 91.1131 206.087 91.1131C211.576 91.6139 217.045 91.6207 222.514 91.6139C225.404 91.6139 225.546 91.7628 225.262 94.971C220.592 94.971 215.888 94.971 211.177 94.971C211.177 95.147 211.177 95.323 211.177 95.4989C215.942 95.4989 220.707 95.4989 225.465 95.4989C225.573 95.966 225.573 96.2976 225.729 96.5345C226.115 97.1369 226.561 97.6919 226.981 98.2672C227.137 97.631 227.489 96.9812 227.428 96.3653C226.974 91.5801 226.467 86.8016 225.898 82.03C225.83 81.4682 225.262 80.9606 224.923 80.4326C224.734 80.5409 224.544 80.6424 224.348 80.7507C224.348 81.3802 224.348 82.0164 224.348 82.8489C218.033 82.8354 211.813 82.8354 205.6 82.8354ZM76.8257 27.193C76.8122 27.017 76.7919 26.8342 76.7783 26.6583C75.7157 27.0847 74.5312 27.3351 73.5972 27.9645C66.0031 33.0814 58.4362 38.2456 50.8962 43.4437C48.3987 45.1696 45.9283 46.8549 42.6998 46.8008C46.375 46.4895 50.057 46.1781 53.7322 45.8668C53.7322 45.7653 53.7254 45.6637 53.7254 45.5622C53.3396 45.4404 52.9606 45.3253 52.2837 45.1087C60.602 39.0443 68.7105 33.1152 76.8257 27.193ZM157.247 6.50218C157.206 6.27206 157.159 6.04194 157.118 5.81858C127.257 11.4701 97.4014 17.1217 67.5396 22.7732C67.5734 22.956 67.6072 23.1387 67.6411 23.3215C97.5097 17.7105 127.378 12.1064 157.247 6.50218ZM9.12211 49.2712C16.6959 44.6349 23.8906 40.2288 31.0853 35.8226C30.9297 35.5654 30.7808 35.3014 30.6251 35.0442C21.6368 40.1475 12.6484 45.2509 3.66008 50.3542C3.71422 50.4692 3.76836 50.5843 3.82251 50.7061C6.27941 50.3745 8.72955 50.0496 11.1865 49.718C11.1797 49.657 11.1729 49.5961 11.1661 49.5352C10.6518 49.4608 10.1441 49.3998 9.12211 49.2712ZM27.6606 63.478C27.8501 63.4103 28.0328 63.3494 28.2223 63.2817C28.2223 60.1547 28.2223 57.0278 28.2223 53.7113C25.9143 55.0514 23.6266 55.8501 21.3051 53.3661C21.0547 54.0768 20.811 54.8619 21.0953 55.2409C23.2273 58.0295 25.4609 60.7436 27.6606 63.478ZM237.438 89.2653C237.086 88.866 236.443 87.6274 235.441 87.1671C234.338 86.6595 232.795 88.7915 232.795 90.646C232.795 92.0674 233.133 93.4008 234.792 93.658C236.2 93.8881 237.391 92.2163 237.438 89.2653ZM35.7149 48.6892C33.9889 48.8313 32.4255 48.9058 30.8823 49.1223C30.4627 49.1833 29.7249 49.7653 29.7723 49.9413C30.0295 50.9363 30.2731 52.0733 30.9364 52.7637C31.4034 53.251 32.6217 53.4202 33.346 53.1969C35.3358 52.5945 36.1548 51.0987 35.7149 48.6892ZM50.7135 47.2881C49.1838 47.41 47.7625 47.3829 46.4156 47.6807C45.6575 47.8499 44.5679 48.4252 44.419 49.0208C44.0602 50.4489 44.9063 51.4236 46.4088 51.7078C48.7371 52.1478 50.3209 50.6858 50.7135 47.2881ZM58.9709 46.4353C59.6409 49.3728 60.6968 50.388 62.4159 50.0158C64.108 49.6503 65.2045 47.8634 64.8593 45.7923C62.9574 46.0021 61.042 46.212 58.9709 46.4353ZM21.7383 50.828C21.5623 50.6249 21.3863 50.4219 21.2103 50.2188C19.8093 50.2865 18.3947 50.2662 17.014 50.4557C16.4522 50.5369 15.5723 51.0242 15.5114 51.4236C15.4234 52.0327 15.7415 53.0615 16.2086 53.3187C17.102 53.806 18.5504 54.4016 19.1798 54.0091C20.2695 53.3255 20.9125 51.9244 21.7383 50.828ZM6.94948 51.4574C5.43338 51.5522 4.1677 51.6199 2.90879 51.7011C1.15579 51.8161 1.06104 52.8449 1.92739 53.9414C2.40794 54.5438 3.45703 55.1935 4.10679 55.0717C5.77856 54.7671 6.7329 53.5353 6.94948 51.4574ZM52.4259 51.1799C54.0097 52.7637 56.453 52.3982 57.5157 50.3203C55.9319 50.5843 54.0909 50.8956 52.4259 51.1799Z" fill="#2C6148"/>
<path d="M139.148 103.871C140.184 98.2537 141.22 92.7239 142.215 87.1942C143.223 81.5833 144.137 76.0129 143.995 70.2192C143.609 54.4152 143.636 38.5976 143.487 22.7868C143.48 21.9746 143.399 21.1692 143.352 20.269C136.482 21.1827 129.801 22.0694 123.121 22.9695C121.334 23.2064 119.547 23.4704 117.761 23.7344C116.502 23.9171 115.96 24.3706 115.96 25.9273C116.048 51.3762 116.021 76.8251 116.014 102.274C116.014 102.788 115.899 103.303 115.838 103.783C113.205 103.783 110.674 103.783 107.743 103.783C107.743 102.734 107.737 101.875 107.743 101.008C108.028 76.0874 108.319 51.1664 108.603 26.2454C108.63 23.687 108.711 21.1218 108.576 18.5701C108.481 16.8036 109.273 16.2689 110.857 15.9846C123.135 13.7578 135.399 11.4769 147.663 9.18245C150.817 8.5936 153.958 7.89647 157.423 7.18579C157.423 9.43964 157.552 11.3957 157.396 13.3179C156.834 20.2554 158.641 26.9019 159.744 33.6432C160.922 40.8379 162.113 48.0327 163.244 55.2342C163.535 57.109 163.995 58.7808 166.181 59.5659C166.208 59.2207 166.235 58.8958 166.289 58.219C181.762 59.5727 197.288 60.9263 212.815 62.28C212.856 62.0972 212.903 61.9077 212.944 61.725C212.172 61.5693 211.4 61.3392 210.622 61.2647C196.314 60.0058 182.006 58.7469 167.697 57.5286C165.599 57.3526 164.306 57.021 163.948 54.2934C162.594 43.8566 160.699 33.4943 159.277 23.0643C158.641 18.3941 158.648 13.6428 158.384 8.92526C158.364 8.49885 158.519 8.06568 158.634 7.36177C162.012 8.1469 165.274 8.93879 168.55 9.65624C182.344 12.6884 196.131 15.7545 209.945 18.6784C212.253 19.1657 213.268 19.9441 212.971 22.489C211.922 31.457 214.277 40.1002 215.793 48.8178C216.524 53.0141 217.187 57.2241 217.911 61.5829C216.889 61.6708 216.118 61.7385 215.306 61.8062C223.001 65.0618 229.567 70.0433 236.7 74.0366C237.837 74.6728 238.264 75.3902 238.237 76.6762C238.162 80.3447 238.21 84.0131 238.21 87.3634C236.524 87.025 235.09 86.5715 233.648 86.5309C232.985 86.5106 232.166 87.1942 231.651 87.7628C230.345 89.2112 230.562 92.5547 231.929 93.8136C233.364 95.147 235.489 94.7815 237.865 92.7984C237.865 94.5108 237.865 96.2164 237.865 98.1048C234.69 98.1048 231.644 98.1048 228.342 98.1048C227.827 92.0606 227.306 86.0301 226.778 79.8641C226.067 79.8032 225.492 79.7152 224.917 79.7152C218.365 79.7084 211.82 79.7084 205.268 79.7084C202.223 79.7084 202.304 79.7152 201.999 82.6594C201.478 87.5935 200.882 92.5209 200.192 97.4347C200.118 97.9762 199.244 98.7951 198.717 98.8222C195.644 98.9576 192.557 98.8899 189.187 98.8899C189.153 98.2807 189.051 97.57 189.078 96.8594C189.356 90.2399 189.701 83.6273 189.918 77.0079C189.972 75.2819 190.5 74.7472 192.3 74.7608C206.08 74.8758 219.854 74.8758 233.634 74.8962C234.142 74.8962 234.65 74.7811 235.198 74.3005C234.48 74.2193 233.756 74.0772 233.039 74.0704C219.184 73.9689 205.329 73.9215 191.481 73.7455C190.155 73.732 188.672 73.2176 187.535 72.5002C181.498 68.6761 175.549 64.7098 169.565 60.8113C168.902 60.3781 168.171 60.06 167.467 59.6877C167.345 59.8434 167.224 59.9991 167.102 60.1547C167.663 60.6285 168.185 61.17 168.794 61.5693C174.655 65.3799 180.489 69.2446 186.439 72.9266C188.368 74.1178 189.268 75.3225 189.105 77.7388C188.686 84.1958 188.605 90.6731 188.375 97.1436C188.354 97.7325 188.239 98.3146 188.158 98.9982C186.94 98.9982 185.816 99.12 184.726 98.9711C182.493 98.6733 181.532 99.7292 181.376 101.807C181.315 102.626 181.241 103.438 181.146 104.596C179.163 104.467 177.234 104.44 175.339 104.149C174.878 104.074 174.384 103.181 174.202 102.572C173.538 100.42 173.234 98.1386 172.381 96.081C169.917 90.1384 165.795 85.7796 159.095 85.3397C152.915 84.9336 148.238 88.3042 145.111 93.3669C143.413 96.1149 142.6 99.4178 141.511 102.518C141.138 103.607 140.949 104.589 139.148 103.871ZM192.334 57.6911C192.131 56.3983 192.036 55.7282 191.914 55.0649C190.297 46.3473 188.666 37.6365 187.061 28.9189C186.784 27.4096 186.067 26.5635 184.469 26.286C177.958 25.1557 171.46 23.9036 164.956 22.7394C159.893 21.8257 159.751 21.8731 160.57 26.9696C162.052 36.1678 163.731 45.3321 165.281 54.5167C165.498 55.8027 165.971 56.5472 167.379 56.669C175.095 57.3323 182.797 58.0701 190.52 58.6792C191.15 58.7266 191.847 57.9753 192.334 57.6911ZM214.365 60.8045C216.226 60.8992 216.497 60.6082 216.003 57.3391C215.766 55.7756 215.468 54.2257 215.204 52.669C214.135 46.4421 213.12 40.2085 211.942 34.0087C211.759 33.0543 210.987 31.633 210.257 31.4638C204.097 30.0763 197.898 28.8647 191.684 27.748C189.701 27.3893 189.078 28.215 189.444 30.2252C191.048 39.024 192.72 47.8025 194.27 56.6081C194.588 58.4356 195.529 59.2139 197.248 59.3628C202.493 59.796 207.739 60.2427 214.365 60.8045ZM146.567 39.8294C146.655 39.8294 146.749 39.8294 146.837 39.8294C146.837 45.014 146.831 50.2053 146.844 55.3898C146.851 57.1428 147.629 58.0227 149.511 57.84C152.056 57.5895 154.607 57.3526 157.159 57.2985C159.25 57.2511 159.67 56.2832 159.399 54.4084C158.066 45.1832 156.8 35.9512 155.514 26.726C154.736 21.0947 154.743 21.1353 149.118 21.8257C147.318 22.049 146.492 22.7529 146.533 24.709C146.641 29.7446 146.567 34.787 146.567 39.8294ZM194.452 94.6529C196.794 94.768 198.283 93.2045 198.358 90.5378C198.425 88.0673 197.065 86.4835 194.75 86.3482C192.361 86.2128 190.933 87.5665 190.771 90.1046C190.601 92.8661 191.948 94.5311 194.452 94.6529ZM162.783 8.93202C162.127 9.79837 161.403 10.3331 161.47 10.7324C161.87 13.1013 164.171 12.1876 165.579 12.8441C165.782 12.9389 166.452 12.0319 166.905 11.592C165.64 10.7798 164.374 9.96081 162.783 8.93202ZM205.992 18.4483C205.41 19.3688 204.747 19.9441 204.828 20.3637C205.295 22.6717 207.624 21.7242 209.011 22.4822C209.133 22.5499 209.823 21.5888 210.243 21.1015C208.95 20.2893 207.651 19.4771 205.992 18.4483ZM234.007 79.2753C233.005 80.6425 232.017 81.4005 232.078 82.0638C232.145 82.8422 233.12 83.5461 233.702 84.2838C234.325 83.6814 235.394 83.1197 235.455 82.4631C235.536 81.678 234.758 80.8049 234.007 79.2753ZM172.733 76.5815C173.545 76.5138 174.323 76.5747 174.994 76.331C175.285 76.2227 175.576 75.1669 175.474 75.0924C174.939 74.7134 174.263 74.2599 173.66 74.3005C172.57 74.3682 171.508 74.7675 170.432 75.0315C170.567 75.4985 170.574 76.243 170.858 76.3649C171.42 76.6153 172.137 76.5341 172.733 76.5815ZM193.41 79.9453C193.708 81.2245 193.904 82.0909 194.107 82.964C194.466 82.2601 194.818 81.5697 195.271 80.6898C194.696 80.4529 194.141 80.2364 193.41 79.9453Z" fill="#EDEDED"/>
<path d="M20.4591 39.6806C20.6147 37.3387 20.6418 35.5519 20.9058 33.8056C20.9667 33.3928 21.7789 32.8784 22.3203 32.7769C49.5629 27.5991 76.8122 22.4552 104.055 17.318C105.226 17.0946 106.397 16.8984 107.886 16.6276C107.561 45.7179 107.243 74.5848 106.918 103.601C106.004 103.668 105.354 103.756 104.711 103.756C93.3404 103.689 81.9764 103.567 70.6056 103.574C68.7714 103.574 68.1284 103.046 68.0539 101.211C67.8373 95.9727 66.4972 91.0725 62.6664 87.2416C58.3549 82.9234 52.7914 82.9843 48.4935 87.3567C45.2582 90.6461 43.7692 94.795 42.9976 99.2486C42.8216 100.277 42.7269 101.313 42.578 102.524C35.0651 102.524 27.7147 102.524 20.1613 102.524C20.1613 87.0318 20.1613 71.4511 20.1613 55.7621C22.7197 58.9026 25.2172 61.9077 27.6267 64.9806C27.9922 65.4476 28.0667 66.2327 28.0667 66.8689C28.0599 69.7319 27.9719 72.5882 27.9178 75.4512C27.9042 76.1686 27.9178 76.8928 27.9178 77.7118C35.7352 77.2651 43.2277 76.8454 50.7135 76.3987C59.6544 75.864 68.5886 75.282 77.5296 74.7405C84.589 74.3141 91.6483 73.8944 98.7077 73.5086C99.8854 73.441 100.522 73.0146 100.528 71.7624C100.549 67.9248 100.623 64.0871 100.616 60.2495C100.616 59.769 100.4 59.2004 100.095 58.8214C94.4843 51.762 88.8462 44.7297 83.0729 37.5215C79.9391 39.9716 76.9002 42.3473 73.8679 44.7162C73.7461 44.5605 73.6175 44.4049 73.4957 44.2492C82.5449 36.7769 91.5874 29.3115 100.637 21.8392C100.549 21.6971 100.467 21.555 100.379 21.4128C93.5164 22.6311 86.6398 23.7953 79.7902 25.088C63.3906 28.1812 46.9841 31.2404 30.6386 34.5637C28.0328 35.0916 25.691 36.9461 23.2273 38.1915C22.4963 38.557 21.7856 38.9631 20.4591 39.6806ZM100.623 57.9483C100.874 45.8871 101.11 34.3336 101.361 22.1844C95.2288 27.3419 89.5772 32.0933 83.7159 37.0274C89.2794 43.904 94.7415 50.6588 100.623 57.9483Z" fill="#EDEDED"/>
<path d="M187.718 107.959C187.38 108.135 187.305 108.203 187.244 108.196C185.559 108.02 183.874 107.838 182.188 107.655C182.229 105.272 182.222 102.883 182.364 100.501C182.385 100.203 183.217 99.7021 183.664 99.7088C201.668 100.088 219.658 99.2418 237.655 99.0861C238.697 99.0794 239.733 99.0861 241.073 99.0861C240.728 101.753 240.423 104.169 240.085 106.782C222.907 107.262 205.877 107.729 188.645 108.21C188.645 106.538 188.645 105.157 188.645 103.777C188.51 103.763 188.368 103.756 188.232 103.743C188.056 105.157 187.887 106.565 187.718 107.959Z" fill="#377F5F"/>
<path d="M21.1088 30.6854C20.547 28.8986 21.1562 28.2962 22.6858 28.0052C36.0465 25.4874 49.414 22.9898 62.7476 20.3231C82.8563 16.3027 102.938 12.1199 123.04 8.06568C133.944 5.86598 144.868 3.79487 155.785 1.67638C156.218 1.59516 156.665 1.59516 157.247 1.54102C157.247 2.7187 157.247 3.82194 157.247 5.10115C111.886 13.6292 66.5378 22.1506 21.1088 30.6854Z" fill="#377F5F"/>
<path d="M47.0451 53.0006C47.0451 56.4795 47.0721 59.9314 47.0383 63.3765C47.0112 66.5305 46.8894 69.6846 46.8623 72.8454C46.8488 74.2329 46.5645 74.9706 44.8521 75.018C40.7979 75.1263 36.7572 75.5256 32.7097 75.8437C31.7216 75.9182 30.8891 75.9791 30.8958 74.5984C30.9161 67.9925 30.9026 61.3933 30.9026 55.2139C33.0279 54.2595 34.8485 53.4406 36.9196 52.5065C39.1803 54.246 40.5745 54.1715 43.5864 51.7552C44.6626 52.141 45.7523 52.5336 47.0451 53.0006Z" fill="#377F5F"/>
<path d="M114.119 114.437C117.754 112.257 120.333 109.509 120.854 105.103C126.343 105.103 131.744 105.069 137.138 105.117C139.69 105.137 142.248 105.239 144.8 105.442C145.362 105.489 146.208 106.01 146.357 106.491C147.291 109.455 148.069 112.467 148.956 115.675C137.558 115.276 125.842 114.856 114.119 114.437Z" fill="#377F5F"/>
<path d="M170.154 102.978C169.883 109.408 168.32 114.058 163.839 117.246C159.501 120.332 154.337 119.527 151.013 115.378C145.957 109.076 146.255 98.8493 151.677 92.8661C156.421 87.6206 163.122 87.9861 167.244 93.7189C169.41 96.7511 170.344 100.183 170.154 102.978ZM149.687 105.442C150.296 106.917 151.013 109.827 152.563 112.196C155.108 116.088 159.663 116.576 163.433 113.875C168.801 110.017 170.12 100.697 166.032 95.4245C162.519 90.8897 157.416 90.6528 153.443 94.8221C150.986 97.4009 149.89 100.521 149.687 105.442Z" fill="#377F5F"/>
<path d="M116.901 24.6887C125.571 23.4298 134.018 22.2047 142.722 20.939C142.776 22.1032 142.844 22.9018 142.851 23.7073C143.013 39.8768 143.385 56.0531 143.216 72.2226C143.155 77.9419 141.822 83.6544 140.983 89.3533C140.34 93.7324 139.602 98.1047 138.776 102.45C138.654 103.093 137.795 104.088 137.267 104.095C130.519 104.21 123.771 104.169 116.908 104.169C116.901 77.4613 116.901 51.1122 116.901 24.6887ZM117.388 102.714C123.866 102.714 129.876 102.694 135.879 102.728C137.125 102.734 137.781 102.362 138.011 101.015C138.614 97.4617 139.419 93.9422 140.042 90.3888C140.922 85.3735 142.127 80.365 142.451 75.3022C142.851 69.0889 142.485 62.8214 142.445 56.5743C142.377 46.1984 142.303 35.8158 142.221 25.44C142.194 22.3807 141.937 22.049 139.582 22.3874C132.739 23.3689 125.896 24.3706 119.074 25.4873C118.485 25.5821 117.659 26.5297 117.598 27.1456C117.361 29.4604 117.341 31.8022 117.341 34.1305C117.341 49.4743 117.375 64.8249 117.388 80.1687C117.395 87.4514 117.388 94.7409 117.388 102.714Z" fill="#377F5F"/>
<path d="M213.485 14.164C213.275 15.3146 213.147 16.0185 212.971 16.9728C201.58 14.4279 190.398 11.9033 179.21 9.43291C173.058 8.07924 166.878 6.84741 160.719 5.50051C158.134 4.93197 157.991 4.56647 158.75 1.49365C176.916 5.69678 195.082 9.90669 213.485 14.164Z" fill="#377F5F"/>
<path d="M92.1018 104.805C94.3421 108.278 96.1154 111.032 97.8549 113.733C90.5992 113.469 82.836 113.191 75.0253 112.914C75.8646 110.112 76.6159 107.574 77.4416 104.812C82.3825 104.805 87.655 104.805 92.1018 104.805Z" fill="#377F5F"/>
<path d="M47.106 102.964C47.0383 98.8357 48.2024 95.0793 50.6052 91.7493C53.5968 87.5868 58.4294 87.4582 61.6646 91.3703C66.5852 97.3264 66.1453 109.029 60.7983 114.626C57.8541 117.713 53.5088 117.625 50.7135 114.315C47.952 111.053 47.1601 107.113 47.106 102.964ZM63.817 101.956C63.3432 100.352 62.9236 97.7934 61.8474 95.5396C59.8304 91.3229 55.7153 90.5987 52.6831 93.6309C48.2769 98.0438 48.2701 107.838 52.6695 112.23C54.9369 114.491 57.4344 114.667 59.8778 112.603C62.8829 110.071 63.4312 106.518 63.817 101.956Z" fill="#377F5F"/>
<path d="M195.271 117.334C190.114 117.334 184.503 117.334 178.811 117.334C180.564 114.559 182.154 112.027 183.962 109.157C186.236 109.157 189.065 109.157 191.414 109.157C192.794 112.075 194.073 114.789 195.271 117.334Z" fill="#377F5F"/>
<path d="M91.4927 24.533C83.3572 30.9223 75.2216 37.3184 66.8018 43.931C67.7223 44.1205 68.3653 44.2491 69.0083 44.3777C69.0083 44.486 69.0015 44.5875 69.0015 44.6958C65.9355 44.8853 62.8694 45.0749 59.9523 45.2576C64.2434 42.1374 68.6157 38.9766 72.9542 35.7887C77.4349 32.4925 81.8343 29.0881 86.3894 25.9002C87.7904 24.9188 89.5705 24.4856 91.1813 23.802C91.2829 24.0389 91.3844 24.2893 91.4927 24.533Z" fill="#377F5F"/>
<path d="M205.6 82.8353C211.813 82.8353 218.033 82.8353 224.348 82.8353C224.348 82.0028 224.348 81.3666 224.348 80.7372C224.538 80.6289 224.727 80.5274 224.923 80.4191C225.262 80.9538 225.83 81.4546 225.898 82.0164C226.473 86.7881 226.974 91.5665 227.428 96.3517C227.489 96.9676 227.137 97.6174 226.981 98.2536C226.561 97.6783 226.108 97.1233 225.729 96.5209C225.58 96.284 225.58 95.9524 225.465 95.4854C220.7 95.4854 215.942 95.4854 211.177 95.4854C211.177 95.3094 211.177 95.1334 211.177 94.9574C215.888 94.9574 220.592 94.9574 225.262 94.9574C225.546 91.7492 225.404 91.6003 222.514 91.6003C217.045 91.6071 211.576 91.6003 206.087 91.0995C212.355 91.0995 218.615 91.0995 224.802 91.0995C225.35 87.5664 225.16 87.3431 222.23 87.3498C217.945 87.3634 213.668 87.3498 209.377 86.8354C214.426 86.8354 219.475 86.8354 224.619 86.8354C224.619 85.7051 224.619 84.8997 224.619 83.6272C218.23 83.6272 211.901 83.6272 205.566 83.6272C205.573 83.3768 205.586 83.1061 205.6 82.8353Z" fill="#377F5F"/>
<path d="M28.4186 48.2899C39.5931 44.4319 48.3513 36.4317 58.5038 30.8208C60.1418 29.9138 62.0775 29.5551 63.8711 28.946C63.9456 29.1152 64.0268 29.2776 64.1012 29.4468C61.7458 31.0103 59.3905 32.5738 57.0283 34.1305C51.5731 37.7177 45.9892 41.1357 40.6964 44.9463C37.6438 47.146 34.4086 47.9244 30.8214 48.0056C30.0024 48.0259 29.1902 48.1748 28.378 48.2628L28.4186 48.2899Z" fill="#377F5F"/>
<path d="M28.378 48.2628C24.5742 48.6283 20.7704 48.9937 16.8177 49.3728C25.691 44.0055 34.395 38.6788 43.1871 33.4875C44.4528 32.7362 46.1178 32.6618 47.7489 32.6685C39.7082 37.6703 31.6742 42.6721 23.0852 48.0123C25.3322 48.1206 26.8687 48.2018 28.4051 48.2831C28.4186 48.2898 28.378 48.2628 28.378 48.2628Z" fill="#377F5F"/>
<path d="M76.8257 27.193C68.7173 33.1152 60.602 39.0375 52.2838 45.1087C52.9606 45.3185 53.3396 45.4404 53.7254 45.5622C53.7254 45.6637 53.7322 45.7653 53.7322 45.8668C50.057 46.1781 46.375 46.4895 42.6998 46.8008C45.9283 46.855 48.3987 45.1696 50.8963 43.4437C58.4362 38.2456 66.0031 33.0814 73.5972 27.9645C74.5245 27.3351 75.7089 27.0847 76.7783 26.6583C76.7919 26.841 76.8054 27.017 76.8257 27.193Z" fill="#377F5F"/>
<path d="M157.247 6.5022C127.378 12.1064 97.5097 17.7173 67.6411 23.3215C67.6072 23.1387 67.5734 22.956 67.5396 22.7733C97.4014 17.1217 127.257 11.4702 157.118 5.8186C157.159 6.04196 157.2 6.27208 157.247 6.5022Z" fill="#377F5F"/>
<path d="M9.1221 49.2713C10.1441 49.3999 10.6517 49.4608 11.1594 49.5285C11.1661 49.5894 11.1729 49.6503 11.1797 49.7112C8.72277 50.0429 6.27264 50.3677 3.81573 50.6994C3.76159 50.5843 3.70744 50.4693 3.65329 50.3474C12.6416 45.2441 21.63 40.1408 30.6183 35.0375C30.774 35.2947 30.9229 35.5586 31.0786 35.8158C23.8838 40.222 16.6891 44.6282 9.1221 49.2713Z" fill="#377F5F"/>
<path d="M27.6606 63.478C25.4608 60.7436 23.2273 58.0362 21.0953 55.2409C20.8042 54.8619 21.0547 54.0768 21.3051 53.3661C23.6266 55.8501 25.9143 55.0514 28.2223 53.7113C28.2223 57.0278 28.2223 60.1547 28.2223 63.2817C28.0328 63.3494 27.8501 63.4103 27.6606 63.478Z" fill="#377F5F"/>
<path d="M179.989 11.0031C184.611 11.8965 189.248 12.7358 193.857 13.6969C199.576 14.8882 205.282 16.1741 210.988 17.4398C211.658 17.5887 212.294 17.8594 212.95 18.0693C212.896 18.2588 212.835 18.4415 212.781 18.631C209.986 18.0354 207.177 17.4736 204.388 16.8442C196.503 15.0506 188.625 13.2299 180.747 11.4025C180.489 11.3415 180.273 11.1046 180.036 10.949L179.989 11.0031Z" fill="#377F5F"/>
<path d="M237.438 89.2653C237.391 92.2163 236.2 93.8881 234.785 93.6647C233.127 93.4075 232.795 92.0674 232.788 90.6528C232.788 88.7983 234.331 86.6663 235.435 87.1739C236.443 87.6274 237.086 88.866 237.438 89.2653Z" fill="#377F5F"/>
<path d="M35.7149 48.6892C36.1548 51.0987 35.3359 52.5878 33.346 53.1969C32.6218 53.4203 31.4035 53.2511 30.9364 52.7637C30.2731 52.0734 30.0295 50.9295 29.7723 49.9413C29.7249 49.7654 30.4627 49.1833 30.8823 49.1224C32.4255 48.9058 33.989 48.8313 35.7149 48.6892Z" fill="#377F5F"/>
<path d="M50.7135 47.2881C50.3209 50.679 48.7439 52.1477 46.4088 51.7078C44.9063 51.4235 44.0602 50.4489 44.4189 49.0208C44.5678 48.4252 45.6575 47.8431 46.4156 47.6807C47.7625 47.3896 49.1838 47.4099 50.7135 47.2881Z" fill="#377F5F"/>
<path d="M58.9709 46.4353C61.0487 46.212 62.9574 46.0022 64.8593 45.7924C65.2045 47.8702 64.108 49.6571 62.4159 50.0158C60.6968 50.388 59.6409 49.3728 58.9709 46.4353Z" fill="#377F5F"/>
<path d="M21.7383 50.828C20.9125 51.9312 20.2695 53.3323 19.1798 54.0159C18.5504 54.4084 17.102 53.8128 16.2085 53.3255C15.7415 53.0683 15.4234 52.0395 15.5114 51.4304C15.5723 51.031 16.4522 50.5437 17.014 50.4625C18.3947 50.2662 19.8093 50.2865 21.2103 50.2256C21.3863 50.4219 21.5623 50.6249 21.7383 50.828Z" fill="#377F5F"/>
<path d="M6.94948 51.4575C6.7329 53.5353 5.77856 54.7672 4.11355 55.0717C3.45702 55.1936 2.4147 54.5438 1.93415 53.9414C1.06103 52.845 1.15579 51.8229 2.91555 51.7011C4.16769 51.6199 5.43338 51.5454 6.94948 51.4575Z" fill="#377F5F"/>
<path d="M180.036 10.949C174.242 9.83224 168.442 8.72901 162.648 7.59193C161.294 7.32797 159.968 6.94218 158.628 6.61053C158.689 6.37364 158.743 6.13674 158.804 5.90662C165.863 7.60547 172.922 9.30432 179.989 11.0032L180.036 10.949Z" fill="#377F5F"/>
<path d="M52.4259 51.1799C54.0909 50.9024 55.9319 50.5911 57.5157 50.3204C56.453 52.3915 54.0097 52.757 52.4259 51.1799Z" fill="#377F5F"/>
<path d="M192.334 57.6911C191.84 57.9753 191.15 58.7266 190.52 58.6725C182.804 58.0633 175.095 57.3188 167.379 56.6623C165.971 56.5405 165.498 55.7959 165.281 54.51C163.731 45.3253 162.052 36.161 160.57 26.9629C159.751 21.8663 159.887 21.8189 164.956 22.7327C171.46 23.9036 177.958 25.1489 184.469 26.2793C186.073 26.5568 186.784 27.4028 187.061 28.9121C188.659 37.6297 190.297 46.3474 191.914 55.0582C192.036 55.7283 192.131 56.3983 192.334 57.6911ZM189.742 55.2206C189.945 55.1597 190.148 55.092 190.351 55.0311C188.923 47.5183 187.495 39.9987 186.067 32.4858C185.891 32.5197 185.715 32.5535 185.539 32.5806C186.946 40.1273 188.347 47.6739 189.742 55.2206Z" fill="#377F5F"/>
<path d="M214.365 60.8045C207.739 60.2427 202.493 59.796 197.241 59.3561C195.529 59.2139 194.588 58.4288 194.263 56.6014C192.713 47.7958 191.041 39.0105 189.437 30.2184C189.072 28.2082 189.694 27.3825 191.677 27.7412C197.891 28.858 204.091 30.0695 210.25 31.457C210.981 31.6195 211.759 33.0476 211.935 34.0019C213.113 40.2085 214.128 46.4421 215.197 52.6622C215.468 54.2189 215.759 55.7689 215.996 57.3323C216.497 60.6082 216.226 60.8992 214.365 60.8045Z" fill="#377F5F"/>
<path d="M146.567 39.8294C146.567 34.787 146.641 29.7446 146.533 24.709C146.492 22.7529 147.318 22.049 149.118 21.8257C154.743 21.1285 154.729 21.0947 155.514 26.726C156.794 35.958 158.066 45.19 159.399 54.4084C159.67 56.2832 159.25 57.2511 157.159 57.2985C154.607 57.3594 152.056 57.5963 149.511 57.84C147.636 58.0227 146.851 57.1428 146.844 55.3898C146.831 50.2053 146.837 45.014 146.837 39.8294C146.749 39.8294 146.661 39.8294 146.567 39.8294Z" fill="#377F5F"/>
<path d="M194.452 94.6529C191.941 94.5311 190.601 92.8661 190.771 90.1046C190.933 87.5665 192.361 86.2128 194.75 86.3482C197.065 86.4768 198.425 88.0606 198.358 90.5378C198.283 93.2045 196.794 94.768 194.452 94.6529ZM197.498 90.9101C197.64 88.8525 196.571 86.9912 195.231 87.0927C193.214 87.2416 192.903 88.9675 192.679 90.5243C192.415 92.3991 193.552 94.1995 194.906 94.1047C196.957 93.949 197.153 92.2299 197.498 90.9101Z" fill="#377F5F"/>
<path d="M162.784 8.93201C164.374 9.96079 165.64 10.773 166.905 11.592C166.452 12.0319 165.782 12.9389 165.579 12.8441C164.171 12.1876 161.87 13.1013 161.47 10.7324C161.396 10.3398 162.12 9.80512 162.784 8.93201Z" fill="#377F5F"/>
<path d="M205.992 18.4483C207.651 19.4839 208.95 20.2893 210.243 21.0947C209.817 21.582 209.133 22.5431 209.011 22.4755C207.624 21.7174 205.302 22.665 204.828 20.357C204.74 19.9373 205.41 19.362 205.992 18.4483Z" fill="#377F5F"/>
<path d="M234.007 79.2753C234.758 80.8049 235.536 81.678 235.462 82.4631C235.401 83.1197 234.331 83.6814 233.709 84.2838C233.127 83.5461 232.152 82.8422 232.084 82.0638C232.017 81.4005 233.005 80.6425 234.007 79.2753Z" fill="#377F5F"/>
<path d="M172.733 76.5814C172.144 76.5341 171.42 76.622 170.851 76.3648C170.567 76.243 170.56 75.4985 170.425 75.0315C171.501 74.7675 172.571 74.3682 173.653 74.3005C174.249 74.2599 174.933 74.7134 175.467 75.0924C175.569 75.1669 175.278 76.2227 174.987 76.331C174.317 76.5747 173.538 76.5138 172.733 76.5814Z" fill="#377F5F"/>
<path d="M193.41 79.9453C194.141 80.2364 194.696 80.4597 195.271 80.6898C194.818 81.5697 194.466 82.2601 194.107 82.964C193.904 82.0909 193.708 81.2245 193.41 79.9453Z" fill="#377F5F"/>
<path d="M100.623 57.9482C94.7347 50.6655 89.2794 43.9107 83.7159 37.0273C89.5773 32.1 95.2356 27.3419 101.361 22.1844C101.117 34.3268 100.874 45.8803 100.623 57.9482Z" fill="#377F5F"/>
<path d="M149.687 105.442C149.897 100.521 150.986 97.4008 153.443 94.8221C157.409 90.6528 162.52 90.8897 166.032 95.4245C170.114 100.697 168.801 110.017 163.433 113.875C159.663 116.582 155.108 116.088 152.563 112.196C151.013 109.827 150.289 106.917 149.687 105.442ZM155.129 105.672C155.616 108.772 156.577 112.149 160.421 113.57C161.2 113.861 162.479 113.604 163.19 113.117C166.269 111.012 167.027 107.641 167.738 104.237C168.516 100.514 165.843 98.0438 164.448 95.1605C164.103 94.4499 162.235 93.9896 161.206 94.1791C157.775 94.8221 155.25 98.9169 155.196 103.174C155.819 103.431 156.36 103.655 156.895 103.871C156.448 104.332 156.002 104.785 155.129 105.672Z" fill="#377F5F"/>
<path d="M117.388 102.714C117.388 94.7409 117.395 87.4582 117.388 80.1687C117.375 64.8249 117.341 49.4743 117.341 34.1305C117.341 31.8022 117.361 29.4604 117.598 27.1456C117.659 26.5297 118.485 25.5821 119.074 25.4874C125.896 24.3706 132.739 23.3689 139.582 22.3875C141.937 22.0491 142.201 22.3807 142.221 25.44C142.303 35.8158 142.377 46.1984 142.445 56.5743C142.485 62.8215 142.851 69.0822 142.451 75.3023C142.127 80.365 140.929 85.3735 140.042 90.3889C139.419 93.9422 138.614 97.4618 138.011 101.015C137.781 102.362 137.125 102.734 135.879 102.728C129.869 102.694 123.866 102.714 117.388 102.714ZM136.969 101.584C137.538 98.4229 138.113 95.5666 138.56 92.6901C139.656 85.7255 141.321 78.7744 141.612 71.776C142.066 60.7368 141.558 49.6503 141.484 38.5908C141.45 33.65 141.477 28.7091 141.477 23.4298C133.544 24.445 126.059 25.3994 118.593 26.3469C118.593 51.4845 118.593 76.3514 118.593 101.584C121.74 101.584 124.657 101.584 127.581 101.584C130.661 101.584 133.734 101.584 136.969 101.584Z" fill="#377F5F"/>
<path d="M63.817 101.956C63.4312 106.518 62.8762 110.071 59.871 112.616C57.4344 114.674 54.9302 114.504 52.6628 112.244C48.2634 107.851 48.2701 98.0574 52.6763 93.6444C55.7085 90.6055 59.8237 91.3364 61.8406 95.5531C62.9236 97.7934 63.3432 100.352 63.817 101.956ZM59.2145 93.7595C54.0367 97.3129 53.9555 108.555 59.0792 111.675C64.108 107.486 64.1689 99.7089 59.2145 93.7595ZM53.6171 95.4584C50.6323 99.2689 50.4225 104.995 53.0892 109.097C51.4715 104.332 51.7626 100.115 53.6171 95.4584Z" fill="#377F5F"/>
<path d="M189.742 55.2206C188.341 47.6739 186.94 40.1272 185.545 32.5805C185.721 32.5467 185.897 32.5129 186.073 32.4858C187.501 39.9986 188.93 47.5182 190.358 55.0311C190.155 55.0988 189.952 55.1597 189.742 55.2206Z" fill="#377F5F"/>
<path d="M197.498 90.91C197.153 92.2366 196.957 93.9558 194.906 94.1047C193.559 94.2062 192.415 92.399 192.679 90.5242C192.896 88.9675 193.214 87.2483 195.231 87.0927C196.571 86.9911 197.64 88.8457 197.498 90.91Z" fill="#377F5F"/>
<path d="M155.128 105.672C156.002 104.785 156.448 104.332 156.902 103.878C156.367 103.655 155.826 103.438 155.203 103.181C155.257 98.9237 157.788 94.8288 161.213 94.1859C162.235 93.9963 164.11 94.4566 164.455 95.1672C165.85 98.0506 168.523 100.514 167.745 104.244C167.034 107.648 166.276 111.019 163.196 113.124C162.479 113.611 161.206 113.861 160.428 113.577C156.577 112.149 155.616 108.772 155.128 105.672ZM161.971 106.998C163.494 107.012 165.139 105.462 164.956 104C164.78 102.626 164.266 101.36 162.492 101.394C160.618 101.428 159.386 102.518 159.44 104.21C159.487 105.821 160.198 106.917 161.971 106.998Z" fill="#377F5F"/>
<path d="M136.969 101.584C133.734 101.584 130.661 101.584 127.588 101.584C124.671 101.584 121.747 101.584 118.6 101.584C118.6 76.3513 118.6 51.4845 118.6 26.3469C126.059 25.3926 133.544 24.4382 141.484 23.4297C141.484 28.709 141.456 33.6499 141.49 38.5908C141.565 49.657 142.066 60.7368 141.619 71.7759C141.335 78.7811 139.663 85.7255 138.566 92.6901C138.106 95.5598 137.538 98.4228 136.969 101.584ZM140.353 42.8887C140.428 42.8887 140.495 42.8887 140.57 42.8887C140.57 38.5299 140.577 34.1643 140.57 29.8055C140.563 26.5703 139.893 25.9746 136.637 26.3943C131.873 27.0102 127.114 27.7276 122.343 28.3097C120.556 28.5263 119.771 29.149 119.805 31.1524C119.94 39.8023 119.899 48.459 119.92 57.109C119.926 60.5337 120.962 61.5287 124.488 61.2512C128.536 60.9331 132.57 60.4457 136.617 60.1479C139.785 59.911 140.326 59.4643 140.353 56.2088C140.38 51.762 140.353 47.3287 140.353 42.8887Z" fill="#377F5F"/>
<path d="M59.2145 93.7595C64.1622 99.7156 64.108 107.486 59.0791 111.675C53.9623 108.555 54.0435 97.3061 59.2145 93.7595ZM63.3838 102.91C62.1655 101.678 61.4887 100.44 60.5546 100.189C59.0859 99.7968 58.4294 101.069 58.4903 102.416C58.5512 103.831 58.6798 105.597 60.6494 105.387C61.4751 105.299 62.179 104.054 63.3838 102.91Z" fill="#377F5F"/>
<path d="M53.6171 95.4584C51.7558 100.115 51.4715 104.338 53.0892 109.097C50.4225 104.995 50.639 99.2622 53.6171 95.4584Z" fill="#377F5F"/>
<path d="M161.971 107.005C160.205 106.917 159.494 105.827 159.44 104.217C159.386 102.518 160.618 101.428 162.492 101.401C164.266 101.374 164.78 102.64 164.956 104.007C165.139 105.469 163.494 107.012 161.971 107.005ZM161.951 102.2C161.721 102.193 161.491 102.186 161.261 102.173C160.888 102.903 160.225 103.648 160.245 104.365C160.259 104.927 161.125 105.462 161.619 106.01C162.052 105.408 162.77 104.826 162.831 104.189C162.885 103.56 162.276 102.87 161.951 102.2Z" fill="#377F5F"/>
<path d="M140.353 42.8887C140.353 47.3287 140.38 51.762 140.346 56.202C140.319 59.4575 139.778 59.9043 136.61 60.1411C132.563 60.4457 128.529 60.933 124.482 61.2444C120.962 61.5219 119.926 60.5202 119.913 57.1022C119.893 48.4522 119.933 39.7956 119.798 31.1456C119.764 29.1354 120.549 28.5195 122.336 28.3029C127.108 27.7209 131.866 27.0102 136.631 26.3875C139.879 25.9679 140.55 26.5702 140.563 29.7987C140.577 34.1575 140.563 38.5231 140.563 42.8819C140.495 42.8887 140.421 42.8887 140.353 42.8887Z" fill="#EDEDED"/>
<path d="M63.3838 102.91C62.1858 104.047 61.4751 105.299 60.6426 105.387C58.6798 105.597 58.5512 103.831 58.4835 102.416C58.4226 101.069 59.0859 99.7968 60.5479 100.189C61.4887 100.447 62.1587 101.685 63.3838 102.91ZM60.1215 100.968C59.8372 100.995 59.5462 101.022 59.2619 101.049C59.377 102.315 59.4853 103.58 59.6003 104.846C59.8575 104.819 60.1147 104.799 60.3787 104.771C61.4616 103.384 61.0893 102.145 60.1215 100.968Z" fill="#377F5F"/>
<path d="M161.951 102.2C162.269 102.87 162.885 103.56 162.831 104.196C162.777 104.833 162.053 105.415 161.619 106.017C161.132 105.469 160.266 104.934 160.245 104.372C160.225 103.648 160.888 102.91 161.261 102.179C161.491 102.179 161.721 102.193 161.951 102.2Z" fill="#377F5F"/>
<path d="M60.1215 100.968C61.0961 102.145 61.4616 103.384 60.3787 104.772C60.1215 104.799 59.8643 104.819 59.6003 104.846C59.4853 103.58 59.377 102.315 59.2619 101.049C59.5462 101.022 59.8304 100.995 60.1215 100.968Z" fill="#377F5F"/>
<path d="M32.7301 151.295H52.4597V153.326H43.7624V176.812H41.3935V153.326H32.7301V151.295Z" fill="#2C6148"/>
<path d="M63.729 176.812V151.295H74.4568C77.2318 151.295 79.2826 151.864 80.616 153.008C81.9494 154.145 82.6329 155.864 82.6803 158.172C82.7277 159.932 82.2404 161.407 81.2251 162.605C80.2099 163.803 78.9713 164.568 77.5026 164.906V163.891C78.1591 163.979 78.863 164.236 79.621 164.656C80.3791 165.076 80.9476 165.61 81.3334 166.267C81.7192 166.923 81.9696 167.654 82.0982 168.466C82.2201 169.279 82.281 170.179 82.281 171.174C82.281 171.512 82.2945 171.932 82.3148 172.426C82.3351 172.92 82.369 173.414 82.4163 173.895C82.4637 174.382 82.5111 174.802 82.572 175.167C82.6262 175.526 82.924 176.081 83.4722 176.825H80.6972C80.4265 176.237 80.2505 175.722 80.176 175.269C80.0948 174.815 80.0407 174.348 80.0068 173.861C79.973 173.374 79.9527 172.886 79.9392 172.392C79.9256 171.898 79.9256 171.458 79.9256 171.072C79.9256 170.104 79.8579 169.265 79.7226 168.554C79.5872 167.844 79.3368 167.275 78.978 166.842C78.6193 166.416 78.0779 166.077 77.3672 165.847C76.6565 165.61 75.6548 165.488 74.3688 165.488H66.1114V176.825H63.729V176.812ZM74.2876 163.444C75.0998 163.444 75.8646 163.35 76.5888 163.16C77.313 162.971 77.9425 162.659 78.484 162.226C79.0254 161.8 79.4654 161.245 79.8038 160.568C80.1422 159.891 80.3114 159.065 80.3114 158.097C80.2911 156.541 79.8512 155.356 78.9916 154.544C78.132 153.732 76.6768 153.326 74.626 153.326H66.0979V163.444H74.2876Z" fill="#2C6148"/>
<path d="M115.541 151.295V167.133C115.541 170.538 114.708 173.096 113.057 174.802C111.398 176.507 108.989 177.353 105.828 177.353C102.667 177.353 100.264 176.5 98.6062 174.802C96.948 173.096 96.1222 170.544 96.1222 167.133V151.295H98.4911V167.133C98.4911 169.908 99.0868 171.972 100.285 173.326C101.483 174.68 103.33 175.357 105.835 175.357C108.339 175.357 110.187 174.68 111.385 173.326C112.583 171.972 113.178 169.908 113.178 167.133V151.295H115.541Z" fill="#2C6148"/>
<path d="M150.276 170.937C149.68 172.236 148.902 173.36 147.941 174.301C146.979 175.248 145.836 175.993 144.502 176.534C143.169 177.076 141.673 177.347 140.001 177.347C138.262 177.347 136.665 177.008 135.196 176.331C133.727 175.654 132.482 174.727 131.46 173.556C130.431 172.385 129.639 171.005 129.077 169.428C128.515 167.851 128.231 166.125 128.231 164.25C128.231 162.74 128.448 161.191 128.874 159.614C129.301 158.036 129.998 156.588 130.952 155.268C131.913 153.948 133.172 152.859 134.742 152.006C136.313 151.146 138.214 150.72 140.441 150.72C142.181 150.72 143.704 151.004 145.01 151.586C146.316 152.162 147.406 152.886 148.279 153.752C149.145 154.618 149.802 155.539 150.242 156.514C150.682 157.481 150.925 158.612 150.973 159.898H148.604C148.516 158.659 148.265 157.651 147.859 156.886C147.453 156.121 146.898 155.424 146.181 154.808C145.47 154.185 144.631 153.691 143.663 153.319C142.695 152.947 141.619 152.757 140.448 152.757C138.641 152.757 137.118 153.116 135.879 153.84C134.641 154.564 133.632 155.492 132.854 156.635C132.076 157.773 131.507 159.025 131.142 160.392C130.783 161.759 130.6 163.052 130.6 164.27C130.6 165.759 130.817 167.18 131.243 168.534C131.669 169.888 132.299 171.072 133.118 172.088C133.944 173.103 134.925 173.901 136.082 174.49C137.233 175.079 138.539 175.37 140.008 175.37C141.314 175.37 142.492 175.154 143.528 174.727C144.563 174.301 145.47 173.698 146.235 172.934C147 172.169 147.629 171.241 148.117 170.159C148.604 169.076 148.969 167.688 149.22 165.996H151.589C151.304 167.986 150.871 169.637 150.276 170.937Z" fill="#2C6148"/>
<path d="M166.465 176.812H164.097V151.295H166.465V164.933L181.999 151.295H185.281L172.794 162.328L185.688 176.812H182.709L171.102 163.749L166.465 167.844V176.812Z" fill="#2C6148"/>
<path d="M216.145 151.295L205.756 166.118V176.812H203.387V166.118L193.065 151.295H195.84L204.605 163.85L213.404 151.295H216.145Z" fill="#2C6148"/>
</svg>
