<svg width="32" height="32" viewBox="0 0 32 32" fill="none" xmlns="http://www.w3.org/2000/svg">
<path d="M16 31C24.2843 31 31 24.2843 31 16C31 7.71573 24.2843 1 16 1C7.71573 1 1 7.71573 1 16C1 24.2843 7.71573 31 16 31Z" fill="#699635"/>
<path d="M15.8499 13.35C15.7999 12.9 16.0499 12.45 16.4999 12.55C16.8499 12.6 17.2499 12.95 17.0499 13.3C16.7499 13.85 15.9499 13.85 15.4499 14.15C15.4999 14.45 16.9499 14.1 17.1999 14.1C17.4499 14.1 17.6999 14.2 17.5499 14.5C17.3999 14.8 16.8999 14.8 16.5999 14.85C16.2999 14.9 15.7999 14.9 15.6499 15.15C15.3499 15.55 15.9499 15.6 16.1499 15.7C16.6499 15.95 15.8499 16.2 15.6499 16.15C14.8999 16 14.7499 15.6 14.2999 15.1C13.8499 15.7 12.4499 17.05 12.1499 15.65C11.6499 15.85 11.1499 16.1 10.5999 16.15C10.8499 15.8 11.3499 15.65 11.7499 15.45C12.2499 15.2 12.2499 14.75 12.5499 14.35C12.6499 14.5 12.5499 14.7 12.5999 14.9C12.9999 14.7 13.4999 14.3 13.2999 13.8C13.2999 13.75 12.6999 12.55 13.1999 12.75C13.6499 12.95 13.4999 13.4 13.5999 13.75C13.7499 14.4 13.4499 14.75 12.9499 15.15C12.7499 15.3 12.1999 15.9 12.8499 15.9C13.2999 15.9 13.6999 15.4 13.9499 15.1C14.2499 14.7 14.1499 14.3 13.9499 13.85C13.7999 13.5 13.4499 12.75 13.8999 12.5C14.2499 13.05 14.3999 13.7 14.5499 14.35C14.6499 14.9 14.7499 15.45 15.3499 15.6C15.2999 15.2 15.5499 14.9 15.8999 14.75C15.6499 14.55 14.2499 14.8 14.7999 14.05C14.8499 13.7 15.8499 13.55 15.8499 13.35Z" fill="white"/>
<path d="M8.20006 15.2003C8.45006 15.9003 9.30006 15.6503 9.80006 15.4503C10.6001 15.0503 10.6001 14.4503 10.6001 13.6503C10.3001 13.8003 10.3501 14.3503 10.2501 14.6003C10.0501 15.0003 9.40006 15.3503 8.95006 15.3003C8.30006 15.2003 8.00006 14.1003 8.50006 13.7003C8.60006 14.0503 8.35006 14.8003 8.95006 14.8503C9.40006 14.9003 10.3001 14.3503 10.1501 13.8503C9.55006 14.0503 9.20006 13.8503 9.40006 13.2003C9.55006 12.6003 10.1501 13.0503 10.4001 13.3503C11.3501 12.8003 9.65006 10.7003 10.6501 10.1503C10.8501 10.5003 11.1501 10.9503 10.9001 11.3003C10.6001 11.7003 10.9001 12.5503 10.9501 13.0003C11.4501 12.5503 11.0501 13.3503 11.4501 13.4003C11.7001 13.4503 11.8001 12.8003 11.9501 12.8003C12.0001 12.9503 12.0001 13.4003 12.2501 13.3503C12.5501 13.2503 12.2001 12.8503 12.5001 12.7503C12.6001 13.0003 12.5501 13.7503 12.2001 13.7003C11.9001 13.6503 11.9501 13.4503 11.6001 13.6503C11.3001 13.8003 11.2001 13.6503 11.0001 13.5003C10.9501 14.1003 11.1501 14.7503 10.8001 15.3003C10.5001 15.7503 9.90006 16.0003 9.40006 16.1003C8.10006 16.3503 7.75006 15.0503 8.20006 14.0003C8.30006 14.3003 8.10006 14.8503 8.20006 15.2003ZM20.4001 15.4503C20.6501 16.1003 21.1501 14.7503 21.3001 14.5503C21.7001 13.9503 22.3001 15.5003 22.5501 14.5003C22.7001 13.8503 22.5001 13.2003 22.4501 12.5503C22.4001 12.1003 22.2501 11.7003 21.9501 11.3503C21.6501 10.9503 21.3501 10.6003 21.5001 10.1003C22.0001 10.3003 22.0001 10.7003 22.2501 11.1003C22.3001 10.8003 22.1001 10.4003 22.3001 10.1503C22.5501 9.8003 22.7501 10.7503 22.7501 10.8503C22.8001 11.1003 22.5501 11.2003 22.7001 11.6003C22.8001 11.9003 23.0001 12.2003 23.2001 12.4503C23.1501 12.1503 22.7001 10.1003 23.2001 10.1003C23.3501 10.1003 23.5001 10.7003 23.5001 10.8003C23.6001 11.1003 23.4001 11.3503 23.4001 11.7003C23.3501 12.3003 23.4501 13.0003 23.8501 13.4503C24.0501 13.7003 24.8001 14.6003 24.4001 14.9003C24.1001 14.5503 23.9001 14.1503 23.6501 13.8003C23.6501 14.2003 23.7501 14.6503 23.5501 14.9503C23.3501 14.8503 23.4501 14.2003 23.4501 14.0503C23.4501 13.5003 23.1001 13.0503 22.8001 12.6003C22.7001 13.3503 23.3001 14.7503 22.6001 15.3003C22.1501 15.7003 21.5501 14.8003 21.4001 15.1503C21.2501 15.4003 20.9001 16.3003 20.5001 16.2003C20.0001 16.1003 19.6501 14.7003 20.2001 14.5503C20.2501 14.8003 20.2501 15.1503 20.4001 15.4503Z" fill="white"/>
<path d="M9.69994 12.0502C10.0499 12.1002 9.69994 10.9002 9.69994 10.7002C9.74994 10.5002 9.89994 10.4002 9.99994 10.6002C10.1499 10.9002 10.1499 11.2502 10.1999 11.5502C10.1999 11.8002 10.2499 12.1002 10.0499 12.3002C9.74994 12.6002 9.34994 12.4502 9.19994 12.0502C8.49994 12.6502 9.39994 13.7002 8.79994 14.3002C8.69994 13.7502 8.79994 13.1502 8.59994 12.6502C8.49994 12.4002 8.04994 12.5002 7.99994 12.0502C7.99994 11.8502 8.14994 11.3002 7.94994 11.1502C7.84994 11.3502 7.74994 12.9002 7.24994 12.4502C6.84994 12.1502 6.94994 11.1502 7.09994 10.7502C7.39994 10.9002 7.04994 12.0002 7.44994 12.0502C7.64994 12.1002 7.69994 11.2502 7.74994 11.1002C7.89994 10.8502 8.39994 10.1502 8.29994 10.8502C8.24994 11.1502 7.99994 12.1002 8.59994 12.0502C8.54994 11.5502 8.49994 11.0502 8.39994 10.5502C8.34994 10.3002 8.49994 9.80021 8.69994 10.2502C8.84994 10.5502 8.74994 10.7002 8.69994 11.0002C8.64994 11.3502 8.79994 11.7002 8.84994 12.0002C9.14994 11.7502 8.74994 10.8002 8.99994 10.4002C9.59994 10.7502 8.94994 11.9502 9.69994 12.0502ZM16.1499 12.1502C15.8999 12.5002 15.4499 12.2002 15.2499 11.9502C14.9999 12.2502 14.4999 12.7502 14.0999 12.3502C13.7999 12.0502 14.1499 11.5002 13.8999 11.2502C13.7499 11.5002 13.4999 12.7002 13.0499 12.1502C12.7999 11.8502 12.4499 10.8002 12.9999 10.5502C12.9499 10.9502 12.8499 11.4002 13.0999 11.7502C13.3499 12.1002 13.5999 11.2002 13.6999 11.0002C13.8499 10.6502 14.3499 10.0502 14.2499 10.8002C14.1999 11.1002 14.0999 11.8002 14.3999 12.0002C14.5999 12.1502 14.8499 11.9002 14.9499 11.7502C15.1499 11.5002 15.0499 11.1002 14.9999 10.8002C14.9499 10.5502 14.8499 10.2502 14.9999 10.0002C15.1999 9.70021 15.3499 10.4002 15.3499 10.5502C15.3499 10.7002 15.5499 12.2502 15.8999 11.7502C16.2499 11.3002 15.2999 10.3002 15.9499 10.0502C16.1999 9.95021 16.6499 10.9502 16.1499 10.6502C16.2999 11.1002 16.4999 11.7502 16.1499 12.1502ZM18.0499 12.7502C18.0999 13.4002 18.6499 15.2002 17.8999 15.6002C17.7999 15.4002 17.8999 15.1002 17.9499 14.8502C17.9999 14.4002 17.8999 13.9502 17.8499 13.5502C17.7499 12.6002 17.6499 11.9002 16.9999 11.1502C16.8499 10.9502 16.5999 10.8002 16.5499 10.5002C16.5499 10.4002 16.4999 9.95021 16.6999 10.0502C16.8499 10.1002 17.6999 10.8502 17.2499 10.8502C17.2999 10.9502 17.4999 11.3502 17.5999 11.3502C17.5999 11.1002 17.2999 10.3502 17.5999 10.2002C17.8499 10.0502 18.1499 11.0002 18.0499 11.2002C17.9499 11.4502 17.9499 11.6002 18.0499 11.9502C18.1499 12.3502 18.3999 12.7002 18.5999 13.0502C18.8999 13.5502 19.4999 14.2502 19.3499 14.9002C19.0499 14.7502 18.8499 14.0502 18.6999 13.7502C18.5999 13.5002 18.4999 13.2502 18.3499 13.0502C18.2999 13.0002 17.9999 12.6002 18.0499 12.8502V12.7502ZM24.9999 13.7002C25.0499 14.7502 24.6999 16.1002 23.3999 16.1002C23.3999 15.8002 24.0499 15.5002 24.2499 15.3502C24.7499 14.9502 24.6999 14.2002 24.6499 13.6502C24.5999 12.9002 24.5499 12.1502 24.3999 11.4002C24.3499 10.9502 24.0999 10.3002 24.4999 10.0002C24.7499 10.2002 25.0999 10.7502 24.9499 10.9502C24.6999 11.2502 24.9499 13.5002 24.9999 13.7002Z" fill="white"/>
<path d="M18.5999 15.9503C19.8999 15.2003 19.4999 13.6003 19.3999 12.3503C19.3499 12.0003 19.3499 11.6503 19.2999 11.3003C19.2999 11.0503 19.0999 10.7003 19.1999 10.4503C19.4499 9.80025 19.6499 10.4003 19.6999 10.8003C19.7499 11.0503 19.5499 11.1003 19.5999 11.3003C19.6499 11.7003 19.6499 12.1003 19.6999 12.5003C19.7499 13.1503 19.8499 13.8003 19.7999 14.4003C19.6999 15.3503 19.1999 16.4003 18.0499 16.2003C18.0999 16.1003 18.4499 16.0503 18.5999 15.9503ZM20.6999 13.4503C20.7499 13.9503 20.9499 14.8503 20.6999 15.3003C20.4999 15.6003 20.4999 15.1003 20.4499 15.0503C20.3999 14.6503 20.3999 14.2503 20.3999 13.8003C20.2999 12.7003 19.9499 11.6003 19.9499 10.5503C19.9499 9.20025 21.0999 11.3003 20.4499 11.2003C20.4999 11.9503 20.5999 12.7003 20.6999 13.4503ZM12.5499 10.9003C12.6499 11.1503 11.3999 11.8003 11.2499 11.8003C11.1999 11.5503 11.7999 11.2003 11.9499 11.1003C12.0999 10.9503 12.1999 10.9503 12.1499 10.7503C12.0499 10.5503 12.0999 10.2003 12.3499 10.1003C12.8499 9.95025 12.4999 10.7003 12.5499 10.9003ZM7.3999 15.3503C7.3999 15.7503 7.5499 15.5503 7.7499 15.4503C7.8499 15.6503 7.5999 16.2003 7.3499 15.9503C6.9999 15.6003 7.2999 14.8003 7.4499 14.4503C7.5499 14.7003 7.3499 15.1003 7.3999 15.3503ZM21.4999 12.2503C21.5499 12.0503 21.3999 11.8503 21.5499 11.6503C21.7499 11.4003 21.9499 11.7003 21.8499 11.8003C21.7499 11.9003 21.5999 11.7003 21.5999 12.0003C21.5999 12.1503 21.6999 12.4503 21.5499 12.6003C21.4499 12.5503 20.9999 11.9003 21.0499 11.8003C21.2499 11.6003 21.4499 12.2003 21.4999 12.2503ZM8.4499 13.1003C8.3499 13.3003 7.1999 13.9503 7.1499 13.8003C7.1499 13.6503 8.5999 12.8003 8.4499 13.1003ZM16.9499 15.6503C16.7999 16.1003 17.4499 15.7003 17.5999 15.6503C17.3999 16.0003 16.6999 16.3003 16.7999 15.6503C16.7499 15.6503 16.6499 15.7003 16.5999 15.7003C16.4999 15.6003 17.0999 15.2003 16.9499 15.6503ZM22.3999 15.5003C22.5499 15.5003 22.7999 15.9503 22.6499 16.0503C22.5499 16.1503 22.0999 16.2003 22.3499 16.0003C22.6499 15.7003 22.3999 15.5003 22.3999 15.5003ZM15.3499 12.9503C15.3999 12.8503 15.3999 12.7003 15.4499 12.6003C15.9499 13.0003 14.6499 13.6503 14.8999 12.7003C14.9999 12.8003 14.9999 12.9503 15.0999 13.0003C15.0999 12.9003 15.1499 12.7503 15.1499 12.6503C15.2499 12.7503 15.2499 12.9003 15.3499 12.9503ZM21.1999 13.6003C21.0499 13.4003 21.9499 12.8503 22.0999 12.7503C22.1999 12.9003 21.4999 13.4503 21.1999 13.6003ZM23.9999 11.6003C23.8999 11.3003 23.5999 10.7003 23.8999 10.4503C24.0999 10.6003 24.1999 11.3503 23.9999 11.6003ZM18.5499 10.6003C18.4999 10.5003 18.3499 10.4003 18.3499 10.2503C18.3999 10.0503 18.4999 10.1003 18.5999 10.2003C18.7499 10.4003 18.8499 10.9503 18.5999 11.1003C18.5999 10.9503 18.6499 10.7503 18.5499 10.6003ZM12.4499 11.9503C12.4499 12.2503 11.9499 12.5503 11.8999 12.1503C11.8499 12.0003 12.0999 11.4503 12.1999 11.6003C11.9999 12.0503 11.9999 12.2003 12.4499 11.9503Z" fill="white"/>
<path d="M18.7 11.4003C18.9 11.9003 18.8 11.4503 19 11.3503C19.35 12.0003 18.25 11.8503 18.5 11.4503C18.55 11.5003 18.6 11.6003 18.6 11.6503C18.65 11.6003 18.65 11.5003 18.7 11.4003ZM21.9 13.7003C21.65 13.5003 21.95 13.2503 22.1 13.5003C22.2 13.6503 22.2 14.0503 22 14.1503C22 14.0003 22.05 13.8003 21.9 13.7003ZM11.65 14.8003C11.65 14.7003 11.6 13.9503 11.75 14.0503C11.95 14.1503 11.9 14.7003 11.65 14.8003ZM9.54997 10.1003C9.59997 10.2503 9.64997 10.4503 9.74997 10.2003C10.15 10.6503 8.74997 10.5003 9.24997 10.0503C9.24997 10.1003 9.34997 10.4003 9.54997 10.1003ZM14.65 11.2003C14.65 11.0003 14.35 10.1503 14.6 10.1503C14.9 10.2003 14.85 10.9503 14.65 11.2003ZM7.64997 10.7503C7.49997 10.7003 7.74997 10.4503 7.64997 10.2503C7.54997 10.3003 7.44997 10.1503 7.54997 10.0503C7.94997 9.75028 7.79997 10.7503 7.64997 10.7503ZM20.6 20.9003L20.4 20.3003L20.2 20.9003H9.24997C9.24997 20.9003 9.34997 21.8003 10.45 21.8003H20.15V22.5003H22.8V20.9003H20.6ZM22.3 22.1003H20.5V21.6003H22.3V22.1003Z" fill="white"/>
</svg>
