<svg width="102" height="100" viewBox="0 0 102 100" fill="none" xmlns="http://www.w3.org/2000/svg">
<path d="M31.0235 7.27137C36.1955 4.62358 41.8494 2.94195 47.6109 2.3318C49.0063 2.18184 50.5471 2.08683 51.9449 2.06851C66.0767 1.72852 79.4049 8.03605 88.4152 18.2723C88.9349 18.1315 89.4535 18.0182 89.9698 17.9335C75.4281 1.24888 50.7841 -3.70671 30.845 6.92909C30.624 7.04928 30.7992 7.38584 31.0235 7.27137Z" fill="#3C8563"/>
<path d="M93.5004 22.5125C93.4878 22.4942 93.4752 22.4747 93.4615 22.4564C93.0311 22.667 92.6075 22.9051 92.1908 23.1684C95.3835 27.9225 97.7268 33.2937 98.9642 39.0803C105.655 68.7395 82.2247 97.2195 51.7917 96.0244C26.7917 95.2242 6.7839 74.2949 7.23722 49.2731C7.24981 48.9286 7.27157 48.0357 7.28187 47.7037C7.35399 46.8406 7.38146 45.9557 7.49479 45.0983C7.70313 43.0847 8.05227 41.0882 8.53192 39.1238C15.5229 38.4542 22.1292 34.3045 25.6859 28.2351C29.5047 21.718 29.6765 13.2138 26.1232 6.54793C24.5045 3.51093 21.9346 0.716609 18.5679 0C19.067 4.16915 16.41 8.08875 13.3032 10.914C10.1964 13.738 6.50458 15.9474 3.82818 19.1824C-0.0261692 23.8404 -1.31743 30.8817 1.57304 37.2213C1.57304 37.2213 4.72565 25.19 12.6209 19.7972C5.98143 28.9002 2.54607 40.2652 3.10127 51.5203C4.14298 77.5391 25.6561 98.6676 51.7082 99.0809C91.5623 99.7711 115.799 55.639 93.5004 22.5125Z" fill="#3C8563"/>
<path d="M71.9446 33.3439C63.5337 42.7428 54.7838 52.5247 46.7808 62.2457C46.4888 62.5994 46.1991 62.9549 45.9085 63.3096C45.9065 63.3079 45.9046 63.3062 45.9025 63.3046C43.4449 61.1755 41.0837 59.0086 38.627 56.8155C36.618 55.0518 34.6096 53.2593 32.2175 51.945C27.9946 49.5596 23.6422 50.3924 19.2637 51.6435C22.2514 52.0792 25.4623 52.4863 27.8372 54.3965C28.8867 55.2658 29.6116 56.3379 30.3095 57.5288C31.7984 60.1448 33.0576 63.1399 34.3826 65.9499C36.4707 70.4776 38.6771 74.9576 41.0551 79.3766C41.5584 80.1503 42.2376 80.8719 43.0461 81.4267C46.3425 83.6881 50.8481 82.8492 53.1096 79.5528C55.0307 76.7615 56.9106 73.9406 58.7783 71.1079C66.6678 59.1176 74.3948 46.9774 81.7185 34.608C83.0172 32.4298 84.9557 28.9134 86.5134 26.9835C88.6966 24.1292 91.5023 21.67 95.0258 20.6142C95.7932 20.3768 96.5853 20.2045 97.3897 20.0639C96.2641 19.4746 94.9848 19.111 93.7052 18.962C89.6228 18.4852 85.5407 20.1642 82.3238 22.5693C79.3821 24.5883 74.4003 30.7337 71.9446 33.3439Z" fill="#3C8563"/>
</svg>
