<svg width="318" height="318" viewBox="0 0 318 318" fill="none" xmlns="http://www.w3.org/2000/svg">
<g style="mix-blend-mode:soft-light" opacity="0.5">
<circle cx="159" cy="159" r="159" fill="#FBFDFD"/>
</g>
<g style="mix-blend-mode:soft-light" opacity="0.5">
<circle cx="159.5" cy="158.5" r="116.5" fill="#FBFDFD"/>
</g>
<path fill-rule="evenodd" clip-rule="evenodd" d="M259.164 154.781C254.933 147.645 248.226 142.718 240.669 139.821C241.747 137.888 242.517 135.803 242.84 133.582C244.214 124.118 238.48 115.087 229.565 111.725C228.466 111.311 227.369 111.026 226.278 110.838C224.145 109.24 221.823 108.234 219.432 107.797C217.788 105.448 215.888 103.25 213.678 101.27C212.283 100.019 210.841 98.8489 209.36 97.7535C211.823 90.3732 208.737 81.1613 201.848 77.4078C196.782 74.6483 191.261 75.2709 186.798 77.972C186.693 77.9687 186.59 77.9554 186.483 77.9554C182.151 77.9554 178.433 81.029 177.406 85.0812C176.246 84.8971 175.085 84.7263 173.917 84.5831C172.546 84.4156 171.16 84.2899 169.763 84.2062C168.804 81.9603 167.657 79.8411 166.316 77.9356C159.539 68.3094 148.394 66.6696 139.137 73.9518C136.75 75.8296 134.865 77.9224 133.405 80.165C127.754 77.5731 121.249 76.9592 114.837 78.5682C102.466 81.6726 93.2052 94.5554 92.8944 107.049C85.0105 106.397 76.9646 107.985 70.1684 112.168C59.0037 119.041 55 132.189 57.1644 144.623C58.8946 154.561 67.6987 160.952 77.2203 161.794C77.7999 167.148 79.0926 172.412 80.9903 177.458C80.6189 177.744 80.263 178.055 79.9401 178.414C78.3994 180.13 77.1597 182.188 76.2229 184.431C75.3137 182.966 73.8414 181.874 72.4959 180.881C71.4974 180.143 70.2488 179.629 69.0322 179.403C66.9042 179.006 64.9635 178.822 62.8454 179.493C60.9874 180.082 58.9651 181.111 57.6813 182.627C56.2861 184.276 55.0871 186.017 54.6617 188.194C54.2573 190.262 54.2209 191.86 54.4512 193.708C54.4876 194.275 54.5757 194.828 54.7124 195.364C54.7278 195.447 54.7388 195.526 54.7554 195.61C54.7796 195.695 54.816 195.774 54.8413 195.858C54.8524 195.895 54.8678 195.929 54.8788 195.966C55.3406 197.401 56.0921 198.666 57.1644 199.745C58.6665 201.247 60.6512 202.188 62.7495 202.425C62.7826 202.429 62.8145 202.436 62.8465 202.441C63.1584 202.472 63.4724 202.489 63.7876 202.489C64.5039 202.489 65.2015 202.397 65.8749 202.239C68.9275 202.933 72.3603 202.037 74.6602 199.895C76.0069 206.719 80.1968 212.598 87.6884 214.191C87.9783 214.252 88.2593 214.29 88.5436 214.336C88.0565 218.025 87.9937 221.721 88.245 225.091C89.3801 240.309 100.478 248.167 114.867 249.556C128.243 250.847 144.209 242.602 150.749 230.958C151.891 228.925 152.967 226.776 153.931 224.549C155.911 224.626 157.889 224.635 159.859 224.578C159.195 230.541 161.044 237.631 162.964 241.932C163.166 242.386 163.391 242.829 163.627 243.268C162.515 242.794 161.3 242.53 160.032 242.53C154.927 242.53 150.665 246.791 150.665 251.898V252.633C150.665 257.74 154.927 262 160.032 262C165.138 262 169.4 257.74 169.4 252.633V251.898C169.4 251.243 169.328 250.603 169.195 249.983C175.818 255.409 185.355 257.187 192.835 252.161C198.676 248.237 201.848 241.862 202.811 234.924C208.772 233.582 214.505 231.563 219.533 229.32C233.347 223.16 247.742 210.654 252.39 195.526C253.764 194.202 255.049 192.785 256.229 191.285C264.706 180.506 266.242 166.718 259.164 154.781ZM157.443 163.485C157.363 163.247 157.282 163.009 157.209 162.754C157.417 162.535 157.624 162.314 157.836 162.099C157.717 162.558 157.587 163.02 157.443 163.485Z" fill="#FBFDFD"/>
<path fill-rule="evenodd" clip-rule="evenodd" d="M202.457 188.011C202.995 184.91 198.089 184.543 195.931 183.213C194.498 182.332 193.493 181.154 192.841 179.561C193.59 178.256 194.24 177.241 194.309 175.502C194.379 173.813 193.459 172.525 193.428 171.095C193.386 169.131 194.59 168.489 195.833 167.362C202.065 161.704 205.784 156.631 205.085 144.733C204.412 133.307 200.616 125.573 200.969 112.661C205.008 113.467 209.061 111.417 211.059 109.346C215.473 104.764 216.352 94.7804 213.215 88.9741C210.027 83.0654 200.246 82.1568 195.516 86.6931C195.493 88.3785 196.106 90.7543 196.376 92.6702C192.011 92.0224 187.737 92.7935 183.659 92.967C180.089 85.9647 175.428 77.8547 170.14 71.5988C169.431 70.7604 168.429 69.5284 167.515 68.4235C165.423 65.8949 165.2 64.7654 161.127 65.0404C156.985 65.3192 151.608 66.2572 148.383 67.3792C148.386 68.9451 147.772 71.0402 148.634 72.0901C154.165 72.7863 160.961 69.1803 165.27 72.0019C169.214 78.3317 173.707 84.1276 176.937 91.1498C175.453 89.3725 171.317 89.6219 169.569 90.5789C163.901 93.6793 164.77 105.494 172.989 104.592C173.98 104.485 174.615 103.899 175.512 103.684C176.955 110.106 176.574 119.198 174.737 126.115C171.672 137.665 168.386 153.976 176.117 163.169C178.223 165.677 181.077 167.146 184.199 168.93C184.755 171.623 182.905 171.694 182.254 173.454C181.34 175.93 181.981 178.127 184.058 179.442C182.341 180.751 181.439 181.673 179.148 182.672C177.904 183.213 174.299 183.98 174.547 186.374C174.747 188.303 178.462 189.291 180.621 189.752C183.446 190.356 186.185 190.949 188.763 191.118C191.292 191.286 193.645 190.614 196.778 190.286C199.395 190.014 202.206 189.448 202.457 188.011Z" fill="#3D1313"/>
<path fill-rule="evenodd" clip-rule="evenodd" d="M216.555 97.494C216.173 99.9115 215.731 102.269 215.202 104.537C217.001 104.436 218.283 99.222 216.555 97.494Z" fill="#3D1313"/>
<path fill-rule="evenodd" clip-rule="evenodd" d="M163.458 66.6405C163.339 67.5785 162.726 68.01 162.642 68.985C158.066 69.0533 154.501 70.1658 150.532 70.86C150.518 69.7324 150.698 68.8057 150.885 67.8829C154.811 67.1944 158.766 66.5409 163.458 66.6405Z" fill="#77EDD7"/>
<path fill-rule="evenodd" clip-rule="evenodd" d="M164.547 67.4409C164.749 67.4997 164.788 67.7198 165.012 67.7615C165.098 68.4861 164.649 68.6587 164.677 69.3245C164.197 69.4317 164.105 69.1566 163.736 69.1547C163.966 68.5411 164.252 67.9872 164.547 67.4409Z" fill="#77EDD7"/>
<path fill-rule="evenodd" clip-rule="evenodd" d="M166.407 69.0353C166.859 69.2344 167.37 69.9609 167.017 70.4551C166.223 70.291 166.241 69.8386 166.407 69.0353Z" fill="#77EDD7"/>
<path fill-rule="evenodd" clip-rule="evenodd" d="M168.098 71.5674C168.811 71.7021 168.774 72.5614 169.337 72.8421C168.944 73.2851 168.514 73.6929 167.91 73.9224C167.754 73.506 167.295 73.3846 167.139 72.9702C167.304 72.3442 167.819 72.0777 168.098 71.5674Z" fill="#77EDD7"/>
<path fill-rule="evenodd" clip-rule="evenodd" d="M182.829 96.407C181.412 96.3511 181.274 94.7435 180.822 93.869C177.46 87.3742 173.289 80.8072 168.835 75.1887C169.05 74.668 169.76 74.6547 169.949 74.1046C175.286 80.5227 178.764 88.7513 182.829 96.407Z" fill="#77EDD7"/>
<path fill-rule="evenodd" clip-rule="evenodd" d="M201.622 87.561C201.221 89.0216 200.865 91.0247 200.607 93.0401C200.464 94.1611 200.876 95.8588 199.777 96.3236C198.626 94.1422 198.232 91.22 197.688 88.4487C198.899 88.0494 200.074 87.6131 201.622 87.561Z" fill="#FBFDFD"/>
<path fill-rule="evenodd" clip-rule="evenodd" d="M202.408 87.5732C203.75 87.503 204.46 88.0521 205.536 88.2418C205.432 88.7682 205.075 89.0404 205.204 89.8067C206.499 90.1311 206.301 88.9199 207.099 88.7341C209.3 89.8456 210.099 92.3182 210.463 95.2128C208.16 95.1246 206.448 95.6472 204.491 95.9156C204.649 94.6788 203.878 94.3459 203.583 93.5512C203.8 93.1917 204.043 92.8559 204.07 92.3002C203.101 92.0811 202.461 93.4876 202.002 94.3127C201.645 92.1949 202.4 89.8437 202.408 87.5732ZM204.561 90.8974C205.527 91.0644 205.503 89.8598 204.574 89.9547C204.354 90.152 204.348 90.6945 204.561 90.8974ZM207.361 92.6606C208.153 92.6795 208.396 92.1342 208.322 91.2607C207.521 90.7419 206.575 92.027 207.361 92.6606Z" fill="#FBFDFD"/>
<path fill-rule="evenodd" clip-rule="evenodd" d="M176.9 93.8158C174.924 93.7153 174.706 92.6141 172.516 92.9708C166.349 93.9751 167.998 104.463 174.606 101.004C172.05 104.075 168.198 100.969 167.736 98.4015C167.351 96.2609 168.543 93.3511 170.171 92.3125C172.01 91.1393 176.292 91.1611 176.9 93.8158Z" fill="#FBFDFD"/>
<path fill-rule="evenodd" clip-rule="evenodd" d="M174.384 94.0957C174.997 94.5111 173.227 95.0991 173.106 95.8057C173.189 97.2208 173.686 98.2347 173.998 99.4268C173.105 99.9011 172.864 100.483 171.631 100.336C167.566 99.8527 169.525 92.2975 174.384 94.0957Z" fill="#FBFDFD"/>
<path fill-rule="evenodd" clip-rule="evenodd" d="M196.819 94.715C196.795 95.5638 197.17 96.0229 197.103 96.9144C193.201 97.1098 189.466 97.1392 185.49 96.9134C185.565 96.1708 184.963 96.0826 185.04 95.339C188.854 95.0156 192.754 94.7804 196.819 94.715Z" fill="#FBFDFD"/>
<path fill-rule="evenodd" clip-rule="evenodd" d="M210.757 96.7864C210.673 98.027 210.878 99.5625 210.547 100.551C208.42 99.6308 206.617 98.3902 204.312 97.6428C206.151 97.1383 208.736 96.5778 210.757 96.7864Z" fill="#FFB448"/>
<path fill-rule="evenodd" clip-rule="evenodd" d="M175.137 96.4601C176.029 96.6792 177.635 96.8423 178.895 97.1392C179.928 97.3829 181.666 97.5185 181.54 98.743C178.906 98.4708 176.725 97.7528 175.137 96.4601Z" fill="#FBFDFD"/>
<path fill-rule="evenodd" clip-rule="evenodd" d="M201.48 98.0725C201.875 98.6975 200.922 99.2979 200.983 100.108C200.32 99.6175 199.534 99.2438 198.645 98.9773C199.537 98.6226 200.726 98.5695 201.48 98.0725Z" fill="#FBFDFD"/>
<path fill-rule="evenodd" clip-rule="evenodd" d="M203.363 98.0981C205.665 99.3159 207.707 100.786 210.219 101.8C209.815 103.614 208.945 104.946 207.963 106.165C207.124 105.036 206.633 103.86 205.816 102.526C204.898 101.036 203.449 100.132 203.363 98.0981Z" fill="#FFB448"/>
<path fill-rule="evenodd" clip-rule="evenodd" d="M182.49 98.2858C183.222 97.9406 184.226 98.6547 184.994 98.7904C184.566 99.146 183.478 98.8254 182.795 98.9184C182.777 98.6263 182.698 98.393 182.49 98.2858Z" fill="#FBFDFD"/>
<path fill-rule="evenodd" clip-rule="evenodd" d="M176.051 98.5125C177.151 98.835 177.783 99.6136 179.173 99.6535C178.467 100.199 177.622 100.607 176.8 101.034C176.681 100.067 176.157 99.4932 176.051 98.5125Z" fill="#FBFDFD"/>
<path fill-rule="evenodd" clip-rule="evenodd" d="M185.592 100.839C185.14 101.462 183.971 101.829 184.781 102.87C185.318 102.945 185.662 102.818 186.038 102.728C185.99 103.393 186.437 103.579 186.331 104.303C185.614 104.38 185.358 104.012 184.607 104.123C184.267 102.905 183.879 101.735 183.399 100.653C183.603 100.162 185.62 100.123 185.592 100.839Z" fill="#FBFDFD"/>
<path fill-rule="evenodd" clip-rule="evenodd" d="M203.328 100.766C204.562 102.816 205.903 104.762 206.849 107.092C206.351 107.323 206.167 107.876 205.427 107.857C204.812 105.47 202.478 103.607 203.328 100.766Z" fill="#FBFDFD"/>
<path fill-rule="evenodd" clip-rule="evenodd" d="M182.3 100.638C182.678 101.503 182 101.399 181.965 102.203C182.139 103.117 183.49 102.885 183.351 104.104C181.475 103.505 179.368 103.128 177.725 102.302C178.544 101.02 180.159 100.558 182.3 100.638Z" fill="#FBFDFD"/>
<path fill-rule="evenodd" clip-rule="evenodd" d="M199.852 102.446C199.985 102.417 199.998 102.508 200.007 102.604C200.14 102.578 200.154 102.668 200.161 102.764C198.097 110.248 198.665 118.626 199.995 126.615C201.302 134.473 203.874 142.122 202.974 149.882C202.7 152.225 201.64 154.94 200.679 157.069C198.721 161.408 196.212 164.91 191.136 166.358C187.301 167.449 183.533 165.816 180.492 164.328C174.04 158.626 172.572 147.902 174.579 137.41C176.375 128.043 179.674 117.175 178.451 106.705C178.332 105.699 178.008 104.714 177.862 103.716C179.863 104.295 181.559 105.175 183.803 105.522C185.158 109.933 186.202 114.643 188.177 118.449C187.739 113.666 185.733 110.403 185.213 105.699C187.246 105.069 187.218 107.307 187.529 108.397C189.874 116.643 193.056 126.097 195.334 134.554C195.703 129.642 193.496 124.788 192.551 119.923C191.59 114.979 190.46 110.126 188.82 105.749C193.429 105.605 197.039 104.435 199.852 102.446ZM182.215 106.914C181.775 107.189 181.759 108.353 182.191 108.639C184.252 109.164 183.778 106.116 182.215 106.914ZM193.429 113.188C193.172 113.792 193.155 114.964 193.555 115.386C194.305 115.688 195.157 115.892 195.899 116.203C196.101 116.196 196.12 116.005 196.373 116.05C197.742 113.832 195.237 111.507 193.429 113.188ZM182.32 122.295C182.902 120.431 183.414 116.288 181.947 115.07C181.631 117.313 181.789 120.369 182.32 122.295ZM187.758 126.291C188.67 125.584 188.612 123.249 187.65 122.682C183.76 122.03 184.033 127.261 187.758 126.291ZM185.251 160.626C183.038 156.379 180.541 151.84 180.115 145.963C179.594 138.783 182.357 132.1 181.656 124.953C178.564 135.962 176.14 154.755 185.251 160.626ZM193.028 142.685C193.544 144.99 193.782 147.381 194.822 149.3C195.049 144.113 193.19 138.303 191.736 133.723C191.537 133.71 191.523 133.517 191.27 133.558C191.365 136.825 192.341 139.62 193.028 142.685ZM193.54 162.78C197.461 160.71 199.977 157.197 201.215 152.369C200.991 152.328 200.953 152.108 200.747 152.048C199.321 156.629 196.429 159.703 193.54 162.78Z" fill="#FF314A"/>
<path fill-rule="evenodd" clip-rule="evenodd" d="M202.035 103.416C202.838 105.116 203.563 106.886 204.318 108.628C203.079 109.226 202.063 108.652 201.345 107.957C201.396 106.258 201.647 104.768 202.035 103.416Z" fill="#FBFDFD"/>
<path fill-rule="evenodd" clip-rule="evenodd" d="M194.364 113.669C194.898 113.717 195.174 114.017 195.136 114.622C194.953 114.596 194.855 114.653 194.818 114.775C194.104 114.699 194.231 114.266 194.364 113.669Z" fill="#FBFDFD"/>
<path fill-rule="evenodd" clip-rule="evenodd" d="M187.165 123.773C187.159 124.193 187.153 124.611 187.148 125.029C186.566 124.909 186.472 125.287 185.89 125.167C185.458 124.668 185.709 124.335 185.91 123.756C186.563 123.802 186.653 123.511 187.165 123.773Z" fill="#FBFDFD"/>
<path fill-rule="evenodd" clip-rule="evenodd" d="M186.698 169.748C188.063 170.07 189.251 170.566 191.081 170.437C190.143 170.922 187.838 170.789 186.687 170.534C186.69 170.272 186.694 170.012 186.698 169.748Z" fill="#FBFDFD"/>
<path fill-rule="evenodd" clip-rule="evenodd" d="M190.739 172.629C191.703 173.265 191.996 174.935 191.629 176.407C190.024 176.667 189.55 178.089 187.527 177.921C186.61 177.006 186.905 174.915 186.649 173.357C185.325 173.481 185.466 175.784 185.659 176.953C184.866 176.347 184.511 175.005 184.755 174.117C185.369 171.878 188.427 173.046 190.739 172.629Z" fill="#FBFDFD"/>
<path fill-rule="evenodd" clip-rule="evenodd" d="M184.189 181.17C184.617 181.062 184.501 181.488 184.811 181.494C183.447 182.802 182.032 184.889 179.437 184.403C181.018 183.324 182.984 182.64 184.189 181.17Z" fill="#FBFDFD"/>
<path fill-rule="evenodd" clip-rule="evenodd" d="M196.994 185.738C192.494 186.447 186.915 185.541 182.565 185.071C183.625 183.987 185.008 183.235 186.057 182.138C188.049 182.233 190.179 182.597 191.71 181.903C193.118 183.525 194.753 184.926 196.994 185.738Z" fill="#FBFDFD"/>
<path fill-rule="evenodd" clip-rule="evenodd" d="M177.376 185.943C182.26 186.711 187.221 187.406 192.574 187.718C187.837 188.721 181.577 187.726 177.523 186.572C177.402 186.432 177.36 186.216 177.376 185.943Z" fill="#FBFDFD"/>
<path fill-rule="evenodd" clip-rule="evenodd" d="M201.153 110.624C207.93 110.869 212.773 105.007 212.02 96.1775C211.753 93.0087 210.652 89.3876 208.523 87.9697C205.961 86.2578 200.763 85.9989 197.387 87.505C197.961 86.6267 199.14 86.5328 200.072 86.2844C204.481 85.1092 209.295 86.07 211.479 89.8922C214.259 94.7567 213.379 104.106 209.977 107.92C208.387 109.704 204.38 111.992 201.153 110.624Z" fill="#FFB448"/>
<path fill-rule="evenodd" clip-rule="evenodd" d="M186.853 100.386C189.601 100.711 195.31 99.9911 198.303 101.011C196.828 103.372 192.395 104.06 188.369 104.33C187.784 103.092 187.502 101.565 186.853 100.386Z" fill="#FBFDFD"/>
<path fill-rule="evenodd" clip-rule="evenodd" d="M190.947 180.323C189.888 181.233 187.61 181.135 186.076 180.728C187.048 180.448 189.633 181.048 190.947 180.323Z" fill="#FBFDFD"/>
<path fill-rule="evenodd" clip-rule="evenodd" d="M158.998 138.491C159.001 135.08 157.007 132.193 157.133 129.015C157.187 127.653 157.821 125.972 158.138 124.566C158.462 123.121 159.149 121.703 158.855 120.117C158.351 119.377 157.245 119.239 155.984 119.255C155.056 120.1 154.9 121.713 154.405 122.987C153.05 123.216 151.433 123.863 151.104 125.141C150.839 126.169 151.578 127.349 151.393 128.586C151.153 130.169 149.699 131.971 149.238 133.18C148.136 128.3 146.696 123.761 145.075 119.4C143.762 120.082 142.474 120.499 141.343 119.974C139.087 121.975 137.87 125.016 135.744 127.15C135.685 126.013 135.369 125.133 134.882 124.423C132.89 124.594 129.732 123.826 128.853 126.002C128.129 127.793 129.086 130.203 128.708 132.749C127.995 133.183 126.737 133.835 126.126 133.897C126.213 131.551 126.721 127.698 125.694 126.002C124.024 125.749 122.112 125.987 121.388 126.863C120.301 125.223 119.667 123.131 118.085 121.982C117.079 122.505 116.484 123.443 115.789 124.279C114.02 124.486 112.043 125.58 111.628 127.294C110.861 130.451 112.11 135.082 112.057 138.06C111.538 138.499 110.984 139.662 110.479 139.639C109.616 136.673 109.362 133.1 107.894 130.74C105.148 130.161 103.357 132.151 104.019 134.615C102.969 132.219 102.033 129.711 100.286 128.011C98.9337 128.428 97.7851 129.051 97.5594 130.595C98.4633 133.138 99.056 137.233 100.144 140.07C98.2006 138.518 94.293 138.934 91.8176 137.916C87.9385 140.505 91.8555 142.494 94.1137 144.377C95.8257 145.801 97.2275 146.971 98.1351 148.108C97.474 149.739 98.2157 150.902 98.5647 152.415C99.2021 155.186 99.7048 157.839 100.287 160.598C101.825 167.867 103.591 175.053 104.737 182.56C104.988 184.189 105.277 185.985 105.744 188.158C106.2 190.286 106.065 192.816 106.749 193.901C107.387 194.913 110.249 195.18 111.915 195.337C116.536 195.769 120.792 195.845 125.409 196.055C128.132 196.178 131.036 195.975 134.31 196.197C138.55 196.487 143.895 197.281 148.666 197.49C152.65 197.666 157.753 198.151 157.135 194.189C158.308 191.799 160.13 189.396 161.154 186.437C162.537 182.44 162.494 176.76 162.732 171.508C162.986 165.921 163.206 160.644 163.45 155.286C163.699 149.787 164.151 143.826 163.164 138.778C162.227 137.801 160.483 138.179 158.998 138.491Z" fill="#3D1313"/>
<path fill-rule="evenodd" clip-rule="evenodd" d="M156.127 120.69C156.768 120.627 157.174 120.792 157.564 120.978C157.228 122.554 156.611 123.85 156.415 125.57C155.387 124.26 155.551 122.352 156.127 120.69Z" fill="#FBFDFD"/>
<path fill-rule="evenodd" clip-rule="evenodd" d="M151.821 146.672C151.393 146.96 150.468 146.753 149.812 146.816C149.21 144.857 148.693 142.804 148.088 140.787C147.52 138.886 146.512 136.958 146.223 135.044C145.891 132.836 146.658 130.431 145.936 128.154C145.384 128.071 144.843 127.952 144.07 128.154C144.07 126.888 142.98 126.259 142.922 125.139C142.851 123.836 144.182 122.593 143.782 121.119C144.084 121.18 144.162 121.022 144.357 120.977C146.879 129.509 148.556 138.884 151.821 146.672Z" fill="#FFB448"/>
<path fill-rule="evenodd" clip-rule="evenodd" d="M142.06 122.125C142.291 122.085 142.308 122.261 142.491 122.269C140.375 126.324 138.896 131.019 136.749 135.044C135.368 131.544 137.776 129.882 139.333 127.437C140.544 125.535 141.46 123.816 142.06 122.125Z" fill="#FBFDFD"/>
<path fill-rule="evenodd" clip-rule="evenodd" d="M117.8 123.848C118.947 125.238 119.78 126.941 120.814 128.442C120.585 129.408 120.221 130.241 120.098 131.313C118.831 129.42 118.149 126.946 116.939 124.998C117.003 124.391 117.619 124.335 117.8 123.848Z" fill="#FBFDFD"/>
<path fill-rule="evenodd" clip-rule="evenodd" d="M154.263 124.566C154.386 124.54 154.398 124.623 154.404 124.709C155.292 129.61 156.438 135.027 157.418 140.069C157.726 141.643 158.673 143.215 158.138 144.806C155.207 139.505 154.83 131.653 153.113 125.14C153.454 124.907 153.939 124.816 154.263 124.566Z" fill="#FFB448"/>
<path fill-rule="evenodd" clip-rule="evenodd" d="M156.127 146.385C154.502 139.877 152.99 132.488 152.253 125.569C152.379 125.482 152.509 125.397 152.537 125.569C152.661 125.545 152.674 125.626 152.682 125.714C154.091 131.437 155.205 138.32 156.559 144.518C156.705 145.19 157.329 146.21 156.127 146.385Z" fill="#FFB448"/>
<path fill-rule="evenodd" clip-rule="evenodd" d="M119.955 153.849C118.707 154.082 118.97 152.468 118.805 151.696C118.599 150.726 118.376 149.756 117.943 149.256C117.333 150.299 118.1 152.318 117.943 153.849C117.218 153.839 116.755 154.096 115.934 153.993C114.988 145.562 114.057 137.113 112.776 129.014C113.46 127.879 114.332 126.934 115.217 126C117.382 134.602 118.922 144.593 119.955 153.849ZM115.647 141.217C115.567 137.333 114.983 131.197 113.781 128.441C113.459 133.076 114.33 137.745 115.647 141.217ZM116.222 142.079C116.413 142.284 117.035 142.284 117.227 142.079C117.393 141.156 116.097 141.206 116.222 142.079ZM117.8 146.816C118.06 146.17 117.948 144.789 117.37 144.518C116.565 144.901 117.15 146.573 117.8 146.816Z" fill="#FFB448"/>
<path fill-rule="evenodd" clip-rule="evenodd" d="M134.021 126.001C134.642 134.758 134.768 144.013 135.026 153.132C134.076 153.282 132.983 153.289 132.012 153.419C131.292 144.569 130.15 135.375 130.289 126.144C131.384 125.914 132.507 126.05 134.021 126.001ZM133.59 142.797C133.829 137.678 133.752 131.632 133.305 126.719C133.162 126.719 133.017 126.719 132.873 126.719C132.369 131.775 132.309 138.599 133.59 142.797ZM132.011 128.585C130.413 126.985 131.136 130.717 132.011 128.585V128.585ZM132.443 145.237C132.954 145.269 133.194 145.031 133.162 144.519C132.956 144.485 132.918 144.283 132.729 144.232C132.413 144.364 132.086 144.863 132.443 145.237ZM133.304 150.979C134.804 150.659 134.196 146.947 133.734 145.954C133.328 147.366 133.577 149.432 133.304 150.979Z" fill="#FFB448"/>
<path fill-rule="evenodd" clip-rule="evenodd" d="M142.06 127.005C142.492 127.292 142.345 128.157 142.777 128.442C141.395 129.716 140.974 132.588 140.338 135.189C139.009 140.613 138.081 147.199 137.035 152.989C136.153 152.449 136.719 151.539 136.749 150.835C136.898 147.293 136.088 142.615 136.749 139.208C137.03 137.757 138.724 135.05 139.477 133.465C140.576 131.155 141.326 128.919 142.06 127.005Z" fill="#FBFDFD"/>
<path fill-rule="evenodd" clip-rule="evenodd" d="M116.795 127.293C117.962 130.519 120.424 133.28 118.805 137.341C118.028 134.1 117.41 130.697 116.795 127.293Z" fill="#FBFDFD"/>
<path fill-rule="evenodd" clip-rule="evenodd" d="M124.689 127.437C124.834 127.437 124.978 127.437 125.121 127.437C124.065 136.047 124.288 145.933 122.538 153.85C122.053 144.94 123.691 135.805 124.689 127.437Z" fill="#FFB448"/>
<path fill-rule="evenodd" clip-rule="evenodd" d="M123.973 127.58C122.281 134.933 122.205 143.901 121.389 152.128C120.979 150.247 120.639 148.312 120.384 146.385C120.126 144.433 119.522 142.384 119.522 140.5C119.522 138.545 120.553 136.291 120.959 134.184C121.446 131.643 121.729 129.335 122.824 127.58C123.207 127.58 123.59 127.58 123.973 127.58Z" fill="#FFB448"/>
<path fill-rule="evenodd" clip-rule="evenodd" d="M105.311 146.672C103.499 143.659 101.664 139.105 100.144 134.901C99.4224 132.908 97.6593 130.615 99.5694 129.303C100.406 130.152 101.135 132.034 102.011 133.897C102.718 135.41 103.865 137.028 104.165 138.06C104.979 140.873 104.269 143.754 105.311 146.672ZM102.873 138.204C102.697 137.181 102.613 136.071 101.579 135.906C101.665 136.943 102.107 138.315 102.873 138.204Z" fill="#FFB448"/>
<path fill-rule="evenodd" clip-rule="evenodd" d="M151.534 131.17C151.823 134.126 153.063 138.018 151.393 140.07C150.663 138.884 150.53 137.103 149.957 135.763C150.474 134.223 151.037 132.729 151.534 131.17ZM150.961 136.05C151.937 136.896 152.095 134.729 151.105 135.477C150.891 135.502 150.972 135.823 150.961 136.05Z" fill="#FBFDFD"/>
<path fill-rule="evenodd" clip-rule="evenodd" d="M111.196 152.414C110.039 151.704 108.602 150.031 107.32 148.968C106.333 143.926 105.755 138.478 105.024 133.179C105.405 132.46 106.216 132.171 106.89 131.745C108.603 138.356 110.016 145.27 111.196 152.414ZM109.475 147.965C109.229 143.427 107.859 138.767 106.89 134.47C106.859 134.36 106.771 134.304 106.604 134.327C107.034 139.398 107.893 144.043 109.475 147.965Z" fill="#FFB448"/>
<path fill-rule="evenodd" clip-rule="evenodd" d="M128.567 134.184C129.155 140.629 129.35 147.469 130.288 153.563C129.905 153.563 129.524 153.563 129.141 153.563C128.31 148.391 126.75 142.7 126.412 136.625C126.374 135.929 125.945 134.932 127.131 134.902C127.351 135.973 127.726 136.891 127.991 137.917C128.541 137.248 127.825 135.554 127.704 134.616C128.072 134.551 128.365 134.413 128.567 134.184Z" fill="#FFB448"/>
<path fill-rule="evenodd" clip-rule="evenodd" d="M145.936 139.208C146.952 140.555 146.221 142.365 145.791 143.801C145.487 142.491 146.07 140.826 145.936 139.208Z" fill="#FBFDFD"/>
<path fill-rule="evenodd" clip-rule="evenodd" d="M111.914 139.639C113 144.152 112.948 149.803 113.925 154.424C113.463 154.393 113.318 154.678 112.776 154.568C112.496 150.285 111.906 145.117 110.767 141.217C110.906 140.448 111.777 140.409 111.914 139.639Z" fill="#FBFDFD"/>
<path fill-rule="evenodd" clip-rule="evenodd" d="M160.865 139.781C160.506 140.475 160.016 141.039 159.716 141.792C159.174 141.664 159.665 140.505 159.286 140.211C159.55 139.805 160.364 139.951 160.865 139.781Z" fill="#FBFDFD"/>
<path fill-rule="evenodd" clip-rule="evenodd" d="M92.1042 140.644C95.8629 141.958 98.9548 143.937 102.583 145.381C103.055 146.489 103.723 147.4 104.164 148.539C102.92 148.492 101.934 148.703 101.005 148.968C97.9115 146.703 95.8875 143.367 92.1042 141.792C92.1042 141.408 92.1042 141.025 92.1042 140.644ZM99.282 145.954C99.2327 145.62 99.19 145.282 98.7063 145.381C98.2605 145.777 98.8855 146.401 99.282 145.954Z" fill="#FFB448"/>
<path fill-rule="evenodd" clip-rule="evenodd" d="M152.683 140.644C153.302 142.369 154.023 144.76 153.975 146.672C153.082 145.04 151.763 142.827 152.683 140.644Z" fill="#FBFDFD"/>
<path fill-rule="evenodd" clip-rule="evenodd" d="M161.727 141.505C162.381 144.601 160.108 146.011 158.568 147.39C159.418 145.226 160.852 143.647 161.727 141.505Z" fill="#FBFDFD"/>
<path fill-rule="evenodd" clip-rule="evenodd" d="M125.554 143.657C126.456 146.822 126.808 150.536 127.85 153.561C126.684 153.642 125.632 153.834 124.404 153.849C125.002 150.669 125.406 147.292 125.554 143.657Z" fill="#FFB448"/>
<path fill-rule="evenodd" clip-rule="evenodd" d="M147.084 143.657C147.72 144.55 147.889 145.914 148.233 147.102C147.383 146.97 146.844 147.421 146.223 147.102C146.4 145.845 146.908 144.916 147.084 143.657Z" fill="#FBFDFD"/>
<path fill-rule="evenodd" clip-rule="evenodd" d="M161.727 145.954C161.726 153.251 161.188 163.442 160.865 171.506C160.747 174.463 161.162 177.668 160.722 180.118C160.226 182.871 157.77 185.593 157.563 188.302C157.996 180.536 158.743 171.217 158.711 162.174C158.703 160.234 158.897 158.005 158.998 155.859C159.098 153.789 158.512 151.232 158.855 149.543C159.153 148.072 161.17 147.36 161.727 145.954Z" fill="#FF314A"/>
<path fill-rule="evenodd" clip-rule="evenodd" d="M155.984 148.539C156.081 148.539 156.176 148.539 156.272 148.539C156.272 148.826 156.272 149.112 156.272 149.4C153.963 150.201 150.791 150.139 148.089 150.548C146.705 151.747 146.565 154.191 145.649 155.86C137.639 157.146 125.663 157.665 116.795 158.158C115.087 158.252 113.295 158.809 111.914 158.444C110.667 158.113 109.137 155.87 108.47 154.999C107.407 153.613 106.853 152.178 105.599 151.122C103.657 150.952 100.877 151.894 99.8585 150.549C101.67 151.09 104.184 150.687 105.887 150.262C107.1 151.179 107.837 152.393 108.901 153.563C109.751 154.496 110.971 156.459 112.347 156.72C113.898 157.018 116.576 156.374 118.805 156.29C127.741 155.955 136.695 155.826 143.927 154.711C144.924 152.982 145.845 151.176 146.512 149.113C149.835 149.088 153.165 149.068 155.984 148.539Z" fill="#FBFDFD"/>
<path fill-rule="evenodd" clip-rule="evenodd" d="M155.842 150.979C155.969 154.824 155.698 158.952 155.698 163.18C155.698 172.891 156.315 182.65 155.268 192.034C146.116 193.099 136.675 192.697 127.417 192.034C121.309 191.597 115.997 190.148 109.762 190.455C109.381 188.553 109.623 185.006 108.47 183.42C107.604 184.957 108.748 187.445 108.758 189.307C108.76 189.924 109.147 190.591 108.183 190.598C107.633 190.412 107.458 189.118 107.321 188.445C106.828 186.014 106.688 183.364 106.316 180.838C104.845 170.817 102.283 161.432 100.287 151.984C101.691 152.211 103.467 152.156 104.882 151.984C106.078 153.081 106.795 154.517 107.897 156.004C108.689 157.077 109.869 159.427 111.198 159.736C112.479 160.033 114.741 159.591 116.51 159.449C125.964 158.691 136.975 157.838 146.368 156.72C147.426 155.339 147.762 153.235 148.379 151.409C150.974 151.375 153.537 151.309 155.842 150.979ZM103.302 155.716C103.536 155.056 103.322 153.976 103.015 153.419C102.873 153.419 102.729 153.419 102.582 153.419C102.331 154.209 102.29 155.741 103.302 155.716ZM154.263 165.191C154.719 161.631 154.934 156.768 154.117 153.42C153.582 156.798 153.039 162.191 154.263 165.191ZM119.091 164.473C115.347 168.524 115.698 177.02 119.091 181.699C122.43 186.301 130.885 187.88 136.176 185.718C136.955 185.399 137.828 185.303 138.472 185C142.021 183.323 144.644 179.026 145.075 174.091C145.991 163.585 140.275 159.121 130.575 159.879C125.064 160.309 121.741 161.607 119.091 164.473ZM103.588 161.028C103.582 161.211 103.405 161.226 103.447 161.457C104.922 167.782 106.58 173.923 108.183 180.119C108.463 176.625 107.476 173.237 106.749 170.071C106.008 166.859 105.395 163.583 103.878 161.028C103.781 161.028 103.685 161.028 103.588 161.028Z" fill="#FF314A"/>
<path fill-rule="evenodd" clip-rule="evenodd" d="M157.419 152.845C157.587 152.822 157.676 152.877 157.707 152.988C158.317 155.44 157.856 158.608 157.707 161.889C157.602 164.203 158.153 166.837 157.134 168.06C156.88 163.003 157.323 157.967 157.419 152.845Z" fill="#FBFDFD"/>
<path fill-rule="evenodd" clip-rule="evenodd" d="M121.102 153.563C121.268 152.996 121.268 154.13 121.102 153.563V153.563Z" fill="#FBFDFD"/>
<path fill-rule="evenodd" clip-rule="evenodd" d="M130.288 161.746C136.917 160.981 142.22 164.395 142.777 169.784C143.178 173.668 141.992 177.904 140.481 180.119C136.107 186.542 122.816 185.504 119.954 178.971C118.768 176.268 118.931 170.039 120.239 167.2C121.583 164.285 124.949 162.36 130.288 161.746ZM122.681 165.621C119.66 168.933 118.819 177.945 122.394 181.124C125.354 183.759 132.489 184.738 135.601 181.267C130.987 182.498 126.187 183.125 123.112 180.263C119.84 177.218 120.6 168.256 123.828 165.334C125.901 163.457 129.37 163.776 132.584 162.895C128.823 161.937 124.715 163.389 122.681 165.621ZM135.314 163.899C141.191 164.689 141.732 173.558 138.758 178.253C137.997 179.458 136.514 180.045 136.176 181.411C143.283 180.34 142.986 162.66 135.314 163.899ZM121.819 174.52C122.318 176.508 127.414 178.217 129.141 179.546C130.097 180.279 130.621 181.197 131.581 181.266C133.164 181.382 134.347 179.968 134.739 179.257C134.845 177.767 135.187 175.356 135.458 172.654C135.773 169.506 137.887 163.416 133.879 164.472C132.119 167.353 131.038 170.914 131.151 175.669C128.446 174.164 125.784 172.613 122.825 171.362C122.662 172.18 121.454 173.065 121.819 174.52Z" fill="#77EDD7"/>
<path fill-rule="evenodd" clip-rule="evenodd" d="M134.594 166.051C134.84 165.998 134.865 166.163 134.883 166.34C133.861 169.784 133.343 174.443 133.735 178.828C133.178 179.004 132.735 179.643 131.869 179.547C130.906 179.438 130.583 178.291 129.715 177.679C128.086 176.534 123.888 175.579 123.398 173.661C124.063 173.58 124.571 174.341 125.264 174.808C125.919 175.251 126.731 175.601 127.561 176.1C128.973 176.949 130.98 179.039 132.442 178.541C133.176 177.938 132.818 177.108 132.873 176.387C133.138 172.769 133.831 169.36 134.594 166.051Z" fill="#FBFDFD"/>
<path fill-rule="evenodd" clip-rule="evenodd" d="M160.29 184.138C160.457 183.571 160.457 184.706 160.29 184.138V184.138Z" fill="#FBFDFD"/>
<path fill-rule="evenodd" clip-rule="evenodd" d="M108.182 191.747C116.689 192.153 124.056 192.554 132.298 193.183C139.636 193.743 147.004 193.863 154.836 193.901C153.959 195.478 151.83 195.05 150.242 195.05C144.977 195.05 139.214 194.201 133.879 194.189C127.89 194.173 121.991 194.058 116.222 193.614C113.346 193.393 110.481 193.743 108.04 192.609C108.056 192.37 107.961 191.307 108.182 191.747Z" fill="#FBFDFD"/>
<path fill-rule="evenodd" clip-rule="evenodd" d="M140.051 123.848C139.444 126.115 137.44 128.224 136.462 130.594C135.668 127.491 139.13 126.193 140.051 123.848Z" fill="#FBFDFD"/>
<path fill-rule="evenodd" clip-rule="evenodd" d="M142.491 138.491C143.615 136.312 143.223 132.619 143.781 129.877C144.185 129.8 144.531 129.666 144.931 129.589C144.096 137.272 144.25 145.944 142.634 152.844C141.428 152.884 140.034 152.733 139.046 152.988C139.986 146.13 141.196 139.541 142.49 133.035C142.532 132.501 142.847 133.458 142.49 133.323C142.491 135.044 142.491 136.768 142.491 138.491ZM142.203 141.074C141.855 143.032 142.027 145.941 141.915 148.395C141.845 149.945 141.239 151.698 142.347 152.558C142.713 148.949 142.857 144.364 142.634 140.644C142.491 140.644 142.347 140.644 142.203 140.644C142.203 140.787 142.203 140.93 142.203 141.074Z" fill="#FFB448"/>
<path fill-rule="evenodd" clip-rule="evenodd" d="M100.719 141.362C100.939 142.241 101.503 142.778 101.723 143.658C99.4945 141.914 96.1513 141.285 93.5412 139.926C93.3098 139.799 94.4555 139.991 94.9753 140.069C96.9091 140.356 99.0763 140.964 100.719 141.362Z" fill="#FFB448"/>
<path fill-rule="evenodd" clip-rule="evenodd" d="M190 189.923C190.737 187.477 189.943 184.706 187.002 184.994C187.821 184.349 188.607 183.632 189.07 182.248C195.098 181.524 192.306 171.98 187.284 170.668C188.092 169.685 188.35 168.268 188.203 167.244C187.901 165.159 184.501 161.916 182.456 160.661C178.057 157.966 173.007 157.786 169.036 157.782C166.542 157.781 164.034 157.928 161.495 157.927C156.988 157.921 150.677 157.855 147.023 159.257C145.201 159.955 143.087 161.453 141.297 162.946C139.584 164.372 137.457 166.797 136.536 168.638C135.697 170.318 136.378 170.936 135.62 172.062C136.352 173.525 135.972 175.524 137.503 176.601C134.398 178.382 133.704 184.95 138.798 184.82C137.783 185.944 139.026 186.822 139.171 187.725C137.307 189.777 137.431 193.114 139.203 194.392C137.501 196.301 137.351 199.373 138.486 201.216C140.186 203.973 144.004 204.043 147.427 204.613C149.304 204.925 151.327 205.356 153.17 205.646C156.854 206.219 160.183 205.99 163.646 205.832C166.94 205.683 170.363 205.156 173.477 204.685C179.383 203.791 184.102 202.753 188.658 200.133C192.29 198.043 193.521 192.08 190 189.923Z" fill="#3D1313"/>
<path fill-rule="evenodd" clip-rule="evenodd" d="M189.016 165.307C189.011 166.078 189.309 166.831 189.483 167.549C189.661 168.283 189.636 169.103 190.114 169.712C191.016 168.127 190.748 165.302 189.016 165.307Z" fill="#3D1313"/>
<path fill-rule="evenodd" clip-rule="evenodd" d="M137.181 164.007C135.888 164.693 133.052 167.441 134.709 169.107C135.606 168.569 135.228 167.469 135.571 166.635C136.011 165.568 137.373 164.981 137.181 164.007Z" fill="#3D1313"/>
<path fill-rule="evenodd" clip-rule="evenodd" d="M149.466 150.261C149.511 150.142 149.651 150.218 149.757 150.225C149.712 150.343 149.572 150.267 149.466 150.261Z" fill="#FBFDFD"/>
<path fill-rule="evenodd" clip-rule="evenodd" d="M178.906 165.664C178.154 166.004 177.233 165.075 176.599 164.72C176.936 163.076 179.712 164.241 178.906 165.664Z" fill="#FBFDFD"/>
<path fill-rule="evenodd" clip-rule="evenodd" d="M163.965 161.977C164.561 162.854 164.803 163.901 164.499 165.214C163.863 164.355 163.797 163.222 163.965 161.977Z" fill="#FBFDFD"/>
<path fill-rule="evenodd" clip-rule="evenodd" d="M172.206 164.991C173.081 165.847 171.484 166.783 170.73 166.834C171.123 166.014 171.721 165.616 172.206 164.991Z" fill="#FBFDFD"/>
<path fill-rule="evenodd" clip-rule="evenodd" d="M190.276 176.01C189.692 177.002 189.151 178.082 188.455 178.842C185.358 178.6 185.664 175.887 183.793 174.717C183.287 176.821 188.757 183.534 190.499 177.751C191.056 181.036 187.208 181.047 185.138 179.209C184.243 176.992 183.542 174.167 180.373 173.386C182.189 175.114 184.127 177.332 184.347 179.488C182.016 177.04 178.823 178.177 177.419 180.261C177.088 180.941 178.089 180.343 177.698 181.052C175.498 181.392 174.793 178.424 172.339 179.321C171.732 179.543 170.751 180.355 170.245 180.947C169.766 181.511 169.665 182.556 168.812 182.668C169.56 180.11 170.271 175.793 172.247 174.018C173.047 173.975 173.852 173.937 174.57 173.719C175.698 175.335 175.68 177.502 175.855 179.578C176.687 179.597 176.849 178.289 176.916 177.728C177.076 176.371 176.351 174.564 175.812 173.737C176.196 173.399 176.754 173.42 177.307 173.427C176.966 175.03 176.839 176.532 177.83 177.492C178.881 176.412 177.244 174.914 178.387 173.111C181.345 173.472 184.679 170.008 188.047 172.458C189.172 173.277 189.54 174.779 190.276 176.01ZM188.403 176.606C188.878 175.474 188.278 174 187.04 173.355C187.282 174.541 187.774 175.608 188.403 176.606ZM183.561 173.389C183.962 173.326 184.288 173.107 184.234 172.654C184.137 172.461 183.846 172.361 183.535 172.273C183.228 172.592 183.046 173.19 183.561 173.389ZM170.761 179.466C171.74 178.935 172.652 178.267 173.925 178.351C172.913 177.105 170.555 178.188 170.761 179.466Z" fill="#77EDD7"/>
<path fill-rule="evenodd" clip-rule="evenodd" d="M160.128 163.828C161.064 164.235 161.943 165.557 161.701 166.875C160.777 166.051 160.643 164.848 160.128 163.828Z" fill="#FBFDFD"/>
<path fill-rule="evenodd" clip-rule="evenodd" d="M156.117 163.399C156.997 164.49 155.163 165.683 154.544 166.319C154.664 165.358 155.393 163.822 156.117 163.399Z" fill="#FBFDFD"/>
<path fill-rule="evenodd" clip-rule="evenodd" d="M158.293 164.715C158.445 165.181 157.602 165.404 157.368 165.778C156.919 165.302 157.996 164.991 158.293 164.715Z" fill="#FBFDFD"/>
<path fill-rule="evenodd" clip-rule="evenodd" d="M165.783 168.297C166.072 168.878 165.733 169.735 165.179 170.028C164.815 169.544 165.459 168.643 165.783 168.297Z" fill="#FBFDFD"/>
<path fill-rule="evenodd" clip-rule="evenodd" d="M158.308 166.661C158.88 167.431 157.823 169.188 156.87 168.795C157.187 167.747 157.915 167.55 158.308 166.661Z" fill="#FBFDFD"/>
<path fill-rule="evenodd" clip-rule="evenodd" d="M149.114 163.592C149.207 164.431 148.369 165.168 147.807 165.354C147.806 164.713 148.682 164.049 149.114 163.592Z" fill="#FBFDFD"/>
<path fill-rule="evenodd" clip-rule="evenodd" d="M151.521 166.236C152.215 166.485 152.205 167.961 152.106 168.935C151.729 168.123 151.843 167.073 151.521 166.236Z" fill="#FBFDFD"/>
<path fill-rule="evenodd" clip-rule="evenodd" d="M183.99 181.307C180.087 183.659 174.88 183.309 170.16 183.972C170.441 183.49 170.748 183.062 170.968 182.451C172.249 182.118 173.713 182.172 174.954 181.761C176.661 183.005 178.738 183.083 179.317 180.787C180.9 180.366 182.726 179.58 183.99 181.307Z" fill="#FBFDFD"/>
<path fill-rule="evenodd" clip-rule="evenodd" d="M169.194 176.006C168.482 178.917 167.81 182.563 165.567 183.617C162.999 183.356 160.335 181.166 160.576 179.24C161.99 180.166 162.57 181.978 164.344 182.359C167.653 183.066 167.176 178.106 169.194 176.006Z" fill="#77EDD7"/>
<path fill-rule="evenodd" clip-rule="evenodd" d="M163.296 174.228C162.434 175.361 160.594 175.891 158.917 176.444C156.159 177.351 153.344 178.528 149.773 178.801C146.195 179.074 139.4 179.635 140.059 174.442C140.386 176.05 141.288 177.318 143.658 177.638C148.045 178.231 156.077 177.1 159.242 173.921C160.635 174.106 161.999 174.234 163.296 174.228Z" fill="#FF314A"/>
<path fill-rule="evenodd" clip-rule="evenodd" d="M167.693 176.731C167.92 176.758 167.894 176.909 167.854 177.067C166.6 178.632 166.606 181.804 164.645 181.494C163.322 181.282 163.01 179.732 161.905 179.012C162.359 178.747 162.836 178.527 163.444 178.578C164.043 179.249 164.461 180.007 165.572 180.432C165.69 179.447 164.93 178.889 164.234 178.3C165.295 177.583 166.659 177.498 167.693 176.731Z" fill="#FBFDFD"/>
<path fill-rule="evenodd" clip-rule="evenodd" d="M156.968 173.682C153.451 175.576 148.483 176.256 143.886 176.192C143.501 176.187 142.697 175.947 142.113 175.712C147.606 176.159 152.027 174.381 156.968 173.682Z" fill="#FBFDFD"/>
<path fill-rule="evenodd" clip-rule="evenodd" d="M141.247 169.447C140.958 169.911 140.569 170.172 140.036 170.133C140.448 169.918 140.588 169.148 141.247 169.447Z" fill="#FBFDFD"/>
<path fill-rule="evenodd" clip-rule="evenodd" d="M160.097 181.016C158.543 181.068 157.355 181.867 156.503 183.368C156.55 182.111 156.523 180.892 156.221 179.802C157.678 179.667 160.308 178.711 160.097 181.016ZM157.117 180.81C157.467 181.028 157.325 180.979 157.734 181.025C157.874 180.751 157.88 180.542 157.827 180.363C157.703 180.32 157.58 180.278 157.455 180.234C157.304 180.341 157.177 180.507 157.117 180.81Z" fill="#FBFDFD"/>
<path fill-rule="evenodd" clip-rule="evenodd" d="M168.634 183.579C167.941 185.655 165.051 186.801 163.938 184.714C165.575 184.981 166.856 184.51 167.768 183.276C168.056 183.377 168.345 183.478 168.634 183.579Z" fill="#FBFDFD"/>
<path fill-rule="evenodd" clip-rule="evenodd" d="M155.355 179.5C155.365 180.372 156.688 185.05 154.291 184.538C152.567 184.171 152.49 182.145 151.185 181.513C150.672 181.263 149.616 181.001 148.91 181.275C146.57 182.182 148.293 187.382 145.629 187.897C142.136 188.573 143.298 183.962 142.392 182.467C142.658 181.923 142.469 181.065 142.995 180.738C143.293 180.287 144.074 180.839 144.447 180.551C143.719 182.153 143.486 184.174 144.298 185.353C144.887 184.053 144.159 181.944 145.565 180.524C146.044 180.734 146.286 180.456 146.765 180.665C146.447 181.401 146.622 181.901 147.033 182.283C147.622 181.924 147.159 181.199 147.471 180.635C149.598 180.426 151.781 180.335 153.817 179.936C153.388 180.999 153.43 181.836 154.073 182.382C154.54 181.742 154.092 179.667 155.355 179.5ZM154.147 182.963C153.798 183.645 154.082 184.021 154.666 184.254C155.348 183.815 154.98 182.667 154.147 182.963ZM146.078 185.417C146.038 184.34 146.128 183.2 145.624 182.347C145.106 183.692 145.235 184.728 146.078 185.417ZM144.942 186.685C145.302 186.329 145.485 185.657 144.792 185.524C144.309 185.765 144.261 186.47 144.942 186.685Z" fill="#77EDD7"/>
<path fill-rule="evenodd" clip-rule="evenodd" d="M138.947 174.054C138.804 174.467 138.66 174.879 138.516 175.29C137.666 174.947 137.347 174.347 137.296 173.616C137.896 173.868 138.437 173.992 138.947 174.054Z" fill="#FBFDFD"/>
<path fill-rule="evenodd" clip-rule="evenodd" d="M160.987 182.437C160.41 183.169 159.473 182.813 158.738 183.316C158.133 183.73 157.906 185.085 156.854 184.74C157.369 184.244 157.847 183.671 158.126 182.687C158.855 182.253 159.988 181.609 160.987 182.437Z" fill="#FBFDFD"/>
<path fill-rule="evenodd" clip-rule="evenodd" d="M140.98 179.755C139.994 180.907 139.124 182.302 138.074 183.319C135.052 182.477 136.684 177.98 138.537 176.823C139.303 177.821 139.683 179.011 140.98 179.755ZM137.607 181.076C137.994 180.601 138.561 180.496 138.865 179.851C138.277 179.205 137.234 180.348 137.607 181.076Z" fill="#77EDD7"/>
<path fill-rule="evenodd" clip-rule="evenodd" d="M141.678 180.138C141.843 180.196 142.009 180.253 142.172 180.31C141.92 180.913 141.796 181.452 141.736 181.962C140.698 182.084 140.27 183.472 139.147 183.416C139.942 182.223 140.907 181.38 141.678 180.138Z" fill="#FBFDFD"/>
<path fill-rule="evenodd" clip-rule="evenodd" d="M154.761 186.367C152.702 186.714 150.431 186.627 148.174 186.565C148.599 185.639 148.523 184.957 148.579 184.21C149.459 184.185 150.29 184.061 150.989 183.664C152.321 184.53 153.217 185.605 154.761 186.367Z" fill="#FBFDFD"/>
<path fill-rule="evenodd" clip-rule="evenodd" d="M141.466 183.532C141.897 183.298 141.855 184.159 141.825 184.49C141.512 184.263 141.573 183.856 141.466 183.532Z" fill="#FBFDFD"/>
<path fill-rule="evenodd" clip-rule="evenodd" d="M140.459 184.428C141.221 185.295 142.055 186.125 142.241 187.269C140.426 187.745 139.147 185.465 140.459 184.428Z" fill="#FBFDFD"/>
<path fill-rule="evenodd" clip-rule="evenodd" d="M183.076 163.651C181.493 171.075 173.993 169.79 168.808 171.156C169.963 171.543 171.306 171.267 172.534 171.207C177.196 170.981 182.193 170.303 184.505 165.121C185.382 165.829 186.038 166.642 186.251 167.67C183.299 170.49 179.103 171.105 174.513 171.899C171.268 172.457 167.835 172.536 164.605 172.463C159.215 172.342 154.056 171.326 148.963 171.584C147.37 171.663 145.81 172.267 144.273 172.304C143.615 172.323 142.707 172.159 141.54 172.184C140.749 172.201 139.272 172.401 138.89 172.231C137.86 171.771 137.978 170.361 137.688 169.314C138.766 167.785 140.382 167.369 141.503 165.931C142.46 172.628 152.363 171.061 157.293 171.163C155.763 170.336 153.689 170.228 152.211 170.222C153.675 168.859 153.402 166.048 151.578 165.284C149.995 166.556 150.844 169.157 151.631 170.297C149.757 169.758 147.417 170.738 145.178 169.71C143.728 169.046 141.942 166.765 142.422 165.282C142.652 164.575 144.808 162.542 145.492 162.053C149.205 159.387 155.265 159.787 160.681 159.861C166.47 159.942 171.796 159.262 177.114 160.463C179.692 161.045 181.859 162.337 183.076 163.651ZM178.844 167.03C182.491 165.721 177.475 160.712 175.945 164.214C175.406 163.953 175.116 164.206 174.702 164.197C173.73 166 173.583 168.208 174.881 169.253C176.192 169.113 176.685 166.616 176.465 165.505C177.009 166.134 177.596 166.742 178.844 167.03ZM168.261 162.782C169.373 163.274 170.091 161.146 168.698 161.132C167.78 161.122 167.46 162.427 168.261 162.782ZM164.267 161.11C162.182 162.018 162.728 166.846 165.274 166.179C166.213 164.269 165.535 162.292 164.267 161.11ZM173.474 166.126C174.148 164.426 172.118 163.371 170.925 164.682C170.195 165.485 169.647 167.131 170.26 167.78C171.479 167.771 173.047 167.198 173.474 166.126ZM159.472 163.323C158.827 164.432 160.702 168.211 162.555 168.004C164.661 166.428 160.506 161.547 159.472 163.323ZM156.914 162.707C155.15 161.589 153.151 165.881 153.952 167.222C155.387 167.711 155.957 166.406 157.313 166.729C156.523 167.418 155.494 169.018 156.568 169.66C158.342 170.719 160.667 167.072 158.653 165.672C158.911 165.495 159.155 165.288 159.325 164.936C159.302 163.954 157.969 163.728 157.347 164.246C157.348 163.587 157.319 162.963 156.914 162.707ZM166.171 167.186C165.089 166.923 163.903 169.493 164.424 170.599C164.837 170.928 165.128 170.782 165.617 171.154C166.92 170.452 167.461 167.499 166.171 167.186ZM147.258 166.134C148.775 167.272 150.992 164.369 150.121 162.696C148.471 161.81 146.136 165.293 147.258 166.134ZM142.323 169.545C142.592 167.388 138.583 168.915 139.487 170.912C140.576 171.053 142.172 170.753 142.323 169.545Z" fill="#FFB448"/>
<path fill-rule="evenodd" clip-rule="evenodd" d="M175.228 165.073C175.73 165.279 175.653 166.649 175.317 167.6C174.791 166.999 175.564 165.769 175.228 165.073Z" fill="#FBFDFD"/>
<path fill-rule="evenodd" clip-rule="evenodd" d="M168.723 174.178C166.242 176.211 161.549 177.775 158.684 178.305C161.49 177.086 164.351 175.988 166.9 174.236C167.536 174.274 168.151 174.269 168.723 174.178Z" fill="#FF314A"/>
<path fill-rule="evenodd" clip-rule="evenodd" d="M162.468 186.143C165.056 188.221 168.309 187.336 169.693 184.919C174.316 183.967 179.595 184.884 183.881 183.211C184.868 182.824 185.515 181.854 186.753 182.132C186.487 183.528 183.64 184.486 182.202 184.842C180.692 185.218 179.019 185.267 177.388 185.522C175.89 185.755 174.457 186.443 172.939 186.742C168.971 187.532 164.85 187.52 160.58 187.98C156.341 188.434 151.981 188.711 147.658 188.048C147.56 187.989 147.523 188.057 147.49 188.129C147.333 186.898 150.295 187.307 151.519 187.315C155.354 187.345 159.484 186.916 162.468 186.143Z" fill="#FF314A"/>
<path fill-rule="evenodd" clip-rule="evenodd" d="M153.734 173.804C153.273 174.581 151.634 174.253 150.04 174.456C146.907 174.858 144.153 176.072 141.721 174.05C142.531 173.309 143.76 173.753 144.704 173.844C147.638 174.124 150.837 173.786 153.734 173.804Z" fill="#FBFDFD"/>
<path fill-rule="evenodd" clip-rule="evenodd" d="M187.851 186.539C187.239 187.826 185.72 187.238 185.172 188.654C186.731 189.457 187.97 187.791 189.169 187.135C188.948 187.673 189.254 188.27 189.021 188.747C188.542 189.731 185.195 190.724 183.771 191.077C177.851 192.548 171.753 192.401 165.361 192.56C156.79 192.773 148.516 194.239 139.931 192.703C139.323 191.856 139.101 190.112 140.063 189.143C146.905 189.425 153.503 190.245 159.89 189.958C162.309 189.849 164.71 189.622 167.102 189.561C174.378 189.374 180.883 187.104 187.851 186.539ZM140.943 191.394C140.431 190.92 140.392 190.219 139.679 189.843C139.374 190.623 140.191 191.789 140.943 191.394ZM182.477 188.823C182.68 189.421 183.76 189.577 183.805 188.594C183.601 187.996 182.52 187.839 182.477 188.823ZM181.218 190.049C178.877 188.77 182.931 187.787 181.218 190.049V190.049ZM174.462 190.327C168.245 191.233 161.655 190.476 155.36 191.014C153.165 191.202 151.031 190.883 148.858 190.964C147.624 191.011 146.478 191.429 145.251 191.371C143.937 191.308 142.631 190.807 141.356 191.399C143.819 192.56 146.507 191.874 149.139 191.756C151.299 191.659 153.501 191.943 155.807 191.725C163.022 191.04 171.822 192.549 177.781 189.959C177.863 189.813 178.062 189.775 177.745 189.669C176.574 189.716 175.582 190.163 174.462 190.327Z" fill="#FBFDFD"/>
<path fill-rule="evenodd" clip-rule="evenodd" d="M185.076 192.503C183.489 194.474 180.211 194.78 178.226 196.634C182.234 196.415 185.604 193.032 189.556 191.987C191.083 194.709 188.668 197.478 186.603 198.863C185.148 199.236 183.388 199.704 182.6 200.795C176.689 202.471 170.103 203.486 163.297 204.048C160.187 204.304 157.997 204.437 154.484 203.47C152.014 202.79 149.471 203.059 146.509 202.074C146.361 202.559 146.815 202.749 147.325 202.913C144.083 202.911 140.37 200.827 140.103 198.175C141.099 199.583 143.958 199.851 146.409 200.374C150.541 201.264 155.088 202.922 158.468 202.78C156.024 201.763 152.943 201.281 149.844 200.464C146.839 199.672 143.327 199.606 141.425 198.359C140.492 197.747 139.785 196.362 140.761 195.493C141.151 195.145 143.118 194.774 143.796 194.748C145.577 194.68 147.367 195.073 149.258 194.99C150.957 194.916 152.729 194.862 154.437 194.854C157.872 194.838 161.23 194.395 164.757 194.294C172.311 194.077 179.241 194.533 185.076 192.503ZM187.575 194.485C187.875 194.613 188.026 194.425 188.278 194.454C189.023 192.995 186.95 193.373 187.575 194.485ZM185.816 195.953C185.918 196.186 186.453 196.373 186.68 196.254C187.237 195.386 185.921 194.927 185.816 195.953ZM179.366 198.14C179.469 198.375 180.004 198.561 180.231 198.441C180.785 197.573 179.471 197.114 179.366 198.14ZM163.426 197.71C165.824 197.993 168.113 198.046 170.058 197.39C167.736 197.267 165.567 197.464 163.426 197.71ZM172.562 198.958C173.149 199.978 173.933 198.161 172.858 198.505C172.666 198.465 172.639 198.765 172.562 198.958ZM173.775 201.045C174.472 201.423 174.894 201.231 175.066 200.523C174.714 199.568 173.252 200.135 173.775 201.045ZM151.393 196.426C147.899 195.923 144.383 194.835 142.326 196.176C147.628 195.941 154.175 198.286 159.447 197.987C159.646 198.024 159.535 197.789 159.408 197.697C156.744 197.432 154.332 196.85 151.393 196.426Z" fill="#FFB448"/>
<path fill-rule="evenodd" clip-rule="evenodd" d="M161.179 183.474C161.709 183.871 161.781 184.486 161.862 185.098C160.685 185.147 159.696 185.582 158.662 185.925C159.113 185.154 160.306 184.079 161.179 183.474Z" fill="#FBFDFD"/>
<path fill-rule="evenodd" clip-rule="evenodd" d="M232.697 197.33C228.57 195.164 221.599 195.845 217.825 193.326C219.066 189.02 220.198 179.494 217.255 176.169C210.992 180.395 206.009 185.895 199.811 190.181C200.006 191.794 201.412 192.202 201.811 193.612C190.978 202.175 171.809 211.278 151.767 209.912C138.317 208.996 124.299 205.193 116.884 198.188C120.439 195.512 117.737 193.144 115.739 190.469C112.555 186.202 108.889 180.439 105.731 177.883C102.088 180.438 101.27 185.815 100.298 191.038C95.453 191.011 90.3381 189.764 86 190.181C86.2969 199.509 91.1965 204.238 94.866 210.196C94.571 210.856 93.8805 211.12 94.0076 212.199C101.202 220.873 110.832 226.574 121.745 231.929C126.151 234.095 130.284 235.17 135.757 236.218C140.868 237.197 146.159 238.748 151.485 239.08C180.818 240.901 202.548 227.199 219.256 215.059C218.859 214.406 218.674 213.545 218.397 212.771C223.987 208.632 230.353 203.759 232.697 197.33Z" fill="#3D1313"/>
<path fill-rule="evenodd" clip-rule="evenodd" d="M215.824 179.6C218.07 184.255 214.518 189.764 215.824 193.897C217.062 197.814 225.949 197.5 230.409 198.187C226.505 202.672 222.815 207.369 216.682 209.624C213.181 203.404 209.819 197.041 205.816 191.322C204.17 191.784 203.816 191.332 202.671 190.751C207.176 187.156 212.267 184.145 215.824 179.6Z" fill="#77EDD7"/>
<path fill-rule="evenodd" clip-rule="evenodd" d="M105.733 180.745C109.708 184.965 111.856 191.016 116.6 194.471C116.243 195.352 115.654 196.003 114.884 196.47C113.488 196.247 113.157 194.956 112.022 194.471C106.177 198.346 101.801 203.694 96.8681 208.481C93.4338 203.432 89.6098 198.773 88.0012 191.897C91.8016 192.632 97.6364 193.871 101.727 192.469C103.822 189.32 103.385 183.64 105.733 180.745Z" fill="#77EDD7"/>
<path fill-rule="evenodd" clip-rule="evenodd" d="M216.397 214.2C200.221 224.939 182.024 237.321 155.204 236.791C129.762 236.29 110.019 224.704 96.0109 212.199C101.367 207.07 106.246 201.463 112.024 196.759C116.328 201.556 122.722 204.982 129.752 207.623C136.553 210.179 145.357 212.448 153.202 212.484C173.064 212.579 193.658 204.786 204.674 195.043C204.902 194.838 205.02 194.227 205.531 194.185C209.476 200.536 212.776 207.525 216.397 214.2Z" fill="#77EDD7"/>
<path fill-rule="evenodd" clip-rule="evenodd" d="M190.703 205.313C193.126 207.358 194.299 210.501 195.884 213.246C197.461 215.979 199.491 218.461 200.741 221.342C199.703 221.463 199.105 221.143 198.798 220.532C196.904 224.067 190.758 222.776 190.54 218.751C190.409 216.325 192.204 214.738 194.102 213.732C193.091 210.909 190.824 208.488 190.703 205.313ZM195.236 215.351C193.788 215.994 192.368 217.085 192.484 218.751C192.677 221.529 196.742 221.968 197.827 219.399C196.801 218.211 196.023 216.776 195.236 215.351Z" fill="#3D1313"/>
<path fill-rule="evenodd" clip-rule="evenodd" d="M203.979 205.637C208.268 203.675 207.324 211.633 203.817 209.199C203.046 208.664 202.472 206.27 203.979 205.637Z" fill="#3D1313"/>
<path fill-rule="evenodd" clip-rule="evenodd" d="M123.833 207.742C127.19 209.134 131.262 209.813 132.739 213.084C129.47 212.463 126.072 210.579 123.024 209.199C121.985 210.696 121.36 212.607 120.434 214.218C122.002 215.132 124.65 214.967 124.805 217.293C122.874 217.737 120.787 217.163 119.462 216.484C118.59 217.643 118.347 218.847 117.518 220.532C117.136 221.309 115.908 224.144 115.089 224.094C113.413 223.992 115.272 220.536 115.576 219.885C117.471 215.803 120.127 211.307 121.727 207.579C122.287 207.327 122.53 206.761 123.023 206.444C123.212 206.419 123.311 206.48 123.346 206.606C124.13 206.633 123.578 207.509 123.833 207.742Z" fill="#3D1313"/>
<path fill-rule="evenodd" clip-rule="evenodd" d="M108.937 206.933C112.482 205.826 111.75 211.005 109.423 211.143C106.897 211.29 106.981 207.543 108.937 206.933Z" fill="#3D1313"/>
<path fill-rule="evenodd" clip-rule="evenodd" d="M169.168 213.57C167.687 215.543 164.089 215.399 161.559 216.322C161.754 218.23 162.248 219.842 162.368 221.828C163.828 221.457 166.069 219.76 168.521 220.37C167.497 222.207 164.881 222.452 162.854 223.285C163.094 225.402 163.502 227.638 163.986 229.761C164.437 231.733 165.237 234.083 164.31 235.914C163.145 234.84 163.24 233.064 162.854 231.543C161.761 227.244 160.607 222.172 159.939 217.294C159.963 216.515 159.124 216.599 159.291 215.675C161.622 214.115 165.6 213.354 169.168 213.57Z" fill="#3D1313"/>
<path fill-rule="evenodd" clip-rule="evenodd" d="M184.064 213.732C188.022 213.267 191.588 219.101 189.892 223.932C188.774 227.119 183.619 226.645 181.797 223.932C179.547 220.582 179.493 214.27 184.064 213.732ZM181.959 217.456C181.1 221.063 183.801 225.086 186.654 224.58C190.268 223.939 187.955 216.855 186.654 215.837C186.094 215.397 184.996 215.11 184.064 215.351C183.054 215.611 182.144 216.682 181.959 217.456Z" fill="#3D1313"/>
<path fill-rule="evenodd" clip-rule="evenodd" d="M149.253 213.732C150.127 214.79 149.732 216.734 149.576 218.265C149.421 219.801 149.052 221.39 149.091 222.799C149.948 223.344 151.562 223.135 151.681 224.418C151.054 224.768 149.724 224.894 148.929 224.58C148.393 227.029 148.035 230.466 148.443 233.324C149.602 233.902 150.381 232.464 151.195 233.486C151.269 235.502 148.534 235.267 147.794 234.781C145.529 233.29 147.293 227.065 147.309 224.58C146.411 224.237 144.908 224.498 144.232 223.932C144.01 222.307 146.069 222.962 147.309 222.799C148.279 220.098 147.608 215.758 149.253 213.732Z" fill="#3D1313"/>
<path fill-rule="evenodd" clip-rule="evenodd" d="M135.328 228.628C134.789 230.93 130.654 229.82 130.633 227.819C127.73 229.12 123.876 228.163 122.7 225.876C122.026 221.106 127.291 219.915 130.957 221.504C131.359 219.76 130.832 218.022 129.499 217.78C128.465 217.593 127.046 219.168 126.423 217.78C127.273 214.955 131.318 215.782 132.252 217.618C133.813 220.693 130.646 225.973 132.576 228.466C133.636 228.822 134.616 228.311 135.328 228.628ZM124.966 223.771C124.75 226.65 127.743 227.121 130.471 226.524C130.331 225.088 130.813 224.274 130.795 222.961C128.797 222.526 125.922 222.028 124.966 223.771Z" fill="#3D1313"/>
<path fill-rule="evenodd" clip-rule="evenodd" d="M142.938 217.78C141.435 217.966 139.206 218.484 139.215 220.857C139.22 222.732 141.377 224.742 141.805 227.008C142.353 229.916 140.971 233.062 138.728 233.162C137.897 233.199 135.363 232.597 136.3 230.571C137.377 230.725 137.128 231.705 138.243 231.705C139.587 231.705 140.356 229.907 140.024 227.98C139.742 226.341 137.308 224.037 137.434 221.342C137.49 220.138 138.334 218.406 138.89 217.78C139.268 217.357 142.078 214.946 142.938 217.78Z" fill="#3D1313"/>
<path fill-rule="evenodd" clip-rule="evenodd" d="M174.025 216.647C175.288 216.411 176.675 216.537 177.587 217.133C180.353 218.94 179.986 226.542 176.94 227.333C171.436 228.762 168.135 217.743 174.025 216.647ZM176.941 218.59C175.377 217.254 172.889 218.456 172.569 220.048C172.011 222.818 174.15 225.706 177.265 225.067C178.442 223.534 178.245 219.703 176.941 218.59Z" fill="#3D1313"/>
</svg>
