<svg width="318" height="318" viewBox="0 0 318 318" fill="none" xmlns="http://www.w3.org/2000/svg">
<g style="mix-blend-mode:soft-light" opacity="0.5">
<circle cx="159" cy="159" r="159" fill="white"/>
</g>
<g style="mix-blend-mode:soft-light" opacity="0.5">
<circle cx="159.5" cy="158.5" r="116.5" fill="white"/>
</g>
<path fill-rule="evenodd" clip-rule="evenodd" d="M243.125 108.534C243.099 108.292 243.082 108.042 243.063 107.791C242.906 105.664 242.614 101.707 239.666 98.296L237.813 96.1522L235.065 95.4668C233.837 95.1607 232.618 95.0057 231.443 95.0057C225.681 95.0057 221.124 98.5241 219.217 104.423C217.615 101.533 215.895 98.8614 214.105 96.5587C211.716 93.4877 208.592 90.6391 205.3 88.5313C204.093 87.7592 202.972 87.222 202.072 86.7892C201.647 86.5864 201.275 86.407 201.005 86.2588C200.905 86.1837 200.815 86.1048 200.72 86.0287C199.791 85.2761 198.235 84.0165 195.734 83.0699C192.504 81.8483 188.899 80.9241 185.415 80.0311C184.261 79.7357 183.105 79.4393 181.963 79.1322C174.062 77.0031 166.369 75.9248 159.098 75.9248C156.382 75.9248 153.669 76.0749 151.033 76.3703C141.46 77.4457 134.815 80.7223 128.952 83.6139C126.996 84.5781 125.148 85.4886 123.259 86.289L122.107 86.7736C119.511 87.8616 116.827 88.9856 114.278 90.4938C111.405 92.1931 108.295 95.1977 105.021 99.4103L101.118 97.9411C99.5814 97.363 98.0508 97.0598 96.566 97.0384L96.1585 96.7703C94.2028 95.4834 91.8991 94.8039 89.496 94.8039C86.4114 94.8039 83.4018 95.9416 81.2064 97.9314C79.6982 98.1215 78.2592 98.6021 76.9772 99.3479L74.2036 100.962L73.0903 103.971C71.6718 107.805 71.9613 111.5 72.1924 114.47L72.2674 115.447L72.3757 117.056C72.9333 125.394 73.6089 135.481 78.9514 142.193C79.1639 142.928 79.4096 143.538 79.6114 143.997C79.6163 144.377 79.6114 144.851 79.6075 145.237C79.5987 146.283 79.587 147.468 79.6689 148.782C79.94 153.124 79.8883 158.916 79.5061 166.483L79.4427 167.71C79.0918 174.337 78.6716 182.234 82.813 188.041C83.0129 189.29 83.4321 190.508 84.0706 191.65C84.5776 192.558 85.2045 193.38 85.923 194.107C84.989 195.389 84.0814 196.667 83.2244 197.927C82.4659 198.314 81.7523 198.807 81.1059 199.396L80.367 200.068L79.7957 200.887C78.0252 203.424 77.3467 206.439 77.8858 209.379C78.8373 214.555 82.9407 217.354 85.3916 219.026C85.6773 219.22 85.9503 219.405 86.1872 219.58C89.0943 221.73 91.7938 223.594 95.3903 224.633C97.0808 225.122 98.8015 225.369 100.503 225.369C103.796 225.369 106.757 224.45 109.299 222.944C109.534 222.087 110.976 222.157 110.976 223.18C110.976 223.58 111.988 224.458 112.699 225.017L116.576 225.816C117.123 226.074 117.817 226.347 118.635 226.541L121.193 227.145L122.299 227.658C123.642 228.281 125.064 228.597 126.525 228.597C129.417 228.597 131.581 227.495 133.203 226.01C133.35 227.18 133.675 228.408 134.291 229.663L134.857 230.812C136.482 232.87 137.912 234.88 141.197 234.753C142.324 234.709 143.436 234.554 144.54 234.363C147.892 233.574 150.108 231.707 151.576 229.676C152.711 230.858 154.093 231.928 155.779 232.721C155.809 232.84 155.838 232.96 155.869 233.079C156.517 235.73 157.322 239.028 159.504 242.128L160.483 243.517C161.953 244.588 163.661 245.011 165.445 245C165.689 244.907 165.936 244.801 166.193 244.666C168.907 243.243 171.483 241.461 171.563 238.103C171.563 238.095 171.566 238.089 171.567 238.08C171.515 237.475 172.311 236.897 172.887 237.442C175.86 240.256 179.178 242.047 182.316 241.617C183.645 240.962 184.81 239.992 185.419 238.686L185.622 237.373C185.936 235.327 185.984 233.391 185.883 231.546C187.483 232.026 189.156 232.295 190.782 232.295C192.285 232.295 193.728 232.073 195.072 231.634C197.304 230.905 199.365 229.394 200.967 227.419C201.156 227.424 201.353 227.448 201.541 227.448C206.104 227.448 209.966 225.784 212.412 222.765C212.892 222.175 213.291 221.541 213.64 220.884L215.442 220.429L217.024 219.09C217.439 218.74 217.822 218.345 218.186 217.929C218.968 218.075 219.798 218.157 220.685 218.157H220.688C221.096 218.157 221.516 218.137 221.937 218.097C223.537 217.947 224.997 217.436 226.288 216.675C227.15 216.895 228.044 217.022 228.965 217.022C229.877 217.022 230.791 216.908 231.683 216.684C236.996 215.351 240.334 210.203 239.624 204.442C239.026 199.602 235.751 195.882 231.464 194.792C234.191 194.643 236.735 193.508 238.684 191.529C241.066 189.106 242.13 185.675 241.603 182.116C241.576 181.934 241.543 181.754 241.509 181.574C241.959 180.018 242.151 178.518 242.255 177.253C242.566 173.518 242.439 169.632 242.317 165.875C242.212 162.671 242.114 159.645 242.272 156.85C242.56 151.798 242.723 146.418 242.881 141.216C243.004 137.164 243.131 132.973 243.315 129.021C243.628 122.273 243.825 115.117 243.125 108.534Z" fill="#DDDDDD"/>
<path fill-rule="evenodd" clip-rule="evenodd" d="M246.049 105.61C246.024 105.367 246.007 105.117 245.988 104.866C245.831 102.74 245.539 98.7824 242.59 95.3712L240.738 93.2274L237.99 92.542C236.762 92.2359 235.543 92.0809 234.368 92.0809C228.605 92.0809 224.049 95.5993 222.142 101.498C220.54 98.6079 218.819 95.9366 217.029 93.6339C214.641 90.5629 211.517 87.7143 208.225 85.6065C207.018 84.8344 205.897 84.2972 204.997 83.8644C204.572 83.6616 204.2 83.4822 203.93 83.334C203.83 83.2589 203.739 83.18 203.645 83.1039C202.716 82.3513 201.16 81.0917 198.659 80.1451C195.428 78.9235 191.824 77.9993 188.34 77.1063C187.186 76.8109 186.029 76.5145 184.888 76.2074C176.987 74.0782 169.294 73 162.023 73C159.307 73 156.594 73.1501 153.958 73.4455C144.385 74.5209 137.739 77.7975 131.877 80.6891C129.921 81.6533 128.073 82.5638 126.184 83.3642L125.031 83.8488C122.436 84.9368 119.751 86.0608 117.203 87.569C114.33 89.2683 111.22 92.2729 107.946 96.4855L104.043 95.0163C102.506 94.4382 100.976 94.135 99.4908 94.1135L99.0833 93.8454C97.1276 92.5586 94.8239 91.8791 92.4208 91.8791C89.3362 91.8791 86.3266 93.0168 84.1312 95.0066C82.623 95.1967 81.183 95.6773 79.902 96.4231L77.1284 98.0375L76.0151 101.046C74.5966 104.88 74.8861 108.575 75.1172 111.545L75.1923 112.522L75.3005 114.131C75.8581 122.47 76.5337 132.556 81.8762 139.268C82.0887 140.003 82.3344 140.614 82.5362 141.072C82.5411 141.452 82.5362 141.926 82.5323 142.312C82.5236 143.358 82.5128 144.544 82.5937 145.857C82.8648 150.199 82.8131 155.991 82.4309 163.558L82.3676 164.785C82.0166 171.412 81.5964 179.31 85.7378 185.116C85.9377 186.365 86.3569 187.584 86.9954 188.725C87.5024 189.633 88.1293 190.455 88.8478 191.182C87.9138 192.464 87.0062 193.742 86.1492 195.002C85.3907 195.389 84.6771 195.882 84.0307 196.471L83.2918 197.144L82.7205 197.963C80.95 200.499 80.2715 203.515 80.8106 206.454C81.7621 211.63 85.8655 214.429 88.3164 216.102C88.6021 216.296 88.8751 216.48 89.112 216.655C92.0191 218.805 94.7187 220.669 98.3151 221.708C100.006 222.197 101.726 222.444 103.427 222.444C106.721 222.444 109.682 221.525 112.224 220.019C112.459 219.162 113.901 219.232 113.901 220.255C113.901 220.655 114.913 221.533 115.624 222.092L119.501 222.891C120.048 223.149 120.742 223.422 121.56 223.616L124.118 224.221L125.223 224.733C126.567 225.356 127.988 225.672 129.45 225.672C132.342 225.672 134.506 224.571 136.128 223.085C136.275 224.255 136.6 225.483 137.216 226.738L137.782 227.887C139.406 229.945 140.837 231.956 144.122 231.828C145.249 231.784 146.36 231.629 147.465 231.438C150.817 230.649 153.033 228.782 154.501 226.752C155.636 227.933 157.018 229.004 158.704 229.796C158.734 229.915 158.763 230.035 158.793 230.154C159.442 232.805 160.247 236.103 162.429 239.203L163.408 240.592C164.878 241.664 166.586 242.086 168.37 242.075C168.614 241.982 168.861 241.876 169.118 241.742C171.832 240.318 174.407 238.536 174.487 235.179C174.487 235.17 174.49 235.164 174.491 235.155C174.44 234.55 175.236 233.973 175.811 234.518C178.785 237.331 182.102 239.122 185.241 238.692C186.569 238.037 187.734 237.067 188.344 235.762L188.547 234.448C188.86 232.402 188.909 230.466 188.808 228.621C190.408 229.101 192.081 229.37 193.707 229.37C195.21 229.37 196.653 229.148 197.997 228.709C200.229 227.98 202.29 226.469 203.892 224.495C204.081 224.499 204.278 224.523 204.466 224.523C209.028 224.523 212.891 222.86 215.337 219.84C215.817 219.251 216.215 218.616 216.564 217.959L218.367 217.505L219.949 216.165C220.364 215.815 220.747 215.42 221.11 215.004C221.893 215.15 222.723 215.232 223.61 215.232H223.613C224.02 215.232 224.441 215.213 224.862 215.173C226.462 215.022 227.922 214.512 229.213 213.75C230.075 213.97 230.969 214.097 231.89 214.097C232.801 214.097 233.716 213.983 234.608 213.759C239.921 212.426 243.259 207.278 242.549 201.517C241.951 196.678 238.676 192.957 234.389 191.867C237.115 191.718 239.66 190.583 241.609 188.604C243.99 186.181 245.055 182.75 244.528 179.192C244.5 179.009 244.468 178.829 244.434 178.65C244.883 177.093 245.076 175.593 245.18 174.328C245.491 170.593 245.364 166.707 245.242 162.95C245.137 159.746 245.038 156.72 245.196 153.925C245.485 148.873 245.648 143.494 245.806 138.291C245.929 134.239 246.056 130.049 246.24 126.096C246.553 119.348 246.749 112.192 246.049 105.61Z" fill="#F5F5F5"/>
<path fill-rule="evenodd" clip-rule="evenodd" d="M102.831 135.222C102.443 143.511 104.679 153.901 107.273 159.547C108.788 162.85 110.443 165.781 112.485 168.621C118.454 176.929 126.257 184.295 135.652 188.7C150.422 195.625 169.431 192.949 184.493 188.892C199.306 184.901 212.594 177.137 217.698 164.567C218.672 162.173 219.37 159.288 220.208 156.652C222.852 148.341 224.357 140.077 222.525 128.852C220.794 118.251 215.477 106.195 209.977 99.1216C208.348 97.0265 206.035 94.8154 203.414 93.1376C202.077 92.2826 200.684 91.7805 199.358 91.0142C198.021 90.2392 197.367 89.2107 195.499 88.5039C191.742 87.0834 187.039 86.0413 182.564 84.8353C174.591 82.6876 165.073 81.1901 154.956 82.3249C144.014 83.5552 137.635 88.2172 129.667 91.5924C126.937 92.7486 124.113 93.8639 121.753 95.259C119.202 96.7681 116.238 100.278 114.222 102.982C111.937 106.054 110.055 108.231 108.433 111.476C104.92 118.498 103.224 126.752 102.831 135.222Z" fill="#3D1313"/>
<path fill-rule="evenodd" clip-rule="evenodd" d="M176.578 89.4701C176.995 88.8783 177.663 89.6543 178.314 89.4701C178.3 90.2929 178.053 90.8837 177.928 91.5934C177.475 91.532 177.205 91.2873 176.578 91.3994C176.43 90.7258 177.16 89.9429 176.578 89.4701Z" fill="#F5F5F5"/>
<path fill-rule="evenodd" clip-rule="evenodd" d="M163.45 93.7167C168.589 93.4729 175.181 93.5811 179.472 94.6828C181.546 95.2131 184.039 96.6229 186.423 97.7713C192.515 100.704 197.572 103.511 201.48 108.388C206.662 114.858 210.076 126.088 209.395 137.347C209.128 141.789 207.758 146.071 206.499 150.282C203.962 158.763 201.579 164.191 194.529 168.237C190.917 170.309 186.277 172.046 181.594 173.641C177.067 175.183 171.367 176.847 166.922 177.117C165.554 177.2 163.864 176.741 162.29 176.73C157.69 176.701 153.253 176.773 149.353 175.572C145.394 174.353 140.737 172.231 137.192 169.974C128.861 164.666 122.273 160.529 119.625 149.51C118.364 144.271 117.126 137.519 117.694 131.17C117.895 128.916 119.083 125.998 119.625 123.255C122.338 109.497 131.016 104.367 142.402 98.7365C148.709 95.6187 154.921 94.1222 163.45 93.7167ZM161.517 101.632C157.184 98.21 148.66 99.9912 145.88 103.947C144.503 105.908 144.179 108.47 143.95 111.283C141.376 112.248 138.995 113.405 137.194 115.145C135.985 112.394 133.792 112.642 131.789 114.372C130.561 115.432 127.371 118.545 127.349 120.357C127.313 123.159 130.159 123.505 130.438 125.956C129.352 127.832 126.754 129.922 125.996 132.713C124.646 137.691 126.551 142.896 128.698 145.841C128.374 146.159 128.544 146.973 128.505 147.577C128.66 148.324 129.702 148.184 129.856 148.929C127.829 156.265 129.804 161.814 133.527 165.917C138.082 170.941 144.101 169.898 149.742 167.461C147.788 165.097 144.239 167.471 142.019 167.654C140.94 167.744 139.589 167.738 138.351 167.268C134.722 165.89 130.515 159.464 130.244 155.493C130.071 152.969 130.391 150.53 131.403 149.121C131.669 151.572 131.048 153.988 131.403 156.457C131.748 158.866 133.193 160.139 134.492 162.055C135.776 163.952 136.671 165.87 137.966 166.496C141.565 168.233 144.779 165.39 149.162 165.338C152.009 168.764 156.472 175.985 162.868 172.288C163.659 171.831 163.924 170.946 164.606 170.357C166.261 168.938 168.041 168.531 170.398 168.041C172.058 168.855 173.915 169.96 175.804 170.357C181.455 171.549 185.53 167.789 187.772 164.373C195.667 163.965 200.308 160.307 200.127 151.824C204.897 148.654 207.273 138.302 202.639 133.292C206.457 122.9 203.337 110.575 190.475 112.829C191.262 105.366 184.801 101.128 178.891 104.912C177.966 104.036 176.727 103.473 175.225 103.175C174.765 95.2404 164.139 96.5293 161.517 101.632ZM178.508 101.824C179.666 101.464 179.544 98.5678 177.543 99.5076C175.992 100.237 177.209 102.228 178.508 101.824ZM136.807 112.057C137.263 112.053 137.376 112.39 137.965 112.248C138.078 111.845 138.444 111.699 138.351 111.091C137.799 110.36 136.326 110.633 136.807 112.057ZM122.523 119.007C122.749 119.228 123.204 119.225 123.679 119.2C123.945 118.951 123.869 118.36 123.873 117.848C122.963 117.297 122.103 118.23 122.523 119.007ZM120.978 146.807C119.962 140.686 120.434 132.477 121.364 126.535C121.322 126.319 121.149 126.235 120.978 126.15C118.334 130.861 117.803 142.325 120.978 146.807Z" fill="#F5F5F5"/>
<path fill-rule="evenodd" clip-rule="evenodd" d="M173.68 103.37C172.627 101.04 171.073 99.3946 168.466 99.5087C165.806 99.6257 164.25 102.169 162.097 102.598C163.33 97.8045 175.168 96.4192 173.68 103.37Z" fill="#FFB448"/>
<path fill-rule="evenodd" clip-rule="evenodd" d="M172.521 103.37C168.607 103.766 166.231 105.7 163.45 107.232C163.574 105.753 162.975 105.003 162.868 103.757C165.27 102.112 171.017 98.0862 172.521 103.37Z" fill="#FFB448"/>
<path fill-rule="evenodd" clip-rule="evenodd" d="M161.904 106.844C159.725 99.0534 146.172 102.144 145.495 109.546C144.217 103.941 154.085 98.9072 159.394 101.632C160.884 102.396 161.802 104.394 161.904 106.844Z" fill="#FFB448"/>
<path fill-rule="evenodd" clip-rule="evenodd" d="M157.657 104.141C157.662 106.011 156.06 106.276 155.341 107.423C154.895 106.184 152.579 105.769 152.252 107.423C151.982 108.465 152.773 108.446 152.83 109.16C150.921 110.081 148.953 110.945 146.074 110.898C147.278 106.159 151.774 102.358 157.657 104.141Z" fill="#FFB448"/>
<path fill-rule="evenodd" clip-rule="evenodd" d="M182.562 122.095C182.146 117.792 182.441 113.63 180.823 110.705C179.526 108.358 176.316 105.696 172.521 106.072C170.104 106.311 168.176 107.656 166.151 108.775C164.192 109.857 162.446 111.497 160.361 111.67C160.317 111.039 161.973 109.84 162.868 110.125C165.651 105.921 174.096 102.34 178.892 106.264C180.264 107.385 182.173 109.454 182.754 110.898C184.055 114.129 183.144 118.386 182.562 122.095Z" fill="#FFB448"/>
<path fill-rule="evenodd" clip-rule="evenodd" d="M184.684 120.163C187.204 117.988 190.628 112.716 188.158 108.196C186.877 105.848 183.302 105.548 180.244 106.072C181.026 104.73 183.255 104.835 185.263 104.721C190.673 106.837 190.167 118.552 184.684 120.163Z" fill="#F5F5F5"/>
<path fill-rule="evenodd" clip-rule="evenodd" d="M158.622 104.913C158.876 104.981 158.927 105.253 159.202 105.299C158.285 107.175 157.398 108.607 156.113 109.738C151.444 113.851 142.567 111.916 138.352 116.109C136.486 117.966 135.766 120.102 135.069 123.446C134.994 119.955 136.255 117.182 138.159 115.53C143.781 110.652 156.889 113.642 158.622 104.913Z" fill="#FFB448"/>
<path fill-rule="evenodd" clip-rule="evenodd" d="M161.904 107.231C162.127 106.468 162.127 107.994 161.904 107.231V107.231Z" fill="#F5F5F5"/>
<path fill-rule="evenodd" clip-rule="evenodd" d="M180.823 114.759C178.271 112.886 177.078 109.382 174.067 108.388C168.633 106.597 165.603 111.688 162.291 113.022C162.035 111.988 163.541 111.477 164.415 110.899C166.483 109.53 170.671 106.692 173.874 107.037C177.189 107.396 180.645 110.686 180.823 114.759Z" fill="#FFB448"/>
<path fill-rule="evenodd" clip-rule="evenodd" d="M181.595 107.037C189.298 104.875 188.597 116.293 184.877 117.462C184.859 115.744 184.695 114.169 184.491 112.636C186.012 112.477 186.692 109.734 185.071 109.161C184.191 108.989 183.976 109.482 183.334 109.547C183.116 108.348 181.915 108.133 181.595 107.037Z" fill="#FFB448"/>
<path fill-rule="evenodd" clip-rule="evenodd" d="M159.974 107.423C160.794 107.697 160.464 109.12 160.94 109.738C159.975 110.083 159.572 111.28 158.236 110.705C158.618 109.415 159.677 108.8 159.974 107.423Z" fill="#FFB448"/>
<path fill-rule="evenodd" clip-rule="evenodd" d="M174.26 110.126C173.537 111.075 173.301 112.514 172.329 113.214C172.035 111.577 170.617 111.068 170.014 109.738C171.361 109.49 173.417 109.326 174.26 110.126Z" fill="#FF314A"/>
<path fill-rule="evenodd" clip-rule="evenodd" d="M172.907 120.745C170.501 118.067 170.321 113.164 167.503 110.898C167.761 110.705 168.084 110.58 168.275 110.319C171.332 112.047 173.116 117.032 172.907 120.745Z" fill="#FFB448"/>
<path fill-rule="evenodd" clip-rule="evenodd" d="M171.557 121.902C170.824 121.94 170.826 122.715 170.014 122.674C169.257 118.602 167.49 114.522 165.958 111.865C169.332 112.934 169.702 118.669 171.557 121.902Z" fill="#FFB448"/>
<path fill-rule="evenodd" clip-rule="evenodd" d="M156.497 112.83C157.115 112.663 157.094 113.132 157.464 113.215C157.256 113.715 156.766 113.933 156.69 114.566C156.255 114.36 156.618 113.352 156.497 112.83Z" fill="#F5F5F5"/>
<path fill-rule="evenodd" clip-rule="evenodd" d="M164.992 112.83C167.794 114.917 167.934 119.671 169.046 123.447C168.453 124.139 167.792 124.767 166.922 125.184C166.344 121.409 167.864 116.699 164.026 116.303C163.926 115.374 163.481 114.788 163.061 114.181C163.519 113.544 164.215 113.143 164.992 112.83Z" fill="#FFB448"/>
<path fill-rule="evenodd" clip-rule="evenodd" d="M148.582 113.794C148.614 113.567 148.934 113.631 149.162 113.601C149.132 113.827 148.81 113.764 148.582 113.794Z" fill="#FFB448"/>
<path fill-rule="evenodd" clip-rule="evenodd" d="M202.444 128.466C202.787 119.991 198.669 113.408 189.897 115.918C190.107 115.225 190.198 114.416 190.476 113.794C200.07 112.164 204.204 119.356 202.444 128.466Z" fill="#FFB448"/>
<path fill-rule="evenodd" clip-rule="evenodd" d="M153.603 113.794C153.828 113.763 153.946 113.836 153.99 113.986C154.559 123.44 145.78 123.538 138.931 125.571C138.544 125.312 138.907 124.308 137.966 124.606C136.93 124.379 137.688 125.947 137.386 125.957C132.186 127.453 127.617 131.78 128.312 138.698C128.866 144.196 132.462 147.008 136.807 148.349C137.794 148.655 139.36 148.038 139.508 149.895C135.965 150.031 133.344 149.241 131.594 147.578C132.058 146.129 131.265 144.842 129.473 145.069C128.28 141.805 126.167 136.673 127.928 132.52C128.759 130.557 131.269 127.071 133.14 125.957C136.194 124.138 140.369 123.867 143.95 123.446C149.356 122.813 154.242 120.54 153.603 113.794Z" fill="#FFB448"/>
<path fill-rule="evenodd" clip-rule="evenodd" d="M177.928 113.986C178.377 114.118 178.446 114.629 178.892 114.758C177.364 123.653 167.254 123.969 165.766 132.906C165.297 122.848 177.437 123.728 177.928 113.986Z" fill="#FFB448"/>
<path fill-rule="evenodd" clip-rule="evenodd" d="M152.639 114.181C152.828 117.654 151.284 121.064 147.618 121.323C148.692 119.371 150.049 117.705 150.321 114.952C151.059 114.66 152.049 114.621 152.639 114.181Z" fill="#FFB448"/>
<path fill-rule="evenodd" clip-rule="evenodd" d="M159.202 114.759C160.148 114.907 160.109 116.04 160.94 116.303C158.805 116.809 158.338 118.981 158.043 121.322C157.369 118.845 158.177 116.181 159.202 114.759Z" fill="#FF314A"/>
<path fill-rule="evenodd" clip-rule="evenodd" d="M149.162 115.146C148.224 118.004 147.196 120.771 144.53 121.902C145.556 120.162 146.355 118.193 146.459 115.532C147.502 115.543 148.218 115.23 149.162 115.146Z" fill="#FFB448"/>
<path fill-rule="evenodd" clip-rule="evenodd" d="M179.472 115.918C180.932 119.31 179.657 124.632 178.701 127.499C177.399 126.163 176.581 124.342 174.839 123.446C176.736 121.29 178.613 119.114 179.472 115.918ZM177.928 124.22C178.916 124.074 179.142 122.804 178.701 121.518C175.916 119.771 175.927 124.513 177.928 124.22Z" fill="#FFB448"/>
<path fill-rule="evenodd" clip-rule="evenodd" d="M143.566 116.496C143.217 118.659 142.643 120.593 141.827 122.289C140.426 122.432 139.194 122.743 137.773 122.868C138.218 119.259 140.641 117.629 143.566 116.496Z" fill="#FFB448"/>
<path fill-rule="evenodd" clip-rule="evenodd" d="M196.462 136.574C195.692 135.8 195.453 134.493 194.53 133.871C199.665 129.169 198.222 116.198 188.545 118.62C194.707 116.537 198.746 119.336 199.356 124.797C199.846 129.184 198.656 134.613 196.462 136.574Z" fill="#FFB448"/>
<path fill-rule="evenodd" clip-rule="evenodd" d="M159.781 118.621C160.381 118.601 160.332 119.228 161.134 119.008C160.876 119.651 160.003 119.679 159.781 120.358C159.206 119.954 160.037 119.342 159.781 118.621Z" fill="#F5F5F5"/>
<path fill-rule="evenodd" clip-rule="evenodd" d="M129.856 119.2C130.081 118.437 130.081 119.962 129.856 119.2V119.2Z" fill="#F5F5F5"/>
<path fill-rule="evenodd" clip-rule="evenodd" d="M159.781 121.517C158.553 122.075 160.517 121.182 159.781 121.517V121.517Z" fill="#F5F5F5"/>
<path fill-rule="evenodd" clip-rule="evenodd" d="M157.269 124.22C156.172 123.646 155.418 122.726 154.181 122.289C154.892 120.757 157.468 122.453 157.269 124.22Z" fill="#FFB448"/>
<path fill-rule="evenodd" clip-rule="evenodd" d="M153.796 123.447C155.159 123.886 155.81 125.037 156.886 125.762C156.488 127.295 156.343 129.081 156.114 130.782C154.481 129.196 153.931 126.53 153.796 123.447Z" fill="#FFB448"/>
<path fill-rule="evenodd" clip-rule="evenodd" d="M159.008 123.64C159.46 123.689 159.119 124.488 159.008 124.606C158.558 124.556 158.899 123.757 159.008 123.64Z" fill="#F5F5F5"/>
<path fill-rule="evenodd" clip-rule="evenodd" d="M185.841 132.714C185.125 133.864 182.444 133.509 181.402 133.294C177.445 132.467 175.927 127.017 173.488 124.799C173.433 124.488 173.669 124.467 173.68 124.221C173.835 124.087 174.209 123.919 174.259 124.221C178.15 127.02 178.876 132.988 185.841 132.714Z" fill="#FFB448"/>
<path fill-rule="evenodd" clip-rule="evenodd" d="M195.881 124.026C196.653 127.567 195.255 131.634 193.372 132.52C192.417 131.503 193.79 129.835 194.339 128.465C194.921 127.01 195.56 125.393 195.881 124.026Z" fill="#FFB448"/>
<path fill-rule="evenodd" clip-rule="evenodd" d="M148.776 124.606C148.186 126.46 147.041 127.759 145.495 128.659C145.82 127.891 145.647 126.623 145.689 125.571C146.598 125.254 147.936 124.348 148.776 124.606Z" fill="#FF314A"/>
<path fill-rule="evenodd" clip-rule="evenodd" d="M152.639 124.606C152.908 128.197 154.32 130.644 155.534 133.293C153.2 131.969 151.614 128.02 152.639 124.606Z" fill="#FFB448"/>
<path fill-rule="evenodd" clip-rule="evenodd" d="M189.512 125.378C189.512 125.505 189.512 125.635 189.512 125.763C188.651 126.642 186.181 125.909 184.685 126.15C185.544 125.27 187.895 124.859 189.512 125.378Z" fill="#FF314A"/>
<path fill-rule="evenodd" clip-rule="evenodd" d="M144.336 125.957C144.434 128.304 144.044 130.169 142.984 131.362C142.804 130.17 143.538 127.784 142.984 126.149C143.233 125.884 143.824 125.959 144.336 125.957Z" fill="#FF314A"/>
<path fill-rule="evenodd" clip-rule="evenodd" d="M141.441 126.729C141.665 125.965 141.665 127.491 141.441 126.729V126.729Z" fill="#F5F5F5"/>
<path fill-rule="evenodd" clip-rule="evenodd" d="M173.488 126.535C174.865 127.731 175.375 129.797 176.578 131.17C176.291 132.108 175.512 132.551 175.031 133.294C173.318 131.942 172.817 129.307 173.488 126.535Z" fill="#FFB448"/>
<path fill-rule="evenodd" clip-rule="evenodd" d="M164.414 126.922C164.697 127.562 164.895 126.168 164.414 126.922V126.922Z" fill="#F5F5F5"/>
<path fill-rule="evenodd" clip-rule="evenodd" d="M158.236 126.922C158.407 127.072 158.672 127.13 159.008 127.115C158.834 127.456 158.226 127.361 158.429 128.08C158.003 128.057 158.348 127.261 158.236 126.922Z" fill="#F5F5F5"/>
<path fill-rule="evenodd" clip-rule="evenodd" d="M151.093 127.115C151.78 130.353 152.73 133.329 154.953 135.031C154.953 135.864 154.507 136.255 154.568 137.154C153.809 136.625 153.896 135.252 153.602 134.258C151.064 133.619 150.028 130.164 151.093 127.115Z" fill="#FFB448"/>
<path fill-rule="evenodd" clip-rule="evenodd" d="M170.398 127.115C170.14 129.4 169.517 133.607 171.364 135.222C170.558 135.51 170.022 136.071 169.432 136.574C168.765 135.827 168.066 135.111 167.309 134.45C167.139 130.804 168.738 128.929 170.398 127.115Z" fill="#FFB448"/>
<path fill-rule="evenodd" clip-rule="evenodd" d="M189.125 127.5C188.949 128.807 188.941 130.278 188.738 131.555C186.179 131.411 183.658 131.23 181.594 130.589C181.849 129.878 181.77 128.833 181.981 128.08C183.698 126.864 186.528 127.506 189.125 127.5Z" fill="#FFB448"/>
<path fill-rule="evenodd" clip-rule="evenodd" d="M141.827 128.659C142.349 129.069 141.847 130.081 141.635 130.396C141.075 129.947 141.996 129.356 141.827 128.659Z" fill="#F5F5F5"/>
<path fill-rule="evenodd" clip-rule="evenodd" d="M171.557 129.045C171.78 131.089 173.157 132.959 173.489 134.258C171.396 134.685 171.457 131.439 171.557 129.045Z" fill="#FFB448"/>
<path fill-rule="evenodd" clip-rule="evenodd" d="M164.414 129.432C164.352 130.658 163.872 131.464 164.028 132.906C162.787 131.701 160.086 131.956 159.202 130.396C160.567 129.703 162.669 129.746 164.414 129.432Z" fill="#FFB448"/>
<path fill-rule="evenodd" clip-rule="evenodd" d="M133.911 129.625C134.169 131.554 134.337 133.573 135.842 134.257C138.707 134.614 139.698 133.094 141.44 132.327C140.371 133.373 139.13 135.152 137.577 135.416C134.617 135.918 132.716 132.735 133.911 129.625Z" fill="#F5F5F5"/>
<path fill-rule="evenodd" clip-rule="evenodd" d="M157.465 130.589C160.031 134.758 166.869 133.9 169.047 138.506C171.618 143.935 167.876 150.324 162.291 150.668C161.108 150.741 159.729 150.28 158.429 150.087C157.092 149.891 155.537 150.021 154.377 149.702C150.598 148.662 146.75 143.549 145.302 139.662C144.818 138.366 143.362 136.556 144.723 135.415C145.044 140.345 149.013 142.503 152.445 145.069C154.731 146.777 155.997 148.313 159.202 148.736C165.027 149.507 169.667 146.134 168.661 140.241C167.857 135.537 160.689 135.745 157.852 133.098C157.691 132.292 157.474 131.546 157.465 130.589ZM150.707 146.807C148.502 143.713 155.22 145.73 150.707 146.807V146.807Z" fill="#FFB448"/>
<path fill-rule="evenodd" clip-rule="evenodd" d="M148.582 130.783C148.808 131.827 148.469 132.941 148.582 133.871C149.02 137.418 153.449 139.493 151.48 142.559C148.803 141.642 145.416 137.987 146.074 134.45C146.375 132.837 148.096 132.409 148.582 130.783ZM147.231 136.96C147.348 137.81 147.65 138.474 148.391 138.698C150.62 138.297 148.453 135.009 147.231 136.96Z" fill="#FFB448"/>
<path fill-rule="evenodd" clip-rule="evenodd" d="M149.934 132.327C151.523 133.055 150.942 135.952 152.83 136.382C153.147 137.393 153.965 138.574 153.411 139.856C152.335 137.356 149.217 135.99 149.934 132.327Z" fill="#F5F5F5"/>
<path fill-rule="evenodd" clip-rule="evenodd" d="M177.155 132.327C177.776 132.157 177.419 132.962 177.928 132.906C176.37 135.788 173.488 137.346 170.786 139.083C168.326 135.612 176.783 135.575 177.155 132.327Z" fill="#FFB448"/>
<path fill-rule="evenodd" clip-rule="evenodd" d="M130.051 133.679C130.401 136.287 131.514 138.135 133.332 139.277C132.865 140.613 132.148 141.696 130.824 142.172C129.921 140.051 129.086 136.461 130.051 133.679Z" fill="#FF314A"/>
<path fill-rule="evenodd" clip-rule="evenodd" d="M184.491 134.836C184.388 135.507 183.975 135.864 183.912 136.574C182.235 136.316 179.065 136.053 177.927 136.96C177.536 136.837 177.8 136.059 177.347 135.996C178.312 132.445 180.855 135.371 184.491 134.836Z" fill="#FF314A"/>
<path fill-rule="evenodd" clip-rule="evenodd" d="M156.692 134.064C157.217 137.565 155.015 141.641 152.83 143.718C153.995 141.142 156.015 137.77 156.692 134.064Z" fill="#F5F5F5"/>
<path fill-rule="evenodd" clip-rule="evenodd" d="M202.061 134.836C206.089 138.769 203.557 147.598 199.935 150.087C199.343 149.266 198.998 148.195 198.584 147.192C202.2 145.436 202.175 139.784 202.061 134.836Z" fill="#FFB448"/>
<path fill-rule="evenodd" clip-rule="evenodd" d="M158.236 135.222C159.776 136.387 162.183 136.682 164.028 137.539C162.591 140.544 159.099 141.49 155.727 142.559C156.985 140.535 157.861 138.129 158.236 135.222Z" fill="#FFB448"/>
<path fill-rule="evenodd" clip-rule="evenodd" d="M194.145 139.47C193.445 140.701 192.196 141.382 190.864 141.979C191.138 139.99 191.805 136.397 188.544 137.347C187.766 136.427 190.87 135.47 192.408 136.189C193.292 136.977 193.815 138.125 194.145 139.47Z" fill="#FFB448"/>
<path fill-rule="evenodd" clip-rule="evenodd" d="M176.384 136.574C177.884 141 179.713 147.94 176.77 152.019C177.121 147.074 175.668 142.326 175.613 137.153C175.868 136.96 176.329 136.97 176.384 136.574Z" fill="#F5F5F5"/>
<path fill-rule="evenodd" clip-rule="evenodd" d="M142.984 136.96C144.732 142.677 147.59 147.287 152.252 150.087C152.109 151.619 151.047 152.23 150.321 153.177C149.534 152.742 149.842 151.211 149.355 150.475C148.699 150.141 147.942 150.34 147.231 150.475C146.34 145.575 143.972 142.154 142.6 137.734C142.459 137.205 142.981 137.344 142.984 136.96Z" fill="#FFB448"/>
<path fill-rule="evenodd" clip-rule="evenodd" d="M145.88 150.86C145.383 151.199 144.487 151.139 144.143 151.631C143.492 146.428 139.936 144.13 138.737 139.47C139.444 138.632 140.653 138.297 141.827 137.925C142.798 142.618 145.324 145.754 145.88 150.86ZM141.248 141.979C141.862 141.715 142.199 140.959 141.827 140.241C140.136 139.04 139.31 142.114 141.248 141.979Z" fill="#FFB448"/>
<path fill-rule="evenodd" clip-rule="evenodd" d="M174.259 138.119C175.535 141.358 172.78 142.132 171.557 143.91C171.247 142.994 171.337 140.661 171.171 140.241C171.665 138.998 173.384 138.979 174.259 138.119Z" fill="#FFB448"/>
<path fill-rule="evenodd" clip-rule="evenodd" d="M166.344 139.083C167.16 140.359 164.979 141.783 164.222 142.752C163.842 141.212 166.166 140.709 166.344 139.083Z" fill="#FFB448"/>
<path fill-rule="evenodd" clip-rule="evenodd" d="M134.299 139.277C134.556 139.277 134.812 139.277 135.069 139.277C134.803 141.404 133.003 142.983 131.403 143.139C132.444 141.927 134.142 141.373 134.299 139.277Z" fill="#F5F5F5"/>
<path fill-rule="evenodd" clip-rule="evenodd" d="M136.615 139.47C136.62 139.282 136.85 139.32 137.002 139.277C137.976 139.84 137.74 141.006 138.16 141.98C138.99 143.9 140.604 145.137 141.442 146.807C143.029 149.971 143.862 156.195 142.601 160.9C141.087 161.992 140.323 164.756 138.546 164.952C139.669 163.419 141.811 161.314 142.216 158.389C142.579 155.736 142.299 152.379 141.636 150.087C140.521 146.24 136.794 143.589 136.809 139.856C136.838 139.632 136.765 139.513 136.615 139.47Z" fill="#FFB448"/>
<path fill-rule="evenodd" clip-rule="evenodd" d="M166.923 141.401C167.196 143.734 166.024 146.294 163.836 146.807C163.704 146.1 163.566 145.402 163.642 144.49C164.99 143.714 166.08 142.678 166.923 141.401Z" fill="#FFB448"/>
<path fill-rule="evenodd" clip-rule="evenodd" d="M200.128 142.173C199.813 147.775 192.63 148.189 187.58 149.702C187.684 148.955 187.235 148.76 187.388 147.964C191.714 145.691 199.039 147.5 200.128 142.173Z" fill="#FFB448"/>
<path fill-rule="evenodd" clip-rule="evenodd" d="M174.646 142.367C174.857 142.414 174.777 142.75 175.032 142.753C173.457 145.745 170.562 147.421 170.207 151.631C169.397 147.026 172.847 145.009 174.646 142.367Z" fill="#F5F5F5"/>
<path fill-rule="evenodd" clip-rule="evenodd" d="M162.484 142.753C163.038 143.434 162.129 145.711 162.676 147.193C162.005 147.038 161.933 147.48 161.324 147.385C161.275 145.271 160.884 143.481 162.484 142.753Z" fill="#FFB448"/>
<path fill-rule="evenodd" clip-rule="evenodd" d="M195.881 142.946C196.224 142.43 196.021 144.077 196.075 144.49C195.733 145.005 195.936 143.358 195.881 142.946Z" fill="#F5F5F5"/>
<path fill-rule="evenodd" clip-rule="evenodd" d="M160.166 143.91C160.59 144.838 159.877 146.247 160.361 147.384C158.889 147.439 158.172 146.741 156.885 146.613C157.3 145.032 159.058 144.797 160.166 143.91Z" fill="#FFB448"/>
<path fill-rule="evenodd" clip-rule="evenodd" d="M194.146 143.91C194.844 143.727 194.414 144.67 194.53 145.069C193.466 145.225 192.659 145.642 191.441 145.647C192.179 144.907 193.605 144.852 194.146 143.91Z" fill="#FF314A"/>
<path fill-rule="evenodd" clip-rule="evenodd" d="M180.244 151.439C179.403 149.614 179.61 147.933 179.666 145.261C180.06 144.758 181.601 145.398 181.983 144.876C182.439 146.02 183.447 147.869 183.141 149.122C182.826 150.403 180.879 151.017 180.244 151.439ZM179.857 148.736C180.375 150.098 183.2 149.843 182.561 147.384C181.417 145.747 179.263 147.164 179.857 148.736Z" fill="#FF314A"/>
<path fill-rule="evenodd" clip-rule="evenodd" d="M175.031 145.261C175.241 145.31 175.162 145.645 175.417 145.647C173.699 147.503 172.198 150.49 172.715 153.949C172 153.812 171.887 154.278 171.17 154.141C170.626 149.35 173.013 147.489 175.031 145.261Z" fill="#FF314A"/>
<path fill-rule="evenodd" clip-rule="evenodd" d="M175.226 147.77C175.54 149.632 175.54 152.847 173.873 153.369C173.446 151.289 174.117 148.93 175.226 147.77Z" fill="#FF314A"/>
<path fill-rule="evenodd" clip-rule="evenodd" d="M197.039 148.157C197.204 148.121 197.222 148.233 197.234 148.35C201.187 155.267 196.108 163.558 188.158 162.829C193.421 162.228 198.905 157.887 197.617 151.439C197.383 150.264 196.245 149.82 196.461 148.544C196.79 148.551 196.959 148.4 197.039 148.157Z" fill="#F5F5F5"/>
<path fill-rule="evenodd" clip-rule="evenodd" d="M194.723 149.316C195.177 154.659 192.891 157.265 188.738 158.003C189.174 156.992 188.868 155.216 188.738 154.141C191.878 153.871 192.849 151.433 194.145 149.316C194.339 149.316 194.529 149.316 194.723 149.316Z" fill="#FFB448"/>
<path fill-rule="evenodd" clip-rule="evenodd" d="M168.467 149.509C168.778 151.129 168.685 153.155 169.24 154.527C168.152 154.727 167.195 155.056 166.151 155.301C166.29 153.68 165.846 152.644 165.187 151.825C166.142 150.915 167.665 150.573 168.467 149.509Z" fill="#FFB448"/>
<path fill-rule="evenodd" clip-rule="evenodd" d="M192.599 149.702C191.983 151.594 190.449 152.572 188.738 153.369C188.284 152.664 188.216 151.575 187.966 150.668C189.518 150.351 190.798 149.766 192.599 149.702Z" fill="#FFB448"/>
<path fill-rule="evenodd" clip-rule="evenodd" d="M132.561 150.087C133.58 150.806 135.216 150.909 136.42 151.439C135.459 155.459 136.042 160.668 139.318 161.673C138.85 162.62 138.141 163.327 137.194 163.795C135.563 160.598 132.28 159.057 132.561 153.949C132.853 154.427 133.29 154.763 133.912 154.913C137.101 154.586 134.102 150.077 132.754 152.984C132.408 152.362 132.533 150.461 132.561 150.087Z" fill="#FFB448"/>
<path fill-rule="evenodd" clip-rule="evenodd" d="M153.41 150.668C153.567 150.705 153.602 150.862 153.796 150.86C154.115 152.058 153.619 154.673 153.796 156.266C154.055 158.597 155.094 161.393 156.304 163.024C157.024 163.991 158.231 164.45 158.622 165.533C156.281 165.166 153.7 160.113 153.217 156.846C152.944 154.999 153.283 153.149 153.41 151.248C153.41 151.053 153.41 150.86 153.41 150.668Z" fill="#F5F5F5"/>
<path fill-rule="evenodd" clip-rule="evenodd" d="M180.823 155.107C179.949 152.816 182.199 151.979 183.141 150.86C184.885 152.72 181.525 153.838 180.823 155.107Z" fill="#FF314A"/>
<path fill-rule="evenodd" clip-rule="evenodd" d="M155.147 151.247C156.905 150.842 158.799 151.968 160.745 152.019C159.348 153.128 157.481 153.775 156.498 155.301C156.768 158.185 157.366 160.737 158.235 163.023C155.475 160.935 154.63 155.387 155.147 151.247Z" fill="#FFB448"/>
<path fill-rule="evenodd" clip-rule="evenodd" d="M140.668 158.196C138.908 157.06 138.854 154.219 138.737 151.439C141.847 150.585 140.663 155.991 140.668 158.196Z" fill="#FF314A"/>
<path fill-rule="evenodd" clip-rule="evenodd" d="M178.701 151.247C180.421 159.925 175.36 165.143 169.047 167.076C173.229 164.293 177.829 161.517 178.121 155.107C178.189 153.561 177.848 152.524 178.701 151.247Z" fill="#F5F5F5"/>
<path fill-rule="evenodd" clip-rule="evenodd" d="M137.386 151.439C137.577 151.439 137.773 151.439 137.966 151.439C137.649 154.354 137.735 156.423 138.931 158.196C139.42 158.919 140.52 159.213 140.282 160.32C137.364 160.089 136.732 155.288 137.386 151.439Z" fill="#F5F5F5"/>
<path fill-rule="evenodd" clip-rule="evenodd" d="M196.075 151.631C196.684 157.197 193.907 161.048 188.544 161.285C188.402 160.37 188.763 159.958 188.738 159.162C192.971 158.439 195.532 156.046 196.075 151.631Z" fill="#FFB448"/>
<path fill-rule="evenodd" clip-rule="evenodd" d="M163.642 152.019C164.839 152.127 165.689 155.171 164.415 155.879C164.745 154.1 163.69 152.788 163.642 152.019Z" fill="#F5F5F5"/>
<path fill-rule="evenodd" clip-rule="evenodd" d="M183.718 153.949C184.657 155.699 184.612 159.2 184.105 161.284C183.361 159.648 182.425 158.204 181.209 157.038C181.765 155.729 183.139 155.235 183.718 153.949Z" fill="#FFB448"/>
<path fill-rule="evenodd" clip-rule="evenodd" d="M173.103 155.494C173.214 156.383 172.052 156.369 171.365 156.652C168.293 157.908 162.162 158.249 160.941 161.673C160.241 163.632 161.483 166.272 160.553 168.621C158.752 163.2 159.783 161.51 163.063 158.583C165.786 156.154 168.595 156.128 173.103 155.494Z" fill="#FFB448"/>
<path fill-rule="evenodd" clip-rule="evenodd" d="M175.613 155.494C175.662 156.408 173.945 158.169 172.715 157.81C173.404 156.761 175.01 156.628 175.613 155.494Z" fill="#F5F5F5"/>
<path fill-rule="evenodd" clip-rule="evenodd" d="M176.191 156.652C176.254 160.256 173.109 162.322 170.978 164.374C171.105 160.96 174.605 159.25 176.191 156.652Z" fill="#FFB448"/>
<path fill-rule="evenodd" clip-rule="evenodd" d="M180.053 157.811C181.641 158.935 183.139 161.143 183.141 163.215C182.447 161.078 180.663 160.029 180.053 157.811Z" fill="#F5F5F5"/>
<path fill-rule="evenodd" clip-rule="evenodd" d="M169.819 158.389C169.819 158.905 169.819 159.42 169.819 159.933C165.163 160.812 162.91 164.092 161.904 168.621C162.201 166.364 161.175 163.71 161.904 161.865C162.983 159.134 166.803 159.205 169.819 158.389Z" fill="#FFB448"/>
<path fill-rule="evenodd" clip-rule="evenodd" d="M179.472 159.547C180.868 160.599 181.029 162.882 182.562 163.795C181.004 166.209 177.091 167.993 173.681 166.304C176.194 164.634 178.484 162.743 179.472 159.547Z" fill="#FFB448"/>
<path fill-rule="evenodd" clip-rule="evenodd" d="M161.904 170.358C161.259 171.954 157.251 171.271 155.919 170.552C152.044 168.46 150.649 161.23 143.755 161.285C143.529 159.524 146.266 159.852 146.845 159.933C151.995 160.666 153.336 169.421 159.201 170.358C159.998 170.486 160.903 170.266 161.904 170.358Z" fill="#FFB448"/>
<path fill-rule="evenodd" clip-rule="evenodd" d="M167.695 162.251C167.825 164.826 165.44 166.559 164.028 168.237C164.131 165.89 165.306 162.949 167.695 162.251Z" fill="#FFB448"/>
<path fill-rule="evenodd" clip-rule="evenodd" d="M147.425 163.795C145.655 164.403 143.715 164.846 141.827 165.339C142.353 164.515 142.858 163.667 143.178 162.638C145.143 162.475 146.388 163.03 147.425 163.795Z" fill="#F5F5F5"/>
<path fill-rule="evenodd" clip-rule="evenodd" d="M156.305 166.497C156.809 166.258 158.043 166.942 158.816 167.076C158.816 167.462 158.816 167.849 158.816 168.235C157.678 167.956 157.193 167.025 156.305 166.497Z" fill="#F5F5F5"/>
<path fill-rule="evenodd" clip-rule="evenodd" d="M146.46 185.416C146.975 185.416 147.49 185.416 148.005 185.416C147.573 186.486 148.816 187.396 148.97 188.504C148.625 188.481 148.562 188.742 148.198 188.699C147.194 188.029 147.041 186.509 146.46 185.416Z" fill="#F5F5F5"/>
<path fill-rule="evenodd" clip-rule="evenodd" d="M149.162 185.416C171.973 189.13 195.152 183.934 205.92 172.097C200.872 175.57 195.933 178.888 189.897 181.363C183.888 183.826 176.983 184.983 169.046 185.609C160.929 186.251 153.311 185.18 145.879 184.065C133.739 182.246 127.568 177.95 121.556 169.973C116.35 163.067 110.732 152.036 109.972 141.594C109.697 137.804 109.87 133.133 110.553 129.625C111.23 126.131 112.804 123.398 113.833 120.359C114.996 116.926 115.399 113.687 116.923 110.127C117.741 108.214 119.173 107.153 120.012 104.914C115.669 107.899 114.446 114.581 112.288 120.164C110.338 125.224 108.179 130.658 108.622 136.769C108.967 141.56 109.406 146.783 110.937 151.248C113.198 157.826 116.289 164.584 120.204 169.974C125.832 177.719 132.852 183.83 144.916 185.031C145.335 186.156 146.197 187.866 146.267 188.7C132.901 186.412 125.467 178.715 117.887 170.165C112.284 163.844 107.896 156.198 107.077 145.456C105.679 127.121 111.599 109.383 120.978 100.668C125.03 96.9018 130.749 94.0813 137.001 91.4004C143.331 88.6852 149.666 86.1992 156.498 85.8015C164.731 85.3247 172.154 86.5132 179.858 87.7337C187.201 88.8948 193.717 90.9558 199.55 94.1038C210.411 99.9669 218.855 117.78 220.014 133.68C220.612 141.921 219.511 147.898 217.504 154.142C215.15 161.467 213.567 167.386 208.816 172.29C205.937 175.265 202.426 177.051 198.585 179.433C195.178 181.547 191.328 182.898 187.389 184.839C177.829 189.553 164.988 189.975 150.9 188.506C150.236 187.563 149.655 186.534 149.162 185.416ZM214.415 153.949C215.562 150.009 216.806 145.938 217.117 141.593C217.991 129.408 213.884 118.855 210.554 110.318C207.932 103.602 203.67 95.7943 197.618 93.5218C190.234 90.7501 181.213 88.227 172.138 87.5368C167.469 87.1839 162.365 87.8205 157.464 88.3099C152.63 88.7935 147.867 88.9299 143.949 90.2412C140.283 91.4667 136.536 93.3511 133.331 95.067C129.89 96.9096 126.401 98.9461 124.065 101.438C131.105 97.9127 136.325 93.5929 144.916 91.0133C149.016 89.781 154.097 89.7723 160.166 89.083C162.352 88.8334 175.093 87.2443 175.804 89.6611C176.42 91.7562 173.258 90.8729 172.328 90.8193C169.702 90.6702 170.784 90.8193 168.08 90.8193C153.084 90.8193 143.683 94.4879 134.877 100.28C131.362 102.59 127.429 104.474 124.644 107.23C121.514 110.327 119.573 114.228 117.886 118.811C117.329 120.335 116.584 122.049 116.15 123.639C112.132 138.404 117.133 157.053 124.838 164.76C126.484 166.404 128.808 168.016 130.823 169.391C137.173 173.735 145.763 178.429 154.953 179.624C162.222 180.569 169.643 181.402 176.963 180.011C188.862 177.748 201.248 171.42 205.726 161.671C207.264 158.325 208.232 154.315 209.395 150.473C210.581 146.553 211.821 142.424 212.097 138.31C212.96 125.458 209.329 114.292 203.99 107.23C198.861 100.442 190.832 96.7331 182.563 93.1357C182.063 92.9193 179.53 91.9639 179.473 91.3974C179.264 89.2975 181.73 90.0872 183.527 90.4332C189.123 91.5047 194.279 92.4796 198.392 94.6809C203.459 97.3921 207.36 104.907 209.782 110.897C212.868 118.536 216.909 129.894 216.346 140.048C215.825 149.455 211.939 157.413 210.555 165.145C212.848 162.119 213.262 157.906 214.415 153.949ZM212.29 119.585C211.392 119.738 211.074 120.862 211.713 121.517C213.581 122.115 213.679 119.628 212.29 119.585ZM193.564 96.4192C191.649 92.2105 198.326 95.8693 193.564 96.4192V96.4192ZM136.42 96.8052C136.993 97.5384 138.574 97.2313 138.158 95.8401C137.587 95.107 136.005 95.414 136.42 96.8052ZM198.778 97.1913C197.777 97.1192 197.154 98.3885 198.004 99.5077C200.339 99.9288 200.123 97.2898 198.778 97.1913ZM132.947 99.7007C133.573 99.8118 133.845 99.5691 134.299 99.5077C135.58 96.7019 131.116 97.6076 132.947 99.7007ZM201.674 102.21C203.276 102.322 202.939 99.3868 201.287 100.281C200.324 100.801 200.578 102.135 201.674 102.21ZM122.715 105.3C123.342 105.583 124.505 105.652 124.452 104.721C124.381 103.343 122.168 103.493 122.715 105.3ZM206.305 107.809C203.567 105.914 209.048 105.914 206.305 107.809V107.809ZM212.097 125.571C212.21 120.902 216.227 127.339 212.097 125.571V125.571ZM112.868 134.644C113.384 132.392 110.48 132.519 110.939 134.644C111.277 135.167 112.528 135.167 112.868 134.644ZM213.643 137.733C212.878 134.303 216.82 138.165 213.643 137.733V137.733ZM111.323 139.662C111.585 139.851 111.711 140.179 111.904 140.435C113.36 140.541 113.962 139.791 113.834 138.311C112.905 137.188 111.284 138.162 111.323 139.662ZM213.643 140.049C211.297 143.531 218.072 140.648 213.643 140.049V140.049ZM212.485 145.647C212.823 146.171 214.074 146.171 214.415 145.647C214.858 143.67 212.04 143.67 212.485 145.647ZM113.641 146.998C115.083 146.881 114.719 143.947 113.061 144.876C111.991 145.475 112.452 147.096 113.641 146.998ZM210.939 151.825C211.088 151.869 211.32 151.831 211.325 152.019C214.994 151.404 209.803 148.102 210.939 151.825ZM118.659 157.616C118.496 156.875 117.897 156.813 117.308 157.038C114.791 158 119.266 160.362 118.659 157.616ZM119.818 163.41C120.775 163.465 121.226 163.015 121.169 162.057C120.446 160.567 118.538 162.387 119.818 163.41ZM123.102 166.883C118.034 167.515 124.352 161.645 123.102 166.883V166.883ZM208.43 167.655C208.658 167.878 209.112 167.875 209.589 167.85C210.943 166.627 208.048 165.424 208.43 167.655ZM125.417 170.938C125.738 166.458 129.053 172.617 125.417 170.938V170.938ZM206.692 170.165C206.55 170.692 207.078 170.554 207.079 170.938C207.443 170.981 207.505 170.72 207.851 170.745C208.022 169.619 207.163 169.762 206.692 170.165ZM131.789 173.834C131.65 173.344 130.944 172.693 130.051 173.253C127.749 175.262 132.512 176.404 131.789 173.834ZM134.491 178.274C135.597 177.963 135.563 175.147 133.719 175.957C132.202 176.625 133.218 178.631 134.491 178.274ZM187.966 179.431C188.642 180.245 190.164 179.746 189.704 178.273C188.991 177.597 187.703 178.051 187.966 179.431ZM141.248 180.205C141.559 180.536 142.056 180.683 142.792 180.59C143.233 180.08 143.233 179.363 142.792 178.852C141.638 178.663 141.144 179.135 141.248 180.205ZM181.982 180.398C182.958 184.812 185.713 178.009 181.982 180.398V180.398ZM159.587 183.678C160.652 183.843 161.007 183.296 161.133 182.52C160.589 180.781 158.15 182.422 159.587 183.678ZM165.572 184.258C162.879 182.316 168.283 182.392 165.572 184.258V184.258Z" fill="#77EDD7"/>
<path fill-rule="evenodd" clip-rule="evenodd" d="M175.804 111.477C175.538 110.86 176.439 112.956 175.804 111.477V111.477Z" fill="#F5F5F5"/>
<path fill-rule="evenodd" clip-rule="evenodd" d="M156.885 111.864C159.37 111.953 161.756 113.814 162.484 116.303C160.529 114.912 159.612 112.484 156.885 111.864Z" fill="#F5F5F5"/>
<path fill-rule="evenodd" clip-rule="evenodd" d="M137 119.972C137.813 115.893 142.441 113.96 147.811 113.795C148.297 114.14 146.643 114.025 145.879 114.181C142.029 114.966 138.487 116.773 137 119.972Z" fill="#FFB448"/>
<path fill-rule="evenodd" clip-rule="evenodd" d="M156.498 121.13C156.114 120.871 155.578 120.761 155.146 120.551C156.109 118.232 156.735 115.575 158.428 113.986C157.101 115.682 156.316 117.923 156.498 121.13Z" fill="#FF314A"/>
<path fill-rule="evenodd" clip-rule="evenodd" d="M145.301 115.918C145.115 117.725 144.478 119.084 143.949 120.551C144.121 119.495 144.325 116.81 145.301 115.918Z" fill="#F5F5F5"/>
<path fill-rule="evenodd" clip-rule="evenodd" d="M191.44 116.883C203.067 113.395 203.53 134.936 197.039 138.891C196.425 137.946 197.756 137.425 198.198 136.769C202.008 131.097 202.734 115.004 191.44 116.883Z" fill="#FFB448"/>
<path fill-rule="evenodd" clip-rule="evenodd" d="M163.835 118.812C163.546 119.038 163.363 119.37 162.868 119.391C163.003 119.012 163.384 118.878 163.835 118.812Z" fill="#F5F5F5"/>
<path fill-rule="evenodd" clip-rule="evenodd" d="M186.228 120.745C188.972 118.101 195.246 120.126 195.88 123.254C194.853 122.973 192.378 121.724 190.475 122.289C189.43 121.404 188.074 120.83 186.228 120.745Z" fill="#FFB448"/>
<path fill-rule="evenodd" clip-rule="evenodd" d="M184.299 122.095C186.749 121.495 189.467 122.168 190.282 123.833C189.631 124.725 187.918 124.032 186.614 124.219C185.073 124.439 183.818 125.278 182.948 125.762C182.824 124.737 184.075 123.418 184.299 122.095Z" fill="#FFB448"/>
<path fill-rule="evenodd" clip-rule="evenodd" d="M132.561 129.625C131.637 133.319 133.794 137.084 137.002 136.96C140.008 136.846 142.815 133.008 145.303 130.589C147.512 128.441 150.02 127.471 150.322 123.833C151.307 123.336 152.041 122.592 153.025 122.095C148.31 127.802 145.529 138.644 133.912 137.733C131.62 136.494 130.495 132.089 132.561 129.625Z" fill="#FF314A"/>
<path fill-rule="evenodd" clip-rule="evenodd" d="M135.651 132.714C133.319 128.911 136.754 126.404 140.669 126.535C139.532 129.13 137.197 130.526 135.651 132.714ZM137.578 128.272C136.879 128.28 136.732 128.841 136.808 129.625C137.788 130.916 139.239 128.472 137.578 128.272Z" fill="#FF314A"/>
<path fill-rule="evenodd" clip-rule="evenodd" d="M136.807 133.098C137.632 130.706 140.03 129.886 141.054 127.694C140.847 129.171 139.353 132.676 136.807 133.098Z" fill="#FF314A"/>
<path fill-rule="evenodd" clip-rule="evenodd" d="M195.881 141.208C195.027 137.819 194.375 133.981 189.897 134.644C185.858 135.242 185.378 142.212 185.841 147.385C186.113 150.388 187.557 153.071 187.772 155.879C188.153 160.8 186.188 165.279 183.14 167.463C181.565 168.592 177.935 169.88 174.838 168.427C174.472 168.223 176.15 168.66 176.963 168.62C180.571 168.442 183.66 165.606 185.07 163.023C188.594 156.551 182.461 147.522 184.105 140.434C184.364 139.312 185.137 137.527 185.649 136.188C186.072 135.084 186.794 133.289 188.157 132.906C193.484 131.412 195.414 137.128 195.881 141.208Z" fill="#FFB448"/>
<path fill-rule="evenodd" clip-rule="evenodd" d="M164.992 138.311C165.255 140.053 163.097 141.047 161.711 141.786C162.235 140.828 164.782 140.227 164.992 138.311Z" fill="#FFB448"/>
<path fill-rule="evenodd" clip-rule="evenodd" d="M199.355 139.856C199.498 140.965 198.533 142.633 197.812 143.523C196.906 141.65 198.692 140.805 199.355 139.856Z" fill="#F5F5F5"/>
<path fill-rule="evenodd" clip-rule="evenodd" d="M132.561 143.91C134.052 143.599 134.738 142.486 135.456 141.401C136.356 143.204 137.021 145.242 138.16 146.807C136.676 146.229 133.68 145.494 132.561 143.91Z" fill="#FF314A"/>
<path fill-rule="evenodd" clip-rule="evenodd" d="M194.338 141.401C194.253 143.794 190.508 144.112 188.738 145.456C189.55 144.581 192.496 142.53 194.338 141.401Z" fill="#FFB448"/>
<path fill-rule="evenodd" clip-rule="evenodd" d="M160.94 142.172C159.918 142.682 161.673 141.805 160.94 142.172V142.172Z" fill="#F5F5F5"/>
<path fill-rule="evenodd" clip-rule="evenodd" d="M155.147 145.647C155.278 143.783 157.245 143.757 158.622 143.139C157.905 143.645 156.233 144.864 155.147 145.647Z" fill="#FFB448"/>
<path fill-rule="evenodd" clip-rule="evenodd" d="M148.97 159.162C152.118 159.348 151.139 156.141 150.321 154.335C150.768 153.873 151.69 152.88 152.06 152.984C151.701 157.909 152.794 161.386 154.569 164.181C152.919 163.06 150.794 160.747 148.97 159.162Z" fill="#FFB448"/>
<path fill-rule="evenodd" clip-rule="evenodd" d="M170.206 161.285C169.893 163.226 169.078 164.663 167.889 165.726C167.745 165.903 168.741 164.052 169.047 163.411C169.047 162.958 169.047 162.509 169.047 162.058C169.275 162.028 169.21 161.706 169.241 161.479C169.706 161.559 169.661 161.126 170.206 161.285Z" fill="#F5F5F5"/>
<path fill-rule="evenodd" clip-rule="evenodd" d="M237.311 125.684C237.616 119.157 237.79 112.47 237.162 106.552C236.97 104.735 237.074 102.655 235.828 101.214C229.406 99.613 230.061 108.176 229.597 113.821C228.869 122.751 226.57 133.977 227.522 143.188C227.661 144.536 228.28 146.465 228.709 147.191C229.535 148.591 231.227 149.692 231.527 150.752C232.135 152.898 230.805 154.538 230.489 156.682C229.499 163.416 228.565 174.108 231.674 178.486C229.411 180.959 233.224 184.384 235.234 182.343C236.209 181.352 235.592 179.085 234.492 178.486C235.732 177.403 236.112 175.531 236.272 173.591C236.784 167.425 235.891 160.107 236.272 153.422C236.776 144.573 236.886 134.784 237.311 125.684Z" fill="#3D1313"/>
<path fill-rule="evenodd" clip-rule="evenodd" d="M235.68 103.289C236.058 117.542 235.31 133.298 235.234 147.635C234.125 147.664 233.347 148.023 232.566 148.378C230.899 147.371 230.108 145.824 229.896 143.632C229.415 138.711 230.31 132.904 230.34 127.17C230.386 118.863 231.503 111.285 233.01 104.922C232.006 116.872 230.543 130.435 231.231 144.077C231.994 133.254 232.648 119.526 233.751 108.037C233.982 105.616 233.524 101.029 235.68 103.289Z" fill="#77EDD7"/>
<path fill-rule="evenodd" clip-rule="evenodd" d="M234.939 149.564C235.079 150.213 235.092 150.991 235.234 151.64C234.667 152.055 234.131 151.691 233.157 151.787C233.157 151.096 233.157 150.403 233.157 149.71C233.699 149.612 234.236 149.505 234.939 149.564Z" fill="#77EDD7"/>
<path fill-rule="evenodd" clip-rule="evenodd" d="M235.087 153.568C234.173 159.098 235.087 166.685 234.642 172.553C234.522 174.12 234.296 175.911 233.455 177.001C232.345 176.376 231.962 174.867 231.826 173.591C231.129 167.179 232.413 159.284 233.01 153.717C233.12 152.816 234.217 153.853 235.087 153.568Z" fill="#77EDD7"/>
<path fill-rule="evenodd" clip-rule="evenodd" d="M232.862 179.819C233.522 179.859 234.211 180.47 233.751 181.155C232.962 181.246 232.468 180.44 232.862 179.819Z" fill="#77EDD7"/>
<path fill-rule="evenodd" clip-rule="evenodd" d="M91.3584 139.233C91.5943 140.858 91.374 143.066 91.5114 145.299C91.877 151.132 91.6499 158.177 91.3554 164.015C90.9616 171.746 90.3074 178.812 95.0289 181.792C92.7213 185.542 99.1196 187.361 99.9853 184.27C100.285 183.197 99.0094 182.359 99.0553 181.877C99.0757 181.662 100.403 180.495 100.501 180.285C102.989 174.957 101.659 168.323 100.629 163.438C99.1157 156.247 98.2597 148.929 97.0148 141.923C96.5039 139.04 96.3723 137.232 96.539 134.673C99.9892 132.271 100.492 127.369 100.788 121.525C101.065 116.079 101.774 109.841 101.549 105.603C101.509 104.828 101.115 104.064 100.892 103.382C96.3616 101.676 96.6463 106.936 96.4737 110.607C96.3109 114.133 95.6216 117.336 95.0913 119.267C94.3777 113.62 94.9558 106.901 94.171 101.314C92.8851 100.469 91.0318 100.786 90.1046 101.657C89.277 107.483 89.7429 113.961 89.468 119.319C88.5185 114.263 88.6667 108.299 86.709 104.077C85.9291 103.731 84.9766 103.813 84.3966 104.15C83.5474 106.443 83.9208 109.231 84.106 111.905C84.6968 120.391 85.0702 131.103 90.4322 135.259C89.9847 136.852 91.1575 137.86 91.3584 139.233Z" fill="#3D1313"/>
<path fill-rule="evenodd" clip-rule="evenodd" d="M92.1801 102.569C92.7094 102.481 92.3263 103.15 92.3867 103.451C91.791 103.308 91.5912 104.162 91.2022 103.775C91.2295 103.489 91.2568 103.204 91.2831 102.918C91.5249 102.732 91.9675 102.789 92.1801 102.569Z" fill="#77EDD7"/>
<path fill-rule="evenodd" clip-rule="evenodd" d="M99.488 104.547C100.26 105.592 99.9004 107.189 99.8429 108.47C99.6518 112.663 99.3623 117.1 99.0873 121.223C98.8222 125.213 98.7715 129.355 96.7778 132.101C95.0542 132.584 93.158 133.711 91.0736 133.012C88.3273 132.09 87.9822 127.305 87.4421 124.028C87.1145 122.032 86.9322 119.957 86.7148 117.91C86.2556 113.582 85.4347 109.301 85.5352 105.841C86.1952 106.173 86.0041 107.15 86.0762 107.764C86.474 111.171 86.783 114.523 87.5727 117.989C87.7618 118.816 88.0719 120.916 89.1491 121.162C91.795 121.766 91.2452 115.461 91.3378 113.153C91.3973 111.64 91.368 109.881 91.3476 108.399C91.3271 106.885 90.9244 105.195 92.2786 104.596C92.8343 108.705 92.5301 114.285 93.118 118.793C93.274 119.995 93.5089 122.017 94.9674 122.134C97.2331 122.32 97.5168 116.786 97.855 114.336C98.3308 110.882 98.5541 107.49 98.7461 104.766C99.024 104.728 99.1341 104.49 99.488 104.547ZM90.2381 123.423C91.2208 123.586 92.1499 121.824 91.137 121.49C90.6125 121.86 90.128 122.781 90.2381 123.423ZM94.9372 130.201C94.0929 130.68 93.1892 130.463 92.3888 131.26C96.1256 133.585 98.6145 128.077 97.6113 124.687C96.8558 127.022 96.7437 129.174 94.9372 130.201ZM90.6378 129.945C90.9566 129.851 91.176 129.64 91.1458 129.127C90.5774 128.202 89.4835 129.72 90.6378 129.945Z" fill="#77EDD7"/>
<path fill-rule="evenodd" clip-rule="evenodd" d="M94.5889 135.499C94.6182 136.066 94.3871 136.317 94.1951 136.616C93.5692 136.432 92.6557 136.488 92.6918 135.757C93.5175 135.905 93.9084 135.53 94.5889 135.499Z" fill="#77EDD7"/>
<path fill-rule="evenodd" clip-rule="evenodd" d="M96.5066 182.938C97.2895 182.946 97.9465 183.06 97.7126 183.914C96.9677 183.874 96.2873 183.779 96.5066 182.938Z" fill="#77EDD7"/>
<path fill-rule="evenodd" clip-rule="evenodd" d="M94.1093 151.448C94.9711 148.425 94.5812 144.46 94.353 141.097C94.2887 140.149 93.7213 138.704 94.8912 138.409C96.0367 147.083 96.9394 156.341 98.9253 164.719C99.6224 167.668 100.402 170.444 100.127 173.478C99.8973 176.023 99.095 180.3 97.1783 180.407C96.2209 180.46 94.7264 178.701 94.2341 177.97C91.2713 173.582 93.1568 165.001 93.5 158.018C93.8402 151.026 93.1753 144.953 92.684 138.922C93.3479 139.625 93.2104 140.868 93.2748 141.861C93.4717 144.959 93.346 148.712 94.1093 151.448ZM98.0245 166.655C98.3404 166.452 98.4213 165.969 98.4291 165.396C97.3821 164.002 95.9275 166.895 98.0245 166.655ZM98.2 169.407C98.2946 172.28 98.082 175.549 97.1159 177.952C99.1369 177.908 99.9626 170.14 98.2 169.407Z" fill="#77EDD7"/>
<path fill-rule="evenodd" clip-rule="evenodd" d="M220.206 177.73C220.487 177.688 220.501 177.903 220.724 177.917C223.407 182.513 225.885 187.821 228.196 193.117C228.866 194.65 230.333 196.683 229.285 198.381C227.49 198.002 226.647 195.873 225.896 194.28C224.297 190.891 222.978 187.893 221.443 184.045C220.642 182.042 219.338 179.13 220.206 177.73Z" fill="#3D1313"/>
<path fill-rule="evenodd" clip-rule="evenodd" d="M217.203 193.015C217.966 192.836 219.621 192.267 219.987 193.26C219.953 194.416 219.074 194.683 218.37 195.139C220.075 198.002 220.656 201.931 223.567 203.649C224.428 203.296 224.248 202.129 225.176 202.118C227.595 202.089 225.804 206.111 224.023 206.277C219.285 206.726 218.23 199.507 216.423 196.138C215.348 196.489 213.57 198.089 212.747 196.568C212.912 195.009 214.434 194.88 215.426 194.192C214.341 190.797 212.302 188.309 212.012 184.157C212.155 184.128 212.192 183.986 212.366 183.991C214.265 184.951 215.753 190.326 217.203 193.015Z" fill="#3D1313"/>
<path fill-rule="evenodd" clip-rule="evenodd" d="M109.962 181.761C109.87 182.708 110.274 183.129 109.738 183.674C111.696 185.137 116.828 186.861 117.789 189.811C119.123 193.918 115.162 197.43 110.459 196.609C111.357 199.081 113.197 200.652 112.7 204.695C112.089 209.663 107.296 215.001 100.793 213.123C98.5909 212.488 96.6947 211.149 94.4261 209.471C92.2599 207.87 88.1653 205.777 90.0488 203.077C90.5704 202.602 90.9106 203.259 91.2616 203.457C96.5397 195.34 102.265 187.694 109.612 181.751C109.729 181.755 109.844 181.758 109.962 181.761ZM114.796 190.784C114.577 188.203 111.022 187.242 108.983 185.925C107.756 187.558 106.107 188.748 105.026 190.538C106.698 192.019 115.275 196.427 114.796 190.784ZM106.272 210.468C108.315 209.583 109.793 206.711 109.744 204.272C109.646 199.448 105.407 195.648 102.868 193.102C99.3026 196.813 96.1283 200.935 93.306 205.428C96.6129 207.235 100.827 212.825 106.272 210.468Z" fill="#3D1313"/>
<path fill-rule="evenodd" clip-rule="evenodd" d="M206.492 195.537C205.441 195.572 204.492 195.509 204.063 194.953C202.626 190.733 209.554 191.886 206.492 195.537Z" fill="#3D1313"/>
<path fill-rule="evenodd" clip-rule="evenodd" d="M199.394 200.072C200.275 200.043 200.522 199.349 201.506 199.427C202.976 200.432 201.665 202.334 200.378 202.541C201.597 205.81 202.6 209.281 204.329 212.066C206.074 213.26 207.898 211.571 208.881 211.482C209.58 214.79 206.688 215.852 203.369 215.532C200.336 212.967 199.806 208.025 198.426 203.887C197.265 203.91 196.196 205.359 195.1 204.327C195.235 202.62 196.925 202.547 197.615 201.422C196.86 198.915 195.192 196.53 195.366 193.686C195.788 193.377 196.387 193.256 196.942 193.55C197.881 195.608 198.669 197.81 199.394 200.072Z" fill="#3D1313"/>
<path fill-rule="evenodd" clip-rule="evenodd" d="M212.655 207.214C213.507 207.095 213.484 206.054 214.771 206.395C215.499 207.315 214.818 208.801 214.173 209.347C210.111 210.369 208.883 206.254 207.873 203.079C207.357 201.462 205.242 196.893 207.502 196.96C208.768 196.998 209.524 201.015 209.987 202.26C210.777 204.389 211.308 206.085 212.655 207.214Z" fill="#3D1313"/>
<path fill-rule="evenodd" clip-rule="evenodd" d="M231.325 200.528C233.887 199.921 234.565 204.559 232.432 205.094C229.712 205.777 228.427 201.214 231.325 200.528Z" fill="#3D1313"/>
<path fill-rule="evenodd" clip-rule="evenodd" d="M120.012 198.596C121.71 198.503 124.157 200.23 123.543 203.921C123.038 206.965 118.629 211.529 115.021 209.641C114.507 209.374 113.763 208.311 113.663 208.036C112.13 203.757 116.631 198.782 120.012 198.596ZM121.296 202.992C121.112 198.478 114.687 204.385 116.83 207.069C118.694 206.71 121.392 205.347 121.296 202.992Z" fill="#3D1313"/>
<path fill-rule="evenodd" clip-rule="evenodd" d="M163.407 222.031C160.305 221.288 158.922 217.446 157.308 214.721C154.745 215.428 151.725 215.657 149.235 216.438C148.286 218.961 148.066 222.252 145.235 222.795C144.393 221.083 145.749 218.883 146.073 217.23C144.726 216.866 142.927 216.93 142.267 215.912C143.103 214.466 145.054 214.19 147.03 213.938C148.47 209.485 150.499 205.65 151.721 200.965C153.19 200.68 154.594 204.061 155.443 205.597C157.398 209.128 158.712 211.91 160.61 215.327C161.918 217.691 163.358 219.401 163.407 222.031ZM150.187 213.32C152.173 213.143 154.017 212.813 155.966 212.594C154.971 210.303 153.856 208.129 152.639 206.051C151.959 208.62 150.982 210.876 150.187 213.32Z" fill="#3D1313"/>
<path fill-rule="evenodd" clip-rule="evenodd" d="M166.925 214.09C167.74 220.6 171.133 227.124 169.738 234.06C168.273 231.98 167.817 229.298 167.131 226.664C166.471 224.126 165.804 221.437 165.236 218.761C164.084 213.341 162.673 207.564 163.041 201.949C165.594 201.79 167.663 201.232 169.308 202.63C172.777 205.582 171.314 213.346 166.925 214.09ZM166.291 211.457C169.454 210.686 169.41 203.165 164.91 203.917C165.16 206.63 166.066 208.719 166.291 211.457Z" fill="#3D1313"/>
<path fill-rule="evenodd" clip-rule="evenodd" d="M188.132 210.61C188.71 214.373 189.514 217.925 194.237 217.745C195.863 216.889 195.518 213.96 197.487 213.464C199.496 216.082 196.89 219.67 195.223 220.214C193.297 220.842 190.533 220.024 189.144 219.013C186.307 216.954 182.078 206.994 187.1 203.078C189.701 201.05 193.566 203.102 194.362 205.879C195.493 209.839 191.269 209.624 188.132 210.61ZM187.837 208.509C189.195 208.266 190.176 207.626 191.53 207.38C191.105 203.72 187.363 204.121 187.837 208.509Z" fill="#3D1313"/>
<path fill-rule="evenodd" clip-rule="evenodd" d="M177.726 214.887C177.953 221.146 180.673 226.834 179.711 233.09C177.404 229.427 176.45 224.407 175.692 219.374C174.929 214.288 174.002 208.852 174.169 203.627C175.631 202.931 177.945 202.028 179.952 202.725C185.037 204.489 183.331 214.973 177.726 214.887ZM176.233 204.9C176.465 207.233 177.007 209.271 177.286 211.559C178.502 211.286 179.454 210.734 180.121 209.885C180.363 207.441 180.136 205.445 178.683 204.612C177.68 204.512 177.014 204.768 176.233 204.9Z" fill="#3D1313"/>
<path fill-rule="evenodd" clip-rule="evenodd" d="M127.263 201.746C127.708 202.268 127.082 202.747 127.218 203.491C129.66 201.735 133.507 203.293 133.406 207.313C133.371 208.772 132.682 211.089 132.045 212.864C131.294 214.95 130.374 217.273 128.982 216.627C127.114 214.892 133.224 206.661 128.901 205.977C124.65 205.305 126.282 213.199 123.614 214.921C123.136 214.808 122.896 214.468 122.407 214.367C122.644 211.261 123.897 205.014 125.504 202.226C125.763 201.782 126.317 201.592 127.263 201.746Z" fill="#3D1313"/>
</svg>
