<svg width="318" height="318" viewBox="0 0 318 318" fill="none" xmlns="http://www.w3.org/2000/svg">
<g style="mix-blend-mode:soft-light" opacity="0.5">
<circle cx="159" cy="159" r="159" fill="#FCFCFC"/>
</g>
<g style="mix-blend-mode:soft-light" opacity="0.5">
<circle cx="159.5" cy="158.5" r="116.5" fill="#FCFCFC"/>
</g>
<path fill-rule="evenodd" clip-rule="evenodd" d="M249.889 152.879C246.049 146.403 239.963 141.933 233.106 139.304C234.084 137.55 234.783 135.658 235.076 133.642C236.323 125.055 231.12 116.86 223.03 113.809C222.033 113.433 221.037 113.175 220.047 113.004C218.112 111.554 216.005 110.641 213.835 110.245C212.343 108.113 210.619 106.119 208.614 104.322C207.348 103.187 206.04 102.125 204.696 101.131C206.931 94.434 204.13 86.075 197.879 82.669C193.282 80.165 188.272 80.73 184.223 83.181C184.127 83.178 184.034 83.166 183.937 83.166C180.006 83.166 176.632 85.955 175.7 89.632C174.648 89.465 173.594 89.31 172.534 89.18C171.29 89.028 170.032 88.914 168.765 88.838C167.895 86.8 166.854 84.877 165.637 83.148C159.487 74.413 149.374 72.925 140.974 79.533C138.808 81.237 137.098 83.136 135.773 85.171C130.645 82.819 124.742 82.262 118.924 83.722C107.698 86.539 99.2948 98.229 99.0128 109.566C91.8588 108.974 84.5578 110.415 78.3908 114.211C68.2598 120.448 64.6268 132.378 66.5908 143.661C68.1608 152.679 76.1498 158.478 84.7898 159.242C85.3158 164.101 86.4888 168.877 88.2108 173.456C87.8738 173.716 87.5508 173.998 87.2578 174.324C85.8598 175.881 84.7348 177.748 83.8848 179.784C83.0598 178.454 81.7238 177.463 80.5028 176.562C79.5968 175.893 78.4638 175.426 77.3598 175.221C75.4288 174.861 73.6678 174.694 71.7458 175.303C70.0598 175.837 68.2248 176.771 67.0598 178.147C65.7938 179.643 64.7058 181.223 64.3198 183.198C63.9528 185.075 63.9198 186.525 64.1288 188.202C64.1618 188.716 64.2418 189.218 64.3658 189.704C64.3798 189.78 64.3898 189.851 64.4048 189.928C64.4268 190.005 64.4598 190.076 64.4828 190.153C64.4928 190.186 64.5068 190.217 64.5168 190.251C64.9358 191.553 65.6178 192.701 66.5908 193.68C67.9538 195.043 69.7548 195.897 71.6588 196.112C71.6888 196.115 71.7178 196.122 71.7468 196.126C72.0298 196.154 72.3148 196.17 72.6008 196.17C73.2508 196.17 73.8838 196.086 74.4948 195.943C77.2648 196.573 80.3798 195.76 82.4668 193.816C83.6888 200.008 87.4908 205.343 94.2888 206.788C94.5518 206.844 94.8068 206.878 95.0648 206.92C94.6228 210.267 94.5658 213.621 94.7938 216.679C95.8238 230.488 105.894 237.619 118.951 238.879C131.089 240.051 145.577 232.569 151.511 222.003C152.547 220.158 153.524 218.208 154.399 216.187C156.195 216.257 157.99 216.265 159.778 216.214C159.175 221.625 160.853 228.058 162.595 231.961C162.779 232.373 162.983 232.775 163.197 233.173C162.188 232.743 161.085 232.504 159.935 232.504C155.302 232.504 151.435 236.37 151.435 241.004V241.671C151.435 246.305 155.302 250.171 159.935 250.171C164.568 250.171 168.435 246.305 168.435 241.671V241.004C168.435 240.41 168.37 239.829 168.249 239.267C174.259 244.19 182.913 245.804 189.701 241.243C195.001 237.682 197.879 231.897 198.753 225.602C204.162 224.384 209.364 222.552 213.927 220.517C226.462 214.927 239.524 203.579 243.742 189.851C244.989 188.65 246.155 187.364 247.225 186.003C254.918 176.222 256.311 163.711 249.889 152.879ZM157.585 160.777C157.513 160.561 157.439 160.345 157.373 160.114C157.562 159.915 157.75 159.714 157.942 159.519C157.834 159.936 157.716 160.355 157.585 160.777Z" fill="#FBFDFD"/>
<path fill-rule="evenodd" clip-rule="evenodd" d="M233.774 201.766C235.246 200.416 236.96 197.706 237.498 195.807C240.304 185.934 231.965 184.221 224.466 183.147C225.149 175.327 223.1 170.239 218.321 167.88C217.996 165.713 215.89 164.369 215.342 163.039C216.974 162.499 218.63 161.982 220.183 161.363C223.224 162.72 227.39 165.496 230.795 163.597C235.522 160.962 229.948 154.474 231.54 148.888C228.616 144.371 219.792 147.592 218.136 151.123C216.405 151.441 215.406 152.489 213.667 152.798C212.56 148.32 209.844 145.449 206.033 143.675C205.124 139.214 201.358 137.235 198.027 134.739C192.138 130.322 184.976 124.764 176.057 124.126C166.554 123.445 159.991 125.116 152.04 126.546C146.89 127.473 141.977 128.429 137.704 130.27C133.51 132.079 129.546 134.482 125.789 136.415C121.705 138.515 118.352 141.337 115.921 144.606C110.66 147.575 106.889 152.586 103.819 157.639C100.48 163.13 98.8108 169.04 99.1638 178.118C97.5938 177.346 98.1748 175.795 96.3708 175.511C92.8788 174.965 88.2768 180.045 85.3868 180.166C84.7528 180.646 85.3148 182.327 84.6418 182.772C79.8558 184.31 73.4648 189.623 77.0088 195.804C77.5748 196.792 79.0448 197.461 80.9178 198.784C83.2438 200.425 84.8208 202.03 87.2488 202.879C90.8788 204.148 95.1008 205.015 98.9778 206.044C102.997 207.111 106.816 208.799 110.335 209.581C115.246 210.676 120.812 210.194 126.347 210.699C131.704 211.186 137.113 211.007 142.731 211.443C164.919 213.169 187.834 213.957 208.08 210.512C217.982 208.831 228.423 206.678 233.774 201.766Z" fill="#3D1313"/>
<path fill-rule="evenodd" clip-rule="evenodd" d="M208.64 141.07C206.888 139.035 204.938 137.2 202.869 135.484C203.267 138.754 205.539 141.124 208.64 141.07Z" fill="#3D1313"/>
<path fill-rule="evenodd" clip-rule="evenodd" d="M113.315 142.559C112.594 142.895 111.742 143.098 111.826 144.235C114.057 144.31 115.313 142.457 116.668 141.256C118.029 140.048 120.102 139.19 120.577 137.532C120.39 137.532 120.204 137.532 120.018 137.532C117.445 138.87 115.001 140.336 113.315 142.559Z" fill="#3D1313"/>
<path fill-rule="evenodd" clip-rule="evenodd" d="M229.865 166.018C231.971 166.279 234.656 165.628 234.707 163.226C234.44 163.182 234.391 162.919 234.146 162.854C233.276 164.463 230.782 164.451 229.865 166.018Z" fill="#3D1313"/>
<path fill-rule="evenodd" clip-rule="evenodd" d="M98.7928 163.598C96.9138 165.455 95.3998 171.323 97.4898 174.209C98.4788 172.922 97.9058 170.771 98.0478 168.811C98.1998 166.72 99.0848 164.637 98.7928 163.598Z" fill="#3D1313"/>
<path fill-rule="evenodd" clip-rule="evenodd" d="M226.328 148.703C227.981 150.736 225.526 154.076 225.769 156.894C225.934 158.8 227.108 159.262 227.445 160.991C224.182 160.818 219.226 157.062 215.902 160.247C215.533 158.135 213.794 157.39 212.736 155.965C214.445 154.694 216.953 154.223 218.693 152.986C219.646 153.787 218.111 156.268 219.439 156.895C221.681 157.077 221.564 153.473 220.743 152.241C221.433 149.891 223.683 149.1 226.328 148.703ZM224.093 154.289C225.388 153.965 226.221 152.412 225.769 150.937C223.902 150.746 224.548 153.068 224.093 154.289Z" fill="#DEDEDE"/>
<path fill-rule="evenodd" clip-rule="evenodd" d="M227.072 148.703C228.192 148.701 228.927 149.084 229.306 149.82C227.8 153.252 230.572 157.031 229.306 159.502C224.773 157.815 229.595 151.867 227.072 148.703Z" fill="#DEDEDE"/>
<path fill-rule="evenodd" clip-rule="evenodd" d="M133.051 149.075C133.209 149.041 133.225 149.148 133.236 149.261C133.658 155.913 132.854 162.509 131.375 168.811C130.319 173.304 130.18 178.093 128.396 180.54C127.402 181.903 125.328 183.147 123.742 184.448C122.13 185.77 119.936 187.464 117.97 186.869C117.087 185.397 117.983 183.396 118.155 181.843C115.319 182.136 115.132 188.355 117.783 188.919C121.191 189.268 123.098 187.182 125.046 185.566C126.645 184.238 128.117 182.572 130.072 182.774C129.836 183.753 128.457 184.095 127.652 184.822C126.354 185.996 125.339 187.474 124.487 188.92C127.924 188.693 128.949 186.058 131.376 184.822C140.584 187.683 153.085 183.413 163.213 184.449C165.469 184.681 168.671 186.375 167.867 189.476C167.529 190.782 162.824 193.41 161.35 193.945C157.239 195.441 151.863 195.617 146.27 196.365C141.102 197.056 135.692 198.333 131.002 198.6C125.401 198.918 121.047 197.216 116.667 196.365C114.759 193.489 111.443 189.815 112.755 185.009C113.907 180.797 117.638 177.557 120.203 173.466C122.606 169.633 125.485 165.469 127.091 161.55C129.107 156.639 128.596 150.61 133.051 149.075ZM131.375 151.31C129.941 154.046 129.922 158.398 128.954 161.363C128.651 162.289 127.786 163.181 128.208 163.969C131.198 161.618 130.893 154.99 131.932 151.31C131.747 151.31 131.56 151.31 131.375 151.31ZM119.273 179.982C123.135 176.708 125.188 171.623 126.906 166.205C126.865 166.058 126.75 165.987 126.533 166.017C124.42 170.978 121.61 175.244 119.273 179.982ZM125.23 177.56C125.206 178.02 125.202 178.459 125.415 178.679C126.176 178.754 126.591 178.488 126.533 177.746C126.389 177.706 126.317 177.591 126.348 177.375C125.889 177.35 125.451 177.348 125.23 177.56ZM148.504 187.242C151.376 187.894 156.086 187.793 157.998 186.312C154.748 186.537 150.975 186.239 148.504 187.242ZM140.311 187.987C140.89 188.254 141.516 187.957 141.614 187.242C141.473 186.764 141.02 186.596 140.311 186.684C140.046 186.934 140.046 187.739 140.311 187.987ZM143.29 189.477C144.739 189.608 144.671 186.855 143.105 187.43C142.185 187.766 142.214 189.379 143.29 189.477ZM164.143 187.242C161.889 188.435 159.643 189.594 157.067 190.408C149.997 192.644 140.236 193.23 131.375 192.828C127.967 192.674 123.048 191.133 120.576 193.387C124.414 192.34 127.909 193.887 131.56 194.131C143.692 194.944 156.527 193.492 163.024 188.92C163.438 188.627 165.102 188.219 164.327 187.242C164.267 187.242 164.204 187.242 164.143 187.242ZM135.657 190.036C137.119 190.387 137.474 188.926 136.775 188.174C135.141 187.83 134.771 189.361 135.657 190.036ZM146.641 189.291C146.697 188.419 145.987 188.266 145.526 188.36C143.106 188.857 146.489 191.713 146.641 189.291ZM139.381 190.036C139.363 190.77 140.485 191.029 141.056 190.595C141.462 189.057 139.424 188.59 139.381 190.036Z" fill="#DEDEDE"/>
<path fill-rule="evenodd" clip-rule="evenodd" d="M97.6748 182.402C93.7228 181.47 91.5178 183.785 88.9248 184.822C88.3008 184.082 87.8268 183.19 87.2498 182.402C89.5748 180.507 92.6038 179.315 95.2538 177.747C96.5458 178.816 97.1968 180.522 97.6748 182.402Z" fill="#FCFCFC"/>
<path fill-rule="evenodd" clip-rule="evenodd" d="M96.5597 184.077C93.8927 187.121 90.4057 189.345 89.6697 194.317C87.6717 193.275 85.2827 192.623 85.3877 189.476C88.2357 187.111 91.5787 185.24 94.8847 183.333C95.6947 183.328 95.9037 183.928 96.5597 184.077Z" fill="#FCFCFC"/>
<path fill-rule="evenodd" clip-rule="evenodd" d="M212.736 184.077C209.511 185.817 204.588 185.858 204.73 190.967C204.107 190.41 203.968 189.371 203.615 188.547C205.457 186.107 208.097 184.465 211.248 183.334C211.955 183.369 211.953 184.116 212.736 184.077Z" fill="#DEDEDE"/>
<path fill-rule="evenodd" clip-rule="evenodd" d="M100.654 185.381C97.9657 187.658 95.3848 190.041 94.6968 194.318C96.7938 191.448 98.6558 187.359 101.586 185.94C102.426 186.729 101.038 187.342 100.654 187.988C99.9597 189.163 99.6667 190.608 99.5387 192.271C97.6767 193.263 96.5087 194.95 96.5597 197.856C94.2657 197.479 93.1027 195.973 91.7188 194.69C92.7498 190.2 96.0528 187.979 98.6068 185.009C99.2388 185.184 99.9717 185.259 100.654 185.381Z" fill="#77EDD7"/>
<path fill-rule="evenodd" clip-rule="evenodd" d="M214.97 185.753C216.449 186.819 217.16 188.652 218.321 190.036C215.051 190.861 210.285 190.191 206.406 190.408C206.657 186.251 210.775 185.964 214.97 185.753Z" fill="#FCFCFC"/>
<path fill-rule="evenodd" clip-rule="evenodd" d="M227.445 187.43C228.853 187.142 230.215 188.504 230.983 189.477C232.091 195.498 228.783 198.69 224.465 199.904C227.417 197.975 230.195 191.538 227.445 187.43Z" fill="#77EDD7"/>
<path fill-rule="evenodd" clip-rule="evenodd" d="M107.916 187.616C109.657 191.459 110.037 196.664 114.059 198.227C111.532 202.869 103.903 199.586 99.3508 198.787C99.2288 197.111 99.4448 195.775 100.097 194.877C101.848 195.704 106.385 197.161 108.475 196.924C109.314 196.83 110.105 196.438 110.151 195.807C110.266 194.225 107.165 194.354 105.683 194.131C103.499 193.805 102.244 193.436 101.028 192.643C101.802 189.555 103.373 186.317 107.916 187.616ZM103.635 190.967C102.041 187.1 107.556 189.816 103.635 190.967V190.967Z" fill="#FCFCFC"/>
<path fill-rule="evenodd" clip-rule="evenodd" d="M209.199 200.09C209.078 198.287 208.054 197.385 207.709 195.807C215.107 195.261 224.9 197.11 225.211 189.477C224.168 190.396 223.937 191.362 223.163 192.084C219.502 195.507 212.474 193.795 206.965 195.062C206.222 194.441 205.399 193.898 205.29 192.642C211.525 191.056 223.215 195.412 223.722 187.8C227.897 187.592 225.518 194.741 224.28 196.364C221.642 199.821 213.713 199.628 209.199 200.09ZM210.501 198.601C212.3 200.545 214.817 198.416 216.832 198.415C215.55 197.234 211.766 197.945 210.501 198.601Z" fill="#FCFCFC"/>
<path fill-rule="evenodd" clip-rule="evenodd" d="M80.3608 188.174C80.0508 191.422 80.8098 194.315 83.3398 195.807C85.2688 196.946 88.1908 197.075 90.5998 198.041C91.7968 198.522 92.8148 199.688 94.1388 200.275C97.0968 201.589 101.14 202.328 105.123 203.254C109.091 204.177 112.732 205.904 116.107 206.234C117.881 206.406 119.728 206.109 121.506 206.234C124.818 206.464 128.157 206.99 131.56 207.164C135.04 207.343 138.586 207.26 141.986 207.724C148.857 208.661 155.579 208.594 162.094 207.538C161.998 208.565 162.2 209.294 162.281 210.144C149.289 209.212 134.462 208.515 121.134 207.909C117.96 207.765 114.556 207.741 111.639 207.165C107.844 206.417 103.857 204.509 99.9088 203.442C97.8688 202.889 95.9398 202.238 93.9508 201.58C91.8228 200.874 89.5798 200.761 87.8078 200.091C86.2778 199.512 84.6738 198.124 82.9658 196.925C81.3528 195.792 79.2048 194.898 78.8698 193.202C78.4258 190.943 79.4938 189.526 80.3608 188.174Z" fill="#DEDEDE"/>
<path fill-rule="evenodd" clip-rule="evenodd" d="M233.216 188.174C237.169 189.809 234.874 196.822 232.658 199.345C229.919 202.46 224.448 203.553 221.486 205.117C221.007 204.914 221.325 203.914 220.926 203.627C229.015 202.465 234.035 198.24 233.216 188.174Z" fill="#DEDEDE"/>
<path fill-rule="evenodd" clip-rule="evenodd" d="M172.894 190.036C176.599 189.991 179.986 191.258 181.085 193.201C178.073 192.798 176.226 191.233 173.452 190.594C173.046 190.627 172.86 190.441 172.894 190.036Z" fill="#DEDEDE"/>
<path fill-rule="evenodd" clip-rule="evenodd" d="M190.768 190.967C191.037 191.518 189.375 192.868 188.532 193.573C187.469 194.463 186.213 195.246 185.367 195.993C184.883 195.486 184.703 194.672 184.437 193.945C186.049 192.455 188.429 191.731 190.768 190.967Z" fill="#DEDEDE"/>
<path fill-rule="evenodd" clip-rule="evenodd" d="M191.883 191.152C192.575 191.701 192.788 192.732 193.187 193.573C192.554 194.771 191.193 195.615 190.021 196.365C188.907 197.082 187.686 198.275 186.298 198.041C188.158 195.742 190.691 194.117 191.883 191.152Z" fill="#DEDEDE"/>
<path fill-rule="evenodd" clip-rule="evenodd" d="M170.845 191.339C171.54 191.14 171.374 191.802 171.962 191.711C171.48 193.092 170.831 194.304 170.845 196.18C168.769 195.613 170.472 192.744 170.845 191.339Z" fill="#DEDEDE"/>
<path fill-rule="evenodd" clip-rule="evenodd" d="M182.017 194.69C181.792 196.826 180.7 198.092 179.781 199.532C176.74 199.409 174.101 198.882 172.335 197.484C172.729 195.829 172.608 193.661 173.267 192.271C176.242 192.445 178.126 194.857 182.017 194.69ZM174.942 196.18C175.462 196.394 175.91 196.394 176.431 196.18C177.628 193.818 173.793 193.953 174.942 196.18Z" fill="#FCFCFC"/>
<path fill-rule="evenodd" clip-rule="evenodd" d="M198.028 193.573C198.65 196.889 199.083 202.179 197.656 204.929C195.765 204.025 197.074 201.772 195.422 201.206C192.939 200.356 191.77 203.198 190.022 203.253C188.458 203.303 187.725 201.851 187.23 200.089C190.729 198.747 194.098 197.275 195.608 193.944C196.502 193.908 196.971 193.447 198.028 193.573Z" fill="#77EDD7"/>
<path fill-rule="evenodd" clip-rule="evenodd" d="M198.959 193.76C199.345 193.325 199.991 194.206 200.636 194.131C200.542 196.959 201.993 201.163 199.703 202.51C199.673 200.063 199.903 195.897 198.959 193.76Z" fill="#77EDD7"/>
<path fill-rule="evenodd" clip-rule="evenodd" d="M207.523 201.766C206.447 203.096 203.847 203.403 201.752 202.696C202.772 200.399 202.153 196.986 201.752 194.505C202.523 194.53 203.191 194.453 203.615 194.132C205.539 196.053 207.503 197.938 207.523 201.766Z" fill="#77EDD7"/>
<path fill-rule="evenodd" clip-rule="evenodd" d="M167.681 195.063C166.741 197.104 166.125 201.079 165.819 204.372C164.455 203.565 162.688 203.159 161.538 202.14C161.067 200.396 160.779 198.38 161.538 196.74C163.621 196.217 166.048 196.037 167.681 195.063Z" fill="#77EDD7"/>
<path fill-rule="evenodd" clip-rule="evenodd" d="M157.626 197.483C158.266 197.931 157.093 200.412 157.813 201.579C156.5 201.695 155.081 201.701 153.903 201.951C155.108 200.428 156.128 198.715 157.626 197.483Z" fill="#DEDEDE"/>
<path fill-rule="evenodd" clip-rule="evenodd" d="M168.613 197.67C169.74 198.217 170.318 199.315 171.404 199.903C171.435 200.865 171.289 202.004 171.592 202.695C170.613 202.32 169.079 202.548 168.054 202.695C168.05 200.832 168.453 199.373 168.613 197.67Z" fill="#DEDEDE"/>
<path fill-rule="evenodd" clip-rule="evenodd" d="M183.878 198.787C184.899 200.061 185.682 201.574 186.298 203.254C185.894 204.465 185.423 205.607 183.878 205.674C183.913 203.975 183.425 200.975 183.878 198.787Z" fill="#DEDEDE"/>
<path fill-rule="evenodd" clip-rule="evenodd" d="M116.853 199.345C119.239 200.188 121.65 201.002 124.487 201.393C124.589 201.664 124.268 202.355 124.672 202.325C123.378 202.519 122.671 203.798 121.693 203.999C118.614 204.637 117.619 201.757 116.853 199.345Z" fill="#FCFCFC"/>
<path fill-rule="evenodd" clip-rule="evenodd" d="M114.992 200.834C115.676 201.576 115.629 203.051 116.48 203.627C115.158 204.078 113.725 203.034 112.198 203.068C112.975 202.17 114.413 201.931 114.992 200.834Z" fill="#77EDD7"/>
<path fill-rule="evenodd" clip-rule="evenodd" d="M172.707 200.834C174.316 201.584 176.17 202.089 178.478 202.139C177.728 203.249 176.922 204.305 176.058 205.303C173.653 205.102 172.707 203.443 172.707 200.834Z" fill="#DEDEDE"/>
<path fill-rule="evenodd" clip-rule="evenodd" d="M182.203 200.834C182.667 202.48 181.989 205.268 183.691 205.674C182.037 206.212 181.712 203.808 180.341 203.442C180.759 202.371 181.846 201.967 182.203 200.834Z" fill="#DEDEDE"/>
<path fill-rule="evenodd" clip-rule="evenodd" d="M126.162 201.393C127.779 201.451 129.221 201.686 131.002 201.579C130.487 202.616 129.648 203.328 128.954 204.185C127.759 203.518 126.33 203.087 126.162 201.393Z" fill="#77EDD7"/>
<path fill-rule="evenodd" clip-rule="evenodd" d="M138.078 204.371C136.393 204.627 134.051 203.931 131.747 204.185C132.859 200.459 135.997 203.117 138.078 204.371Z" fill="#DEDEDE"/>
<path fill-rule="evenodd" clip-rule="evenodd" d="M208.64 203.254C208.719 202.9 209.041 202.787 209.012 202.324C210.34 202.709 211.386 202.228 212.923 202.324C213.799 202.232 213.374 202.659 212.735 202.51C211.414 202.801 210.062 203.065 208.64 203.254Z" fill="#DEDEDE"/>
<path fill-rule="evenodd" clip-rule="evenodd" d="M194.677 203.068C194.577 204.035 194.921 204.56 195.049 205.302C192.169 205.775 189.327 206.282 186.298 206.605C185.598 206.324 187.347 205.477 187.229 204.557C189.91 206.985 192.607 204.037 194.677 203.068Z" fill="#DEDEDE"/>
<path fill-rule="evenodd" clip-rule="evenodd" d="M163.212 205.674C159.401 206.491 154.201 206.147 150.737 205.862C151.555 204.576 155.051 203.35 157.626 203.442C159.948 203.523 161.583 205.037 163.212 205.674Z" fill="#DEDEDE"/>
<path fill-rule="evenodd" clip-rule="evenodd" d="M219.624 205.674C219.375 205.674 219.129 205.674 218.88 205.674C219.015 204.733 218.37 204.572 218.32 203.814C219.507 203.287 219.471 204.658 219.624 205.674Z" fill="#DEDEDE"/>
<path fill-rule="evenodd" clip-rule="evenodd" d="M200.636 203.814C201.028 203.979 201.185 204.379 201.751 204.372C201.561 204.804 200.897 204.757 200.263 204.745C200.452 204.5 200.445 204.059 200.636 203.814Z" fill="#DEDEDE"/>
<path fill-rule="evenodd" clip-rule="evenodd" d="M216.087 204.185C216.057 203.781 216.747 204.101 217.018 203.997C217.031 204.917 217.566 205.314 217.578 206.233C216.132 206.499 216.953 204.5 216.087 204.185Z" fill="#DEDEDE"/>
<path fill-rule="evenodd" clip-rule="evenodd" d="M214.412 204.371C215.187 204.59 215.092 205.679 215.158 206.605C210.384 207.48 205.685 208.429 200.82 209.212C200.502 208.537 200.429 207.617 200.449 206.605C204.917 205.677 210.279 205.639 214.412 204.371Z" fill="#DEDEDE"/>
<path fill-rule="evenodd" clip-rule="evenodd" d="M172.894 206.047C171.646 206.607 170.168 205.797 168.613 206.047C168.564 203.228 172.417 204.953 172.894 206.047Z" fill="#DEDEDE"/>
<path fill-rule="evenodd" clip-rule="evenodd" d="M178.665 205.303C179.708 205.315 180.071 206.007 180.712 206.42C180.087 206.85 178.667 206.486 177.733 206.606C178.035 206.162 178.404 205.785 178.665 205.303Z" fill="#DEDEDE"/>
<path fill-rule="evenodd" clip-rule="evenodd" d="M199.144 206.792C198.876 207.393 198.968 208.353 198.959 209.213C198.521 209.209 198.411 209.533 197.84 209.399C197.475 208.896 197.73 207.772 197.655 206.979C198.359 207.121 198.546 206.752 199.144 206.792Z" fill="#DEDEDE"/>
<path fill-rule="evenodd" clip-rule="evenodd" d="M163.77 207.537C163.894 207.537 164.018 207.537 164.143 207.537C164.743 207.812 164.659 209.742 164.516 210.143C163.651 209.892 163.789 208.635 163.77 207.537Z" fill="#DEDEDE"/>
<path fill-rule="evenodd" clip-rule="evenodd" d="M195.98 207.537C196.564 207.74 196.201 209.072 196.166 209.584C190.965 209.658 186.564 210.533 181.086 210.33C181.086 209.709 181.086 209.089 181.086 208.468C186.281 208.389 191.615 208.445 195.98 207.537Z" fill="#DEDEDE"/>
<path fill-rule="evenodd" clip-rule="evenodd" d="M166.377 207.908C166.997 207.908 167.618 207.908 168.239 207.908C168.485 208.468 168.427 209.332 168.425 210.143C167.742 210.143 167.06 210.143 166.377 210.143C166.377 209.398 166.377 208.652 166.377 207.908Z" fill="#DEDEDE"/>
<path fill-rule="evenodd" clip-rule="evenodd" d="M169.728 207.908C170.1 207.908 170.472 207.908 170.845 207.908C171.2 208.359 170.962 209.405 171.032 210.143C170.66 210.143 170.288 210.143 169.916 210.143C169.988 209.262 169.854 208.59 169.728 207.908Z" fill="#DEDEDE"/>
<path fill-rule="evenodd" clip-rule="evenodd" d="M172.334 208.096C174.511 208.553 177.674 208.061 179.409 208.468C179.351 209.147 179.438 209.68 179.596 210.144C177.115 210.144 174.63 210.144 172.148 210.144C172.494 209.744 172.275 208.779 172.334 208.096Z" fill="#DEDEDE"/>
<path fill-rule="evenodd" clip-rule="evenodd" d="M112.383 151.124C111.916 153.448 109.787 155.725 109.963 159.315C111.454 158.843 111.534 157.044 112.011 155.964C114.809 149.611 118.806 144.007 124.671 140.323C126.86 138.95 129.453 138.018 132.119 136.599C137.121 133.938 142.155 131.539 148.316 130.269C156.824 128.518 165.99 126.058 176.801 127.106C182.194 127.626 188.369 131.059 192.07 133.807C193.846 135.127 195.961 136.924 198.212 138.649C200.116 140.102 203.266 142.018 203.241 144.421C203.192 149.042 195.128 147.679 195.049 152.612C196.452 152.573 196.515 151.063 197.47 150.379C198.74 149.467 200.583 149.348 201.939 148.33C201.587 149.282 201.501 150.499 201.566 151.868C203.945 151.753 204.508 148.24 205.662 146.282C208.518 147.464 210.225 150.773 210.502 153.915C200.665 156.849 189.766 153.726 178.479 154.288C169.691 154.724 160.446 156.663 156.511 160.804C155.609 161.752 155.087 163.05 154.275 164.156C149.858 166.226 144.625 162.824 140.871 163.225C141.57 164.553 143.562 164.839 145.154 165.272C147.535 165.923 150.223 166.254 153.53 166.205C151.645 170.165 150.388 177.625 152.971 181.844C146.9 182.588 140.192 183.513 133.609 183.147C132.785 182.483 131.926 181.852 131.376 180.913C133.228 173.511 135.692 163.538 135.285 154.29C135.172 151.727 135.204 149.171 134.167 147.216C126.702 146.618 127.191 155.304 124.858 160.992C123.4 164.548 120.849 168.895 118.343 172.163C114.441 177.248 110.184 179.643 108.847 185.94C107.708 185.442 105.789 184.811 104.193 185.381C103.177 184.412 102.191 183.41 100.842 182.775C100.8 175.844 105.883 174.04 107.172 168.44C104.428 168.612 103.544 171.637 101.959 172.348C102.475 162.315 107.853 157.145 112.383 151.124ZM145.897 132.133C148.25 132.401 150.248 130.803 152.598 130.457C150.269 130.19 146.757 130.315 145.897 132.133ZM174.382 134.182C166.926 133.682 158.213 134.518 153.158 136.787C151.414 137.569 149.195 138.424 148.504 140.139C155.366 136.224 165.204 134.494 175.127 135.297C183.828 136.001 189.092 140.517 195.421 143.117C190.63 138.813 183.361 134.783 174.382 134.182ZM141.242 135.111C137.977 136.234 134.952 138.973 130.817 140.697C126.019 142.696 120.624 143.931 119.647 149.075C124.622 142.756 135.429 140.655 141.802 135.111C141.614 135.111 141.429 135.111 141.242 135.111ZM159.861 140.14C161.272 141.859 162.368 138.153 160.419 139.022C159.752 138.914 159.853 139.573 159.861 140.14ZM158.371 141.815C158.858 141.486 158.81 140.517 158.559 139.953C156.625 138.735 156.217 142.303 158.371 141.815ZM159.116 143.305C159.371 143.296 159.525 143.391 159.673 143.491C159.915 143.11 160.577 143.151 160.419 142.374C160.056 141.111 158.219 142.26 159.116 143.305ZM163.025 144.234C163.025 144.11 163.025 143.986 163.025 143.862C162.683 143.244 162.118 144.422 163.025 144.234ZM155.019 146.283C153.123 142.166 159.639 145.787 155.019 146.283V146.283ZM157.254 156.337C159.947 155.239 164.169 154.07 167.122 152.613C163.196 151.344 158.021 152.693 157.254 156.337ZM119.646 165.832C121.638 164.784 122.896 163 123.369 160.434C121.387 160.759 120.595 163.855 119.646 165.832ZM109.964 165.272C110.487 165.802 111.355 162.912 110.15 162.853C109.956 163.346 109.065 164.901 109.964 165.272ZM139.754 173.652C141.133 173.852 141.603 173.142 141.429 171.79C140.216 170.24 138.417 172.611 139.754 173.652Z" fill="#DEDEDE"/>
<path fill-rule="evenodd" clip-rule="evenodd" d="M220.743 175.513C220.419 178.327 220.513 182.91 219.439 185.567C218.703 185.881 218.143 184.413 217.205 183.706C216.285 183.013 214.562 181.855 213.109 181.659C210.193 181.262 205.453 183.303 203.427 185.01C201.406 186.715 199.662 188.938 201.751 191.712C199.577 190.874 196.745 191.175 194.861 192.085C193.973 190.367 192.921 188.813 190.952 188.175C187.931 188.814 185.768 190.314 182.574 190.78C179.66 188.674 175.205 186.526 170.471 187.43C170.285 185.815 168.92 184.391 168.612 183.52C180.94 184.43 189.46 181.532 194.118 174.769C192.075 175.811 190.206 177.982 187.415 179.424C183.249 181.574 179.288 182.215 172.52 182.215C167.993 182.217 164.341 182.33 161.536 180.541C158.421 178.555 158.144 174.332 157.439 170.115C155.428 174.18 158.437 179.321 159.859 181.658C158.99 181.658 158.12 181.658 157.252 181.658C152.224 177.771 155.315 166.611 158.556 163.039C162.144 159.082 173.15 157.151 181.642 156.894C187.178 156.728 192.806 157.69 198.026 157.453C202.596 157.246 206.797 157.25 210.5 156.523C211.189 158.439 213.473 158.763 213.666 161.177C203.225 166.003 197.646 175.693 188.717 182.03C188.1 182.367 187.155 181.689 186.67 182.402C186.209 183.676 187.028 185.476 188.344 185.939C189.032 186.18 189.952 185.912 190.767 185.939C195.594 186.102 203.211 186.507 203.985 182.214C201.636 181.564 199.414 183.81 196.537 183.89C194.548 183.947 192.79 183.091 190.58 183.146C198.929 177.78 204.076 169.212 212.735 164.156C216.503 165.912 215.782 172.156 219.997 173.465C220.488 172.9 219.832 171.901 219.811 171.23C223.395 173.522 222.993 182.787 220.742 186.312C221.098 183.609 222.582 178.34 220.743 175.513ZM184.25 160.619C184.774 160.584 185.044 160.295 184.995 159.687C184.382 157.997 182.417 160.379 184.25 160.619ZM206.593 161.55C207.908 160.88 210.085 161.071 210.874 159.875C208.843 159.83 206.992 159.965 206.593 161.55ZM192.628 162.107C193.339 162.198 193.817 162.056 194.118 161.736C194.252 161.167 193.927 161.056 193.93 160.619C192.8 159.935 191.736 161.272 192.628 162.107ZM171.962 163.783C172.232 164.057 173.181 164.057 173.452 163.783C173.934 162.088 171.482 162.088 171.962 163.783ZM176.802 164.528C176.843 164.383 176.959 164.313 177.175 164.343C177.288 163.897 177.443 163.493 177.363 162.854C175.682 161.257 174.248 164.805 176.802 164.528ZM190.394 170.672C186.301 173.425 181.054 176.061 175.314 176.444C169.287 176.848 166.365 174.681 161.35 175.141C162.172 176.192 163.787 176.144 165.074 176.444C168.004 177.127 171.33 178.026 174.943 177.747C187.43 176.785 194.509 167.146 203.987 163.225C204.196 162.956 204.188 162.771 203.8 162.665C198.097 163.508 195.114 167.5 190.394 170.672ZM189.65 164.528C190.361 164.619 190.838 164.475 191.14 164.156C191.14 163.845 191.14 163.536 191.14 163.225C190.229 162.119 188.475 163.504 189.65 164.528ZM166.191 164.528C166.585 164.693 166.74 165.094 167.308 165.088C167.79 164.825 168.195 164.486 168.054 163.598C167.45 162.863 165.828 163.188 166.191 164.528ZM183.134 164.901C183.828 164.975 184.227 164.752 184.25 164.156C183.832 162.906 182.106 164.119 183.134 164.901ZM168.425 174.023C165.598 172.009 161.421 171.344 162.652 165.272C162.613 165.065 162.445 164.983 162.281 164.901C159.826 169.674 163.353 175.012 168.425 174.023ZM174.57 166.762C174.41 167.667 175.002 167.82 175.5 168.067C175.791 167.799 176.148 167.598 176.245 167.135C175.955 166.462 175.185 166.169 174.57 166.762ZM180.341 167.508C181.884 163.996 183.005 170.115 180.341 167.508V167.508ZM171.962 169.369C173.146 169.368 173.808 167.633 172.706 166.577C169.837 166.022 170.29 169.371 171.962 169.369ZM179.224 169.556C179.224 169.245 179.224 168.936 179.224 168.625C177.191 167.523 177.689 170.988 179.224 169.556ZM181.644 170.115C181.769 170.115 181.892 170.115 182.017 170.115C182.027 169.877 182.255 169.856 182.203 169.555C182.017 169.555 181.83 169.555 181.644 169.555C181.644 169.742 181.644 169.928 181.644 170.115ZM176.618 172.348C177.719 172.522 178.152 171.666 177.734 170.859C176.578 169.922 175.64 171.674 176.618 172.348ZM179.037 172.162C179.336 172.485 179.601 172.84 180.342 172.721C181.8 171.454 178.972 170.127 179.037 172.162ZM216.832 178.68C217.397 176.174 216.38 173.68 214.599 172.907C215.41 174.763 216.017 176.825 216.832 178.68ZM206.034 180.168C207.635 179.906 208.219 178.63 208.64 177.19C207.279 177.69 205.976 178.248 206.034 180.168ZM183.691 184.077C183.482 186.034 186.104 187.604 187.229 185.939C186.015 185.455 185.476 183.381 183.691 184.077Z" fill="#DEDEDE"/>
<path fill-rule="evenodd" clip-rule="evenodd" d="M85.9458 184.637C86.4358 185.078 87.0688 185.375 87.2498 186.126C84.5058 186.58 82.0358 191.012 84.6428 193.387C82.8478 193.051 81.1178 188.791 82.5938 186.498C83.4338 185.196 84.9978 185.77 85.9458 184.637Z" fill="#DEDEDE"/>
<path fill-rule="evenodd" clip-rule="evenodd" d="M148.689 203.441C146.974 207.562 139.825 203.142 137.519 201.392C142.395 200.124 148.413 199.997 153.159 198.6C151.76 203.093 145.038 204.326 140.126 202.138C141.382 203.988 146.365 205.008 148.689 203.441Z" fill="#FCFCFC"/>
<path fill-rule="evenodd" clip-rule="evenodd" d="M233.664 107.043C235.265 105.023 235.992 102.926 237.643 100.344C238.703 98.688 242.307 95.996 241.614 93.433C241.418 92.706 236.599 89.367 235.571 90.065C231.893 92.567 229.146 99.368 226.307 102.456C224.141 101.845 223.277 99.406 220.929 99.906C219.866 100.133 216.277 106.202 216.324 106.84C216.497 109.189 219.879 109.236 220.92 111.11C218.077 116.629 210.859 124.442 210.952 133.036C210.965 134.322 211.057 136.377 211.757 137.656C212.777 139.519 216.926 141.906 219.723 141.588C221.782 141.356 223.763 136.801 223.272 134.695C222.963 133.366 221.566 133.297 221.271 132.02C220.986 130.779 221.47 128.743 221.748 127.776C222.854 123.938 225.995 120.389 227.894 116.769C229.482 117.912 230.938 119.197 232.873 119.967C235.058 117.171 237.049 114.197 238.448 110.671C237.2 109.088 234.865 108.677 233.664 107.043Z" fill="#3D1313"/>
<path fill-rule="evenodd" clip-rule="evenodd" d="M239.106 94.16C236.46 99.245 232.355 102.974 229.685 108.036C231.283 109.754 234.206 110.044 235.336 112.264C234.109 113.706 232.842 115.111 231.913 116.83C230.84 116.392 230.183 115.52 229.302 114.813C228.906 114.495 226.964 112.785 226.903 112.788C226.119 112.833 224.702 116.061 224.103 117.119C223.049 118.98 222.432 120.258 221.742 121.855C219.721 126.537 216.771 132.79 220.991 135.833C220.821 136.761 220.315 137.38 220.022 138.194C216.554 137.188 213.609 136.087 213.846 131.234C214.169 124.641 221.644 115.619 224.08 110.778C222.547 109.358 220.799 108.167 219.687 106.292C220.405 105.26 221.024 104.137 221.68 103.046C223.694 103.804 225.459 104.83 226.87 106.237C229.952 101.76 232.924 97.182 235.657 92.385C237.075 92.688 237.754 93.789 239.106 94.16Z" fill="#DEDEDE"/>
<path fill-rule="evenodd" clip-rule="evenodd" d="M207.224 123.662C203.742 123.255 202.476 120.097 202.096 116.454C201.806 113.661 202.397 110.826 202.417 107.987C202.493 97.143 197.696 89.242 186.314 89.771C186.261 89.537 186.068 89.452 185.876 89.365C183.659 89.926 183.346 95.838 184.32 98.722C187.052 99.072 190.206 98.968 190.566 101.872C186.451 102.411 182.9 102.948 180.122 105.219C177.399 107.443 175.157 112.768 176.963 116.959C178.961 121.594 186.519 123.414 192.965 121.018C193.703 123.434 194.645 126.831 197.068 129.109C198.865 130.797 203.586 132.677 205.832 131.744C208.035 130.827 207.838 126.243 207.224 123.662ZM192.662 112.787C191.59 113.615 188.984 113.365 188.011 112.748C187.794 110.235 190.874 110.786 192.342 109.839C192.848 110.391 192.492 111.873 192.662 112.787Z" fill="#3D1313"/>
<path fill-rule="evenodd" clip-rule="evenodd" d="M205.395 125.632C205.288 127.096 204.732 128.142 204.699 129.673C201.981 129.144 199.716 128.581 198.25 126.741C196.456 124.486 196.188 120.988 194.764 118.204C187.615 120.69 176.363 118.442 180.506 109.853C182.306 106.124 188.478 105.158 193.194 104.312C193.258 99.905 191.535 94.663 186.331 95.899C186.479 94.883 186.055 93.334 187.074 93.125C194.074 92.74 195.821 95.292 198.119 100.326C198.537 101.24 199.118 102.035 199.26 102.608C201.411 111.22 195.727 123.746 205.395 125.632ZM185.243 112.216C185.147 115.869 191.692 116.748 194.405 114.201C194.781 112.251 194.505 109.326 193.75 107.886C190.137 107.533 185.323 109.177 185.243 112.216Z" fill="#DEDEDE"/>
<path fill-rule="evenodd" clip-rule="evenodd" d="M172.282 104.663C175.045 93.578 169.945 85.396 159.807 87.371C151.939 88.901 147.309 97.563 147.158 105.382C147.045 111.203 150.054 116.718 153.598 119.515C155.217 120.793 158.625 122.489 161.313 122.401C165.199 122.273 171.738 118.62 171.827 115.248C171.881 113.262 170.36 111.818 169.327 110.48C165.36 113.17 159.338 110.648 159.658 106.187C163.777 105.617 168.903 106.297 172.282 104.663ZM159.939 96.665C160.361 95.076 163.648 94.816 164.161 96.51C163.104 97.056 161.095 96.742 159.939 96.665Z" fill="#3D1313"/>
<path fill-rule="evenodd" clip-rule="evenodd" d="M170.296 102.411C166.14 102.764 161.666 102.821 158.086 103.709C155.454 109.934 159.893 114.028 164.605 114.246C167.04 114.36 168.542 113.127 169.061 114.715C169.644 116.494 164.727 118.675 163.3 118.944C149.433 121.562 147.391 97.851 155.749 91.959C158.597 89.952 163.239 88.581 166.905 90.701C169.486 92.194 170.477 97.12 170.296 102.411ZM164.895 93.524C161.846 91.699 156.959 94.843 158.328 98.837C160.019 100.298 163.571 99.593 166.161 99.181C167.001 97.455 166.432 94.442 164.895 93.524Z" fill="#DEDEDE"/>
<path fill-rule="evenodd" clip-rule="evenodd" d="M136.463 101.971C136.462 101.966 136.297 101.537 136.229 101.346C134.833 97.394 130.826 93.055 126.403 92.833C120.522 92.537 119.276 96.858 117.609 100.768C112.222 96.883 104.611 101.026 104.092 106.762C104.009 107.691 104.162 109.267 104.437 110.342C106.973 120.3 121.406 131.552 133.407 127.87C135.804 122.085 138.367 111.178 136.463 101.971Z" fill="#3D1313"/>
<path fill-rule="evenodd" clip-rule="evenodd" d="M130.99 125.423C119.324 125.182 112.826 119.377 107.672 112.125C106.764 107.388 107.545 103.233 111.543 102.471C114.434 101.917 117.178 103.926 118.758 103.26C120.152 102.674 119.975 100.286 120.713 98.961C122.016 96.619 125.197 93.805 128.835 95.702C131.326 97.002 134.26 102.075 134.26 105.223C134.26 106.073 133.646 106.923 133.509 107.787C132.622 113.403 133.318 120.5 130.99 125.423ZM132.062 108.685C134.931 105.278 131.708 98.673 128.279 97.835C130.033 100.922 131.638 104.167 132.062 108.685ZM110.884 113.273C110.961 111.017 110.802 107.877 110.823 105.878C106.927 105.804 108.737 112.77 110.884 113.273ZM122.829 121.921C122.837 122.131 122.845 122.342 122.853 122.553C123.501 123.712 127.015 125.113 127.95 123.21C126.731 122.377 124.537 121.502 122.829 121.921Z" fill="#FCFCFC"/>
<path fill-rule="evenodd" clip-rule="evenodd" d="M112.486 133.716C110.672 130.542 108.947 130.283 106.31 132.465C102.086 125.894 97.4708 119.743 93.1318 113.296C93.6208 111.833 95.2198 111.251 95.3278 109.834C95.5538 106.861 90.5098 102.912 88.8798 101.194C83.9248 105.357 77.5108 108.166 74.5658 114.194C76.3368 117.485 79.6618 125.059 83.8828 120.401C86.5928 124.997 90.2988 129.306 93.8808 133.557C94.5928 134.405 97.4248 137.256 97.4218 137.866C97.4208 138.033 96.1578 139.172 95.9998 139.398C95.6748 139.862 94.9968 140.696 95.0218 141.548C95.0738 143.307 98.8168 147.098 100.095 147.277C103.036 147.692 105.791 144.284 107.756 142.98C109.351 141.92 114.326 140.125 114.316 137.453C114.311 136.589 113.129 134.843 112.486 133.716Z" fill="#3D1313"/>
<path fill-rule="evenodd" clip-rule="evenodd" d="M88.8248 105.424C89.9328 107.011 91.0078 108.632 91.9678 110.38C88.6148 112.325 92.2178 116.538 93.9838 119.183C96.8168 123.426 98.9898 126.568 101.815 130.941C102.984 132.751 104.402 136.304 106.646 135.836C107.736 135.607 108.384 133.364 109.734 133.607C110.111 135.104 110.824 136.237 111.36 137.563C107.697 139.8 104.266 142.253 100.845 144.714C100.005 143.35 99.0158 142.148 97.7578 141.236C98.0048 139.92 99.9598 139.133 100.166 137.765C100.463 135.781 98.0168 133.798 96.7888 132.184C92.9718 127.165 88.5388 121.228 85.0328 117.188C82.9838 117.324 82.3028 118.73 80.8888 119.456C79.7498 117.903 78.5148 116.453 77.3398 114.936C80.3258 110.984 85.1458 108.733 88.8248 105.424ZM87.8938 108.84C88.9038 109.518 90.2978 108.525 89.5358 107.511C88.6408 106.932 87.4478 107.525 87.8938 108.84ZM81.8898 117.939C82.0858 116.52 80.9488 114.738 79.4348 114.436C78.9268 116.192 80.1648 117.865 81.8898 117.939ZM102.259 142.972C101.988 141.655 101.345 140.738 99.8518 140.737C99.8328 142.261 100.814 143.739 102.259 142.972Z" fill="#DEDEDE"/>
</svg>
