<svg width="40" height="40" viewBox="0 0 40 40" fill="none" xmlns="http://www.w3.org/2000/svg">
<g filter="url(#filter0_d_1302_1658)">
<path d="M34.3636 15.1283C34.3636 23.0026 27.9237 29.3948 19.9686 29.3948C12.0136 29.3948 5.57363 23.0026 5.57363 15.1283C5.57363 7.25397 12.0136 0.861714 19.9686 0.861714C27.9237 0.861714 34.3636 7.25397 34.3636 15.1283Z" fill="#367759" stroke="#367759" stroke-width="1.21"/>
<rect x="11.5735" y="5.81875" width="16.79" height="16.6359" stroke="#367759" stroke-width="1.21"/>
<path fill-rule="evenodd" clip-rule="evenodd" d="M18.3018 20.829H21.6352C23.9759 20.829 25.1463 20.829 25.9871 20.2822C26.351 20.0454 26.6635 19.7412 26.9067 19.3869C27.4685 18.5686 27.4685 17.4293 27.4685 15.1508C27.4685 12.8722 27.4685 11.733 26.9067 10.9146C26.6635 10.5603 26.351 10.2561 25.9871 10.0194C25.4468 9.66798 24.7705 9.54238 23.735 9.49749C23.2409 9.49749 22.8154 9.13301 22.7185 8.66134C22.5731 7.95385 21.935 7.44458 21.1938 7.44458H18.7433C18.002 7.44458 17.3639 7.95385 17.2185 8.66134C17.1216 9.13301 16.6961 9.49749 16.202 9.49749C15.1665 9.54238 14.4902 9.66798 13.9499 10.0194C13.586 10.2561 13.2735 10.5603 13.0303 10.9146C12.4685 11.733 12.4685 12.8722 12.4685 15.1508C12.4685 17.4293 12.4685 18.5686 13.0303 19.3869C13.2735 19.7412 13.586 20.0454 13.9499 20.2822C14.7907 20.829 15.9611 20.829 18.3018 20.829ZM19.9685 12.1088C18.2426 12.1088 16.8435 13.4708 16.8435 15.1508C16.8435 16.8308 18.2426 18.1927 19.9685 18.1927C21.6944 18.1927 23.0935 16.8308 23.0935 15.1508C23.0935 13.4708 21.6944 12.1088 19.9685 12.1088ZM19.9685 13.3256C18.933 13.3256 18.0935 14.1428 18.0935 15.1508C18.0935 16.1588 18.933 16.9759 19.9685 16.9759C21.004 16.9759 21.8435 16.1588 21.8435 15.1508C21.8435 14.1428 21.004 13.3256 19.9685 13.3256ZM23.5102 12.7172C23.5102 12.3812 23.79 12.1088 24.1352 12.1088H24.9685C25.3137 12.1088 25.5935 12.3812 25.5935 12.7172C25.5935 13.0532 25.3137 13.3256 24.9685 13.3256H24.1352C23.79 13.3256 23.5102 13.0532 23.5102 12.7172Z" fill="white"/>
<path d="M13.9499 20.2822L14.1149 20.0286L14.1149 20.0286L13.9499 20.2822ZM13.0303 19.3869L13.2797 19.2158L13.2797 19.2158L13.0303 19.3869ZM26.9067 19.3869L26.6573 19.2158L26.6573 19.2158L26.9067 19.3869ZM25.9871 20.2822L26.152 20.5357L26.152 20.5357L25.9871 20.2822ZM26.9067 10.9146L26.6573 11.0858L26.6573 11.0858L26.9067 10.9146ZM25.9871 10.0194L26.152 9.76577L26.152 9.76577L25.9871 10.0194ZM13.0303 10.9146L12.7809 10.7434L13.0303 10.9146ZM13.9499 10.0194L13.785 9.76577L13.785 9.76577L13.9499 10.0194ZM17.2185 8.66134L17.5148 8.72223L17.5148 8.72223L17.2185 8.66134ZM16.202 9.49749V9.19471L16.1889 9.19528L16.202 9.49749ZM22.7185 8.66134L23.0148 8.60046L23.0148 8.60046L22.7185 8.66134ZM23.735 9.49749L23.7481 9.19499H23.735V9.49749ZM21.6352 20.5265H18.3018V21.1315H21.6352V20.5265ZM18.3018 20.5265C17.1253 20.5265 16.2651 20.5261 15.5932 20.4596C14.9259 20.3935 14.4777 20.2646 14.1149 20.0286L13.785 20.5357C14.2629 20.8466 14.8203 20.991 15.5336 21.0617C16.2422 21.1318 17.1376 21.1315 18.3018 21.1315V20.5265ZM12.166 15.1508C12.166 16.2836 12.1656 17.1565 12.2379 17.8478C12.3107 18.5446 12.4599 19.0905 12.7809 19.5581L13.2797 19.2158C13.0389 18.865 12.9072 18.432 12.8396 17.785C12.7714 17.1324 12.771 16.2965 12.771 15.1508H12.166ZM14.1149 20.0286C13.7838 19.8133 13.5002 19.537 13.2797 19.2158L12.7809 19.5581C13.0468 19.9455 13.3881 20.2776 13.785 20.5357L14.1149 20.0286ZM27.166 15.1508C27.166 16.2965 27.1656 17.1324 27.0974 17.785C27.0298 18.432 26.8981 18.865 26.6573 19.2158L27.1561 19.5581C27.4771 19.0905 27.6263 18.5446 27.6991 17.8478C27.7714 17.1565 27.771 16.2836 27.771 15.1508H27.166ZM21.6352 21.1315C22.7994 21.1315 23.6948 21.1318 24.4034 21.0617C25.1168 20.991 25.6741 20.8466 26.152 20.5357L25.8221 20.0286C25.4593 20.2646 25.0111 20.3935 24.3438 20.4596C23.6719 20.5261 22.8117 20.5265 21.6352 20.5265V21.1315ZM26.6573 19.2158C26.4369 19.537 26.1532 19.8133 25.8221 20.0286L26.152 20.5357C26.5489 20.2776 26.8902 19.9455 27.1561 19.5581L26.6573 19.2158ZM27.771 15.1508C27.771 14.018 27.7714 13.145 27.6991 12.4537C27.6263 11.7569 27.4771 11.211 27.1561 10.7434L26.6573 11.0858C26.8981 11.4365 27.0298 11.8695 27.0974 12.5165C27.1656 13.1691 27.166 14.005 27.166 15.1508H27.771ZM25.8221 10.2729C26.1532 10.4882 26.4369 10.7646 26.6573 11.0858L27.1561 10.7434C26.8902 10.356 26.5489 10.0239 26.152 9.76577L25.8221 10.2729ZM12.771 15.1508C12.771 14.005 12.7714 13.1691 12.8396 12.5165C12.9072 11.8695 13.0389 11.4365 13.2797 11.0858L12.7809 10.7434C12.4599 11.211 12.3107 11.7569 12.2379 12.4537C12.1656 13.145 12.166 14.018 12.166 15.1508H12.771ZM13.785 9.76577C13.3881 10.0239 13.0468 10.356 12.7809 10.7434L13.2797 11.0858C13.5002 10.7646 13.7838 10.4882 14.1149 10.2729L13.785 9.76577ZM18.7433 7.74708H21.1938V7.14208H18.7433V7.74708ZM16.9222 8.60046C16.8531 8.93673 16.5472 9.19499 16.202 9.19499V9.79999C16.845 9.79999 17.3901 9.32929 17.5148 8.72223L16.9222 8.60046ZM22.4222 8.72222C22.5469 9.32929 23.092 9.79999 23.735 9.79999V9.19499C23.3898 9.19499 23.0839 8.93673 23.0148 8.60046L22.4222 8.72222ZM21.1938 7.74708C21.7969 7.74708 22.3068 8.16073 22.4222 8.72223L23.0148 8.60046C22.8395 7.74696 22.073 7.14208 21.1938 7.14208V7.74708ZM18.7433 7.14208C17.864 7.14208 17.0976 7.74696 16.9222 8.60046L17.5148 8.72223C17.6302 8.16073 18.1401 7.74708 18.7433 7.74708V7.14208ZM23.7219 9.79971C24.7484 9.84421 25.3541 9.96853 25.8221 10.2729L26.152 9.76577C25.5396 9.36743 24.7926 9.24056 23.7481 9.19528L23.7219 9.79971ZM16.1889 9.19528C15.1444 9.24056 14.3975 9.36743 13.785 9.76577L14.1149 10.2729C14.5829 9.96853 15.1886 9.84421 16.2151 9.79971L16.1889 9.19528ZM18.396 15.1508C18.396 14.3175 19.0923 13.6281 19.9685 13.6281V13.0231C18.7736 13.0231 17.791 13.9681 17.791 15.1508H18.396ZM19.9685 16.6734C19.0923 16.6734 18.396 15.9841 18.396 15.1508H17.791C17.791 16.3335 18.7736 17.2784 19.9685 17.2784V16.6734ZM21.541 15.1508C21.541 15.9841 20.8447 16.6734 19.9685 16.6734V17.2784C21.1634 17.2784 22.146 16.3335 22.146 15.1508H21.541ZM19.9685 13.6281C20.8447 13.6281 21.541 14.3175 21.541 15.1508H22.146C22.146 13.9681 21.1634 13.0231 19.9685 13.0231V13.6281ZM19.9685 11.8063C18.0833 11.8063 16.541 13.2961 16.541 15.1508H17.146C17.146 13.6455 18.4019 12.4113 19.9685 12.4113V11.8063ZM23.396 15.1508C23.396 13.2961 21.8537 11.8063 19.9685 11.8063V12.4113C21.5351 12.4113 22.791 13.6455 22.791 15.1508H23.396ZM19.9685 18.4952C21.8537 18.4952 23.396 17.0055 23.396 15.1508H22.791C22.791 16.6561 21.5351 17.8902 19.9685 17.8902V18.4952ZM16.541 15.1508C16.541 17.0055 18.0833 18.4952 19.9685 18.4952V17.8902C18.4019 17.8902 17.146 16.6561 17.146 15.1508H16.541ZM24.1352 11.8063C23.6307 11.8063 23.2077 12.2065 23.2077 12.7172H23.8127C23.8127 12.5559 23.9493 12.4113 24.1352 12.4113V11.8063ZM24.9685 11.8063H24.1352V12.4113H24.9685V11.8063ZM25.896 12.7172C25.896 12.2065 25.473 11.8063 24.9685 11.8063V12.4113C25.1544 12.4113 25.291 12.5559 25.291 12.7172H25.896ZM24.9685 13.6281C25.473 13.6281 25.896 13.2279 25.896 12.7172H25.291C25.291 12.8785 25.1544 13.0231 24.9685 13.0231V13.6281ZM24.1352 13.6281H24.9685V13.0231H24.1352V13.6281ZM23.2077 12.7172C23.2077 13.2279 23.6307 13.6281 24.1352 13.6281V13.0231C23.9493 13.0231 23.8127 12.8785 23.8127 12.7172H23.2077Z" fill="white"/>
</g>
<defs>
<filter id="filter0_d_1302_1658" x="0.128628" y="0.256714" width="39.68" height="39.4232" filterUnits="userSpaceOnUse" color-interpolation-filters="sRGB">
<feFlood flood-opacity="0" result="BackgroundImageFix"/>
<feColorMatrix in="SourceAlpha" type="matrix" values="0 0 0 0 0 0 0 0 0 0 0 0 0 0 0 0 0 0 127 0" result="hardAlpha"/>
<feOffset dy="4.84"/>
<feGaussianBlur stdDeviation="2.42"/>
<feComposite in2="hardAlpha" operator="out"/>
<feColorMatrix type="matrix" values="0 0 0 0 0 0 0 0 0 0 0 0 0 0 0 0 0 0 0.25 0"/>
<feBlend mode="normal" in2="BackgroundImageFix" result="effect1_dropShadow_1302_1658"/>
<feBlend mode="normal" in="SourceGraphic" in2="effect1_dropShadow_1302_1658" result="shape"/>
</filter>
</defs>
</svg>
