<svg width="24" height="24" viewBox="0 0 24 24" fill="none" xmlns="http://www.w3.org/2000/svg">
<path d="M9.75001 16.6875C9.60083 16.6875 9.45775 16.6282 9.35226 16.5227C9.24678 16.4173 9.18751 16.2742 9.18751 16.125V15.2295C9.18858 14.9155 9.27041 14.6071 9.42514 14.3339C9.57987 14.0607 9.80229 13.8319 10.071 13.6695L10.9125 13.1647C11.2026 12.9894 11.4427 12.7423 11.6097 12.4473C11.7766 12.1523 11.8648 11.8192 11.8658 11.4803V11.3033C11.8658 10.137 10.917 9.1875 9.75001 9.1875C8.58301 9.1875 7.63426 10.137 7.63426 11.3033C7.63426 11.4524 7.575 11.5955 7.46951 11.701C7.36402 11.8065 7.22095 11.8658 7.07176 11.8658C6.92258 11.8658 6.7795 11.8065 6.67401 11.701C6.56853 11.5955 6.50926 11.4524 6.50926 11.3033C6.50926 9.516 7.96276 8.0625 9.75001 8.0625C11.5373 8.0625 12.9908 9.516 12.9908 11.3033V11.4803C12.9894 12.0135 12.8506 12.5373 12.5879 13.0013C12.3251 13.4653 11.9473 13.8538 11.4908 14.1293L10.65 14.634C10.5474 14.696 10.4625 14.7833 10.4034 14.8876C10.3443 14.9919 10.313 15.1096 10.3125 15.2295V16.125C10.3125 16.2742 10.2532 16.4173 10.1478 16.5227C10.0423 16.6282 9.8992 16.6875 9.75001 16.6875Z" fill="#0D1C15" fill-opacity="0.8"/>
<path d="M0.750006 23.8125C0.661716 23.8124 0.574679 23.7916 0.495936 23.7517C0.417193 23.7117 0.348955 23.6538 0.296744 23.5826C0.244533 23.5114 0.209814 23.429 0.195397 23.3419C0.18098 23.2547 0.187269 23.1655 0.213756 23.0812L1.63426 18.5625C0.686851 17.044 0.185521 15.2898 0.187506 13.5C0.187506 8.2275 4.47751 3.9375 9.75001 3.9375C15.0225 3.9375 19.3125 8.2275 19.3125 13.5C19.3125 18.7725 15.0225 23.0625 9.75001 23.0625C7.82251 23.0625 5.97901 22.5 4.39126 21.4305L1.06876 23.7135C0.974969 23.778 0.863825 23.8125 0.750006 23.8125ZM4.39501 20.1825C4.51201 20.1825 4.62901 20.2192 4.72801 20.292C6.18212 21.3651 7.94282 21.942 9.75001 21.9375C14.4023 21.9375 18.1875 18.1523 18.1875 13.5C18.1875 8.84775 14.4023 5.0625 9.75001 5.0625C5.09776 5.0625 1.31251 8.84775 1.31251 13.5C1.31251 15.1672 1.79851 16.7812 2.71876 18.1695C2.76508 18.2394 2.79518 18.3188 2.80686 18.4019C2.81854 18.4849 2.8115 18.5695 2.78626 18.6495L1.77601 21.8625L4.07626 20.2815C4.17004 20.217 4.28119 20.1825 4.39501 20.1825Z" fill="#0D1C15" fill-opacity="0.8"/>
<path d="M23.25 20.0625C23.1362 20.0625 23.025 20.028 22.9313 19.9635L19.9613 17.9235C19.8383 17.839 19.754 17.7091 19.7269 17.5624C19.6997 17.4157 19.732 17.2642 19.8165 17.1413C19.901 17.0183 20.0309 16.934 20.1776 16.9069C20.3243 16.8797 20.4758 16.912 20.5988 16.9965L22.224 18.1125L21.2138 14.8988C21.1885 14.8188 21.1815 14.7342 21.1931 14.6511C21.2048 14.5681 21.2349 14.4887 21.2813 14.4188C22.2 13.0352 22.6892 11.4109 22.6875 9.75002C22.6875 5.09777 18.9023 1.31252 14.25 1.31252C12.5685 1.31252 10.947 1.80377 9.56025 2.73227C9.43632 2.81007 9.28694 2.83651 9.14383 2.80598C9.00071 2.77545 8.87513 2.69035 8.79374 2.56874C8.71234 2.44714 8.68154 2.2986 8.70787 2.15465C8.73419 2.01071 8.81558 1.88269 8.93475 1.79777C10.5069 0.744312 12.3575 0.183668 14.25 0.18752C19.5225 0.18752 23.8125 4.47752 23.8125 9.75002C23.8125 11.5485 23.313 13.293 22.365 14.8125L23.7863 19.3313C23.8127 19.4155 23.819 19.5048 23.8046 19.5919C23.7902 19.679 23.7555 19.7615 23.7033 19.8327C23.6511 19.9039 23.5828 19.9618 23.5041 20.0017C23.4253 20.0416 23.3383 20.0625 23.25 20.0625Z" fill="#0D1C15" fill-opacity="0.8"/>
<path d="M9.75 18.9375C10.0607 18.9375 10.3125 18.6857 10.3125 18.375C10.3125 18.0643 10.0607 17.8125 9.75 17.8125C9.43934 17.8125 9.1875 18.0643 9.1875 18.375C9.1875 18.6857 9.43934 18.9375 9.75 18.9375Z" fill="#0D1C15" fill-opacity="0.8"/>
</svg>
