<svg width="44" height="44" viewBox="0 0 44 44" fill="none" xmlns="http://www.w3.org/2000/svg">
<rect width="44" height="44" rx="22" fill="#30694E"/>
<path d="M19.5 27.25C19.0858 27.25 18.75 26.9142 18.75 26.5L18.75 20.5C18.75 20.0858 19.0858 19.75 19.5 19.75C19.9142 19.75 20.25 20.0858 20.25 20.5L20.25 26.5C20.25 26.9142 19.9142 27.25 19.5 27.25Z" fill="white"/>
<path d="M25.25 20.5C25.25 20.0858 24.9142 19.75 24.5 19.75C24.0858 19.75 23.75 20.0858 23.75 20.5V26.5C23.75 26.9142 24.0858 27.25 24.5 27.25C24.9142 27.25 25.25 26.9142 25.25 26.5V20.5Z" fill="white"/>
<path fill-rule="evenodd" clip-rule="evenodd" d="M22.0662 11.25H22.0022C21.4969 11.25 21.0683 11.25 20.7126 11.2824C20.3351 11.3167 19.9835 11.3911 19.6436 11.5719C19.5094 11.6433 19.3814 11.7256 19.2608 11.8181C18.9553 12.0525 18.7417 12.3415 18.5539 12.6707C18.3769 12.9809 18.1992 13.371 17.9896 13.8307L17.5706 14.75H13C12.5858 14.75 12.25 15.0858 12.25 15.5C12.25 15.9142 12.5858 16.25 13 16.25H13.7939L14.3583 25.5991C14.4338 26.8488 14.4936 27.8404 14.6182 28.6325C14.7459 29.4449 14.9512 30.1214 15.3631 30.7133C15.7399 31.2547 16.2254 31.7118 16.7885 32.0553C17.4042 32.4307 18.0919 32.5949 18.9104 32.6735C19.7086 32.75 20.702 32.75 21.9539 32.75H22.0315C23.2818 32.75 24.274 32.75 25.0712 32.6736C25.8888 32.5952 26.5758 32.4313 27.1909 32.0565C27.7537 31.7137 28.239 31.2574 28.616 30.7169C29.028 30.126 29.234 29.4504 29.3627 28.6392C29.4881 27.8482 29.5493 26.858 29.6265 25.6101L30.2051 16.25H31C31.4142 16.25 31.75 15.9142 31.75 15.5C31.75 15.0858 31.4142 14.75 31 14.75H26.5256L26.0341 13.7361C25.8192 13.2926 25.6367 12.9162 25.4571 12.6169C25.2664 12.2992 25.052 12.0207 24.7501 11.7956C24.6308 11.7066 24.5045 11.6275 24.3724 11.559C24.0382 11.3855 23.6941 11.3141 23.325 11.2811C22.9774 11.25 22.559 11.25 22.0662 11.25ZM28.7022 16.25H26.0723C26.0616 16.2502 26.0509 16.2502 26.0403 16.25H18.069C18.058 16.2502 18.047 16.2502 18.036 16.25H15.2967L15.8533 25.47C15.9316 26.767 15.9879 27.6868 16.1 28.3996C16.2101 29.1003 16.3644 29.5261 16.5943 29.8565C16.8521 30.2269 17.1843 30.5396 17.5696 30.7747C17.9132 30.9842 18.3476 31.1126 19.0537 31.1803C19.7719 31.2492 20.6934 31.25 21.9928 31.25C23.2905 31.25 24.2107 31.2492 24.928 31.1805C25.6332 31.1128 26.0671 30.9848 26.4105 30.7755C26.7956 30.5409 27.1277 30.2288 27.3856 29.8589C27.6156 29.5291 27.7702 29.1039 27.8812 28.4042C27.9941 27.6925 28.0517 26.7741 28.1317 25.4788L28.7022 16.25ZM24.8587 14.75H19.219L19.341 14.4823C19.5676 13.9852 19.7176 13.658 19.8568 13.4141C19.9889 13.1825 20.0837 13.0774 20.1738 13.0082C20.2286 12.9662 20.2868 12.9288 20.3478 12.8963C20.4481 12.843 20.5831 12.8003 20.8486 12.7762C21.1282 12.7507 21.4882 12.75 22.0345 12.75C22.5675 12.75 22.9184 12.7507 23.1914 12.7751C23.4504 12.7983 23.5828 12.8392 23.6816 12.8904C23.7417 12.9216 23.7991 12.9576 23.8533 12.998C23.9426 13.0646 24.0371 13.1659 24.1709 13.3888C24.312 13.6238 24.4657 13.9393 24.6982 14.4189L24.8587 14.75Z" fill="white"/>
</svg>
