<svg width="20" height="22" viewBox="0 0 20 22" fill="none" xmlns="http://www.w3.org/2000/svg">
<path d="M7.25 16.25C6.83579 16.25 6.5 15.9142 6.5 15.5L6.5 9.5C6.5 9.08579 6.83579 8.75 7.25 8.75C7.66421 8.75 8 9.08579 8 9.5L8 15.5C8 15.9142 7.66421 16.25 7.25 16.25Z" fill="#E63946"/>
<path d="M13 9.5C13 9.08579 12.6642 8.75 12.25 8.75C11.8358 8.75 11.5 9.08579 11.5 9.5V15.5C11.5 15.9142 11.8358 16.25 12.25 16.25C12.6642 16.25 13 15.9142 13 15.5V9.5Z" fill="#E63946"/>
<path fill-rule="evenodd" clip-rule="evenodd" d="M9.81622 0.250001H9.75217C9.2469 0.249987 8.81827 0.249975 8.46258 0.282355C8.08514 0.316717 7.73355 0.391139 7.39357 0.571916C7.25939 0.643262 7.13136 0.725608 7.01078 0.818108C6.70528 1.05248 6.49173 1.34153 6.30391 1.67073C6.12691 1.98095 5.94915 2.37095 5.73959 2.83073L5.32055 3.75H0.75C0.335786 3.75 0 4.08579 0 4.5C0 4.91422 0.335786 5.25 0.75 5.25H1.54393L2.10833 14.5991C2.18377 15.8488 2.24362 16.8404 2.36816 17.6325C2.49587 18.4449 2.70121 19.1214 3.11311 19.7133C3.48991 20.2547 3.97537 20.7118 4.53854 21.0553C5.15416 21.4307 5.84186 21.5949 6.66041 21.6735C7.45858 21.75 8.45198 21.75 9.70385 21.75H9.78153C11.0318 21.75 12.024 21.75 12.8212 21.6736C13.6388 21.5952 14.3258 21.4313 14.9409 21.0565C15.5037 20.7137 15.989 20.2574 16.366 19.7169C16.778 19.126 16.984 18.4504 17.1127 17.6392C17.2381 16.8482 17.2993 15.858 17.3765 14.6101L17.9551 5.25H18.75C19.1642 5.25 19.5 4.91422 19.5 4.5C19.5 4.08579 19.1642 3.75 18.75 3.75H14.2756L13.7841 2.7361C13.5692 2.29263 13.3867 1.91618 13.2071 1.61688C13.0164 1.29917 12.802 1.02075 12.5001 0.795609C12.3808 0.70664 12.2545 0.627499 12.1224 0.558966C11.7882 0.385548 11.4441 0.314081 11.075 0.281071C10.7274 0.249976 10.309 0.249987 9.81622 0.250001ZM16.4522 5.25H13.8223C13.8116 5.25023 13.8009 5.25023 13.7903 5.25H5.81899C5.808 5.25025 5.79698 5.25025 5.78595 5.25H3.04666L3.60327 14.47C3.68157 15.767 3.7379 16.6868 3.84996 17.3996C3.96012 18.1003 4.11439 18.5261 4.34431 18.8565C4.60213 19.2269 4.93428 19.5396 5.31961 19.7747C5.66325 19.9842 6.09758 20.1126 6.80365 20.1803C7.52186 20.2492 8.44337 20.25 9.74277 20.25C11.0405 20.25 11.9607 20.2492 12.678 20.1805C13.3832 20.1128 13.8171 19.9848 14.1605 19.7755C14.5456 19.5409 14.8777 19.2288 15.1356 18.8589C15.3656 18.5291 15.5202 18.1039 15.6312 17.4042C15.7441 16.6925 15.8017 15.7741 15.8817 14.4788L16.4522 5.25ZM12.6087 3.75H6.96904L7.09105 3.48234C7.31765 2.98523 7.4676 2.65798 7.60677 2.41407C7.73887 2.18253 7.83366 2.07739 7.9238 2.00823C7.97861 1.96619 8.03681 1.92876 8.0978 1.89633C8.19812 1.84298 8.3331 1.80035 8.59858 1.77618C8.87824 1.75072 9.2382 1.75 9.78453 1.75C10.3175 1.75 10.6684 1.75069 10.9414 1.77511C11.2004 1.79827 11.3328 1.83916 11.4316 1.89044C11.4917 1.92159 11.5491 1.95756 11.6033 1.99801C11.6926 2.06458 11.7871 2.16588 11.9209 2.38884C12.062 2.62382 12.2157 2.93926 12.4482 3.41888L12.6087 3.75Z" fill="#E63946"/>
</svg>
