<svg width="25" height="26" viewBox="0 0 25 26" fill="none" xmlns="http://www.w3.org/2000/svg">
<path fill-rule="evenodd" clip-rule="evenodd" d="M6.59351 6.8125C6.59351 3.55057 9.23782 0.90625 12.4998 0.90625C15.7617 0.90625 18.406 3.55057 18.406 6.8125C18.406 10.0744 15.7617 12.7188 12.4998 12.7188C9.23782 12.7188 6.59351 10.0744 6.59351 6.8125ZM12.4998 2.59375C10.1698 2.59375 8.28101 4.48255 8.28101 6.8125C8.28101 9.14245 10.1698 11.0313 12.4998 11.0313C14.8297 11.0313 16.7185 9.14245 16.7185 6.8125C16.7185 4.48255 14.8297 2.59375 12.4998 2.59375Z" fill="#0D1C15"/>
<path d="M14.5133 16.5415C11.5889 15.6871 8.36927 16.0561 5.7064 17.6417C5.5176 17.7541 5.31074 17.8715 5.09405 17.9944C4.29237 18.4492 3.35602 18.9805 2.70342 19.6192C2.29827 20.0158 2.12557 20.3429 2.09795 20.5957C2.07601 20.7964 2.12674 21.1272 2.6337 21.6102C3.79903 22.7204 4.98318 23.4062 6.41468 23.4062H10.8125C11.2784 23.4062 11.6562 23.784 11.6562 24.25C11.6562 24.716 11.2784 25.0937 10.8125 25.0937H6.41468C4.36909 25.0937 2.78758 24.0876 1.4697 22.832C0.705802 22.1042 0.32503 21.2852 0.420438 20.4123C0.510152 19.5916 1.00364 18.9217 1.52301 18.4133C2.35345 17.6004 3.56565 16.9166 4.36757 16.4641C4.55052 16.3609 4.71222 16.2697 4.84305 16.1918C7.91876 14.3604 11.6239 13.9393 14.9866 14.9217C15.4339 15.0524 15.6905 15.5209 15.5599 15.9682C15.4292 16.4155 14.9606 16.6722 14.5133 16.5415Z" fill="#0D1C15"/>
<path fill-rule="evenodd" clip-rule="evenodd" d="M22.4837 13.5859C21.7293 13.1671 20.8135 13.181 20.072 13.622C19.7625 13.806 19.493 14.0988 19.1867 14.4315L14.3344 19.6888C13.8015 20.2654 13.4021 20.6976 13.1665 21.2399C12.9315 21.7808 12.8859 22.3705 12.8248 23.161L12.7994 23.4878C12.7888 23.622 12.7752 23.7953 12.7837 23.9476C12.794 24.1338 12.8414 24.4182 13.0643 24.6712C13.2897 24.927 13.5692 25.0087 13.7581 25.0402C13.9092 25.0654 14.0829 25.0698 14.2139 25.0731L14.5294 25.0814C15.4296 25.1057 16.1147 25.1241 16.7504 24.8758C17.3844 24.6282 17.8802 24.15 18.5349 23.5184L23.4738 18.7614C23.8006 18.4475 24.0863 18.1729 24.2652 17.8591C24.6901 17.1135 24.7031 16.1979 24.3001 15.4403C24.1305 15.1215 23.8529 14.8386 23.5352 14.5149L23.4641 14.4424L23.3922 14.3687C23.0765 14.0455 22.7985 13.7607 22.4837 13.5859ZM20.9346 15.0724C21.1603 14.9382 21.4356 14.9342 21.6646 15.0613C21.7337 15.0996 21.8265 15.1818 22.2582 15.6228C22.6888 16.0627 22.771 16.1589 22.8103 16.2329C22.9417 16.4799 22.9373 16.781 22.7991 17.0235C22.7577 17.096 22.673 17.1896 22.2299 17.6164L17.4693 22.2017C16.6607 22.9805 16.4167 23.1945 16.1365 23.304C15.8642 23.4103 15.554 23.4193 14.4995 23.3925C14.5735 22.4439 14.6069 22.1594 14.7143 21.9123C14.8218 21.6648 15.0059 21.4494 15.6568 20.7442L20.357 15.6518C20.7757 15.1981 20.8664 15.1129 20.9346 15.0724Z" fill="#0D1C15"/>
</svg>
