<svg width="27" height="27" viewBox="0 0 27 27" fill="none" xmlns="http://www.w3.org/2000/svg">
<g clip-path="url(#clip0_230_2008)">
<path d="M1.63024 1.77479C-0.419011 3.90337 0.000401184 6.1645 0.000401184 13.0337C0.000401184 18.7382 -0.994889 24.4568 4.21408 25.803C5.84067 26.2213 20.2528 26.2213 21.8772 25.8008C24.046 25.2413 25.8106 23.4821 26.0518 20.4147C26.0855 19.9866 26.0855 6.08844 26.0507 5.65164C25.7943 2.38435 23.783 0.501343 21.1329 0.11996C20.5255 0.0319489 20.4038 0.00587142 17.2876 0.000438616C6.234 0.00587142 3.81097 -0.486341 1.63024 1.77479Z" fill="#1877F2"/>
<g clip-path="url(#clip1_230_2008)">
<path d="M22.7417 12.4484C22.7417 17.1644 19.2864 21.0733 14.7696 21.7819V15.1795H16.9712L17.3901 12.4484H14.7696V10.6761C14.7696 9.92867 15.1358 9.20048 16.3094 9.20048H17.5008V6.8753C17.5008 6.8753 16.4194 6.69076 15.3856 6.69076C13.2276 6.69076 11.817 7.99877 11.817 10.3668V12.4484H9.41803V15.1795H11.817V21.7819C7.30026 21.0733 3.84497 17.1644 3.84497 12.4484C3.84497 7.23035 8.07532 3 13.2933 3C18.5113 3 22.7417 7.23035 22.7417 12.4484Z" fill="#1877F2"/>
<path d="M16.9711 15.1797L17.39 12.4485H14.7696V10.6762C14.7696 9.92897 15.1356 9.20064 16.3093 9.20064H17.5007V6.87546C17.5007 6.87546 16.4195 6.69092 15.3858 6.69092C13.2275 6.69092 11.817 7.99893 11.817 10.3669V12.4485H9.41797V15.1797H11.817V21.782C12.298 21.8575 12.791 21.8969 13.2933 21.8969C13.7955 21.8969 14.2885 21.8575 14.7696 21.782V15.1797H16.9711Z" fill="white"/>
</g>
</g>
<defs>
<clipPath id="clip0_230_2008">
<rect width="26.0775" height="26.0775" fill="white"/>
</clipPath>
<clipPath id="clip1_230_2008">
<rect width="18.8967" height="18.8967" fill="white" transform="translate(3.93701 3.93701)"/>
</clipPath>
</defs>
</svg>
