<svg width="25" height="24" viewBox="0 0 25 24" fill="none" xmlns="http://www.w3.org/2000/svg">
<path d="M20.8809 9.71903C20.8809 9.30482 20.5451 8.96903 20.1309 8.96903C19.7167 8.96903 19.3809 9.30482 19.3809 9.71903H20.8809ZM5.96764 9.71903C5.96764 9.30482 5.63185 8.96903 5.21764 8.96903C4.80342 8.96903 4.46764 9.30482 4.46764 9.71903H5.96764ZM15.245 20.7071L15.0762 19.9764L15.245 20.7071ZM10.1036 20.7071L10.2723 19.9764L10.1036 20.7071ZM15.5674 5.01423L15.0411 5.54865V5.54865L15.5674 5.01423ZM21.3538 11.7641C21.6489 12.0547 22.1238 12.0511 22.4144 11.7559C22.705 11.4607 22.7013 10.9859 22.4062 10.6953L21.3538 11.7641ZM9.7812 5.01423L10.3074 5.54865H10.3074L9.7812 5.01423ZM2.94236 10.6953C2.6472 10.9859 2.64352 11.4607 2.93413 11.7559C3.22475 12.0511 3.6996 12.0547 3.99476 11.7641L2.94236 10.6953ZM10.3405 18.3203L9.604 18.1789V18.1789L10.3405 18.3203ZM10.3603 18.2173L11.0969 18.3587L11.0969 18.3587L10.3603 18.2173ZM14.9882 18.2173L14.2517 18.3587V18.3587L14.9882 18.2173ZM15.008 18.3203L15.7445 18.1789L15.7445 18.1789L15.008 18.3203ZM14.7116 20.5519L14.0372 20.2236L14.0372 20.2236L14.7116 20.5519ZM13.9178 20.469C13.7365 20.8415 13.8914 21.2903 14.2639 21.4716C14.6363 21.6529 15.0852 21.498 15.2665 21.1255L13.9178 20.469ZM10.637 20.5519L9.96262 20.8801L9.96262 20.8801L10.637 20.5519ZM10.0821 21.1255C10.2634 21.498 10.7122 21.6529 11.0847 21.4716C11.4571 21.2903 11.6121 20.8415 11.4308 20.469L10.0821 21.1255ZM12.0207 16.4426L11.8244 15.7187L12.0207 16.4426ZM13.3278 16.4426L13.5242 15.7187L13.3278 16.4426ZM19.3809 9.71903V14.6374H20.8809V9.71903H19.3809ZM5.96764 14.6374V9.71903H4.46764V14.6374H5.96764ZM15.0762 19.9764C13.4964 20.3412 11.8521 20.3412 10.2723 19.9764L9.93478 21.4379C11.7367 21.854 13.6118 21.854 15.4137 21.4379L15.0762 19.9764ZM10.2723 19.9764C7.74297 19.3922 5.96764 17.1755 5.96764 14.6374H4.46764C4.46764 17.8887 6.73957 20.6999 9.93478 21.4379L10.2723 19.9764ZM15.4137 21.4379C18.609 20.6999 20.8809 17.8887 20.8809 14.6374H19.3809C19.3809 17.1755 17.6056 19.3922 15.0762 19.9764L15.4137 21.4379ZM15.0411 5.54865L21.3538 11.7641L22.4062 10.6953L16.0936 4.4798L15.0411 5.54865ZM9.255 4.4798L2.94236 10.6953L3.99476 11.7641L10.3074 5.54865L9.255 4.4798ZM16.0936 4.4798C15.4267 3.82319 14.8741 3.27685 14.3776 2.90391C13.8634 2.51762 13.3243 2.25 12.6743 2.25V3.75C12.8716 3.75 13.0971 3.81808 13.4767 4.1032C13.874 4.40167 14.3442 4.86245 15.0411 5.54865L16.0936 4.4798ZM10.3074 5.54865C11.0043 4.86245 11.4746 4.40167 11.8719 4.1032C12.2514 3.81808 12.477 3.75 12.6743 3.75V2.25C12.0242 2.25 11.4851 2.51762 10.9709 2.90391C10.4745 3.27685 9.92187 3.82319 9.255 4.4798L10.3074 5.54865ZM11.0771 18.4617L11.0969 18.3587L9.62378 18.0759L9.604 18.1789L11.0771 18.4617ZM14.2517 18.3587L14.2715 18.4617L15.7445 18.1789L15.7248 18.0759L14.2517 18.3587ZM14.0372 20.2236L13.9178 20.469L15.2665 21.1255L15.3859 20.8801L14.0372 20.2236ZM9.96262 20.8801L10.0821 21.1255L11.4308 20.469L11.3113 20.2236L9.96262 20.8801ZM14.2715 18.4617C14.386 19.0581 14.3042 19.6752 14.0372 20.2236L15.3859 20.8801C15.7944 20.041 15.9203 19.0944 15.7445 18.1789L14.2715 18.4617ZM9.604 18.1789C9.42822 19.0944 9.55416 20.041 9.96262 20.8801L11.3113 20.2236C11.0444 19.6752 10.9626 19.0581 11.0771 18.4617L9.604 18.1789ZM12.2171 17.1664C12.5162 17.0852 12.8323 17.0852 13.1315 17.1664L13.5242 15.7187C12.9679 15.5678 12.3807 15.5678 11.8244 15.7187L12.2171 17.1664ZM15.7248 18.0759C15.5056 16.9344 14.6478 16.0235 13.5242 15.7187L13.1315 17.1664C13.712 17.3239 14.1425 17.79 14.2517 18.3587L15.7248 18.0759ZM11.0969 18.3587C11.2061 17.79 11.6366 17.3239 12.2171 17.1664L11.8244 15.7187C10.7007 16.0235 9.84294 16.9344 9.62378 18.0759L11.0969 18.3587Z" fill="#ADADAD"/>
</svg>
