<svg width="27" height="27" viewBox="0 0 27 27" fill="none" xmlns="http://www.w3.org/2000/svg">
<g clip-path="url(#clip0_230_2002)">
<path d="M1.86218 1.77479C-0.187078 3.90337 0.232335 6.1645 0.232335 13.0337C0.232335 18.7382 -0.762955 24.4568 4.44602 25.803C6.0726 26.2213 20.4847 26.2213 22.1092 25.8008C24.2779 25.2413 26.0425 23.4821 26.2837 20.4147C26.3174 19.9866 26.3174 6.08844 26.2826 5.65164C26.0262 2.38435 24.015 0.501343 21.3649 0.11996C20.7575 0.0319489 20.6358 0.00587142 17.5195 0.000438616C6.46593 0.00587142 4.0429 -0.486341 1.86218 1.77479Z" fill="url(#paint0_linear_230_2002)"/>
<path d="M13.2696 3.41066C9.32427 3.41066 5.57781 3.0597 4.14681 6.73228C3.55572 8.24912 3.64156 10.2191 3.64156 13.0398C3.64156 15.5149 3.56224 17.8413 4.14681 19.3462C5.57455 23.0209 9.35143 22.6689 13.2674 22.6689C17.0454 22.6689 20.9407 23.0622 22.3891 19.3462C22.9813 17.8141 22.8943 15.8735 22.8943 13.0398C22.8943 9.27809 23.1019 6.84962 21.2775 5.02638C19.4304 3.17922 16.9324 3.41066 13.2652 3.41066H13.2696ZM12.4068 5.1459C20.6365 5.13286 21.6839 4.21798 21.1059 16.9275C20.9005 21.4226 17.4778 20.9293 13.2707 20.9293C5.59954 20.9293 5.37897 20.7098 5.37897 13.0354C5.37897 5.27194 5.98744 5.15024 12.4068 5.14372V5.1459ZM18.409 6.74423C17.7712 6.74423 17.254 7.26143 17.254 7.89924C17.254 8.53705 17.7712 9.05426 18.409 9.05426C19.0468 9.05426 19.564 8.53705 19.564 7.89924C19.564 7.26143 19.0468 6.74423 18.409 6.74423ZM13.2696 8.09482C10.539 8.09482 8.32572 10.3092 8.32572 13.0398C8.32572 15.7703 10.539 17.9836 13.2696 17.9836C16.0001 17.9836 18.2123 15.7703 18.2123 13.0398C18.2123 10.3092 16.0001 8.09482 13.2696 8.09482ZM13.2696 9.83006C17.5126 9.83006 17.518 16.2495 13.2696 16.2495C9.02764 16.2495 9.02112 9.83006 13.2696 9.83006Z" fill="white"/>
</g>
<defs>
<linearGradient id="paint0_linear_230_2002" x1="1.91218" y1="24.4123" x2="26.1484" y2="3.43612" gradientUnits="userSpaceOnUse">
<stop stop-color="#FFDD55"/>
<stop offset="0.5" stop-color="#FF543E"/>
<stop offset="1" stop-color="#C837AB"/>
</linearGradient>
<clipPath id="clip0_230_2002">
<rect width="26.0775" height="26.0775" fill="white" transform="translate(0.232422)"/>
</clipPath>
</defs>
</svg>
