<svg width="23" height="24" viewBox="0 0 23 24" fill="none" xmlns="http://www.w3.org/2000/svg">
<path d="M11.5894 20.4044L14.6651 17.3352L11.5882 14.266L10.787 15.0672L12.5542 16.8343C11.5652 16.8394 10.6861 16.7232 9.91683 16.4855C9.14761 16.247 8.5313 15.896 8.06789 15.4326C7.59255 14.9581 7.23478 14.4193 6.99455 13.8162C6.75433 13.2131 6.63422 12.6104 6.63422 12.0082C6.63422 11.6461 6.67426 11.2841 6.75433 10.922C6.83441 10.56 6.95111 10.2167 7.10444 9.89215L6.23939 9.12549C5.99235 9.57612 5.80792 10.0429 5.68611 10.5259C5.56429 11.0089 5.50381 11.5005 5.50467 12.0005C5.50467 12.7595 5.65204 13.5087 5.94678 14.2481C6.24152 14.9875 6.67724 15.6498 7.25394 16.235C7.83065 16.8203 8.58837 17.2547 9.52711 17.5384C10.4659 17.822 11.4297 17.9664 12.4187 17.9715L10.787 19.6033L11.5894 20.4044ZM16.7862 14.8755C17.0332 14.4249 17.2172 13.958 17.3382 13.475C17.4591 12.992 17.52 12.5005 17.5209 12.0005C17.5209 11.244 17.3744 10.4923 17.0813 9.74521C16.7883 8.99814 16.3496 8.33625 15.7652 7.75954C15.197 7.17432 14.441 6.74115 13.4972 6.46004C12.5525 6.17808 11.5886 6.0371 10.6056 6.0371L12.2373 4.39771L11.4361 3.59654L8.35922 6.66577L11.4361 9.73499L12.2373 8.93382L10.4637 7.16026C11.4476 7.16026 12.328 7.27995 13.1049 7.51932C13.8818 7.75869 14.5015 8.11136 14.9641 8.57732C15.4266 9.04328 15.7801 9.57782 16.0246 10.1809C16.2691 10.784 16.3909 11.388 16.3901 11.9928C16.3901 12.3549 16.3504 12.7169 16.2712 13.0789C16.192 13.441 16.0753 13.7843 15.9211 14.1088L16.7862 14.8755ZM11.5038 23.5005C9.91428 23.5005 8.41928 23.1989 7.01883 22.5958C5.61924 21.9919 4.40152 21.1724 3.36567 20.1374C2.32981 19.1024 1.50991 17.8859 0.905944 16.488C0.301982 15.0902 0 13.5956 0 12.0043C0 10.4131 0.301982 8.91806 0.905944 7.51932C1.50906 6.11973 2.32726 4.90201 3.36056 3.86615C4.39385 2.8303 5.61072 2.0104 7.01117 1.40643C8.41161 0.80247 9.90661 0.500488 11.4962 0.500488C13.0857 0.500488 14.5807 0.80247 15.9812 1.40643C17.3808 2.00954 18.5985 2.82817 19.6343 3.86232C20.6702 4.89647 21.4901 6.11334 22.0941 7.51293C22.698 8.91252 23 10.4071 23 11.9967C23 13.5862 22.6984 15.0812 22.0953 16.4817C21.4922 17.8821 20.6727 19.0998 19.6369 20.1348C18.601 21.1698 17.3846 21.9897 15.9876 22.5945C14.5905 23.1994 13.0959 23.5013 11.5038 23.5005ZM11.5 22.2227C14.3537 22.2227 16.7708 21.2324 18.7514 19.2519C20.7319 17.2713 21.7222 14.8542 21.7222 12.0005C21.7222 9.14678 20.7319 6.72965 18.7514 4.7491C16.7708 2.76854 14.3537 1.77827 11.5 1.77827C8.6463 1.77827 6.22917 2.76854 4.24861 4.7491C2.26806 6.72965 1.27778 9.14678 1.27778 12.0005C1.27778 14.8542 2.26806 17.2713 4.24861 19.2519C6.22917 21.2324 8.6463 22.2227 11.5 22.2227Z" fill="#0D1C15" fill-opacity="0.8"/>
</svg>
