<svg width="20" height="20" viewBox="0 0 20 20" fill="none" xmlns="http://www.w3.org/2000/svg">
<path d="M6.37505 17.425C6.35005 17.425 6.31672 17.4417 6.29172 17.4417C4.67505 16.6417 3.35838 15.3167 2.55005 13.7C2.55005 13.675 2.56672 13.6417 2.56672 13.6167C3.58338 13.9167 4.63338 14.1417 5.67505 14.3167C5.85838 15.3667 6.07505 16.4084 6.37505 17.425Z" fill="#2C6148"/>
<path d="M17.45 13.7084C16.625 15.3667 15.25 16.7084 13.575 17.5167C13.8916 16.4584 14.1583 15.3917 14.3333 14.3167C15.3833 14.1417 16.4166 13.9167 17.4333 13.6167C17.425 13.65 17.45 13.6834 17.45 13.7084Z" fill="#2C6148"/>
<path d="M17.5166 6.42507C16.4666 6.1084 15.4083 5.85007 14.3333 5.66673C14.1583 4.59173 13.9 3.52507 13.575 2.4834C15.3 3.3084 16.6916 4.70007 17.5166 6.42507Z" fill="#2C6148"/>
<path d="M6.37494 2.57505C6.07494 3.59172 5.85828 4.62505 5.68328 5.67505C4.60828 5.84172 3.54161 6.10838 2.48328 6.42505C3.29161 4.75005 4.63328 3.37505 6.29161 2.55005C6.31661 2.55005 6.34994 2.57505 6.37494 2.57505Z" fill="#2C6148"/>
<path d="M12.9083 5.49175C10.975 5.27508 9.02501 5.27508 7.09167 5.49175C7.30001 4.35008 7.56667 3.20841 7.94167 2.10841C7.95834 2.04175 7.95001 1.99175 7.95834 1.92508C8.61667 1.76675 9.29167 1.66675 10 1.66675C10.7 1.66675 11.3833 1.76675 12.0333 1.92508C12.0417 1.99175 12.0417 2.04175 12.0583 2.10841C12.4333 3.21675 12.7 4.35008 12.9083 5.49175Z" fill="#2C6148"/>
<path d="M5.49163 12.9082C4.34163 12.6999 3.20829 12.4332 2.10829 12.0582C2.04163 12.0416 1.99163 12.0499 1.92496 12.0416C1.76663 11.3832 1.66663 10.7082 1.66663 9.99989C1.66663 9.29989 1.76663 8.61655 1.92496 7.96655C1.99163 7.95822 2.04163 7.95822 2.10829 7.94155C3.21663 7.57489 4.34163 7.29989 5.49163 7.09155C5.28329 9.02489 5.28329 10.9749 5.49163 12.9082Z" fill="#2C6148"/>
<path d="M18.3333 9.99989C18.3333 10.7082 18.2333 11.3832 18.075 12.0416C18.0083 12.0499 17.9583 12.0416 17.8916 12.0582C16.7833 12.4249 15.65 12.6999 14.5083 12.9082C14.725 10.9749 14.725 9.02489 14.5083 7.09155C15.65 7.29989 16.7916 7.56655 17.8916 7.94155C17.9583 7.95822 18.0083 7.96655 18.075 7.96655C18.2333 8.62489 18.3333 9.29989 18.3333 9.99989Z" fill="#2C6148"/>
<path d="M12.9083 14.5083C12.7 15.6583 12.4333 16.7916 12.0583 17.8916C12.0417 17.9583 12.0417 18.0083 12.0333 18.075C11.3833 18.2333 10.7 18.3333 10 18.3333C9.29167 18.3333 8.61667 18.2333 7.95834 18.075C7.95001 18.0083 7.95834 17.9583 7.94167 17.8916C7.57501 16.7833 7.30001 15.6583 7.09167 14.5083C8.05834 14.6166 9.02501 14.6916 10 14.6916C10.975 14.6916 11.95 14.6166 12.9083 14.5083Z" fill="#2C6148"/>
<path d="M13.1361 13.1362C11.0518 13.3992 8.9481 13.3992 6.86385 13.1362C6.60088 11.0519 6.60088 8.94822 6.86385 6.86397C8.9481 6.60101 11.0518 6.60101 13.1361 6.86397C13.399 8.94822 13.399 11.0519 13.1361 13.1362Z" fill="#2C6148"/>
</svg>
