<svg width="17" height="21" viewBox="0 0 17 21" fill="none" xmlns="http://www.w3.org/2000/svg">
<path d="M6.40728 18.8799C6.953 19.3301 7.52214 19.7417 8.10478 20.1433C8.68868 19.747 9.25506 19.3255 9.80229 18.8799C10.7145 18.1308 11.573 17.3187 12.3715 16.4493C14.2122 14.4367 16.2096 11.5189 16.2096 8.2437C16.2096 7.17936 15.9999 6.12545 15.5926 5.14213C15.1853 4.15882 14.5883 3.26535 13.8357 2.51275C13.0831 1.76015 12.1897 1.16316 11.2064 0.755856C10.223 0.348552 9.16912 0.138916 8.10478 0.138916C7.04045 0.138916 5.98654 0.348552 5.00322 0.755856C4.0199 1.16316 3.12643 1.76015 2.37384 2.51275C1.62124 3.26535 1.02424 4.15882 0.61694 5.14213C0.209636 6.12545 -1.58598e-08 7.17936 0 8.2437C0 11.5189 1.99738 14.4358 3.83807 16.4493C4.63649 17.319 5.49501 18.1305 6.40728 18.8799ZM8.10478 11.1704C7.32857 11.1704 6.58414 10.8621 6.03528 10.3132C5.48641 9.76434 5.17806 9.01992 5.17806 8.2437C5.17806 7.46748 5.48641 6.72306 6.03528 6.17419C6.58414 5.62532 7.32857 5.31697 8.10478 5.31697C8.881 5.31697 9.62542 5.62532 10.1743 6.17419C10.7232 6.72306 11.0315 7.46748 11.0315 8.2437C11.0315 9.01992 10.7232 9.76434 10.1743 10.3132C9.62542 10.8621 8.881 11.1704 8.10478 11.1704Z" fill="#2C6148"/>
</svg>
