<svg width="24" height="24" viewBox="0 0 24 24" fill="none" xmlns="http://www.w3.org/2000/svg">
<g clip-path="url(#clip0_68_9619)">
<path d="M21.5 4H12C11.9463 4 11.893 4.00844 11.842 4.02498L11.722 4.06497C11.46 4.15216 11.3182 4.43523 11.4054 4.69722C11.4059 4.69881 11.4065 4.70036 11.407 4.70195L16.433 19.389L13.123 23.171C12.9413 23.3789 12.9625 23.6948 13.1705 23.8765C13.2617 23.9562 13.3788 24.0001 13.5 24H21.5C22.8807 24 24 22.8807 24 21.5V6.50003C24 5.11928 22.8807 4 21.5 4Z" fill="#ECEFF1"/>
<path d="M17.455 19.293C17.3738 19.1146 17.196 19 17 19H12C11.7239 19 11.5 19.2239 11.5 19.5C11.5 19.5601 11.5108 19.6197 11.532 19.676L13.032 23.676C13.0939 23.8407 13.2379 23.9607 13.411 23.992C13.4404 23.9971 13.4701 23.9997 13.5 24C13.6441 23.9999 13.7812 23.9375 13.876 23.829L17.376 19.829C17.5052 19.6813 17.5361 19.4717 17.455 19.293Z" fill="#2C6148"/>
<path d="M21.5 11H14.5C14.2238 11 14 10.7762 14 10.5C14 10.2239 14.2238 10 14.5 10H21.5C21.7761 10 22 10.2239 22 10.5C22 10.7762 21.7762 11 21.5 11Z" fill="#455A64"/>
<path d="M17.5 11C17.2238 11 17 10.7761 17 10.5V9.50002C17 9.22388 17.2238 9 17.5 9C17.7761 9 18 9.22388 18 9.50002V10.5C18 10.7761 17.7761 11 17.5 11Z" fill="#455A64"/>
<path d="M16 17C15.7238 16.9998 15.5002 16.7757 15.5004 16.4996C15.5006 16.3382 15.5786 16.1868 15.71 16.093C17.9 14.537 19.5 11.365 19.5 10.5C19.5 10.2239 19.7239 10 20 10C20.2762 10 20.5 10.2239 20.5 10.5C20.5 11.818 18.573 15.286 16.29 16.907C16.2053 16.9674 16.104 16.9999 16 17Z" fill="#455A64"/>
<path d="M20 18C19.8749 18.0001 19.7543 17.9534 19.662 17.869C19.3 17.537 16.104 14.585 15.537 13.188C15.4329 12.932 15.556 12.6401 15.812 12.536C16.068 12.4319 16.3599 12.5551 16.464 12.811C16.873 13.819 19.4 16.271 20.339 17.1301C20.5433 17.3158 20.5584 17.632 20.3727 17.8364C20.2773 17.9413 20.1418 18.0008 20 18Z" fill="#455A64"/>
<path d="M17.473 19.338L10.973 0.338016C10.9038 0.135844 10.7137 0 10.5 0H2.49998C1.11928 0 0 1.11928 0 2.49998V17.5C0 18.8807 1.11928 20 2.49998 20H17C17.2761 20 17.4999 19.7761 17.4999 19.5C17.5 19.4449 17.4908 19.3901 17.473 19.338Z" fill="#2C6148"/>
<path d="M9.50002 13.9999C9.28861 13.9999 9.10003 13.867 9.02902 13.6679L7.00003 7.98588L4.97105 13.6679C4.86778 13.924 4.57645 14.0479 4.32033 13.9446C4.07869 13.8472 3.95236 13.5806 4.03003 13.3319L6.53002 6.33189C6.65231 6.07207 6.96211 5.96055 7.22194 6.0828C7.33139 6.13432 7.41947 6.22239 7.47103 6.33189L9.97102 13.3319C10.0641 13.5911 9.92995 13.8769 9.67102 13.9709C9.61608 13.9903 9.55823 14.0001 9.50002 13.9999Z" fill="#FAFAFA"/>
<path d="M8.00002 10.9998H6C5.72386 10.9998 5.49998 10.7759 5.49998 10.4998C5.49998 10.2236 5.72386 9.99976 6 9.99976H8.00002C8.27616 9.99976 8.50003 10.2236 8.50003 10.4998C8.49998 10.7759 8.27616 10.9998 8.00002 10.9998Z" fill="#FAFAFA"/>
</g>
<defs>
<clipPath id="clip0_68_9619">
<rect width="24" height="24" fill="white"/>
</clipPath>
</defs>
</svg>
