<svg width="5" height="7" viewBox="0 0 14 20" fill="none" xmlns="http://www.w3.org/2000/svg">
<g clip-path="url(#clip0_1144_783)">
<path d="M6 15.5C5.80109 15.5 5.61032 15.579 5.46967 15.7197C5.32902 15.8603 5.25 16.0511 5.25 16.25C5.25 16.4489 5.32902 16.6397 5.46967 16.7803C5.61032 16.921 5.80109 17 6 17H8C8.19891 17 8.38968 16.921 8.53033 16.7803C8.67098 16.6397 8.75 16.4489 8.75 16.25C8.75 16.0511 8.67098 15.8603 8.53033 15.7197C8.38968 15.579 8.19891 15.5 8 15.5H6Z" fill="#2C6148"/>
<path fill-rule="evenodd" clip-rule="evenodd" d="M3 0C2.40326 0 1.83097 0.237053 1.40901 0.65901C0.987053 1.08097 0.75 1.65326 0.75 2.25V17.75C0.75 18.3467 0.987053 18.919 1.40901 19.341C1.83097 19.7629 2.40326 20 3 20H11C11.5967 20 12.169 19.7629 12.591 19.341C13.0129 18.919 13.25 18.3467 13.25 17.75V2.25C13.25 1.65326 13.0129 1.08097 12.591 0.65901C12.169 0.237053 11.5967 0 11 0H3ZM2.25 2.25C2.25 2.05109 2.32902 1.86032 2.46967 1.71967C2.61032 1.57902 2.80109 1.5 3 1.5H11C11.1989 1.5 11.3897 1.57902 11.5303 1.71967C11.671 1.86032 11.75 2.05109 11.75 2.25V17.75C11.75 17.9489 11.671 18.1397 11.5303 18.2803C11.3897 18.421 11.1989 18.5 11 18.5H3C2.80109 18.5 2.61032 18.421 2.46967 18.2803C2.32902 18.1397 2.25 17.9489 2.25 17.75V2.25Z" fill="#2C6148"/>
</g>
<defs>
<clipPath id="clip0_1144_783">
<rect width="14" height="20" fill="white"/>
</clipPath>
</defs>
</svg>
