<svg width="20" height="20" viewBox="0 0 20 20" fill="none" xmlns="http://www.w3.org/2000/svg">
<g clip-path="url(#clip0_192_2564)">
<path d="M8.68191 1.81836C5.18009 1.82472 3.34554 1.91109 2.17373 3.082C0.90918 4.34836 0.90918 6.38381 0.90918 10.4547C0.90918 14.5256 0.90918 16.5611 2.17373 17.8265C3.43918 19.0911 5.47373 19.0911 9.54645 19.0911C13.6174 19.0911 15.6528 19.0911 16.9174 17.8265C18.0901 16.6538 18.1755 14.8202 18.1819 11.3175" stroke="#2C6148" stroke-width="1.5" stroke-linecap="round" stroke-linejoin="round"/>
<path d="M9.14202 10.9093C8.48384 2.60568 14.3657 0.251133 19.0729 1.05841C19.2629 3.81022 17.9157 4.84022 15.352 5.31659C15.8475 5.83477 16.722 6.48568 16.6275 7.29841C16.5602 7.87841 16.1675 8.16204 15.3802 8.73113C13.6566 9.97659 11.6602 10.762 9.14202 10.9093Z" stroke="#2C6148" stroke-width="1.5" stroke-linecap="round" stroke-linejoin="round"/>
<path d="M7.27271 14.5456C9.09089 9.54559 10.8727 7.85104 12.7273 6.36377" stroke="#2C6148" stroke-width="1.5" stroke-linecap="round" stroke-linejoin="round"/>
</g>
<defs>
<clipPath id="clip0_192_2564">
<rect width="20" height="20" fill="white"/>
</clipPath>
</defs>
</svg>
