<svg width="26" height="24" viewBox="0 0 26 24" fill="none" xmlns="http://www.w3.org/2000/svg">
<path d="M4.13047 5.21786C4.3587 4.2666 5.10607 3.52671 6.05958 3.30805L6.1238 3.29332C6.96557 3.10028 7.84012 3.10028 8.6819 3.29332L8.74612 3.30805C9.69962 3.52671 10.447 4.2666 10.6752 5.21787V5.21787C10.8774 6.06066 10.8774 6.93934 10.6752 7.78213V7.78213C10.447 8.7334 9.69962 9.47329 8.74611 9.69195L8.68189 9.70668C7.84012 9.89972 6.96557 9.89972 6.1238 9.70668L6.05958 9.69195C5.10607 9.47329 4.3587 8.7334 4.13047 7.78214V7.78214C3.92826 6.93934 3.92826 6.06066 4.13047 5.21786V5.21786Z" stroke="#ADADAD" stroke-width="1.5"/>
<path d="M4.13047 16.2179C4.3587 15.2666 5.10607 14.5267 6.05958 14.308L6.1238 14.2933C6.96557 14.1003 7.84012 14.1003 8.6819 14.2933L8.74612 14.308C9.69962 14.5267 10.447 15.2666 10.6752 16.2179V16.2179C10.8774 17.0607 10.8774 17.9393 10.6752 18.7821V18.7821C10.447 19.7334 9.69962 20.4733 8.74611 20.692L8.68189 20.7067C7.84012 20.8997 6.96557 20.8997 6.1238 20.7067L6.05958 20.692C5.10607 20.4733 4.3587 19.7334 4.13047 18.7821V18.7821C3.92826 17.9393 3.92826 17.0607 4.13047 16.2179V16.2179Z" stroke="#ADADAD" stroke-width="1.5"/>
<path d="M15.3819 5.21786C15.6101 4.2666 16.3575 3.52671 17.311 3.30805L17.3752 3.29332C18.217 3.10028 19.0916 3.10028 19.9333 3.29332L19.9976 3.30805C20.9511 3.52671 21.6984 4.2666 21.9267 5.21787V5.21787C22.1289 6.06066 22.1289 6.93934 21.9267 7.78213V7.78213C21.6984 8.7334 20.9511 9.47329 19.9975 9.69195L19.9333 9.70668C19.0916 9.89972 18.217 9.89972 17.3752 9.70668L17.311 9.69195C16.3575 9.47329 15.6101 8.7334 15.3819 7.78214V7.78214C15.1797 6.93934 15.1797 6.06066 15.3819 5.21786V5.21786Z" stroke="#ADADAD" stroke-width="1.5"/>
<path d="M15.3819 16.2179C15.6101 15.2666 16.3575 14.5267 17.311 14.308L17.3752 14.2933C18.217 14.1003 19.0916 14.1003 19.9333 14.2933L19.9976 14.308C20.9511 14.5267 21.6984 15.2666 21.9267 16.2179V16.2179C22.1289 17.0607 22.1289 17.9393 21.9267 18.7821V18.7821C21.6984 19.7334 20.9511 20.4733 19.9975 20.692L19.9333 20.7067C19.0916 20.8997 18.217 20.8997 17.3752 20.7067L17.311 20.692C16.3575 20.4733 15.6101 19.7334 15.3819 18.7821V18.7821C15.1797 17.9393 15.1797 17.0607 15.3819 16.2179V16.2179Z" stroke="#ADADAD" stroke-width="1.5"/>
</svg>
