<svg width="24" height="24" viewBox="0 0 24 24" fill="none" xmlns="http://www.w3.org/2000/svg">
<path d="M12.1971 3V4.00474M9.20624 17.9034C11.194 18.1269 13.2003 18.1269 15.188 17.9034C15.174 18.0967 15.1436 18.2887 15.0973 18.4772L15.0153 18.8106C14.7585 19.855 13.9426 20.6678 12.901 20.917C12.4382 21.0277 11.956 21.0277 11.4933 20.917C10.4516 20.6678 9.63578 19.855 9.37897 18.8106L9.297 18.4772C9.25065 18.2887 9.22031 18.0967 9.20624 17.9034ZM6.22494 8.63259C6.77926 6.58674 8.34716 4.95325 10.3555 4.30223C11.5899 3.90211 12.9321 3.90145 14.1642 4.30838C16.137 4.9599 17.6471 6.57084 18.1764 8.58835L18.7596 10.8112L19.2269 12.9275C19.3709 13.5793 19.5667 14.2498 19.6699 14.9094C19.6878 15.0237 19.6971 15.141 19.6971 15.2604C19.6971 16.3266 18.9496 17.2453 17.9096 17.4572L17.542 17.532C14.0146 18.2506 10.3797 18.2506 6.85233 17.532L6.48473 17.4572C5.44469 17.2453 4.69714 16.3266 4.69714 15.2604C4.69714 15.141 4.70644 15.0237 4.72434 14.9094C4.82758 14.2498 5.0234 13.5793 5.16734 12.9275L5.63464 10.8112L6.22494 8.63259Z" stroke="#ADADAD" stroke-width="1.5" stroke-linecap="round"/>
</svg>
