<svg width="24" height="22" viewBox="0 0 24 22" fill="none" xmlns="http://www.w3.org/2000/svg">
<path d="M22.2856 2.375H19.2067C19.1184 2.15641 18.955 1.96703 18.739 1.83278C18.523 1.69853 18.2648 1.62596 17.9998 1.625H17.1427C17.029 1.625 16.92 1.58549 16.8397 1.51516C16.7593 1.44484 16.7141 1.34946 16.7141 1.25C16.7124 0.952087 16.5764 0.666797 16.3357 0.456138C16.0949 0.24548 15.7689 0.126479 15.4284 0.125H12.857C12.516 0.125 12.189 0.243526 11.9479 0.454505C11.7067 0.665483 11.5713 0.951631 11.5713 1.25C11.5714 1.30007 11.5598 1.34963 11.5371 1.39561C11.5145 1.4416 11.4814 1.48304 11.4397 1.51737C11.401 1.55186 11.3548 1.57916 11.3037 1.59765C11.2527 1.61614 11.1979 1.62544 11.1427 1.625H10.2856C10.0206 1.62596 9.76243 1.69853 9.5464 1.83278C9.33038 1.96703 9.16703 2.15641 9.0787 2.375H5.99985C5.77252 2.375 5.5545 2.45402 5.39376 2.59467C5.23301 2.73532 5.1427 2.92609 5.1427 3.125V10.6441C3.97069 10.7362 2.88045 11.2086 2.08644 11.9685C1.29242 12.7284 0.852112 13.7207 0.852112 14.7504C0.852112 15.78 1.29242 16.7724 2.08644 17.5323C2.88045 18.2922 3.97069 18.7646 5.1427 18.8566V21.125C5.1427 21.3239 5.23301 21.5147 5.39376 21.6553C5.5545 21.796 5.77252 21.875 5.99985 21.875H22.2856C22.5129 21.875 22.7309 21.796 22.8917 21.6553C23.0524 21.5147 23.1427 21.3239 23.1427 21.125V3.125C23.1427 2.92609 23.0524 2.73532 22.8917 2.59467C22.7309 2.45402 22.5129 2.375 22.2856 2.375ZM7.71413 18.4224C7.7197 18.4198 7.72485 18.4164 7.73085 18.4137C7.90559 18.3344 8.0745 18.2456 8.23656 18.1479C8.25713 18.1355 8.27942 18.1239 8.2987 18.1104C8.45335 18.014 8.6012 17.9096 8.74142 17.7976C8.76285 17.7804 8.78428 17.7639 8.80485 17.7466C8.94024 17.6347 9.06789 17.5159 9.18713 17.3908C9.20647 17.3709 9.22547 17.3507 9.24413 17.3304C9.36023 17.2042 9.46771 17.0721 9.56599 16.9347L9.61142 16.8688C9.70782 16.7289 9.79469 16.5841 9.87156 16.4352C9.88228 16.4139 9.89213 16.3921 9.90242 16.3708C9.9782 16.2174 10.0432 16.0601 10.097 15.8998C10.103 15.8814 10.1077 15.8622 10.1137 15.8442C10.167 15.6771 10.2083 15.5071 10.2371 15.3354C10.2371 15.3238 10.2397 15.3117 10.2414 15.3001C10.3003 14.9347 10.3003 14.5638 10.2414 14.1984C10.2414 14.1867 10.2388 14.1748 10.2371 14.1631C10.208 13.9912 10.1668 13.821 10.1137 13.6535C10.1077 13.6355 10.103 13.616 10.097 13.5991C10.0432 13.4382 9.9781 13.2804 9.90199 13.1266L9.87199 13.064C9.79469 12.9143 9.70739 12.7686 9.61056 12.6279L9.56771 12.5653C9.46842 12.4265 9.3598 12.293 9.24242 12.1655C9.22533 12.1468 9.2079 12.1283 9.19013 12.11C9.06996 11.9832 8.94116 11.8629 8.80442 11.7496C8.78556 11.7339 8.76628 11.7189 8.74699 11.7035C8.60498 11.59 8.45512 11.4844 8.29828 11.387C8.27985 11.3754 8.26056 11.3645 8.2417 11.3533C8.07859 11.2548 7.90854 11.1655 7.73256 11.0859C7.72656 11.0833 7.72185 11.0795 7.71585 11.0769V4.625H9.00156C9.00156 4.82391 9.09187 5.01468 9.25261 5.15533C9.41336 5.29598 9.63138 5.375 9.8587 5.375H18.4284C18.6557 5.375 18.8738 5.29598 19.0345 5.15533C19.1953 5.01468 19.2856 4.82391 19.2856 4.625H20.5713V19.625H7.71413V18.4224ZM10.2856 2.375H11.1427C11.3106 2.37624 11.4771 2.34789 11.6322 2.29164C11.7874 2.2354 11.928 2.15241 12.0457 2.04762C12.1677 1.94416 12.2645 1.82015 12.3303 1.68307C12.3961 1.54599 12.4295 1.39867 12.4284 1.25C12.4284 1.15054 12.4736 1.05516 12.5539 0.984835C12.6343 0.914509 12.7433 0.875 12.857 0.875H15.4284C15.4856 0.874901 15.5423 0.885066 15.5948 0.904867C15.6474 0.924668 15.6948 0.953684 15.734 0.990125C15.7734 1.02399 15.8046 1.06445 15.8257 1.1091C15.8469 1.15375 15.8575 1.20167 15.857 1.25C15.857 1.54837 15.9924 1.83452 16.2336 2.0455C16.4747 2.25647 16.8017 2.375 17.1427 2.375H17.9998C18.1135 2.375 18.2225 2.41451 18.3029 2.48484C18.3833 2.55516 18.4284 2.65054 18.4284 2.75V4.625H9.85699V2.75C9.85699 2.65054 9.90214 2.55516 9.98252 2.48484C10.0629 2.41451 10.1719 2.375 10.2856 2.375ZM5.99985 3.125H8.99985V3.875H7.28556C7.1719 3.875 7.06289 3.91451 6.98252 3.98484C6.90214 4.05516 6.85699 4.15054 6.85699 4.25V10.784C6.7767 10.7638 6.69585 10.7456 6.61442 10.7296C6.56804 10.7201 6.52146 10.7114 6.4747 10.7034C6.36574 10.6852 6.25611 10.6701 6.14599 10.6584C6.10828 10.6546 6.07099 10.649 6.03285 10.6456C6.0217 10.6456 6.01099 10.6426 5.99985 10.6419V3.125ZM1.71413 14.75C1.71527 13.8552 2.12201 12.9973 2.84512 12.3646C3.56823 11.7319 4.54865 11.376 5.57128 11.375C6.10263 11.3738 6.62832 11.4705 7.11413 11.6589C7.80218 11.921 8.38779 12.3532 8.7991 12.9024C9.21041 13.4516 9.4295 14.0939 9.4295 14.7506C9.4295 15.4072 9.21041 16.0495 8.7991 16.5987C8.38779 17.1479 7.80218 17.5801 7.11413 17.8422C6.62824 18.0302 6.10254 18.1266 5.57128 18.125C4.54865 18.124 3.56823 17.7681 2.84512 17.1354C2.12201 16.5027 1.71527 15.6448 1.71413 14.75ZM22.2856 21.125H5.99985V18.8581C6.01099 18.8581 6.0217 18.8555 6.03285 18.8544C6.07142 18.851 6.10913 18.8454 6.14728 18.8412C6.25699 18.8296 6.36542 18.8154 6.47342 18.797C6.52099 18.7887 6.56813 18.7794 6.6157 18.77C6.69685 18.754 6.77728 18.736 6.85699 18.716V20C6.85699 20.0995 6.90214 20.1948 6.98252 20.2652C7.06289 20.3355 7.1719 20.375 7.28556 20.375H20.9998C21.1135 20.375 21.2225 20.3355 21.3029 20.2652C21.3833 20.1948 21.4284 20.0995 21.4284 20V4.25C21.4284 4.15054 21.3833 4.05516 21.3029 3.98484C21.2225 3.91451 21.1135 3.875 20.9998 3.875H19.2856V3.125H22.2856V21.125Z" fill="#0D1C15" fill-opacity="0.8"/>
<path d="M13.7149 2.375H14.572C14.6857 2.375 14.7947 2.33549 14.8751 2.26516C14.9554 2.19484 15.0006 2.09946 15.0006 2C15.0006 1.90054 14.9554 1.80516 14.8751 1.73484C14.7947 1.66451 14.6857 1.625 14.572 1.625H13.7149C13.6012 1.625 13.4922 1.66451 13.4118 1.73484C13.3315 1.80516 13.2863 1.90054 13.2863 2C13.2863 2.09946 13.3315 2.19484 13.4118 2.26516C13.4922 2.33549 13.6012 2.375 13.7149 2.375ZM11.1435 8.375H17.1435C17.2571 8.375 17.3661 8.33549 17.4465 8.26517C17.5269 8.19484 17.572 8.09946 17.572 8C17.572 7.90054 17.5269 7.80516 17.4465 7.73483C17.3661 7.66451 17.2571 7.625 17.1435 7.625H11.1435C11.0298 7.625 10.9208 7.66451 10.8404 7.73483C10.76 7.80516 10.7149 7.90054 10.7149 8C10.7149 8.09946 10.76 8.19484 10.8404 8.26517C10.9208 8.33549 11.0298 8.375 11.1435 8.375ZM18.4292 9.875H9.85774C9.74408 9.875 9.63507 9.91451 9.55469 9.98483C9.47432 10.0552 9.42917 10.1505 9.42917 10.25C9.42917 10.3495 9.47432 10.4448 9.55469 10.5152C9.63507 10.5855 9.74408 10.625 9.85774 10.625H18.4292C18.5428 10.625 18.6518 10.5855 18.7322 10.5152C18.8126 10.4448 18.8577 10.3495 18.8577 10.25C18.8577 10.1505 18.8126 10.0552 18.7322 9.98483C18.6518 9.91451 18.5428 9.875 18.4292 9.875ZM18.4292 12.125H11.572C11.4584 12.125 11.3494 12.1645 11.269 12.2348C11.1886 12.3052 11.1435 12.4005 11.1435 12.5C11.1435 12.5995 11.1886 12.6948 11.269 12.7652C11.3494 12.8355 11.4584 12.875 11.572 12.875H18.4292C18.5428 12.875 18.6518 12.8355 18.7322 12.7652C18.8126 12.6948 18.8577 12.5995 18.8577 12.5C18.8577 12.4005 18.8126 12.3052 18.7322 12.2348C18.6518 12.1645 18.5428 12.125 18.4292 12.125ZM18.4292 14.375H12.0006C11.8869 14.375 11.7779 14.4145 11.6976 14.4848C11.6172 14.5552 11.572 14.6505 11.572 14.75C11.572 14.8495 11.6172 14.9448 11.6976 15.0152C11.7779 15.0855 11.8869 15.125 12.0006 15.125H18.4292C18.5428 15.125 18.6518 15.0855 18.7322 15.0152C18.8126 14.9448 18.8577 14.8495 18.8577 14.75C18.8577 14.6505 18.8126 14.5552 18.7322 14.4848C18.6518 14.4145 18.5428 14.375 18.4292 14.375ZM18.4292 16.625H11.572C11.4584 16.625 11.3494 16.6645 11.269 16.7348C11.1886 16.8052 11.1435 16.9005 11.1435 17C11.1435 17.0995 11.1886 17.1948 11.269 17.2652C11.3494 17.3355 11.4584 17.375 11.572 17.375H18.4292C18.5428 17.375 18.6518 17.3355 18.7322 17.2652C18.8126 17.1948 18.8577 17.0995 18.8577 17C18.8577 16.9005 18.8126 16.8052 18.7322 16.7348C18.6518 16.6645 18.5428 16.625 18.4292 16.625ZM7.56103 13.3366C7.51777 13.305 7.46782 13.2812 7.41402 13.2665C7.36022 13.2518 7.30364 13.2465 7.2475 13.2509C7.19137 13.2554 7.1368 13.2695 7.08691 13.2924C7.03701 13.3154 6.99278 13.3467 6.95674 13.3846L5.11388 15.3196L4.15988 14.4849C4.07905 14.4166 3.9708 14.3788 3.85843 14.3796C3.74606 14.3805 3.63856 14.4199 3.5591 14.4894C3.47964 14.559 3.43457 14.653 3.43359 14.7513C3.43262 14.8497 3.47582 14.9444 3.55388 15.0151L4.8396 16.1401C4.87939 16.1752 4.92674 16.2029 4.97891 16.2218C5.03108 16.2406 5.08701 16.2502 5.14345 16.25H5.16274C5.22225 16.2476 5.28054 16.2344 5.33394 16.2113C5.38734 16.1882 5.4347 16.1557 5.47303 16.1157L7.61588 13.8657C7.65208 13.8279 7.67939 13.7842 7.69623 13.737C7.71307 13.6899 7.71912 13.6404 7.71402 13.5912C7.70892 13.5421 7.69278 13.4943 7.66653 13.4506C7.64028 13.4069 7.60442 13.3682 7.56103 13.3366Z" fill="#0D1C15" fill-opacity="0.8"/>
</svg>
