<svg width="25" height="26" viewBox="0 0 25 26" fill="none" xmlns="http://www.w3.org/2000/svg">
<g clip-path="url(#clip0_186_1982)">
<path d="M24.0555 12.9996C24.0555 14.51 22.2266 15.6385 21.6992 16.9536C21.1551 18.3165 21.6616 20.4475 20.6696 21.4762C19.6777 22.5048 17.6228 21.9797 16.3086 22.5439C15.0405 23.0908 13.9565 24.9875 12.5 24.9875C11.0435 24.9875 9.95536 23.0908 8.68722 22.5439C7.37305 21.9797 5.31808 22.5048 4.32617 21.4762C3.33427 20.4475 3.84068 18.3165 3.2966 16.9536C2.76925 15.6385 0.940292 14.5144 0.940292 13.004C0.940292 11.4935 2.76925 10.3651 3.2966 9.04997C3.84068 7.68712 3.33427 5.55604 4.32617 4.5274C5.31808 3.49875 7.37305 4.02393 8.68722 3.45969C9.95536 2.91281 11.0393 1.01611 12.5 1.01611C13.9565 1.01611 15.0446 2.91281 16.3128 3.45969C17.627 4.02393 19.6819 3.49875 20.6738 4.5274C21.6657 5.55604 21.1593 7.68712 21.7034 9.04997C22.2266 10.3607 24.0555 11.4892 24.0555 12.9996Z" stroke="#0D1C15" stroke-opacity="0.8" stroke-width="0.976562" stroke-miterlimit="10" stroke-linecap="round" stroke-linejoin="round"/>
<path d="M12.3954 15.9037C12.3954 15.9037 11.6336 15.7605 11.6085 14.8534C11.5709 13.343 13.9941 11.9671 14.308 10.0357C14.5675 8.45149 13.743 8.16937 13.1989 8.0218C12.5 7.83517 11.3114 7.93934 11.0812 9.11555C10.851 10.2918 11.2988 11.3465 9.94698 11.3248C8.68722 11.3074 8.77511 9.50618 9.02204 8.69454C9.28571 7.82649 10.1939 5.87336 12.8767 5.96451C15.0865 6.04263 16.4509 7.45757 16.4593 9.50618C16.4676 11.9758 14.6931 12.8352 14.0611 14.5669C13.4584 16.2162 12.3954 15.9037 12.3954 15.9037Z" stroke="#0D1C15" stroke-opacity="0.8" stroke-width="0.976562" stroke-miterlimit="10" stroke-linecap="round" stroke-linejoin="round"/>
<path d="M13.7807 18.8855C13.7807 18.2475 13.2826 17.731 12.6674 17.731C12.0522 17.731 11.5541 18.2475 11.5541 18.8855C11.5541 19.5235 12.0522 20.04 12.6674 20.04C13.2826 20.04 13.7807 19.5235 13.7807 18.8855Z" stroke="#0D1C15" stroke-opacity="0.8" stroke-width="0.976562" stroke-miterlimit="10" stroke-linecap="round" stroke-linejoin="round"/>
</g>
<defs>
<clipPath id="clip0_186_1982">
<rect width="25" height="25" fill="white" transform="translate(0 0.5)"/>
</clipPath>
</defs>
</svg>
