<svg width="14" height="14" viewBox="0 0 14 14" fill="none" xmlns="http://www.w3.org/2000/svg">
<path d="M4.7841 2.32829C5.615 0.838271 6.03012 0.0932617 6.65116 0.0932617C7.2722 0.0932617 7.68732 0.838271 8.51822 2.32829L8.73332 2.71391C8.9694 3.13757 9.08745 3.3494 9.27107 3.48909C9.45469 3.62878 9.68423 3.68059 10.1433 3.78421L10.5604 3.87864C12.1736 4.24393 12.9796 4.42625 13.1718 5.04338C13.3633 5.65985 12.8137 6.3032 11.7139 7.58926L11.4293 7.92176C11.1171 8.28705 10.9604 8.47003 10.8902 8.69563C10.8201 8.92188 10.8437 9.16585 10.8909 9.65312L10.9342 10.0971C11.1001 11.8134 11.1834 12.6712 10.681 13.0522C10.1787 13.4333 9.42322 13.0857 7.91357 12.3905L7.52206 12.2108C7.09316 12.0128 6.87872 11.9144 6.65116 11.9144C6.42359 11.9144 6.20915 12.0128 5.78026 12.2108L5.3894 12.3905C3.8791 13.0857 3.12362 13.4333 2.62193 13.0529C2.11893 12.6712 2.20222 11.8134 2.36814 10.0971L2.41142 9.65378C2.45864 9.16585 2.48225 8.92189 2.41142 8.69628C2.3419 8.47003 2.18517 8.28705 1.87301 7.92242L1.58839 7.58926C0.488618 6.30386 -0.060941 5.6605 0.130552 5.04338C0.322045 4.42625 1.12933 4.24328 2.7426 3.87864L3.15969 3.78421C3.61809 3.68059 3.84696 3.62878 4.03124 3.48909C4.21552 3.3494 4.33291 3.13757 4.569 2.71391L4.7841 2.32829Z" fill="#D9D9D9"/>
</svg>
