<svg width="25" height="26" viewBox="0 0 25 26" fill="none" xmlns="http://www.w3.org/2000/svg">
<g opacity="0.9">
<path d="M7.60383 2.63891C8.87147 1.98994 10.2572 1.57777 11.6694 1.42823C12.0114 1.39147 12.389 1.36819 12.7316 1.3637C16.1953 1.28037 19.462 2.82633 21.6704 5.33522C21.7978 5.30071 21.9249 5.27293 22.0514 5.25217C18.4873 1.16281 12.4471 -0.0517993 7.56006 2.55501C7.50591 2.58447 7.54884 2.66696 7.60383 2.63891Z" fill="#4CA87D"/>
<path d="M22.9168 6.3747C22.9137 6.37021 22.9106 6.36544 22.9072 6.36095C22.8017 6.41258 22.6979 6.47094 22.5958 6.53547C23.3783 7.7007 23.9526 9.01715 24.2559 10.4354C25.8959 17.7048 20.1531 24.6852 12.694 24.3923C6.56659 24.1962 1.66272 19.0665 1.77383 12.9337C1.77692 12.8492 1.78225 12.6304 1.78477 12.549C1.80245 12.3375 1.80918 12.1206 1.83696 11.9104C1.88802 11.4169 1.9736 10.9276 2.09116 10.4461C3.80462 10.282 5.42381 9.26489 6.29556 7.77729C7.23155 6.17998 7.27364 4.0956 6.40274 2.46182C6.00601 1.71745 5.37612 1.03257 4.55095 0.856934C4.67328 1.87878 4.02207 2.83947 3.26059 3.53193C2.49911 4.2241 1.59426 4.76561 0.938279 5.55851C-0.00641402 6.70017 -0.3229 8.42598 0.385549 9.9798C0.385549 9.9798 1.15825 7.03096 3.09337 5.70918C1.46604 7.9403 0.624036 10.7258 0.760115 13.4844C1.01544 19.8616 6.28826 25.0402 12.6736 25.1415C22.4418 25.3106 28.3821 14.494 22.9168 6.3747Z" fill="#4CA87D"/>
<path d="M17.6335 9.02971C15.572 11.3334 13.4274 13.7309 11.4659 16.1135C11.3943 16.2002 11.3233 16.2873 11.2521 16.3743C11.2516 16.3739 11.2511 16.3734 11.2506 16.373C10.6483 15.8512 10.0696 15.3201 9.46742 14.7826C8.97502 14.3503 8.48278 13.9109 7.89646 13.5888C6.86145 13.0042 5.79468 13.2083 4.72151 13.5149C5.45381 13.6217 6.24079 13.7215 6.82287 14.1897C7.0801 14.4027 7.25776 14.6655 7.42883 14.9574C7.79374 15.5986 8.10237 16.3327 8.42714 17.0214C8.93893 18.1311 9.47971 19.2292 10.0625 20.3122C10.1859 20.5019 10.3524 20.6788 10.5506 20.8147C11.3585 21.369 12.4628 21.1634 13.0171 20.3554C13.4879 19.6713 13.9487 18.9799 14.4065 18.2856C16.3402 15.3468 18.234 12.3713 20.0291 9.33955C20.3474 8.80567 20.8225 7.94381 21.2043 7.47082C21.7394 6.77123 22.4271 6.16848 23.2907 5.9097C23.4788 5.85151 23.6729 5.80928 23.87 5.77483C23.5942 5.63039 23.2806 5.54128 22.967 5.50475C21.9664 5.38789 20.9659 5.79941 20.1774 6.38889C19.4564 6.88374 18.2354 8.38998 17.6335 9.02971Z" fill="#4CA87D"/>
</g>
</svg>
