<svg width="24" height="23" viewBox="0 0 24 23" fill="none" xmlns="http://www.w3.org/2000/svg">
<path d="M10.1593 13.5167L7.54027 16.0376M7.61046 18.0795C7.76188 17.9426 7.8832 17.7779 7.96719 17.595C8.05119 17.4122 8.09616 17.2149 8.09942 17.015C8.10269 16.8151 8.06419 16.6166 7.98621 16.4313C7.90824 16.246 7.79237 16.0777 7.64549 15.9363C7.49861 15.7949 7.32372 15.6834 7.13119 15.6084C6.93867 15.5333 6.73244 15.4962 6.52475 15.4994C6.31705 15.5025 6.11214 15.5458 5.92216 15.6267C5.73218 15.7075 5.56102 15.8243 5.41884 15.97L2.23198 19.0374C2.08055 19.1742 1.95924 19.339 1.87524 19.5218C1.79125 19.7047 1.74628 19.9019 1.74301 20.1018C1.73975 20.3017 1.77824 20.5002 1.85622 20.6855C1.9342 20.8708 2.05007 21.0392 2.19695 21.1805C2.34382 21.3219 2.51872 21.4334 2.71124 21.5085C2.90377 21.5835 3.11 21.6206 3.31769 21.6174C3.52538 21.6143 3.7303 21.571 3.92028 21.4902C4.11025 21.4093 4.28141 21.2926 4.4236 21.1468L7.61046 18.0795ZM8.06408 8.47508C8.06408 6.6031 8.83669 4.80778 10.212 3.48409C11.5872 2.16039 13.4525 1.41675 15.3974 1.41675C17.3423 1.41675 19.2076 2.16039 20.5829 3.48409C21.9581 4.80778 22.7307 6.6031 22.7307 8.47508C22.7307 10.3471 21.9581 12.1424 20.5829 13.4661C19.2076 14.7898 17.3423 15.5334 15.3974 15.5334C13.4525 15.5334 11.5872 14.7898 10.212 13.4661C8.83669 12.1424 8.06408 10.3471 8.06408 8.47508Z" stroke="white" stroke-width="2" stroke-linecap="round" stroke-linejoin="round"/>
</svg>
