<svg width="24" height="24" viewBox="0 0 24 24" fill="none" xmlns="http://www.w3.org/2000/svg">
<path d="M12 21.25L12 8.895M12 4.534V2.75M12 4.534C12.5782 4.534 13.1327 4.76368 13.5415 5.17251C13.9503 5.58134 14.18 6.13583 14.18 6.714C14.18 7.29217 13.9503 7.84666 13.5415 8.25549C13.1327 8.66432 12.5782 8.894 12 8.894C11.4218 8.894 10.8673 8.66432 10.4585 8.25549C10.0497 7.84666 9.81999 7.29217 9.81999 6.714C9.81999 6.13583 10.0497 5.58134 10.4585 5.17251C10.8673 4.76368 11.4218 4.534 12 4.534ZM5.39299 21.25V15.502M5.39299 15.502C4.81468 15.502 4.25956 15.2718 3.85064 14.8628C3.44172 14.4539 3.21199 13.8993 3.21199 13.321C3.21199 12.7428 3.44266 12.1883 3.85149 11.7795C4.26032 11.3707 4.81482 11.141 5.39299 11.141M5.39299 15.502C5.97129 15.502 6.52541 15.2718 6.93433 14.8628C7.34326 14.4539 7.57299 13.8993 7.57299 13.321C7.57299 12.7428 7.34331 12.1883 6.93448 11.7795C6.52565 11.3707 5.97116 11.141 5.39299 11.141M5.39299 11.141L5.39299 2.75M18.607 21.25V18.145M18.607 13.784L18.607 2.75M18.607 13.784C19.1852 13.784 19.7397 14.0137 20.1485 14.4225C20.5573 14.8313 20.787 15.3858 20.787 15.964C20.787 16.2503 20.7306 16.5338 20.621 16.7983C20.5115 17.0627 20.3509 17.3031 20.1485 17.5055C19.946 17.7079 19.7057 17.8685 19.4412 17.9781C19.1767 18.0876 18.8933 18.144 18.607 18.144C18.3207 18.144 18.0372 18.0876 17.7727 17.9781C17.5082 17.8685 17.2679 17.7079 17.0655 17.5055C16.8631 17.3031 16.7025 17.0627 16.5929 16.7983C16.4834 16.5338 16.427 16.2503 16.427 15.964C16.427 15.3858 16.6567 14.8313 17.0655 14.4225C17.4743 14.0137 18.0288 13.784 18.607 13.784Z" stroke="white" stroke-width="1.5" stroke-miterlimit="10" stroke-linecap="round"/>
</svg>
