<svg width="32" height="32" viewBox="0 0 32 32" fill="none" xmlns="http://www.w3.org/2000/svg">
<rect x="0.25" y="0.25" width="31.5" height="31.5" rx="15.75" stroke="white" stroke-width="0.5"/>
<path fill-rule="evenodd" clip-rule="evenodd" d="M16.0009 5.25C11.4332 5.25 7.72606 8.94128 7.72603 13.4999C7.72594 14.5603 7.65481 15.3606 7.16719 16.0799C7.09939 16.1785 7.00942 16.3019 6.91112 16.4368C6.74039 16.6711 6.5445 16.9399 6.39592 17.1727C6.13368 17.5836 5.87748 18.0791 5.7894 18.6565C5.50205 20.5402 6.8267 21.7598 8.14592 22.3063C9.12803 22.7132 10.1892 23.034 11.2961 23.2689C11.8702 25.2894 13.7698 26.7499 15.9999 26.7499C18.23 26.7499 20.1294 25.2896 20.7037 23.2693C21.8113 23.0344 22.8732 22.7134 23.8559 22.3063C25.1751 21.7598 26.4998 20.5402 26.2124 18.6565C26.1243 18.0791 25.8681 17.5836 25.6059 17.1727C25.4573 16.9399 25.2614 16.6711 25.0907 16.4368C24.9924 16.302 24.9025 16.1785 24.8347 16.08C24.347 15.3606 24.2759 14.5604 24.2758 13.5C24.2758 8.94131 20.5686 5.25 16.0009 5.25ZM9.22603 13.5C9.22603 9.77442 12.2569 6.75 16.0009 6.75C19.7449 6.75 22.7758 9.77448 22.7758 13.5001C22.7759 14.5825 22.8293 15.7967 23.5948 16.9242L23.5972 16.9277C23.7231 17.1108 23.8335 17.261 23.9377 17.4025C24.0764 17.5909 24.2039 17.7642 24.3415 17.9797C24.5547 18.3138 24.6869 18.6034 24.7296 18.8827C24.8675 19.7871 24.2907 20.5026 23.2818 20.9206C19.0028 22.6932 12.999 22.6932 8.72 20.9205C7.71111 20.5026 7.13429 19.7871 7.27225 18.8827C7.31486 18.6034 7.44712 18.3138 7.66036 17.9797C7.79791 17.7642 7.92538 17.591 8.06409 17.4025C8.16809 17.2612 8.27896 17.1106 8.40462 16.9277L8.40701 16.9242C9.17255 15.7967 9.22594 14.5824 9.22603 13.5ZM18.9638 23.5634C17.0153 23.8123 14.9844 23.8122 13.0359 23.5631C13.6074 24.5618 14.7134 25.2499 15.9999 25.2499C17.2863 25.2499 18.3923 24.562 18.9638 23.5634Z" fill="white"/>
</svg>
