<svg width="30" height="30" viewBox="0 0 30 30" fill="none" xmlns="http://www.w3.org/2000/svg">
<rect width="30" height="30" rx="15" fill="#EAF5F0"/>
<path d="M12.1094 15C12.1094 15.518 11.9036 16.0148 11.5373 16.3811C11.171 16.7473 10.6743 16.9531 10.1562 16.9531C9.63825 16.9531 9.14146 16.7473 8.77518 16.3811C8.4089 16.0148 8.20312 15.518 8.20312 15C8.20312 14.482 8.4089 13.9852 8.77518 13.6189C9.14146 13.2527 9.63825 13.0469 10.1562 13.0469C10.6743 13.0469 11.171 13.2527 11.5373 13.6189C11.9036 13.9852 12.1094 14.482 12.1094 15Z" stroke="#2C6148" stroke-width="1.17188"/>
<path d="M16.0156 10.7031L12.1094 13.4375M16.0156 19.2969L12.1094 16.5625" stroke="#2C6148" stroke-width="1.17188" stroke-linecap="round"/>
<path d="M19.9219 20.0781C19.9219 20.5961 19.7161 21.0929 19.3498 21.4592C18.9835 21.8255 18.4868 22.0312 17.9687 22.0312C17.4507 22.0312 16.954 21.8255 16.5877 21.4592C16.2214 21.0929 16.0156 20.5961 16.0156 20.0781C16.0156 19.5601 16.2214 19.0633 16.5877 18.6971C16.954 18.3308 17.4507 18.125 17.9687 18.125C18.4868 18.125 18.9835 18.3308 19.3498 18.6971C19.7161 19.0633 19.9219 19.5601 19.9219 20.0781ZM19.9219 9.92188C19.9219 10.4399 19.7161 10.9367 19.3498 11.3029C18.9835 11.6692 18.4868 11.875 17.9687 11.875C17.4507 11.875 16.954 11.6692 16.5877 11.3029C16.2214 10.9367 16.0156 10.4399 16.0156 9.92188C16.0156 9.40387 16.2214 8.90709 16.5877 8.54081C16.954 8.17453 17.4507 7.96875 17.9687 7.96875C18.4868 7.96875 18.9835 8.17453 19.3498 8.54081C19.7161 8.90709 19.9219 9.40387 19.9219 9.92188Z" stroke="#2C6148" stroke-width="1.17188"/>
</svg>
