<svg width="27" height="27" viewBox="0 0 27 27" fill="none" xmlns="http://www.w3.org/2000/svg">
<g clip-path="url(#clip0_518_2900)">
<path d="M1.78527 1.77479C-0.263982 3.90337 0.15543 6.1645 0.15543 13.0337C0.15543 18.7382 -0.839859 24.4568 4.36911 25.803C5.9957 26.2213 20.4078 26.2213 22.0322 25.8008C24.201 25.2413 25.9656 23.4821 26.2068 20.4147C26.2405 19.9866 26.2405 6.08844 26.2057 5.65164C25.9493 2.38435 23.9381 0.501343 21.288 0.11996C20.6806 0.0319489 20.5589 0.00587142 17.4426 0.000438616C6.38903 0.00587142 3.966 -0.486341 1.78527 1.77479Z" fill="#FFE100"/>
<g clip-path="url(#clip1_518_2900)">
<path d="M19.7952 16.6641C17.8827 16.3498 17.0212 14.39 16.9858 14.3071C16.9832 14.3014 16.9803 14.2959 16.9776 14.2905C16.88 14.0928 16.8577 13.9292 16.9104 13.8046C17.0148 13.5593 17.4156 13.4326 17.6801 13.3486C17.7573 13.3246 17.8296 13.3015 17.89 13.2782C18.1507 13.1752 18.3375 13.0636 18.4605 12.9369C18.6079 12.7862 18.6361 12.6415 18.6343 12.5468C18.6297 12.3179 18.4544 12.1143 18.1748 12.0146C18.0809 11.9754 17.9725 11.9552 17.8636 11.9552C17.789 11.9552 17.6786 11.9654 17.5741 12.0142C17.3501 12.1185 17.1493 12.1754 16.9775 12.1838C16.8867 12.179 16.8223 12.159 16.7803 12.1403C16.7852 12.0508 16.7912 11.9593 16.7976 11.8636L16.7997 11.8228C16.8611 10.8546 16.9375 9.64958 16.6171 8.93392C16.3981 8.44421 16.1043 8.02295 15.7426 7.68112C15.4391 7.39461 15.0869 7.16284 14.6953 6.99107C14.0137 6.69301 13.378 6.64844 13.06 6.64844H13.0595C13.0468 6.64844 13.0354 6.64844 13.0244 6.64878C12.9363 6.64947 12.7914 6.65095 12.7787 6.65095C12.4612 6.65095 11.8249 6.69575 11.1426 6.99632C10.7528 7.16775 10.4016 7.39998 10.0994 7.68627C9.73951 8.02707 9.4458 8.44729 9.22785 8.93529C8.90797 9.65049 8.98385 10.8546 9.04477 11.8224V11.8236C9.05162 11.927 9.05825 12.0354 9.06465 12.1408C9.01745 12.1622 8.94202 12.1848 8.82979 12.1848C8.64922 12.1848 8.43494 12.1274 8.19231 12.014C8.121 11.9808 8.03905 11.9643 7.94968 11.9643C7.80545 11.9643 7.65345 12.0066 7.52122 12.0839C7.35482 12.1812 7.24762 12.3185 7.21859 12.471C7.19951 12.5716 7.20042 12.7713 7.42214 12.973C7.54431 13.0839 7.72385 13.1864 7.95517 13.2779C8.01597 13.3012 8.08774 13.3244 8.16465 13.3483C8.42899 13.4323 8.83025 13.5592 8.93471 13.8048C8.98785 13.929 8.96522 14.0926 8.86751 14.2905C8.86477 14.2962 8.86191 14.3015 8.85974 14.307C8.83517 14.3638 8.60751 14.8788 8.13951 15.422C7.87425 15.7304 7.58157 15.9888 7.27037 16.1887C6.89105 16.4337 6.48031 16.5936 6.04957 16.6642C5.88054 16.6918 5.76008 16.8422 5.76957 17.0128C5.77197 17.0616 5.78408 17.1106 5.80374 17.1582L5.80419 17.1593C5.87288 17.3184 6.03139 17.4537 6.28854 17.5734C6.60385 17.719 7.07402 17.8417 7.68785 17.938C7.71882 17.9964 7.75117 18.1443 7.77334 18.2454C7.79654 18.3528 7.82111 18.4632 7.85574 18.5807C7.89288 18.7079 7.99025 18.8599 8.23905 18.8599C8.33357 18.8599 8.4426 18.839 8.56808 18.8144C8.75197 18.7783 9.00419 18.7289 9.31859 18.7289C9.49242 18.7289 9.67391 18.7443 9.85562 18.7745C10.2064 18.8324 10.5081 19.0455 10.858 19.2921C11.37 19.6531 11.949 20.0611 12.8345 20.0611C12.8586 20.0611 12.8828 20.0607 12.9067 20.0586C12.9359 20.06 12.9722 20.0611 13.0104 20.0611C13.8959 20.0611 14.4752 19.6527 14.9864 19.2921L14.9873 19.2914C15.3368 19.0452 15.6389 18.8326 15.9892 18.7746C16.1709 18.7444 16.3519 18.729 16.5264 18.729C16.8266 18.729 17.0643 18.7672 17.2769 18.8086C17.4154 18.8358 17.5231 18.8489 17.6058 18.8489H17.614H17.6221C17.8043 18.8489 17.9384 18.7491 17.9897 18.5745C18.0233 18.4595 18.0479 18.3514 18.0715 18.2424C18.0924 18.1479 18.1257 17.9961 18.1565 17.9363C18.7708 17.8402 19.241 17.718 19.5563 17.572C19.8131 17.4531 19.9712 17.3178 20.0396 17.1593C20.0608 17.1118 20.0723 17.0624 20.0753 17.0122C20.085 16.8418 19.9645 16.6919 19.7952 16.6641Z" fill="white"/>
<path d="M19.7952 16.6641C17.8827 16.3498 17.0212 14.39 16.9858 14.3071C16.9832 14.3014 16.9803 14.2959 16.9776 14.2905C16.88 14.0928 16.8577 13.9292 16.9104 13.8046C17.0148 13.5593 17.4156 13.4326 17.6801 13.3486C17.7573 13.3246 17.8296 13.3015 17.89 13.2782C18.1507 13.1752 18.3375 13.0636 18.4605 12.9369C18.6079 12.7862 18.6361 12.6415 18.6343 12.5468C18.6297 12.3179 18.4544 12.1143 18.1748 12.0146C18.0809 11.9754 17.9725 11.9552 17.8636 11.9552C17.789 11.9552 17.6786 11.9654 17.5741 12.0142C17.3501 12.1185 17.1493 12.1754 16.9775 12.1838C16.8867 12.179 16.8223 12.159 16.7803 12.1403C16.7852 12.0508 16.7912 11.9593 16.7976 11.8636L16.7997 11.8228C16.8611 10.8546 16.9375 9.64958 16.6171 8.93392C16.3981 8.44421 16.1043 8.02295 15.7426 7.68112C15.4391 7.39461 15.0869 7.16284 14.6953 6.99107C14.0137 6.69301 13.378 6.64844 13.06 6.64844H13.0595C13.0468 6.64844 13.0354 6.64844 13.0244 6.64878C12.9363 6.64947 12.7914 6.65095 12.7787 6.65095C12.4612 6.65095 11.8249 6.69575 11.1426 6.99632C10.7528 7.16775 10.4016 7.39998 10.0994 7.68627C9.73951 8.02707 9.4458 8.44729 9.22785 8.93529C8.90797 9.65049 8.98385 10.8546 9.04477 11.8224V11.8236C9.05162 11.927 9.05825 12.0354 9.06465 12.1408C9.01745 12.1622 8.94202 12.1848 8.82979 12.1848C8.64922 12.1848 8.43494 12.1274 8.19231 12.014C8.121 11.9808 8.03905 11.9643 7.94968 11.9643C7.80545 11.9643 7.65345 12.0066 7.52122 12.0839C7.35482 12.1812 7.24762 12.3185 7.21859 12.471C7.19951 12.5716 7.20042 12.7713 7.42214 12.973C7.54431 13.0839 7.72385 13.1864 7.95517 13.2779C8.01597 13.3012 8.08774 13.3244 8.16465 13.3483C8.42899 13.4323 8.83025 13.5592 8.93471 13.8048C8.98785 13.929 8.96522 14.0926 8.86751 14.2905C8.86477 14.2962 8.86191 14.3015 8.85974 14.307C8.83517 14.3638 8.60751 14.8788 8.13951 15.422C7.87425 15.7304 7.58157 15.9888 7.27037 16.1887C6.89105 16.4337 6.48031 16.5936 6.04957 16.6642C5.88054 16.6918 5.76008 16.8422 5.76957 17.0128C5.77197 17.0616 5.78408 17.1106 5.80374 17.1582L5.80419 17.1593C5.87288 17.3184 6.03139 17.4537 6.28854 17.5734C6.60385 17.719 7.07402 17.8417 7.68785 17.938C7.71882 17.9964 7.75117 18.1443 7.77334 18.2454C7.79654 18.3528 7.82111 18.4632 7.85574 18.5807C7.89288 18.7079 7.99025 18.8599 8.23905 18.8599C8.33357 18.8599 8.4426 18.839 8.56808 18.8144C8.75197 18.7783 9.00419 18.7289 9.31859 18.7289C9.49242 18.7289 9.67391 18.7443 9.85562 18.7745C10.2064 18.8324 10.5081 19.0455 10.858 19.2921C11.37 19.6531 11.949 20.0611 12.8345 20.0611C12.8586 20.0611 12.8828 20.0607 12.9067 20.0586C12.9359 20.06 12.9722 20.0611 13.0104 20.0611C13.8959 20.0611 14.4752 19.6527 14.9864 19.2921L14.9873 19.2914C15.3368 19.0452 15.6389 18.8326 15.9892 18.7746C16.1709 18.7444 16.3519 18.729 16.5264 18.729C16.8266 18.729 17.0643 18.7672 17.2769 18.8086C17.4154 18.8358 17.5231 18.8489 17.6058 18.8489H17.614H17.6221C17.8043 18.8489 17.9384 18.7491 17.9897 18.5745C18.0233 18.4595 18.0479 18.3514 18.0715 18.2424C18.0924 18.1479 18.1257 17.9961 18.1565 17.9363C18.7708 17.8402 19.241 17.718 19.5563 17.572C19.8131 17.4531 19.9712 17.3178 20.0396 17.1593C20.0608 17.1118 20.0723 17.0624 20.0753 17.0122C20.085 16.8418 19.9645 16.6919 19.7952 16.6641Z" fill="white"/>
<path d="M12.9225 6.6499C12.8532 6.65047 12.7871 6.65116 12.7787 6.65116C12.4612 6.65116 11.8249 6.69596 11.1426 6.99653C10.7528 7.16796 10.4016 7.40019 10.0994 7.68647C9.73951 8.02727 9.4458 8.4475 9.22785 8.9355C8.90797 9.6507 8.98385 10.8548 9.04477 11.8226V11.8238C9.05162 11.9272 9.05825 12.0356 9.06465 12.141C9.01745 12.1624 8.94202 12.185 8.82979 12.185C8.64922 12.185 8.43494 12.1276 8.19231 12.0142C8.12099 11.981 8.03905 11.9645 7.94968 11.9645C7.80545 11.9645 7.65345 12.0068 7.52122 12.0841C7.35482 12.1814 7.24762 12.3187 7.21859 12.4712C7.19951 12.5718 7.20042 12.7715 7.42214 12.9732C7.54431 13.0841 7.72385 13.1866 7.95517 13.2781C8.01597 13.3014 8.08774 13.3246 8.16465 13.3485C8.42899 13.4325 8.83025 13.5594 8.93471 13.805C8.98785 13.9292 8.96522 14.0928 8.86751 14.2907C8.86477 14.2964 8.86191 14.3017 8.85974 14.3072C8.83517 14.364 8.60751 14.879 8.13951 15.4222C7.87425 15.7306 7.58157 15.989 7.27037 16.1889C6.89105 16.4339 6.48031 16.5938 6.04957 16.6644C5.88054 16.692 5.76008 16.8424 5.76957 17.013C5.77197 17.0618 5.78408 17.1108 5.80374 17.1584L5.80419 17.1595C5.87288 17.3186 6.03139 17.4539 6.28854 17.5736C6.60385 17.7192 7.07402 17.8419 7.68785 17.9382C7.71882 17.9966 7.75117 18.1445 7.77334 18.2456C7.79654 18.353 7.82111 18.4634 7.85574 18.5809C7.89288 18.7081 7.99025 18.8601 8.23905 18.8601C8.33357 18.8601 8.44259 18.8392 8.56808 18.8146C8.75197 18.7785 9.00419 18.7291 9.31859 18.7291C9.49242 18.7291 9.67391 18.7445 9.85562 18.7747C10.2064 18.8326 10.5081 19.0457 10.858 19.2923C11.37 19.6533 11.949 20.0613 12.8345 20.0613C12.8586 20.0613 12.8828 20.0609 12.9067 20.0588C12.9114 20.059 12.9173 20.0592 12.9225 20.0594V6.6499Z" fill="white"/>
<path d="M16.7999 12.4433L16.7978 12.4841C16.7913 12.5798 16.7854 12.6713 16.7805 12.7608C16.8223 12.7796 16.8869 12.7996 16.9777 12.8042C17.1495 12.7959 17.3503 12.7391 17.5743 12.6346C17.6788 12.586 17.7892 12.5757 17.8638 12.5757C17.9727 12.5757 18.081 12.596 18.175 12.6351C18.3225 12.6877 18.4397 12.7697 18.5195 12.8685C18.6151 12.7432 18.6361 12.627 18.6345 12.547C18.6299 12.3181 18.4546 12.1144 18.175 12.0148C18.0811 11.9756 17.9727 11.9553 17.8638 11.9553C17.7892 11.9553 17.6788 11.9655 17.5743 12.0143C17.3503 12.1186 17.1495 12.1756 16.9777 12.1839C16.9103 12.1804 16.8578 12.1685 16.8179 12.1549C16.8119 12.2527 16.806 12.3494 16.7999 12.4433Z" fill="white"/>
<path d="M5.80432 17.1595C5.83072 17.2208 5.87084 17.2785 5.92467 17.3332C5.9617 17.3096 6.00364 17.2923 6.04981 17.2848C6.48055 17.2141 6.89118 17.0541 7.27061 16.8093C7.58192 16.6093 7.8745 16.3511 8.13975 16.0426C8.60775 15.4994 8.83541 14.9844 8.85998 14.9276C8.86227 14.9221 8.86501 14.917 8.86775 14.9112C8.96535 14.7135 8.9881 14.5498 8.93495 14.4256C8.91735 14.3841 8.89061 14.3463 8.85815 14.3113C8.82775 14.3811 8.60044 14.8875 8.13975 15.4224C7.8745 15.7307 7.58181 15.9891 7.27061 16.189C6.8913 16.434 6.48055 16.5939 6.04981 16.6645C5.88078 16.6921 5.76032 16.8425 5.76981 17.0131C5.77221 17.0619 5.78432 17.1109 5.80398 17.1585L5.80432 17.1595Z" fill="white"/>
<path d="M16.9874 14.3105C16.9548 14.3456 16.9281 14.3835 16.9103 14.4249C16.8577 14.5496 16.8798 14.7132 16.9775 14.9109C16.9803 14.9164 16.9831 14.9217 16.9858 14.9275C17.0212 15.0104 17.8827 16.9701 19.7951 17.2845C19.8411 17.292 19.883 17.3092 19.9201 17.3326C19.9735 17.2781 20.0135 17.2206 20.0399 17.1595C20.0611 17.1119 20.0726 17.0625 20.0756 17.0124C20.0851 16.8417 19.9646 16.6918 19.7953 16.6641C17.8982 16.3524 17.0357 14.4229 16.9874 14.3105Z" fill="white"/>
<path d="M7.52126 12.7045C7.65349 12.6271 7.80549 12.5849 7.94972 12.5849C8.03909 12.5849 8.12103 12.6014 8.19234 12.6345C8.43497 12.7478 8.64926 12.8053 8.82983 12.8053C8.94194 12.8053 9.01749 12.7826 9.06469 12.7613C9.05829 12.6558 9.05166 12.5473 9.0448 12.4441V12.4428C9.03874 12.3492 9.03292 12.2528 9.0272 12.1554C8.98046 12.1713 8.91623 12.1848 8.82983 12.1848C8.64926 12.1848 8.43497 12.1274 8.19234 12.0141C8.12103 11.9808 8.03909 11.9644 7.94972 11.9644C7.80549 11.9644 7.65349 12.0066 7.52126 12.0839C7.35486 12.1813 7.24766 12.3185 7.21863 12.471C7.20286 12.554 7.20286 12.7045 7.32674 12.8677C7.37703 12.8063 7.44229 12.7508 7.52126 12.7045Z" fill="white"/>
<path d="M9.22795 9.55575C9.4459 9.06775 9.73961 8.64764 10.0995 8.30672C10.4017 8.02055 10.7529 7.78832 11.1427 7.61678C11.8251 7.31632 12.4613 7.27141 12.7788 7.27141C12.7915 7.27141 12.9364 7.26981 13.0245 7.26912C13.0355 7.26889 13.0468 7.26889 13.0596 7.26889H13.0601C13.378 7.26889 14.0138 7.31347 14.6954 7.61152C15.087 7.78318 15.4392 8.01495 15.7427 8.30147C16.1044 8.64329 16.3982 9.06455 16.6172 9.55427C16.7717 9.89952 16.8334 10.3587 16.8496 10.8502C16.8694 10.1374 16.8356 9.42192 16.6172 8.93392C16.3982 8.44421 16.1044 8.02295 15.7427 7.68112C15.4392 7.39461 15.087 7.16284 14.6954 6.99107C14.0138 6.69301 13.3781 6.64844 13.0601 6.64844H13.0596C13.0469 6.64844 13.0355 6.64844 13.0245 6.64878C12.9364 6.64947 12.7915 6.65095 12.7788 6.65095C12.4613 6.65095 11.825 6.69575 11.1427 6.99632C10.7529 7.16775 10.4017 7.39998 10.0995 7.68627C9.73961 8.02707 9.4459 8.44729 9.22795 8.93529C9.00955 9.42364 8.97573 10.14 8.99561 10.8532C9.01161 10.3615 9.07333 9.90147 9.22795 9.55575Z" fill="white"/>
<path d="M19.7952 16.6641C17.8827 16.3498 17.0212 14.39 16.9858 14.3071C16.9832 14.3014 16.9803 14.2959 16.9776 14.2905C16.88 14.0928 16.8577 13.9292 16.9104 13.8046C17.0148 13.5593 17.4156 13.4326 17.6801 13.3486C17.7573 13.3246 17.8296 13.3015 17.89 13.2782C18.1507 13.1752 18.3375 13.0636 18.4605 12.9369C18.6079 12.7862 18.6361 12.6415 18.6343 12.5468C18.6297 12.3179 18.4544 12.1143 18.1748 12.0146C18.0809 11.9754 17.9725 11.9552 17.8636 11.9552C17.789 11.9552 17.6786 11.9654 17.5741 12.0142C17.3501 12.1185 17.1493 12.1754 16.9775 12.1838C16.8867 12.179 16.8223 12.159 16.7803 12.1403C16.7852 12.0508 16.7912 11.9593 16.7976 11.8636L16.7997 11.8228C16.8611 10.8546 16.9375 9.64958 16.6171 8.93392C16.3981 8.44421 16.1043 8.02295 15.7426 7.68112C15.4391 7.39461 15.0869 7.16284 14.6953 6.99107C14.0137 6.69301 13.378 6.64844 13.06 6.64844H13.0595C13.0468 6.64844 13.0354 6.64844 13.0244 6.64878C12.9363 6.64947 12.7914 6.65095 12.7787 6.65095C12.4612 6.65095 11.8249 6.69575 11.1426 6.99632C10.7528 7.16775 10.4016 7.39998 10.0994 7.68627C9.73951 8.02707 9.4458 8.44729 9.22785 8.93529C8.90797 9.65049 8.98385 10.8546 9.04477 11.8224V11.8236C9.05162 11.927 9.05825 12.0354 9.06465 12.1408C9.01745 12.1622 8.94202 12.1848 8.82979 12.1848C8.64922 12.1848 8.43494 12.1274 8.19231 12.014C8.121 11.9808 8.03905 11.9643 7.94968 11.9643C7.80545 11.9643 7.65345 12.0066 7.52122 12.0839C7.35482 12.1812 7.24762 12.3185 7.21859 12.471C7.19951 12.5716 7.20042 12.7713 7.42214 12.973C7.54431 13.0839 7.72385 13.1864 7.95517 13.2779C8.01597 13.3012 8.08774 13.3244 8.16465 13.3483C8.429 13.4323 8.83025 13.5592 8.93471 13.8048C8.98785 13.929 8.96522 14.0926 8.86751 14.2905C8.86477 14.2962 8.86191 14.3015 8.85974 14.307C8.83517 14.3638 8.60751 14.8788 8.13951 15.422C7.87425 15.7304 7.58157 15.9888 7.27037 16.1887C6.89105 16.4337 6.48031 16.5936 6.04957 16.6642C5.88054 16.6918 5.76008 16.8422 5.76957 17.0128C5.77197 17.0616 5.78408 17.1106 5.80374 17.1582L5.80419 17.1593C5.87288 17.3184 6.03139 17.4537 6.28854 17.5734C6.60385 17.719 7.07402 17.8417 7.68785 17.938C7.71882 17.9964 7.75117 18.1443 7.77334 18.2454C7.79654 18.3528 7.82111 18.4632 7.85574 18.5807C7.89288 18.7079 7.99025 18.8599 8.23905 18.8599C8.33357 18.8599 8.4426 18.839 8.56808 18.8144C8.75197 18.7783 9.0042 18.7289 9.3186 18.7289C9.49242 18.7289 9.67391 18.7443 9.85562 18.7745C10.2064 18.8324 10.5081 19.0455 10.858 19.2921C11.37 19.6531 11.949 20.0611 12.8345 20.0611C12.8586 20.0611 12.8828 20.0607 12.9067 20.0586C12.9359 20.06 12.9722 20.0611 13.0104 20.0611C13.8959 20.0611 14.4752 19.6527 14.9864 19.2921L14.9873 19.2914C15.3368 19.0452 15.6389 18.8326 15.9892 18.7746C16.1709 18.7444 16.3519 18.729 16.5264 18.729C16.8266 18.729 17.0643 18.7672 17.2769 18.8086C17.4154 18.8358 17.5231 18.8489 17.6058 18.8489H17.614H17.6221C17.8043 18.8489 17.9384 18.7491 17.9897 18.5745C18.0233 18.4595 18.0479 18.3514 18.0715 18.2424C18.0924 18.1479 18.1257 17.9961 18.1565 17.9363C18.7708 17.8402 19.241 17.718 19.5563 17.572C19.8131 17.4531 19.9712 17.3178 20.0396 17.1593C20.0608 17.1118 20.0723 17.0624 20.0753 17.0122C20.085 16.8418 19.9645 16.6919 19.7952 16.6641Z" stroke="#33363A" stroke-width="0.342857" stroke-miterlimit="10" stroke-linecap="round" stroke-linejoin="round"/>
<path d="M8.34217 17.3931C8.34217 17.3931 7.65577 17.7975 7.74126 18.105" stroke="#33363A" stroke-width="0.342857" stroke-miterlimit="10" stroke-linecap="round" stroke-linejoin="round"/>
<path d="M9.55929 15.1514C9.55929 15.1514 9.85266 14.0402 8.5498 13.489" stroke="#33363A" stroke-width="0.342857" stroke-miterlimit="10" stroke-linecap="round" stroke-linejoin="round"/>
<path d="M9.18799 15.9833L9.30079 15.8423" stroke="#33363A" stroke-width="0.342857" stroke-miterlimit="10" stroke-linecap="round" stroke-linejoin="round"/>
<path d="M17.4773 17.3931C17.4773 17.3931 18.1637 17.7975 18.0782 18.105" stroke="#33363A" stroke-width="0.342857" stroke-miterlimit="10" stroke-linecap="round" stroke-linejoin="round"/>
<path d="M16.2602 15.1514C16.2602 15.1514 15.9668 14.0402 17.2697 13.489" stroke="#33363A" stroke-width="0.342857" stroke-miterlimit="10" stroke-linecap="round" stroke-linejoin="round"/>
<path d="M16.6315 15.9833L16.5188 15.8423" stroke="#33363A" stroke-width="0.342857" stroke-miterlimit="10" stroke-linecap="round" stroke-linejoin="round"/>
<path d="M17.7932 7.51735L17.9418 7.3689" stroke="#33363A" stroke-width="0.342857" stroke-miterlimit="10" stroke-linecap="round" stroke-linejoin="round"/>
<path d="M18.2639 7.04639L18.2571 7.05302" stroke="#33363A" stroke-width="0.342857" stroke-miterlimit="10" stroke-linecap="round" stroke-linejoin="round"/>
<path d="M16.4067 6.60485V6.39502" stroke="#33363A" stroke-width="0.342857" stroke-miterlimit="10" stroke-linecap="round" stroke-linejoin="round"/>
<path d="M16.4067 5.93848L16.4069 5.94831" stroke="#33363A" stroke-width="0.342857" stroke-miterlimit="10" stroke-linecap="round" stroke-linejoin="round"/>
<path d="M18.7056 8.90381H18.9157" stroke="#33363A" stroke-width="0.342857" stroke-miterlimit="10" stroke-linecap="round" stroke-linejoin="round"/>
<path d="M19.3721 8.90381H19.3625" stroke="#33363A" stroke-width="0.342857" stroke-miterlimit="10" stroke-linecap="round" stroke-linejoin="round"/>
<path d="M8.05214 7.53799L7.90356 7.38965" stroke="#33363A" stroke-width="0.342857" stroke-miterlimit="10" stroke-linecap="round" stroke-linejoin="round"/>
<path d="M7.5813 7.06689L7.58793 7.07387" stroke="#33363A" stroke-width="0.342857" stroke-miterlimit="10" stroke-linecap="round" stroke-linejoin="round"/>
<path d="M7.13929 8.92432H6.92969" stroke="#33363A" stroke-width="0.342857" stroke-miterlimit="10" stroke-linecap="round" stroke-linejoin="round"/>
<path d="M6.47314 8.92456H6.48286" stroke="#33363A" stroke-width="0.342857" stroke-miterlimit="10" stroke-linecap="round" stroke-linejoin="round"/>
<path d="M9.43848 6.6257V6.41553" stroke="#33363A" stroke-width="0.342857" stroke-miterlimit="10" stroke-linecap="round" stroke-linejoin="round"/>
<path d="M9.43848 5.95923V5.96906" stroke="#33363A" stroke-width="0.342857" stroke-miterlimit="10" stroke-linecap="round" stroke-linejoin="round"/>
</g>
</g>
<defs>
<clipPath id="clip0_518_2900">
<rect width="26.0775" height="26.0775" fill="white" transform="translate(0.155029)"/>
</clipPath>
<clipPath id="clip1_518_2900">
<rect width="16" height="16" fill="white" transform="translate(4.92261 5)"/>
</clipPath>
</defs>
</svg>
