<svg width="27" height="27" viewBox="0 0 27 27" fill="none" xmlns="http://www.w3.org/2000/svg">
<g clip-path="url(#clip0_230_2005)">
<path d="M1.7069 1.77479C-0.342351 3.90337 0.0770613 6.1645 0.0770613 13.0337C0.0770613 18.7382 -0.918229 24.4568 4.29074 25.803C5.91733 26.2213 20.3295 26.2213 21.9539 25.8008C24.1227 25.2413 25.8872 23.4821 26.1284 20.4147C26.1621 19.9866 26.1621 6.08844 26.1274 5.65164C25.8709 2.38435 23.8597 0.501343 21.2096 0.11996C20.6022 0.0319489 20.4805 0.00587142 17.3642 0.000438616C6.31066 0.00587142 3.88763 -0.486341 1.7069 1.77479Z" fill="#2CA7E0"/>
<path d="M21.2353 8.22905C20.6616 8.48982 19.775 8.80275 19.1491 8.90706C19.8272 8.48982 20.453 7.55103 20.7138 6.82087C20.1922 7.1338 19.6185 7.55103 19.0448 7.75965L18.6276 7.34241C18.0539 6.71656 17.4802 6.29932 16.5414 6.29932C14.7681 6.29932 13.4121 7.65534 13.4121 9.42861C13.4121 9.63723 13.4121 9.7937 13.4643 9.95016H13.4121C10.2828 9.95016 8.19661 9.27215 6.63197 7.34241C6.37119 7.81181 6.11042 8.33336 6.11042 8.90706C6.11042 10.0023 6.78843 10.9411 7.67506 11.5148C7.15352 11.5148 6.52766 11.254 6.11042 10.9933C6.11042 12.5579 8.30092 14.3312 9.76126 14.6441C9.23971 15.1657 7.36213 14.6963 7.15352 14.6441C7.57075 15.8958 8.87463 16.6781 10.2828 16.7303C9.18756 17.5648 7.88368 18.0342 6.37119 18.0342C6.11042 18.0342 5.84964 18.0342 5.58887 17.982C6.99705 18.8687 8.97894 19.338 10.8044 19.338C16.6979 19.338 19.6707 14.6963 19.6707 10.4717C19.6707 10.3152 19.6707 10.1066 19.6707 9.95016C20.2966 9.48077 20.8181 8.85491 21.2353 8.22905Z" fill="white"/>
</g>
<defs>
<clipPath id="clip0_230_2005">
<rect width="26.0775" height="26.0775" fill="white" transform="translate(0.0773926)"/>
</clipPath>
</defs>
</svg>
