<svg width="16" height="17" viewBox="0 0 16 17" fill="none" xmlns="http://www.w3.org/2000/svg">
<path d="M4.025 12.6249C3.9 12.5999 3.8 12.5749 3.675 12.5249C3.55 12.4749 3.45 12.4499 3.35 12.3999C3.125 12.2999 2.925 12.1749 2.725 12.0249C2.325 11.7499 2 11.3749 1.75 10.9249C1.5 10.4999 1.35 9.9999 1.325 9.5249C1.3 9.2749 1.325 9.0499 1.35 8.7999C1.375 8.6749 1.4 8.5749 1.425 8.4499C1.45 8.3249 1.5 8.2249 1.525 8.0999L1.55 8.4499C1.55 8.5749 1.575 8.6749 1.6 8.7999C1.625 9.0249 1.675 9.2499 1.725 9.4499C1.825 9.8749 1.975 10.2749 2.2 10.6499C2.425 11.0249 2.675 11.3749 3 11.6999C3.15 11.8499 3.325 11.9999 3.5 12.1499C3.575 12.2249 3.675 12.2999 3.775 12.3749L4.025 12.6249ZM3.95 13.5249C3.875 13.5749 3.775 13.5999 3.675 13.6249C3.575 13.6499 3.5 13.6749 3.4 13.6749C3.225 13.6999 3.025 13.7249 2.825 13.6999C2.45 13.6749 2.05 13.5749 1.725 13.3999C1.375 13.2249 1.075 12.9499 0.875 12.6249C0.775 12.4749 0.675 12.2999 0.6 12.1249C0.575 12.0499 0.55 11.9499 0.525 11.8499C0.525 11.7749 0.5 11.6999 0.5 11.5999C0.575 11.6749 0.625 11.7499 0.675 11.7999C0.75 11.8749 0.8 11.9499 0.85 11.9999C0.975 12.1249 1.075 12.2499 1.2 12.3499C1.45 12.5749 1.7 12.7749 2 12.9249C2.275 13.0749 2.6 13.1999 2.9 13.2999C3.05 13.3499 3.225 13.3749 3.4 13.4249C3.475 13.4499 3.575 13.4499 3.65 13.4749C3.775 13.4999 3.85 13.4999 3.95 13.5249ZM9.6 1.3749C9.725 1.3999 9.825 1.4499 9.95 1.4999C10.075 1.5499 10.175 1.5999 10.275 1.6499C10.5 1.7749 10.7 1.8999 10.9 2.0499C11.3 2.3499 11.625 2.7499 11.85 3.1999C12.075 3.6499 12.2 4.1499 12.2 4.6249C12.2 4.8749 12.175 5.0999 12.125 5.3499C12.1 5.4749 12.075 5.5749 12.025 5.6999C11.975 5.8249 11.95 5.9249 11.9 6.0249L11.875 5.6749C11.875 5.5499 11.875 5.4499 11.85 5.3249L11.775 4.6499C11.7 4.2249 11.55 3.7999 11.35 3.3999C11.15 2.9999 10.9 2.6499 10.6 2.3249C10.45 2.1499 10.275 1.9999 10.125 1.8249C10.05 1.7499 9.95 1.6749 9.85 1.5999L9.6 1.3749ZM11.775 1.2749C11.875 1.2999 11.95 1.3249 12.025 1.3749C12.1 1.3999 12.2 1.4499 12.275 1.4999C12.425 1.5999 12.575 1.6999 12.725 1.8249C13 2.0749 13.225 2.3749 13.35 2.7249C13.5 3.0749 13.55 3.4499 13.5 3.8249C13.475 3.9999 13.425 4.1749 13.375 4.3499C13.35 4.4249 13.3 4.5249 13.275 4.5999C13.225 4.6749 13.2 4.7499 13.125 4.8249V4.3249C13.125 4.1499 13.1 3.9999 13.1 3.8499C13.05 3.5249 13 3.2249 12.875 2.9499C12.75 2.6499 12.6 2.3999 12.425 2.1249C12.325 1.9999 12.225 1.8499 12.125 1.7249C12.075 1.6499 12.025 1.5999 11.95 1.5249C11.9 1.3999 11.825 1.3249 11.775 1.2749Z" fill="#6CBC96"/>
<path d="M2.5 4.99989C2 5.22489 1.825 5.82489 2.05 6.32489L5.2 12.8999L6.95 12.0749L3.8 5.47489C3.575 4.97489 3 4.74989 2.5 4.99989ZM10.775 10.2249L12.625 9.34989L9.025 1.84989C8.775 1.34989 8.175 1.12489 7.65 1.37489C7.15 1.62489 6.925 2.22489 7.175 2.74989L10.775 10.2249Z" fill="#FFDD67"/>
<path d="M7.675 1.34993C7.625 1.37493 7.575 1.39993 7.525 1.44993C8 1.32493 8.5 1.54993 8.725 1.99993L12.325 9.49993L12.65 9.34993L9.05 1.84993C8.8 1.32493 8.2 1.09993 7.675 1.34993Z" fill="#EBA352"/>
<path d="M6.95 12.0499L8.875 11.1249L5.2 3.4749C4.95 2.9499 4.3 2.6999 3.775 2.9499C3.25 3.1999 3.025 3.8499 3.275 4.3749L6.95 12.0499Z" fill="#FFDD67"/>
<path d="M3.775 2.97489C3.725 2.99989 3.675 3.0249 3.625 3.0749C4.1 2.9499 4.65 3.1749 4.875 3.6499L7.15 8.4249L7.7 8.7499L5.2 3.4999C4.95 2.9499 4.325 2.72489 3.775 2.97489Z" fill="#EBA352"/>
<path d="M8.575 10.5249L10.5 9.59992L6.825 1.94992C6.575 1.42492 5.925 1.17492 5.4 1.44992C4.875 1.69992 4.65 2.34992 4.9 2.87492L8.575 10.5249Z" fill="#FFDD67"/>
<path d="M5.4 1.42509C5.35 1.45009 5.3 1.50009 5.25 1.52509C5.725 1.40009 6.275 1.62509 6.5 2.10009L9.075 7.50009L9.625 7.82509L6.825 1.95009C6.575 1.40009 5.925 1.17509 5.4 1.42509ZM2.5 5.00009C2.45 5.02509 2.4 5.05009 2.35 5.10009C2.8 4.97509 3.275 5.20009 3.475 5.65009L5.35 9.57509L5.9 9.90009L3.8 5.50009C3.575 4.97509 3 4.75009 2.5 5.00009Z" fill="#EBA352"/>
<path d="M15.2 4.24998C14.525 3.72498 13.425 4.29998 12.875 6.09998C12.5 7.34998 12.45 7.72498 11.65 8.09998L11.2 7.17498C11.2 7.17498 4.1 10.6 4.375 11.15C4.375 11.15 5.225 13.8 6.675 15.025C8.825 16.875 13.85 14.9 14.075 10.125C14.2 7.34998 15.925 4.82498 15.2 4.24998Z" fill="#FFDD67"/>
<path d="M15.2 4.24995C15.075 4.14995 14.925 4.09995 14.775 4.07495C14.8 4.09995 14.85 4.09995 14.875 4.12495C15.625 4.69995 14.85 6.02495 14.425 7.22495C14.075 8.17495 13.775 9.14995 13.825 10.1C14.025 14.25 9.85 16.225 7.35 15.475C9.8 16.5 14.35 14.55 14.15 10.225C14.1 9.27495 14.375 8.34995 14.75 7.34995C15.15 6.14995 15.925 4.82495 15.2 4.24995Z" fill="#EBA352"/>
<path d="M11.875 8C10.325 8.175 8.05 10.4 9.65 12.825C8.475 10.375 10.4 8.725 11.625 8.15C11.75 8.05 11.875 8 11.875 8Z" fill="#EBA352"/>
</svg>
